<?xml version="1.0" encoding="utf-8"?>
<!-- Generator: Adobe Illustrator 23.0.2, SVG Export Plug-In . SVG Version: 6.00 Build 0)  -->
<svg version="1.1" xmlns="http://www.w3.org/2000/svg" xmlns:xlink="http://www.w3.org/1999/xlink" x="0px" y="0px"
	 viewBox="0 0 1080 1080" style="enable-background:new 0 0 1080 1080;" xml:space="preserve">
<style type="text/css">
	.st0{fill:#FFECDD;}
	.st1{fill:#F8BAB4;}
	.st2{fill:#EC9A4A;}
	.st3{fill:#0D4D90;}
	.st4{fill:#FFFFFF;}
</style>
<g id="background">
	<path class="st0" d="M516.75,806.65c46.12,25.24,71.05,53.09-0.83,94.95c-55.73,32.45-154.51,19.99-228.2-68.65
		C167.21,688,191.52,502,311.94,484.44C418.01,468.97,464.01,577,444.1,640.98C420.65,716.34,455.58,773.17,516.75,806.65z"/>
</g>
<g id="Layer_1">
	<g>
		<path class="st1" d="M757.52,266.06c0,0,8.78,0.94,15.18-2.46c9.74-5.16,16.26-15.97,16.26-15.97l5.45,28.62
			c0,0-5.11,2.45-14.19,2.28c-11.83-0.22-22.15-8.68-22.15-8.68L757.52,266.06z"/>
		<path class="st2" d="M761.82,289.26l-4.98,2.57l-1.06,5.74c0,0-13.36,0.45-17.89-0.23c-4.53-0.68-7.93-1.13-7.93-1.13l-2.04,5.96
			c0,0-8.15,2.72-14.72,6.79c-6.57,4.08-12.76,10.19-14.72,16.53c-1.96,6.34-6.79,22.2-8.98,36.39
			c-2.19,14.19-9.21,48.09-9.51,52.85c-0.3,4.76-0.75,12.83-0.75,12.83s14.34,4.3,18.19,6.42c3.85,2.11,9.44,5.96,9.44,5.96
			s7.47-5.89,21.74-7.25c14.27-1.36,22.65-0.91,35.26,2.34s13.74,5.59,15.25,5.21c1.51-0.38,4.76,5.96,5.06,10.72
			c0.13,2-0.87,5.02-0.58,7.88c0.06,0.61-21.12-9.66-24.99-7.33c0,0,30.36,12.62,72.98,74.98c13.31,19.48,10.95,36.44,18.87,36.58
			c9.46,0.17,35.25-9.76,44.94-29.38c9.83-19.93,6.63-50.99,7.59-51.54c4.72-2.72,6.72-16.82,7.26-21s1.6-36.96,0.1-50.4
			c-1.49-13.44-7.17-28.38-12.55-47.34c-5.38-18.97-11.05-32.86-16.58-40.32c-5.53-7.47-13.14-16.13-28.68-21.66
			c-15.53-5.53-54.66-15.08-54.66-15.08s-3.54,5.07-13.74,6.72C769.35,295.45,761.82,289.26,761.82,289.26z"/>
		<g>
			<path class="st3" d="M570.02,672.56c-4.57,5.52-8.97,11.17-13.18,16.97c-1.43,1.96-2.82,3.95-4.23,5.92
				c-0.58,0.82-2.52,2.7-1.41,2.59c-1.68,0.17-1.7,2.83,0,2.66c2.1-0.21,3.98-4.29,5-5.72c5-7.03,10.2-13.89,15.71-20.53
				C572.98,673.14,571.11,671.25,570.02,672.56L570.02,672.56z"/>
		</g>
		<g>
			<path class="st3" d="M538.35,664.37c-3.38,5.95-6.55,12-9.53,18.16c-0.94,1.95-2.29,7.08-4.14,8.34
				c-1.4,0.96-0.07,3.27,1.34,2.29c2.05-1.41,3.11-5.18,4.12-7.27c3.29-6.84,6.75-13.59,10.5-20.19
				C541.49,664.22,539.19,662.88,538.35,664.37L538.35,664.37z"/>
		</g>
		<g>
			<g>
				<path class="st3" d="M553,728.3c3.18-7.44,0.94-16.18,0.91-24c-0.01-3-0.42-3.29-2.85-4.8c-3.3-2.06-6.41-4.26-10.16-5.49
					c-4.38-1.45-9.02-1.89-13.5-2.88c-3.47-0.77-7.77-3.13-11.17-1.03c-6.11,3.78-4.28,13.66-7.35,19.15
					c-3.07,5.49-7.27,10.54-10.77,15.76c-4.98,7.43-9.84,14.99-14.01,22.91c-3.8,7.21-8.75,15.63-7.42,24.11
					c1.01,6.5,5.8,10.56,11.71,13.03c9.9,4.15,17.31-3.95,23.83-10.3c3.25-3.16,6.61-6.57,9.03-10.44c0.93-1.49-1.42-2.85-2.35-1.37
					c-1.28,2.05-2.92,3.9-4.53,5.68c-1.78,1.96-3.65,3.84-5.59,5.65c-3.25,3.04-7.41,7.58-11.68,8.96
					c-6.86,2.22-16.45-4.45-17.69-11.18c-1.5-8.11,3.71-16.5,7.37-23.38c6.13-11.51,13.6-22.29,21.01-33
					c2.01-2.9,4.14-5.57,5.03-9.04c0.84-3.24,0.96-6.68,2.12-9.84c0.37-1.02,1.25-3.23,2.1-3.78c1.05-0.68,4.68-0.42,5.86-0.23
					c2.02,0.33,4.05,1.05,6.07,1.43c3.75,0.72,7.58,1.22,11.21,2.42c2.83,0.94,4.8,2.38,7.23,3.96c0.81,0.53,2.11,0.85,2.77,1.48
					c2.31,2.22,1.26,9.61,1.47,12.73c0.28,4.07,0.65,8.28-1,12.13C549.97,728.52,552.31,729.91,553,728.3L553,728.3z"/>
			</g>
			<g>
				<path class="st3" d="M531.86,711.82c-4.86-0.56-9.32-2.3-13.36-5.05c-1.45-0.99-2.81,1.37-1.37,2.35
					c4.45,3.04,9.38,4.81,14.73,5.42C533.6,714.74,533.58,712.02,531.86,711.82L531.86,711.82z"/>
			</g>
			<g>
				<path class="st3" d="M525.79,719.14c-4.07-1.13-7.69-3.11-10.82-5.95c-1.29-1.17-3.22,0.74-1.92,1.92
					c3.47,3.15,7.51,5.39,12.02,6.65C526.76,722.23,527.48,719.61,525.79,719.14L525.79,719.14z"/>
			</g>
			<g>
				<path class="st3" d="M521.77,726.56c-1.81-0.42-3.58-0.97-5.27-1.76c-0.74-0.34-1.46-0.72-2.16-1.13
					c-0.29-0.17-1.92-0.96-2-1.17c-0.12,0.44-0.23,0.88-0.35,1.32c0.06-0.06,0.12-0.13,0.17-0.19c-0.44,0.12-0.88,0.23-1.32,0.35
					c0.07,0.03,0.13,0.06,0.2,0.08c1.61,0.67,2.32-1.96,0.72-2.62c-0.07-0.03-0.13-0.06-0.2-0.08c-0.41-0.17-1.04,0.03-1.32,0.35
					c-0.06,0.06-0.12,0.13-0.17,0.19c-0.3,0.34-0.52,0.86-0.35,1.32c0.64,1.7,2.96,2.68,4.47,3.47c2.17,1.13,4.47,1.94,6.86,2.49
					C522.76,729.57,523.48,726.95,521.77,726.56L521.77,726.56z"/>
			</g>
			<g>
				<path class="st3" d="M516.92,734.69c-1.89-0.1-3.72-0.4-5.53-0.95c-0.89-0.27-4.64-1.28-4.95-2.26
					c-0.12,0.44-0.23,0.88-0.35,1.32c0.07-0.08,0.15-0.15,0.22-0.23c1.22-1.26-0.7-3.19-1.92-1.92c-0.07,0.08-0.15,0.15-0.22,0.23
					c-0.33,0.34-0.49,0.86-0.35,1.32c0.62,2,3.18,2.79,4.96,3.5c2.61,1.04,5.34,1.55,8.14,1.71
					C518.67,737.51,518.66,734.79,516.92,734.69L516.92,734.69z"/>
			</g>
		</g>
		<g>
			<path class="st3" d="M741.34,185.66c-3.65,13.77-5.59,27.98-4.47,42.26c0.97,12.38,4.06,27.7,14.5,35.54
				c9.61,7.22,22.12,2.35,30.37-4.93c4.8-4.23,8.25-9.7,11.57-15.1c1.72-2.79,4.4-6.1,5.29-9.35c0.43-1.55-1.99-2.22-2.41-0.66
				c-0.63,2.31-2.64,4.79-3.84,6.79c-3.01,4.98-6.03,10.07-10.05,14.3c-4.14,4.35-9.33,7.53-15.08,9.25
				c-7.35,2.21-13.4-0.36-18.45-5.9c-4.11-4.5-5.93-11.81-7.39-17.63c-1.56-6.24-2.27-12.67-2.26-19.1
				c0.01-11.92,1.58-23.3,4.64-34.8C744.16,184.77,741.75,184.11,741.34,185.66L741.34,185.66z"/>
		</g>
		<g>
			<path class="st3" d="M754.42,246.25c4.34-0.27,8.68-0.54,13.02-0.82c1.6-0.1,1.61-2.6,0-2.5c-4.34,0.27-8.68,0.54-13.02,0.82
				C752.83,243.85,752.82,246.35,754.42,246.25L754.42,246.25z"/>
		</g>
		<g>
			<path class="st3" d="M758.88,216.96c-0.24,2.36-0.33,4.71-0.28,7.09c0.42-0.42,0.83-0.83,1.25-1.25
				c-2.96,0.15-6.76,2.21-5.26,5.73c1.06,2.48,4.49,3.08,6.84,2.36c1.53-0.47,0.88-2.88-0.66-2.41c-0.85,0.26-1.89,0.29-2.73-0.04
				c-0.9-0.36-1.77-1.01-0.89-2.24c0.49-0.69,1.97-0.87,2.7-0.91c0.66-0.03,1.27-0.55,1.25-1.25c-0.05-2.37,0.04-4.72,0.28-7.09
				C761.54,215.36,759.04,215.37,758.88,216.96L758.88,216.96z"/>
		</g>
		<g>
			<path class="st3" d="M769.45,214.34c3.62,1.58,7.61,1.37,10.94-0.83c1.34-0.88,0.09-3.05-1.26-2.16
				c-2.53,1.67-5.6,2.06-8.41,0.83C769.25,211.54,767.98,213.7,769.45,214.34L769.45,214.34z"/>
		</g>
		<g>
			<path class="st3" d="M750.55,212.82c-2.12,0.68-5.27,0.72-7.07-0.83c-1.21-1.05-2.99,0.71-1.77,1.77
				c2.49,2.15,6.47,2.45,9.51,1.48C752.75,214.74,752.09,212.32,750.55,212.82L750.55,212.82z"/>
		</g>
		<g>
			<path class="st3" d="M798.56,288.42c17.51,4.57,35.41,7.83,52.41,14.2c7.96,2.98,15.38,6.23,21.45,12.33
				c4.99,5.01,8.88,11.03,12.18,17.26c6.88,12.99,11.3,27.13,15.55,41.14c4.7,15.51,9.1,30.58,9.77,46.89
				c0.43,10.36,0.54,20.78-0.1,31.13c-0.65,10.61-1.07,23.42-9.48,31.07c-1.19,1.08,0.58,2.85,1.77,1.77
				c5.96-5.42,7.98-12.9,9.03-20.64c1.4-10.3,1.69-20.7,1.57-31.08c-0.2-17.86-2.41-34.27-7.58-51.36
				c-4.54-15.01-8.89-30.18-15.52-44.44c-5.69-12.25-13.6-25.09-26.03-31.43c-20.01-10.2-42.84-13.66-64.36-19.27
				C797.67,285.6,797,288.02,798.56,288.42L798.56,288.42z"/>
		</g>
		<g>
			<path class="st3" d="M767.75,453.9c24.07,8.78,46.43,21.66,70.84,29.58c20.31,6.59,43.24,10.71,63.26,1.06
				c1.45-0.7,0.18-2.85-1.26-2.16c-20.9,10.07-45.18,4.38-66.02-2.89c-22.65-7.9-43.63-19.79-66.16-28
				C766.9,450.94,766.24,453.36,767.75,453.9L767.75,453.9z"/>
		</g>
		<g>
			<path class="st3" d="M769.61,451.78c-6.06-2.61-12.86-2.48-19.27-1.43c-3.75,0.62-7.47,1.62-10.96,3.15
				c-3.19,1.4-6.98,4.56-10.64,2.41c-1.39-0.82-2.65,1.34-1.26,2.16c5.31,3.12,10.73-1.63,15.54-3.31
				c7.68-2.69,17.62-4.14,25.32-0.82C769.81,454.57,771.08,452.42,769.61,451.78L769.61,451.78z"/>
		</g>
		<g>
			<path class="st3" d="M728.4,455.81c-1.53-1.35-2.04-3.26-2.46-5.17c-0.18-0.79-1.17-1.15-1.84-0.75
				c-2.08,1.25-4.15,2.53-6.25,3.75c-0.84,0.52-1.7,1-2.58,1.46c-3.08,1.96-5.57,0.78-7.47-3.53c0.31-0.59,0.17-1.36-0.45-1.71
				c-1.04-0.59-3.9-1.62-4.5-2.76c-1.35-2.55,1.86-4.41,3.37-5.43c3.38-2.28,7.23-3.93,10.98-5.51c1.46-0.61,0.82-3.04-0.66-2.41
				c-5.08,2.14-12.79,4.61-15.91,9.63c-2.79,4.48,2.01,6.68,5.46,8.63c-0.15-0.57-0.3-1.14-0.45-1.71
				c-1.75,3.39-0.18,6.95,3.53,8.05c5.64,1.67,11.76-3.64,16.19-6.31c-0.61-0.25-1.22-0.5-1.84-0.75c0.52,2.32,1.28,4.66,3.1,6.27
				C727.84,458.64,729.61,456.88,728.4,455.81L728.4,455.81z"/>
		</g>
		<g>
			<path class="st3" d="M716.9,436.16c9.9-2.06,19.56-4.04,29.73-3.31c10.34,0.74,20.3,3.73,29.47,8.53
				c1.42,0.74,2.69-1.41,1.26-2.16c-9.05-4.73-18.81-7.75-28.98-8.72c-11.04-1.05-21.41,1.01-32.15,3.25
				C714.66,434.08,715.32,436.49,716.9,436.16L716.9,436.16z"/>
		</g>
		<g>
			<path class="st3" d="M777.81,438.41c4.15,6.04,6.31,13.26,5.11,20.58c-0.26,1.57,2.15,2.25,2.41,0.66
				c1.31-8-0.81-15.88-5.36-22.51C779.07,435.83,776.9,437.08,777.81,438.41L777.81,438.41z"/>
		</g>
		<g>
			<path class="st3" d="M779.05,438.82c16.14-3.86,32.7-5.94,49.31-5.77c15.06,0.16,30.21,2.56,43.18,10.64
				c1.37,0.85,2.63-1.31,1.26-2.16c-12.84-8-27.83-10.64-42.77-10.96c-17.37-0.37-34.77,1.8-51.65,5.83
				C776.82,436.78,777.48,439.19,779.05,438.82L779.05,438.82z"/>
		</g>
		<g>
			<path class="st3" d="M800.74,216.87c5.42-2.02,6.21,6.9,5.48,9.84c-0.41,1.64-1.14,3.24-2.08,4.65
				c-0.26,0.38-0.51,0.76-0.77,1.14c-1.05,2.1-2.58,2.62-4.59,1.56c0.08-1.61-2.42-1.6-2.5,0c-0.14,2.89,2.44,3.98,4.95,3.21
				c3.43-1.05,5.53-4.87,6.75-7.96c2.01-5.13,0.36-17.91-7.9-14.83C798.58,215.02,799.22,217.44,800.74,216.87L800.74,216.87z"/>
		</g>
		<g>
			<path class="st3" d="M720.28,214.07c-0.3-8.65,0.81-17.31,2.88-25.71c2-8.09,4.54-16.15,10.27-22.39
				c11.87-12.94,28.78-17.64,45.97-14.42c17.08,3.2,29.17,14.62,41.11,26.35c13.41,13.17,25.01,28.05,39.28,40.31
				c7.46,6.4,14.39,13.19,23.02,18.05c7.63,4.3,16.75,8.42,25.46,5.04c-0.47-0.61-0.94-1.22-1.41-1.84
				c-6.89,14.97-16.3,27.99-29.88,37.49c-9.96,6.96-20.92,12.29-30.51,19.82c-1.26,0.99,0.52,2.75,1.77,1.77
				c10.31-8.1,22.32-13.58,32.78-21.45c12.62-9.49,21.44-22.13,28-36.38c0.4-0.87-0.29-2.27-1.41-1.84
				c-10.15,3.94-21.71-3.07-29.87-8.78c-8.25-5.76-15.89-13.08-23.29-19.91c-7.6-7.01-13.9-15.32-21.02-22.8
				c-6.32-6.64-12.85-13.14-19.54-19.41c-11.37-10.65-24.66-18.57-40.52-19.7c-15.92-1.14-30.31,3.83-41.28,15.47
				c-5.66,6.01-8.47,13.38-10.63,21.25c-2.58,9.43-4.02,19.29-3.67,29.07C717.84,215.68,720.34,215.68,720.28,214.07L720.28,214.07z
				"/>
		</g>
		<g>
			<path class="st3" d="M785.9,472.52c11.55,10.03,21.85,21.59,31.02,33.82c9.48,12.64,18.37,26.48,23.4,41.56
				c1.03,3.08,1.85,6.2,2.44,9.39c0.48,2.54,0.77,5.04,3.35,6.23c5.71,2.63,15.3-0.22,20.77-2.32
				c12.49-4.79,23.49-14.27,29.15-26.47c7.48-16.15,8.81-34.86,8.62-52.4c-0.02-1.61-2.52-1.61-2.5,0
				c0.31,28.81-3.91,62.06-33.35,75.37c-5.86,2.65-21.86,8.43-23.63-1.07c-1.06-5.67-2.88-11.12-5.13-16.43
				c-5.63-13.27-13.61-25.51-22.34-36.93c-8.95-11.72-18.89-22.83-30.04-32.52C786.46,469.71,784.68,471.47,785.9,472.52
				L785.9,472.52z"/>
		</g>
		<g>
			<path class="st3" d="M583.85,667.04c24.85,8.58,48.27,22.32,67.44,40.36c0.67,0.63,1.85,0.39,2.09-0.55
				c8.01-32.1,22.47-62.79,36.06-92.84c12.81-28.34,27.07-56.3,36.1-86.16c0.47-1.54-1.95-2.2-2.41-0.66
				c-9.3,30.75-24.16,59.46-37.26,88.69c-13.11,29.27-27.11,59.09-34.9,90.3c0.7-0.18,1.39-0.37,2.09-0.55
				c-19.5-18.35-43.26-32.27-68.54-41C582.99,664.1,582.34,666.52,583.85,667.04L583.85,667.04z"/>
		</g>
		<g>
			<path class="st3" d="M720.37,541.45c10.39,5.87,20.83,11.71,32.09,15.78c12.72,4.6,26.26,6.94,39.77,7.31
				c10.81,0.3,21.73-0.66,32.29-3.01c6-1.33,12.56-2.94,17.83-6.25c1.36-0.86,0.1-3.02-1.26-2.16c-5.09,3.2-11.43,4.71-17.23,6
				c-10.36,2.3-21.03,3.21-31.63,2.93c-12.99-0.35-25.98-2.59-38.25-6.92c-11.37-4.01-21.88-9.92-32.35-15.83
				C720.23,538.5,718.97,540.66,720.37,541.45L720.37,541.45z"/>
		</g>
		<g>
			<path class="st3" d="M700.13,445.13c-6.13,1.48-12.12,3.76-17.09,7.75c-4.02,3.23-6.24,7.25-8.79,11.68
				c-9.2,15.96-17.62,32.36-25.56,48.98c-15.14,31.72-28.72,64.19-42.36,96.57c-7.74,18.36-15.42,36.75-23.23,55.08
				c-0.62,1.46,1.53,2.74,2.16,1.26c26.69-62.59,50.91-126.84,83.39-186.74c3.84-7.08,7.39-15.44,12.58-21.64
				c4.88-5.83,12.38-8.8,19.57-10.53C702.36,447.17,701.7,444.76,700.13,445.13L700.13,445.13z"/>
		</g>
		<g>
			<path class="st3" d="M707.11,437.73c-14.76-8.37-34.27-16.72-51.13-9.47c-6.51,2.8-11.06,7.72-15.05,13.43
				c-5.35,7.66-9.94,15.81-14.8,23.78c-24.68,40.43-43.9,83.53-64.25,126.2c-11.08,23.22-23.02,46.12-38.64,66.66
				c-0.5,0.65,0.04,1.65,0.75,1.84c18.06,4.79,35.72,11.07,53.79,15.86c1.56,0.41,2.22-2,0.66-2.41
				c-18.06-4.79-35.72-11.07-53.79-15.86c0.25,0.61,0.5,1.22,0.75,1.84c26.21-34.45,42.47-75.31,60.97-114.12
				c9.64-20.21,19.61-40.27,30.66-59.75c4.92-8.68,10.18-17.17,15.31-25.73c4.56-7.6,8.96-15.98,14.99-22.55
				c15.79-17.21,41.54-7.19,58.51,2.44C707.25,440.68,708.51,438.52,707.11,437.73L707.11,437.73z"/>
		</g>
		<g>
			<path class="st3" d="M743.8,187.19c11.25-6.87,32.8-9.34,39.73,5.27c2.34,4.93,2.36,10.68,4.94,15.65
				c2.18,4.22,5.81,9.43,11.16,9.01c1.59-0.12,1.61-2.62,0-2.5c-8.26,0.64-11.26-13.3-12.62-19.23c-1.12-4.92-3.83-8.4-7.94-11.41
				c-10.51-7.7-26.03-5.35-36.53,1.06C741.17,185.87,742.43,188.04,743.8,187.19L743.8,187.19z"/>
		</g>
		<g>
			<path class="st3" d="M671.92,188.91c3.15-2.47,6.3-4.95,9.45-7.42c-0.71-0.29-1.42-0.59-2.13-0.88
				c-0.32,3.99,0.44,7.57,2.25,11.13c0.28,0.55,1.19,0.84,1.71,0.45c4.09-3.06,7.37-6.69,9.92-11.11c0.81-1.4-1.35-2.66-2.16-1.26
				c-2.33,4.03-5.29,7.43-9.02,10.22c0.57,0.15,1.14,0.3,1.71,0.45c-1.62-3.17-2.19-6.32-1.91-9.87c0.1-1.21-1.38-1.48-2.13-0.88
				c-3.15,2.47-6.3,4.95-9.45,7.42C668.89,188.13,670.67,189.89,671.92,188.91L671.92,188.91z"/>
		</g>
		<g>
			<path class="st3" d="M607.11,258.73c3.57-3.76,7.66-6.53,12.5-8.39c-0.53-0.4-1.05-0.8-1.58-1.21c0.12,4.44-0.74,8.85-0.61,13.3
				c0.02,0.74,0.79,1.51,1.58,1.21c6.06-2.32,10.65-7.31,15.02-11.93c1.11-1.17-0.66-2.94-1.77-1.77
				c-4.03,4.26-8.32,9.14-13.91,11.28c0.53,0.4,1.05,0.8,1.58,1.21c-0.12-4.44,0.74-8.85,0.61-13.3c-0.02-0.74-0.79-1.51-1.58-1.21
				c-5.26,2.02-9.72,4.95-13.61,9.03C604.23,258.13,605.99,259.9,607.11,258.73L607.11,258.73z"/>
		</g>
		<g>
			<path class="st3" d="M693.85,282.88c3.57-3.76,7.66-6.53,12.5-8.39c-0.53-0.4-1.05-0.8-1.58-1.21c0.12,4.44-0.74,8.85-0.61,13.3
				c0.02,0.74,0.79,1.51,1.58,1.21c6.06-2.32,10.65-7.31,15.02-11.93c1.11-1.17-0.66-2.94-1.77-1.77
				c-4.03,4.26-8.32,9.14-13.91,11.28c0.53,0.4,1.05,0.8,1.58,1.21c-0.12-4.44,0.74-8.85,0.61-13.3c-0.02-0.74-0.79-1.51-1.58-1.21
				c-5.26,2.02-9.72,4.95-13.61,9.03C690.97,282.28,692.74,284.05,693.85,282.88L693.85,282.88z"/>
		</g>
		<g>
			<g>
				<g>
					<path class="st3" d="M577.04,686.47c-1.5,3.59-0.77,7.85,0.06,11.54c0.35,1.56,1.54,3.65,1.6,5.22
						c0.1,2.73-2.63,4.27-4.62,5.63c-8.56,5.84-16.05,12.89-24.13,19.39c-9.01,7.24-18.94,13.42-27.8,20.8
						c-5.56,4.63-8.49,11.73-1.49,16.53c1.48,1.02,2.87-1.39,1.4-2.4c-10.59-7.28,12.93-19.99,17.97-23.76
						c8.02-5.99,15.82-12.27,23.4-18.8c3.45-2.97,6.73-5.88,10.54-8.37c2.35-1.53,5.38-3.21,6.85-5.71
						c1.24-2.11,0.62-3.61-0.08-5.78c-1.33-4.12-2.75-9.39-1.02-13.54C580.41,685.56,577.72,684.84,577.04,686.47L577.04,686.47z"/>
				</g>
				<g>
					<path class="st3" d="M623.98,701.58c-2.56,1.02-6.56,2.94-9.38,2.68c-4.22-0.38-4.62-8.67-4.83-12.13
						c-0.28-4.39-0.23-8.16-5.23-9.25c-6.55-1.42-12.77,0.12-19.22,0.84c-3.47,0.39-6.84-0.48-8.28,3.42
						c-0.62,1.68,2.07,2.41,2.68,0.74c0.68-1.84,4.41-1.21,5.9-1.41c3.61-0.49,7.09-1.29,10.76-1.36c3.9-0.07,8.87-0.52,10.47,3.9
						c0.78,2.17,0.25,5.34,0.61,7.7c0.44,2.88,1.06,9.02,4.36,10.31c3.55,1.38,9.69-1.48,12.89-2.75
						C626.36,703.6,625.64,700.91,623.98,701.58L623.98,701.58z"/>
				</g>
			</g>
			<g>
				<path class="st3" d="M630.69,739.92c-19.27,8.46-38.11,17.95-58.09,24.69c-13.87,4.68-40.28,13.75-50.98-1.44
					c-1.02-1.45-3.44-0.06-2.4,1.4c10.77,15.29,34.67,8.81,49.32,4.28c21.99-6.8,42.54-17.3,63.56-26.53
					C633.73,741.6,632.32,739.2,630.69,739.92L630.69,739.92z"/>
			</g>
			<g>
				<path class="st3" d="M632.61,739.79c-2.68-9.94-6.08-20.15-5.03-30.57c0.32-3.13,0.5-10.13-4.77-7.21
					c-1.57,0.87-0.16,3.27,1.4,2.4c0.86-0.48,0.36,7.68,0.35,8.27c-0.03,2.88,0.27,5.75,0.71,8.59c1.01,6.52,2.94,12.89,4.65,19.25
					C630.39,742.26,633.08,741.52,632.61,739.79L632.61,739.79z"/>
			</g>
			<g>
				<path class="st3" d="M628.45,733.22c-16.61,8.89-33.92,16.39-51.81,22.28c-8.71,2.87-17.54,5.36-26.46,7.48
					c-8.99,2.13-18.95,4.87-27.67,0.45c-1.59-0.81-3,1.59-1.4,2.4c7.28,3.69,15.12,2.97,22.88,1.38c10.09-2.06,20.08-4.8,29.9-7.9
					c19.35-6.13,38.07-14.11,55.97-23.69C631.43,734.78,630.03,732.37,628.45,733.22L628.45,733.22z"/>
			</g>
			<g>
				<path class="st3" d="M593.41,705.66c-2.19,0.41-4.41,0.56-6.63,0.4c-1.47-0.11-3.29-0.88-4.63-0.01
					c-0.49,0.32-0.85,0.98-0.64,1.57c0.24,0.68,0.57,1.08,1.29,1.24c0.54,0.13,1.32-0.07,1.57-0.64c0.02-0.05,0.04-0.1,0.07-0.15
					c0.71-1.62-1.69-3.04-2.4-1.4c-0.02,0.05-0.04,0.1-0.07,0.15c0.52-0.21,1.05-0.43,1.57-0.64c-0.08-0.02-0.16-0.04-0.25-0.06
					c0.32,0.32,0.65,0.65,0.97,0.97c-0.03-0.07-0.05-0.14-0.08-0.22c-0.21,0.52-0.43,1.05-0.64,1.57c0.29-0.19,2.03,0.29,2.44,0.33
					c0.91,0.09,1.82,0.13,2.73,0.13c1.83-0.01,3.63-0.23,5.42-0.56C595.91,708.01,595.17,705.33,593.41,705.66L593.41,705.66z"/>
			</g>
			<g>
				<path class="st3" d="M592.66,709.8c-4.04,0.75-8.06,0.83-12.13,0.32c-1.77-0.22-1.76,2.56,0,2.78
					c4.33,0.54,8.59,0.38,12.87-0.41C595.15,712.16,594.41,709.47,592.66,709.8L592.66,709.8z"/>
			</g>
			<g>
				<path class="st3" d="M588.4,715.19c-5.69,1.22-11.4,1.51-17.18,0.92c-1.6-0.16-1.83,2.31-0.37,2.73
					c0.47,0.14,0.93,0.27,1.4,0.41c1.72,0.5,2.46-2.18,0.74-2.68c-0.47-0.14-0.93-0.27-1.4-0.41c-0.12,0.91-0.25,1.82-0.37,2.73
					c6.04,0.61,11.99,0.25,17.92-1.02C590.89,717.49,590.14,714.81,588.4,715.19L588.4,715.19z"/>
			</g>
			<g>
				<path class="st3" d="M578.63,721.94c-4.66,1.24-9.34,1.53-14.12,0.91c-1.77-0.23-1.75,2.56,0,2.78
					c5.03,0.65,9.97,0.3,14.86-1.01C581.1,724.16,580.37,721.48,578.63,721.94L578.63,721.94z"/>
			</g>
			<g>
				<path class="st3" d="M570.27,728.18c-3.62,0.5-7.25,0.41-10.85-0.23c-1.75-0.31-2.5,2.37-0.74,2.68
					c4.13,0.74,8.17,0.81,12.33,0.23C572.78,730.62,572.03,727.94,570.27,728.18L570.27,728.18z"/>
			</g>
			<g>
				<path class="st3" d="M562.72,733.53c-3.14,0.05-6.27,0.1-9.41,0.15c-1.79,0.03-1.79,2.81,0,2.78c3.14-0.05,6.27-0.1,9.41-0.15
					C564.51,736.28,564.52,733.5,562.72,733.53L562.72,733.53z"/>
			</g>
		</g>
		<g>
			<path class="st3" d="M484.38,783.55c5.66,5.14,12.61,9.63,20,5.73c8.72-4.6,16.68-10.98,23.74-17.81
				c1.26-1.22-0.66-3.14-1.92-1.92c-5.31,5.15-11.04,9.8-17.26,13.82c-3.47,2.24-7.74,5.66-12.09,4.69
				c-3.85-0.85-7.75-3.89-10.55-6.43C485.02,780.45,483.09,782.36,484.38,783.55L484.38,783.55z"/>
		</g>
		<g>
			<path class="st3" d="M622.33,703.82c1.39-5.42,3.34-10.6,5.88-15.59c0.79-1.56-1.55-2.93-2.35-1.37
				c-2.65,5.19-4.7,10.6-6.16,16.24C619.27,704.79,621.9,705.52,622.33,703.82L622.33,703.82z"/>
		</g>
		<g>
			<path class="st3" d="M592.8,684.63c1.89-4.28,3.37-8.74,5.27-13.02c0.7-1.59-1.64-2.97-2.35-1.37
				c-1.89,4.28-3.37,8.74-5.27,13.02C589.75,684.85,592.09,686.23,592.8,684.63L592.8,684.63z"/>
		</g>
		<g>
			<path class="st3" d="M844.22,363.83c-0.75,11.81-0.58,23.51,2.13,35.07c2.78,11.87,6.53,23.44,8.99,35.39
				c0.32,1.57,2.73,0.91,2.41-0.66c-2.38-11.59-5.93-22.82-8.73-34.3c-2.85-11.71-3.06-23.51-2.3-35.5
				C846.83,362.22,844.33,362.22,844.22,363.83L844.22,363.83z"/>
		</g>
		
			<ellipse transform="matrix(0.9649 -0.2625 0.2625 0.9649 -31.3831 212.4645)" class="st1" cx="779.58" cy="223.7" rx="4.12" ry="2.7"/>
		
			<ellipse transform="matrix(0.3215 -0.9469 0.9469 0.3215 293.0638 856.4177)" class="st1" cx="744.16" cy="223.7" rx="2.7" ry="4.12"/>
		<g>
			<path class="st3" d="M787.81,248.84c2.29,13,5.35,25.83,9.17,38.47c0.46,1.54,2.88,0.88,2.41-0.66
				c-3.82-12.64-6.88-25.47-9.17-38.47C789.94,246.59,787.53,247.26,787.81,248.84L787.81,248.84z"/>
		</g>
		<g>
			<path class="st3" d="M755.67,266.85c2.44,7.2,4.19,14.56,5.66,22.01c0.31,1.58,2.72,0.91,2.41-0.66
				c-1.47-7.45-3.22-14.81-5.66-22.01C757.57,264.67,755.15,265.32,755.67,266.85L755.67,266.85z"/>
		</g>
		<g>
			<g>
				<path class="st3" d="M739.87,295.6c1.55-5.76,2.96-11.59,4.66-17.31c0.46-1.55-1.95-2.21-2.41-0.66
					c-1.7,5.72-3.11,11.54-4.66,17.31C737.05,296.49,739.46,297.16,739.87,295.6L739.87,295.6z"/>
			</g>
			<g>
				<path class="st3" d="M744.82,277.75c-2.5-4-6.09-6.69-9.72-9.63c-4.93-4-8.02-8.54-9.22-14.88c-2.46-13.1-1.08-27.64,0.8-40.73
					c-0.61,0.25-1.22,0.5-1.84,0.75c5.2,2.43,4.33,13.05,4.82,17.85c0.64,6.17,1.27,12.35,1.91,18.52c0.16,1.58,2.67,1.6,2.5,0
					c-0.9-8.77-1.81-17.55-2.71-26.32c-0.46-4.5-0.59-10.03-5.26-12.21c-0.64-0.3-1.71-0.12-1.84,0.75
					c-1.9,13.18-3.07,27.27-1.06,40.51c0.81,5.33,2.62,10.27,6.39,14.22c4.2,4.41,9.75,7.15,13.05,12.44
					C743.52,280.37,745.68,279.12,744.82,277.75L744.82,277.75z"/>
			</g>
			<g>
				<path class="st3" d="M730.78,228.3c5.3,6.11,5.24,14.73,8.87,21.72c3.53,6.79,9.57,11.6,14.02,17.71
					c4.06,5.55,2.91,11.57,1.87,18.04c-0.53,3.27-1.22,6.68-1.26,10.01c-0.02,1.61,2.48,1.61,2.5,0c0.11-8.95,5.44-19.87-0.05-28.03
					c-4.5-6.7-11.19-11.74-14.93-18.99c-3.75-7.27-3.72-15.85-9.26-22.23C731.49,225.31,729.73,227.09,730.78,228.3L730.78,228.3z"
					/>
			</g>
		</g>
		<g>
			<path class="st3" d="M762.02,291.2c11.22,5.99,24.82,5.1,35.06-2.51c1.28-0.95,0.03-3.12-1.26-2.16
				c-9.51,7.07-22.06,8.11-32.54,2.51C761.86,288.28,760.6,290.44,762.02,291.2L762.02,291.2z"/>
		</g>
		<g>
			<path class="st3" d="M725.96,213.06c-1.02-1.68-2.07-2.67-3.91-3.48c-0.65-0.29-1.69-0.13-1.84,0.75
				c-2.48,15.38-1.33,30.82,3.52,45.64c0.5,1.52,2.91,0.87,2.41-0.66c-4.7-14.36-5.93-29.38-3.52-44.31
				c-0.61,0.25-1.22,0.5-1.84,0.75c1.33,0.41,2.33,1.27,3.01,2.58C724.64,215.7,726.8,214.44,725.96,213.06L725.96,213.06z"/>
		</g>
		<g>
			<path class="st3" d="M729.94,297.35c8.81,1.82,17.63,2.36,26.6,1.59c1.59-0.14,1.61-2.64,0-2.5c-8.73,0.75-17.34,0.27-25.93-1.5
				C729.03,294.61,728.36,297.02,729.94,297.35L729.94,297.35z"/>
		</g>
		<g>
			<path class="st3" d="M756.2,297.93c1.72,21.09-0.63,42.82-2.33,63.83c-1.83,22.58-3.96,45.2-7.1,67.64
				c-0.22,1.57,2.19,2.25,2.41,0.66c3.11-22.22,5.25-44.6,7.08-66.96c1.76-21.45,4.19-43.64,2.43-65.17
				C758.57,296.33,756.07,296.32,756.2,297.93L756.2,297.93z"/>
		</g>
		<g>
			<path class="st3" d="M728.34,296.19c-14.99,43.22-34.65,84.84-42.02,130.35c-0.25,1.57,2.15,2.25,2.41,0.66
				c7.37-45.51,27.03-87.14,42.02-130.35C731.28,295.33,728.87,294.68,728.34,296.19L728.34,296.19z"/>
		</g>
		<g>
			<path class="st3" d="M758.51,292.77c1.43-0.8,2.86-1.59,4.3-2.39c1.41-0.78,0.15-2.94-1.26-2.16c-1.43,0.8-2.86,1.59-4.3,2.39
				C755.84,291.4,757.1,293.56,758.51,292.77L758.51,292.77z"/>
		</g>
		<g>
			<path class="st3" d="M726.32,300.69c-6.22,4.29-13.75,6.03-19.6,11.14c-9.15,7.99-12.99,21.05-14.67,32.56
				c-4.01,27.47-12.94,53.96-14.05,81.87c-0.06,1.61,2.44,1.61,2.5,0c1.05-26.46,9.19-51.6,13.4-77.58
				c2-12.34,4.53-26.37,14.59-35.09c5.7-4.94,13.05-6.59,19.1-10.75C728.89,301.94,727.65,299.77,726.32,300.69L726.32,300.69z"/>
		</g>
		<g>
			<path class="st3" d="M876.89,558.17c3.1,93.28,6.05,186.56,9.08,279.83c0.85,26.09,1.7,52.19,2.57,78.28
				c0.05,1.6,2.55,1.61,2.5,0c-3.1-93.28-6.05-186.56-9.08-279.83c-0.85-26.09-1.7-52.19-2.57-78.28
				C879.34,556.57,876.84,556.56,876.89,558.17L876.89,558.17z"/>
		</g>
		<g>
			<path class="st3" d="M859.45,562.53c3.06,91.98,6.05,183.95,9.08,275.93c0.85,25.94,1.71,51.88,2.58,77.82
				c0.05,1.6,2.55,1.61,2.5,0c-3.06-91.98-6.05-183.95-9.08-275.93c-0.85-25.94-1.71-51.88-2.58-77.82
				C861.9,560.93,859.4,560.92,859.45,562.53L859.45,562.53z"/>
		</g>
		<g>
			<path class="st3" d="M287.62,567.24c3.01,90.37,6.05,180.74,9.07,271.1c0.86,25.79,1.72,51.58,2.58,77.37
				c0.05,1.6,2.55,1.61,2.5,0c-3.01-90.37-6.05-180.74-9.07-271.1c-0.86-25.79-1.72-51.58-2.58-77.37
				C290.06,565.64,287.56,565.63,287.62,567.24L287.62,567.24z"/>
		</g>
		<g>
			<path class="st3" d="M270.68,567.24c3.01,90.37,6.05,180.74,9.07,271.1c0.86,25.79,1.72,51.58,2.58,77.37
				c0.05,1.6,2.55,1.61,2.5,0c-3.01-90.37-6.05-180.74-9.07-271.1c-0.86-25.79-1.72-51.58-2.58-77.37
				C273.12,565.64,270.62,565.63,270.68,567.24L270.68,567.24z"/>
		</g>
		<g>
			<path class="st3" d="M619.42,755.66c0.62,53.64,3.52,107.23,8.67,160.63c0.15,1.59,2.65,1.6,2.5,0
				c-5.15-53.4-8.04-106.99-8.67-160.63C621.9,754.05,619.4,754.04,619.42,755.66L619.42,755.66z"/>
		</g>
		<g>
			<path class="st3" d="M601.94,755.66c0.62,53.64,3.52,107.23,8.67,160.63c0.15,1.59,2.65,1.6,2.5,0
				c-5.15-53.4-8.04-106.99-8.67-160.63C604.42,754.05,601.92,754.04,601.94,755.66L601.94,755.66z"/>
		</g>
		<g>
			<path class="st3" d="M627.51,881.37c27.48-0.2,54.97-0.4,82.45-0.6c43.62-0.32,87.23-0.63,130.85-0.95
				c10.05-0.07,20.1-0.15,30.15-0.22c1.57-0.01,1.57-2.45,0-2.44c-27.48,0.2-54.97,0.4-82.45,0.6
				c-43.62,0.32-87.23,0.63-130.85,0.95c-10.05,0.07-20.1,0.15-30.15,0.22C625.94,878.94,625.93,881.38,627.51,881.37L627.51,881.37
				z"/>
		</g>
		<g>
			<path class="st3" d="M260.53,548.45c36.57-0.2,73.13-0.4,109.7-0.6c57.91-0.32,115.82-0.63,173.73-0.95
				c13.38-0.07,26.76-0.15,40.15-0.22c1.57-0.01,1.57-2.45,0-2.44c-36.57,0.2-73.13,0.4-109.7,0.6
				c-57.91,0.32-115.82,0.63-173.73,0.95c-13.38,0.07-26.76,0.15-40.15,0.22C258.96,546.01,258.96,548.46,260.53,548.45
				L260.53,548.45z"/>
		</g>
		<g>
			<path class="st3" d="M260.53,568.52c35.6-0.2,71.19-0.4,106.79-0.6c56.34-0.32,112.68-0.63,169.01-0.95
				c12.99-0.07,25.97-0.15,38.96-0.22c1.57-0.01,1.57-2.45,0-2.44c-35.6,0.2-71.19,0.4-106.79,0.6
				c-56.34,0.32-112.68,0.63-169.01,0.95c-12.99,0.07-25.97,0.15-38.96,0.22C258.96,566.09,258.96,568.53,260.53,568.52
				L260.53,568.52z"/>
		</g>
		<g>
			<path class="st3" d="M623.21,791.79c27.48-0.2,54.97-0.4,82.45-0.6c43.62-0.32,87.23-0.63,130.85-0.95
				c10.05-0.07,20.1-0.15,30.15-0.22c1.57-0.01,1.57-2.45,0-2.44c-27.48,0.2-54.97,0.4-82.45,0.6
				c-43.62,0.32-87.23,0.63-130.85,0.95c-10.05,0.07-20.1,0.15-30.15,0.22C621.64,789.36,621.63,791.8,623.21,791.79L623.21,791.79z
				"/>
		</g>
		<g>
			<path class="st3" d="M653.37,698.59c23.9-0.2,47.79-0.4,71.69-0.6c37.74-0.32,75.48-0.63,113.23-0.94
				c8.79-0.07,17.57-0.15,26.36-0.22c1.57-0.01,1.57-2.46,0-2.44c-23.9,0.2-47.79,0.4-71.69,0.6c-37.74,0.31-75.48,0.63-113.23,0.94
				c-8.79,0.07-17.57,0.15-26.36,0.22C651.8,696.16,651.8,698.6,653.37,698.59L653.37,698.59z"/>
		</g>
		<g>
			<path class="st3" d="M693.53,603.14c49.14-0.51,98.29-1.03,147.43-1.54c7.04-0.07,14.08-0.15,21.12-0.22
				c1.57-0.02,1.57-2.46,0-2.44c-49.14,0.51-98.29,1.03-147.43,1.54c-7.04,0.07-14.08,0.15-21.12,0.22
				C691.96,600.72,691.96,603.16,693.53,603.14L693.53,603.14z"/>
		</g>
		<g>
			<path class="st3" d="M612.74,918.67c5.03-1.38,10.92-1.45,16.1-1.08c1.61,0.12,1.6-2.38,0-2.5c-5.4-0.39-11.51-0.28-16.76,1.17
				C610.53,916.69,611.19,919.1,612.74,918.67L612.74,918.67z"/>
		</g>
		<g>
			<path class="st3" d="M873.47,917.7c5.08-0.7,10.28-0.16,15.36-0.86c1.59-0.22,0.91-2.63-0.66-2.41
				c-5.08,0.7-10.28,0.16-15.36,0.86C871.22,915.51,871.9,917.92,873.47,917.7L873.47,917.7z"/>
		</g>
		<g>
			<path class="st3" d="M714.18,830.99c0.12,2.7-0.71,6.38,2.28,7.14c4.14,1.04,9.43,0.38,13.65,0.44
				c14.64,0.18,29.87,0.31,44.25-2.85c0.62-0.14,1.1-0.93,0.87-1.54c-0.58-1.58-0.8-3.08-0.68-4.76c0.11-1.61-2.39-1.6-2.5,0
				c-0.13,1.96,0.1,3.59,0.77,5.43c0.29-0.51,0.58-1.03,0.87-1.54c-12.9,2.83-26.53,2.84-39.68,2.79c-4.89-0.02-9.78-0.1-14.66-0.31
				c-0.81-0.04-2.47,0.2-3.22-0.18c1.25,0.65,0.78-0.39,0.69-1.74c-0.06-0.95-0.11-1.91-0.15-2.87
				C716.61,829.39,714.11,829.38,714.18,830.99L714.18,830.99z"/>
		</g>
		<g>
			<path class="st3" d="M714.18,742.79c0.12,2.7-0.71,6.38,2.28,7.14c4.14,1.04,9.43,0.38,13.65,0.44
				c14.64,0.18,29.87,0.31,44.25-2.85c0.62-0.14,1.1-0.93,0.87-1.54c-0.58-1.58-0.8-3.08-0.68-4.76c0.11-1.61-2.39-1.6-2.5,0
				c-0.13,1.96,0.1,3.59,0.77,5.43c0.29-0.51,0.58-1.03,0.87-1.54c-12.9,2.83-26.53,2.84-39.68,2.79c-4.89-0.02-9.78-0.1-14.66-0.31
				c-0.81-0.04-2.47,0.2-3.22-0.18c1.25,0.65,0.78-0.39,0.69-1.74c-0.06-0.95-0.11-1.91-0.15-2.87
				C716.61,741.18,714.11,741.17,714.18,742.79L714.18,742.79z"/>
		</g>
		<g>
			<path class="st3" d="M714.18,648.17c0.12,2.7-0.71,6.38,2.28,7.14c4.14,1.04,9.43,0.38,13.65,0.44
				c14.64,0.18,29.87,0.31,44.25-2.85c0.62-0.14,1.1-0.93,0.87-1.54c-0.58-1.58-0.8-3.08-0.68-4.76c0.11-1.61-2.39-1.6-2.5,0
				c-0.13,1.96,0.1,3.59,0.77,5.43c0.29-0.51,0.58-1.03,0.87-1.54c-12.9,2.83-26.53,2.84-39.68,2.79c-4.89-0.02-9.78-0.1-14.66-0.31
				c-0.81-0.04-2.47,0.2-3.22-0.18c1.25,0.65,0.78-0.39,0.69-1.74c-0.06-0.95-0.11-1.91-0.15-2.87
				C716.61,646.57,714.11,646.56,714.18,648.17L714.18,648.17z"/>
		</g>
		<g>
			<path class="st3" d="M259.35,546.88c-1.06,6.58-1.23,13.11-0.43,19.72c0.19,1.54,2.63,1.56,2.44,0
				c-0.77-6.39-0.68-12.72,0.35-19.08C261.96,545.99,259.6,545.33,259.35,546.88L259.35,546.88z"/>
		</g>
		<g>
			<path class="st3" d="M283.99,917.83c5.19-0.13,10.38-0.15,15.56-0.28c1.61-0.04,1.61-2.54,0-2.5
				c-5.19,0.13-10.38,0.15-15.56,0.28C282.39,915.37,282.38,917.87,283.99,917.83L283.99,917.83z"/>
		</g>
		<g>
			<polygon class="st1" points="441.71,407.62 412.75,407.62 412.75,387.22 441.21,385.84 			"/>
			<g>
				<path class="st3" d="M350.72,467.55c-0.65,0.16,1.27,0,1.63,0c1.74-0.02,3.49-0.06,5.23-0.09c6.07-0.09,12.15-0.18,18.22-0.27
					c19.97-0.29,39.94-0.57,59.91-0.85c44.88-0.64,89.77-1.26,134.64-2.11c7.48-0.14,14.96-0.29,22.43-0.49
					c2.47-0.07,6.37,0.54,8.73-0.4c0.66-0.26,1.02-0.81,0.87-1.54c-4.83-23.38-5.37-47.44-5.41-71.24
					c-0.02-11.75,0.14-23.49,0.18-35.24c0.02-5.62,0.06-11.25-0.09-16.87c-0.09-3.5-0.61-6.53-2.87-9.35
					c-4.57-5.71-11.3-5.58-17.93-5.44c-5.74,0.12-11.48,0.24-17.22,0.35c-15.18,0.31-30.35,0.63-45.53,0.94
					c-34.29,0.71-68.57,1.42-102.86,2.13c-13.19,0.27-26.38,0.55-39.58,0.82c-5.62,0.12-11.89-0.57-16.69,2.92
					c-6.04,4.4-5.19,11.22-5.17,17.84c0.11,39.23,0.28,78.47-0.07,117.7c-0.01,1.61,2.49,1.61,2.5,0
					c0.3-34.04,0.19-68.08,0.11-102.12c-0.02-6.75-0.03-13.5-0.05-20.25c-0.02-5.27,0.87-9.78,6.12-12.23
					c3.1-1.45,6.57-1.22,9.92-1.29c11.87-0.25,23.73-0.49,35.6-0.74c58.94-1.22,117.89-2.81,176.84-3.65
					c5.32-0.08,10.84,1.4,13.36,6.6c2.52,5.21,1.12,13.56,1.12,19.22c0,12.59-0.19,25.18-0.18,37.78c0.02,24.32,0.57,48.9,5.5,72.79
					c0.29-0.51,0.58-1.03,0.87-1.54c-1.12,0.45-5.37,0.24-7.3,0.29c-6.18,0.17-12.36,0.3-18.55,0.42c-20.1,0.4-40.2,0.72-60.3,1.03
					c-44.77,0.7-89.54,1.32-134.31,1.96c-7.36,0.11-14.71,0.21-22.07,0.32c-2.55,0.04-5.76-0.43-8.27,0.19
					C348.49,465.52,349.15,467.93,350.72,467.55z"/>
			</g>
			<g>
				<path class="st3" d="M412.88,387.87c32.73-1.09,65.46-1.99,98.2-2.55c11.55-0.2,23.1-0.36,34.65-0.35c1.61,0,1.61-2.5,0-2.5
					c-40.42-0.01-80.86,1.29-121.25,2.54c-3.87,0.12-7.73,0.24-11.6,0.37C411.28,385.42,411.27,387.92,412.88,387.87L412.88,387.87z
					"/>
			</g>
			<g>
				<path class="st3" d="M412.88,410.6c32.73-1.09,65.46-1.99,98.2-2.55c11.55-0.2,23.1-0.36,34.65-0.35c1.61,0,1.61-2.5,0-2.5
					c-40.42-0.01-80.86,1.29-121.25,2.54c-3.87,0.12-7.73,0.24-11.6,0.37C411.28,408.16,411.27,410.66,412.88,410.6L412.88,410.6z"
					/>
			</g>
			<g>
				<path class="st3" d="M410.71,386.6c0.88,7.11,0.37,14.3,0.84,21.43c0.1,1.6,2.61,1.61,2.5,0c-0.47-7.14,0.04-14.32-0.84-21.43
					C413.02,385.03,410.52,385.01,410.71,386.6L410.71,386.6z"/>
			</g>
			<g>
				<path class="st3" d="M544.91,384.3c0.68,6.7,1.18,13.41,1.49,20.13c0.08,1.6,2.58,1.61,2.5,0c-0.32-6.72-0.81-13.43-1.49-20.13
					C547.25,382.71,544.75,382.7,544.91,384.3L544.91,384.3z"/>
			</g>
			<g>
				<path class="st3" d="M467.45,424.81c0.16,6.23,0.59,12.44,1.28,18.63c0.18,1.58,2.68,1.6,2.5,0c-0.69-6.19-1.12-12.4-1.28-18.63
					C469.91,423.21,467.41,423.2,467.45,424.81L467.45,424.81z"/>
			</g>
			<g>
				<path class="st3" d="M477.57,430.28c-0.34,3.73,0.72,10.65,5.02,12.07c4.23,1.4,8.15-5.87,8.85-9.08
					c0.97-4.47-1.97-8.09-6.04-9.58c-4.92-1.79-6.5,3.28-7.22,7.37c-0.28,1.57,2.13,2.25,2.41,0.66c0.34-1.93,0.96-5.85,3.26-5.91
					c3.51-0.09,5.84,4.48,5.06,7.32c-0.37,1.34-1.2,2.61-1.99,3.74c-0.82,1.17-2.51,3.54-4.41,2.41c-2.43-1.44-2.65-6.75-2.44-9.02
					C480.22,428.67,477.72,428.68,477.57,430.28L477.57,430.28z"/>
			</g>
			<g>
				<path class="st3" d="M505.71,423.08c-2.57,5.6-5.14,11.2-7.7,16.81c-0.67,1.45,1.49,2.72,2.16,1.26
					c2.57-5.6,5.14-11.2,7.7-16.81C508.53,422.89,506.38,421.62,505.71,423.08L505.71,423.08z"/>
			</g>
			<g>
				<path class="st3" d="M498.38,427.52c0.12,0,0.24,0,0.37,0c1.61,0,1.61-2.5,0-2.5c-0.12,0-0.24,0-0.37,0
					C496.77,425.02,496.77,427.52,498.38,427.52L498.38,427.52z"/>
			</g>
			<g>
				<path class="st3" d="M508.98,441.05c1.61,0,1.61-2.5,0-2.5C507.37,438.55,507.37,441.05,508.98,441.05L508.98,441.05z"/>
			</g>
			<g>
				<path class="st3" d="M348.88,465.58c0.01,5.13-0.02,10.26,0.1,15.39c0.08,3.33,0.39,6.27,2.4,9.05
					c4.81,6.66,13.58,5.2,20.76,5.26c21.13,0.19,42.25,0.19,63.38,0.1c45.07-0.19,90.13-0.91,135.19-2.02
					c6.56-0.16,13.14-0.2,19.69-0.51c3.56-0.17,6.67-1.03,9.25-3.63c2.38-2.4,3.57-5.55,3.62-8.9c0.1-5.71-0.72-11.58-1.08-17.28
					c-0.1-1.6-2.6-1.61-2.5,0c0.26,4.07,0.52,8.15,0.79,12.22c0.32,4.98,0.7,10.02-3.92,13.26c-4.07,2.86-10.31,1.94-15.06,2.07
					c-5.22,0.14-10.45,0.27-15.67,0.39c-19.81,0.48-39.62,0.88-59.43,1.19c-39.28,0.62-78.57,0.88-117.85,0.73
					c-8.58-0.03-17.2,0.09-25.78-0.2c-7.39-0.26-11.04-4.51-11.29-11.73c-0.18-5.12-0.09-10.26-0.1-15.39
					C351.38,463.97,348.88,463.97,348.88,465.58L348.88,465.58z"/>
			</g>
			<g>
				<g>
					<path class="st3" d="M464.58,495.21c0.08,5.51,0.07,11.01,0.07,16.52c0,1.61,2.5,1.61,2.5,0c0-5.51,0.01-11.01-0.07-16.52
						C467.05,493.6,464.55,493.59,464.58,495.21L464.58,495.21z"/>
				</g>
				<g>
					<path class="st3" d="M486.25,495.21c0.08,5.51,0.07,11.01,0.07,16.52c0,1.61,2.5,1.61,2.5,0c0-5.51,0.01-11.01-0.07-16.52
						C488.73,493.6,486.23,493.59,486.25,495.21L486.25,495.21z"/>
				</g>
				<g>
					<path class="st3" d="M464.78,511.65c-0.7,4.59-12.88,3.29-16.2,3.29c-6.88-0.01-13.76-0.02-20.63-0.03
						c-3.2-0.01-6.39-0.01-9.59-0.02c-2.25,0-5.02-0.44-7.16,0.36c-4.74,1.79-4.48,7.85-3.94,12c0.2,1.57,2.7,1.59,2.5,0
						c-0.23-1.82-0.56-3.89-0.09-5.7c0.84-3.26,3.82-3.84,6.72-4.17c2.98-0.33,6.23,0.01,9.24,0.02c6.48,0.01,12.95,0.02,19.43,0.03
						c4.86,0.01,21.01,2.21,22.14-5.12C467.44,510.74,465.03,510.07,464.78,511.65L464.78,511.65z"/>
				</g>
				<g>
					<path class="st3" d="M486.26,511.99c0.52,4.59,4.98,5.3,8.92,5.48c5.19,0.24,10.46-0.03,15.66-0.04
						c9.13-0.02,18.27,0.02,27.4-0.05c1.61-0.01,1.61-2.47,0-2.5c-0.3-0.01-0.59,0-0.89,0c-1.63,0.02-1.59,2.38,0,2.5
						c5.64,0.42,5.62,5.4,5.04,9.87c-0.2,1.59,2.3,1.58,2.5,0c0.4-3.09,0.81-7.73-1.43-10.32c-1.56-1.81-3.87-1.88-6.11-2.05
						c0,0.83,0,1.67,0,2.5c0.3,0,0.59-0.01,0.89,0c0-0.83,0-1.67,0-2.5c-6.92,0.05-13.84,0.03-20.76,0.04
						c-4.05,0.01-28.14,2.23-28.72-2.93C488.59,510.4,486.09,510.39,486.26,511.99L486.26,511.99z"/>
				</g>
				<g>
					<path class="st3" d="M408.51,529.47c39.41,0.21,78.81,0.41,118.22,0.62c5.66,0.03,11.32,0.06,16.99,0.09
						c1.61,0.01,1.61-2.49,0-2.5c-39.41-0.21-78.81-0.41-118.22-0.62c-5.66-0.03-11.32-0.06-16.99-0.09
						C406.91,526.96,406.9,529.46,408.51,529.47L408.51,529.47z"/>
				</g>
			</g>
		</g>
		<g>
			<path class="st3" d="M262.82,546.52c9.61-6.25,18.72-13.23,28.33-19.49c1.34-0.87,0.09-3.04-1.26-2.16
				c-9.61,6.25-18.72,13.23-28.33,19.49C260.21,545.24,261.46,547.4,262.82,546.52L262.82,546.52z"/>
		</g>
		<g>
			<path class="st3" d="M289.99,527.32c39.15-0.87,78.29-1.74,117.44-2.53c1.61-0.03,1.61-2.53,0-2.5
				c-39.15,0.79-78.29,1.66-117.44,2.53C288.38,524.86,288.37,527.36,289.99,527.32L289.99,527.32z"/>
		</g>
		<g>
			<path class="st3" d="M544.03,525c17.03-0.89,34.08-1.12,51.13-0.69c1.61,0.04,1.61-2.46,0-2.5c-17.05-0.43-34.09-0.2-51.13,0.69
				C542.43,522.59,542.42,525.09,544.03,525L544.03,525z"/>
		</g>
		<g>
			<path class="st3" d="M840.34,415.37c-0.24,0.99-0.07,1.89,0.68,2.63c0.4,0.39,0.9,0.48,1.33,0.77c0.74,0.24,1.29,0.76,1.64,1.56
				c-0.13,0.28-0.21,0.57-0.22,0.87c-0.1,0.99,0.34,1.62,1.16,2.13c1.52,0.95,2.7,1.51,3.33,3.37c0.51,1.52,2.93,0.87,2.41-0.66
				c-0.4-1.18-0.96-2.26-1.84-3.15c-0.43-0.43-0.93-0.82-1.45-1.13c-0.26-0.17-0.53-0.31-0.81-0.42c-0.44-0.06-0.49-0.17-0.16-0.34
				c-0.15-1.17,0.25-1.92-0.58-3.02c-0.31-0.41-3.09-1.86-3.07-1.93C843.13,414.47,840.72,413.8,840.34,415.37L840.34,415.37z"/>
		</g>
		<g>
			<path class="st3" d="M835.57,401.65c-0.38-0.83,2.92-1.07,3.44-1.49c0.97-0.77,0.8-2.16,1.73-2.82c0.96-0.68,2.24-0.04,3.31-0.73
				c1.31-0.85,1.75-2.56,3.04-3.52c1.28-0.95,0.03-3.12-1.26-2.16c-0.72,0.54-1.37,1.07-1.93,1.78c-0.38,0.47-0.64,1.11-1.12,1.47
				c-0.6,0.45-0.78,0.3-1.5,0.29c-1.58-0.02-2.76,0.48-3.33,2.05c-0.1,0.26-0.09,0.85-0.25,1.05c-0.71,0.87-0.92,0.21-1.7,0.38
				c-0.67,0.15-1.27,0.26-1.83,0.7c-1.39,1.09-1.41,2.78-0.74,4.25C834.07,404.38,836.22,403.11,835.57,401.65L835.57,401.65z"/>
		</g>
		<g>
			<path class="st3" d="M866.32,431.13c-0.38-0.83,2.92-1.07,3.44-1.49c0.97-0.77,0.8-2.16,1.73-2.82c0.96-0.68,2.24-0.04,3.31-0.73
				c1.31-0.85,1.75-2.56,3.04-3.52c1.28-0.95,0.03-3.12-1.26-2.16c-0.72,0.54-1.37,1.07-1.93,1.78c-0.38,0.47-0.64,1.11-1.12,1.47
				c-0.6,0.45-0.78,0.3-1.5,0.29c-1.58-0.02-2.76,0.48-3.33,2.05c-0.1,0.26-0.09,0.85-0.25,1.05c-0.71,0.87-0.92,0.21-1.7,0.38
				c-0.67,0.15-1.27,0.26-1.83,0.7c-1.39,1.09-1.41,2.78-0.74,4.25C864.82,433.86,866.98,432.59,866.32,431.13L866.32,431.13z"/>
		</g>
		<g>
			<path class="st3" d="M891.25,442.03c-0.38-0.83,2.92-1.07,3.44-1.49c0.97-0.77,0.8-2.16,1.73-2.82c0.96-0.68,2.24-0.04,3.31-0.73
				c1.31-0.85,1.75-2.56,3.04-3.52c1.28-0.95,0.03-3.12-1.26-2.16c-0.72,0.54-1.37,1.07-1.93,1.78c-0.38,0.47-0.64,1.11-1.12,1.47
				c-0.6,0.45-0.78,0.3-1.5,0.29c-1.58-0.02-2.76,0.48-3.33,2.05c-0.1,0.26-0.09,0.85-0.25,1.05c-0.71,0.87-0.92,0.21-1.7,0.38
				c-0.67,0.15-1.27,0.26-1.83,0.7c-1.39,1.09-1.41,2.78-0.74,4.25C889.75,444.75,891.91,443.48,891.25,442.03L891.25,442.03z"/>
		</g>
		<g>
			<path class="st3" d="M854.52,382.14c-0.58,2.45,1.3,3.07,2.98,4.2c1.04,0.7,0.72,1.64,1.2,2.7c0.55,1.23,2.86,2.73,2.49,4.16
				c-0.4,1.56,2.01,2.22,2.41,0.66c0.8-3.08-2.25-4.02-2.76-6.66c-0.18-0.91-0.25-1.58-0.95-2.27c-0.5-0.49-3.13-1.43-2.96-2.13
				C857.3,381.24,854.89,380.58,854.52,382.14L854.52,382.14z"/>
		</g>
		<g>
			<path class="st3" d="M887.73,383.26c-0.58,2.45,1.3,3.07,2.98,4.2c1.04,0.7,0.72,1.64,1.2,2.7c0.55,1.23,2.86,2.73,2.49,4.16
				c-0.4,1.56,2.01,2.22,2.41,0.66c0.8-3.08-2.25-4.02-2.76-6.66c-0.18-0.91-0.25-1.58-0.95-2.27c-0.5-0.49-3.13-1.43-2.96-2.13
				C890.51,382.36,888.1,381.7,887.73,383.26L887.73,383.26z"/>
		</g>
		<g>
			<path class="st3" d="M832.68,373.55c-0.96-1.9,1.15-3.28,2.76-2.22c0.43,0.28,1.18,0.21,1.51-0.2c0.43-0.52,0.7-0.96,0.75-1.66
				c0.1-1.27-0.49-1.74,0.86-2.45c1.56-0.83,3.1-1.58,2.97-3.6c-0.1-1.6-2.6-1.61-2.5,0c0.07,1.09-2.72,1.82-3.36,2.68
				c-0.3,0.4-0.47,0.83-0.55,1.33c-0.06,0.39,0.28,1.66,0.06,1.93c0.5-0.07,1.01-0.13,1.51-0.2c-3.93-2.58-8.23,1.57-6.18,5.64
				C831.24,376.25,833.4,374.99,832.68,373.55L832.68,373.55z"/>
		</g>
		<g>
			<path class="st3" d="M867.97,406.48c-0.38-0.83,2.92-1.07,3.44-1.49c0.97-0.77,0.8-2.16,1.73-2.82c0.96-0.68,2.24-0.04,3.31-0.73
				c1.31-0.85,1.75-2.56,3.04-3.52c1.28-0.95,0.03-3.12-1.26-2.16c-0.72,0.54-1.37,1.07-1.93,1.78c-0.38,0.47-0.64,1.11-1.12,1.47
				c-0.6,0.45-0.78,0.3-1.5,0.29c-1.58-0.02-2.76,0.48-3.33,2.05c-0.1,0.26-0.09,0.85-0.25,1.05c-0.71,0.87-0.92,0.21-1.7,0.38
				c-0.67,0.15-1.27,0.26-1.83,0.7c-1.39,1.09-1.41,2.78-0.74,4.25C866.47,409.21,868.63,407.94,867.97,406.48L867.97,406.48z"/>
		</g>
		<g>
			<path class="st3" d="M872.23,376.07c-0.96-1.9,1.15-3.28,2.76-2.22c0.43,0.28,1.18,0.21,1.51-0.2c0.43-0.52,0.7-0.96,0.75-1.66
				c0.1-1.27-0.49-1.74,0.86-2.45c1.56-0.83,3.1-1.58,2.97-3.6c-0.1-1.6-2.6-1.61-2.5,0c0.07,1.09-2.72,1.82-3.36,2.68
				c-0.3,0.4-0.47,0.83-0.55,1.33c-0.06,0.39,0.28,1.66,0.06,1.93c0.5-0.07,1.01-0.13,1.51-0.2c-3.93-2.58-8.23,1.57-6.18,5.64
				C870.8,378.77,872.96,377.51,872.23,376.07L872.23,376.07z"/>
		</g>
		<g>
			<path class="st3" d="M850.03,359.6c0.02,0.5,0.04,0.99,0.06,1.49c0.02,0.54,0.37,1.08,0.92,1.21c0.88,0.21,2.17-0.2,2.92,0.08
				c1.14,0.43,0.71,2.4,1.21,3.33c0.36,0.67,0.93,1.17,1.71,1.28c0.91,0.14,3.13-1.37,2.98,0.4c-0.13,1.6,2.37,1.59,2.5,0
				c0.1-1.26-0.5-2.46-1.61-3.1c-0.5-0.29-1.14-0.44-1.71-0.4c-0.69,0.05-1.43,0.75-1.78,0.04c-0.24-0.49,0.06-1.47-0.12-2.06
				c-0.18-0.58-0.55-1.1-1.05-1.46c-1.34-0.95-2.91-0.17-4.38-0.52c0.31,0.4,0.61,0.8,0.92,1.21c-0.02-0.5-0.04-0.99-0.06-1.49
				C852.47,358,849.97,357.99,850.03,359.6L850.03,359.6z"/>
		</g>
		<g>
			<path class="st3" d="M873.05,337.96c0.02,0.5,0.04,0.99,0.06,1.49c0.02,0.54,0.37,1.08,0.92,1.21c0.88,0.21,2.17-0.2,2.92,0.08
				c1.14,0.43,0.71,2.4,1.21,3.33c0.36,0.67,0.93,1.17,1.71,1.28c0.91,0.14,3.13-1.37,2.98,0.4c-0.13,1.6,2.37,1.59,2.5,0
				c0.1-1.26-0.5-2.46-1.61-3.1c-0.5-0.29-1.14-0.44-1.71-0.4c-0.69,0.05-1.43,0.75-1.78,0.04c-0.24-0.49,0.06-1.47-0.12-2.06
				c-0.18-0.58-0.55-1.1-1.05-1.46c-1.34-0.95-2.91-0.17-4.38-0.52c0.31,0.4,0.61,0.8,0.92,1.21c-0.02-0.5-0.04-0.99-0.06-1.49
				C875.48,336.35,872.98,336.34,873.05,337.96L873.05,337.96z"/>
		</g>
		<g>
			<path class="st3" d="M817.72,343.99c0.02,0.5,0.04,0.99,0.06,1.49c0.02,0.54,0.37,1.08,0.92,1.21c0.88,0.21,2.17-0.2,2.92,0.08
				c1.14,0.43,0.71,2.4,1.21,3.33c0.36,0.67,0.93,1.17,1.71,1.28c0.91,0.14,3.13-1.37,2.98,0.4c-0.13,1.6,2.37,1.59,2.5,0
				c0.1-1.26-0.5-2.46-1.61-3.1c-0.5-0.29-1.14-0.44-1.71-0.4c-0.69,0.05-1.43,0.75-1.78,0.04c-0.24-0.49,0.06-1.47-0.12-2.06
				c-0.18-0.58-0.55-1.1-1.05-1.46c-1.34-0.95-2.91-0.17-4.38-0.52c0.31,0.4,0.61,0.8,0.92,1.21c-0.02-0.5-0.04-0.99-0.06-1.49
				C820.16,342.38,817.66,342.38,817.72,343.99L817.72,343.99z"/>
		</g>
		<g>
			<path class="st3" d="M855.88,311.52c0.02,0.5,0.04,0.99,0.06,1.49c0.02,0.54,0.37,1.08,0.92,1.21c0.88,0.21,2.17-0.2,2.92,0.08
				c1.14,0.43,0.71,2.4,1.21,3.33c0.36,0.67,0.93,1.17,1.71,1.28c0.91,0.14,3.13-1.37,2.98,0.4c-0.13,1.6,2.37,1.59,2.5,0
				c0.1-1.26-0.5-2.46-1.61-3.1c-0.5-0.29-1.14-0.44-1.71-0.4c-0.69,0.05-1.43,0.75-1.78,0.04c-0.24-0.49,0.06-1.47-0.12-2.06
				c-0.18-0.58-0.55-1.1-1.05-1.46c-1.34-0.95-2.91-0.17-4.38-0.52c0.31,0.4,0.61,0.8,0.92,1.21c-0.02-0.5-0.04-0.99-0.06-1.49
				C858.31,309.91,855.81,309.9,855.88,311.52L855.88,311.52z"/>
		</g>
		<g>
			<path class="st3" d="M823.22,301.25c0.02,0.5,0.04,0.99,0.06,1.49c0.02,0.54,0.37,1.08,0.92,1.21c0.88,0.21,2.17-0.2,2.92,0.08
				c1.14,0.43,0.71,2.4,1.21,3.33c0.36,0.67,0.93,1.17,1.71,1.28c0.91,0.14,3.13-1.37,2.98,0.4c-0.13,1.6,2.37,1.59,2.5,0
				c0.1-1.26-0.5-2.46-1.61-3.1c-0.5-0.29-1.14-0.44-1.71-0.4c-0.69,0.05-1.43,0.75-1.78,0.04c-0.24-0.49,0.06-1.47-0.12-2.06
				c-0.18-0.58-0.55-1.1-1.05-1.46c-1.34-0.95-2.91-0.17-4.38-0.52c0.31,0.4,0.61,0.8,0.92,1.21c-0.02-0.5-0.04-0.99-0.06-1.49
				C825.65,299.65,823.15,299.64,823.22,301.25L823.22,301.25z"/>
		</g>
		<g>
			<path class="st3" d="M783.98,330.44c0.02,0.5,0.04,0.99,0.06,1.49c0.02,0.54,0.37,1.08,0.92,1.21c0.88,0.21,2.17-0.2,2.92,0.08
				c1.14,0.43,0.71,2.4,1.21,3.33c0.36,0.67,0.93,1.17,1.71,1.28c0.91,0.14,3.13-1.37,2.98,0.4c-0.13,1.6,2.37,1.59,2.5,0
				c0.1-1.26-0.5-2.46-1.61-3.1c-0.5-0.29-1.14-0.44-1.71-0.4c-0.69,0.05-1.43,0.75-1.78,0.04c-0.24-0.49,0.06-1.47-0.12-2.06
				c-0.18-0.58-0.55-1.1-1.05-1.46c-1.34-0.95-2.91-0.17-4.38-0.52c0.31,0.4,0.61,0.8,0.92,1.21c-0.02-0.5-0.04-0.99-0.06-1.49
				C786.41,328.83,783.91,328.83,783.98,330.44L783.98,330.44z"/>
		</g>
		<g>
			<path class="st3" d="M790.13,298.16c0.02,0.5,0.04,0.99,0.06,1.49c0.02,0.54,0.37,1.08,0.92,1.21c0.88,0.21,2.17-0.2,2.92,0.08
				c1.14,0.43,0.71,2.4,1.21,3.33c0.36,0.67,0.93,1.17,1.71,1.28c0.91,0.14,3.13-1.37,2.98,0.4c-0.13,1.6,2.37,1.59,2.5,0
				c0.1-1.26-0.5-2.46-1.61-3.1c-0.5-0.29-1.14-0.44-1.71-0.4c-0.69,0.05-1.43,0.75-1.78,0.04c-0.24-0.49,0.06-1.47-0.12-2.06
				c-0.18-0.58-0.55-1.1-1.05-1.46c-1.34-0.95-2.91-0.17-4.38-0.52c0.31,0.4,0.61,0.8,0.92,1.21c-0.02-0.5-0.04-0.99-0.06-1.49
				C792.57,296.56,790.06,296.55,790.13,298.16L790.13,298.16z"/>
		</g>
		<g>
			<path class="st3" d="M832.75,337.32c-0.58-1.19-0.13-2.66,0.94-3.41c0.96-0.67,1.91-0.3,2.97-0.41c1.34-0.13,2.29-0.89,2.59-2.22
				c0.16-0.71-0.08-1.38-0.03-2.08c0.09-1.33,0.39-1.04,1.58-1.08c1.42-0.05,2.61-0.64,2.93-2.09c0.35-1.57-2.06-2.24-2.41-0.66
				c-0.1,0.44-2.34,0.16-2.79,0.31c-0.73,0.25-1.26,0.71-1.57,1.41c-0.35,0.77-0.26,1.57-0.21,2.39c0.12,1.76-0.55,1.36-2.03,1.46
				c-3.72,0.26-5.68,4.44-4.12,7.62C831.3,340.02,833.46,338.76,832.75,337.32L832.75,337.32z"/>
		</g>
		<g>
			<path class="st3" d="M804.63,326.61c-0.58-1.19-0.13-2.66,0.94-3.41c0.96-0.67,1.91-0.3,2.97-0.41c1.34-0.13,2.29-0.89,2.59-2.22
				c0.16-0.71-0.08-1.38-0.03-2.08c0.09-1.33,0.39-1.04,1.58-1.08c1.42-0.05,2.61-0.64,2.93-2.09c0.35-1.57-2.06-2.24-2.41-0.66
				c-0.1,0.44-2.34,0.16-2.79,0.31c-0.73,0.25-1.26,0.71-1.57,1.41c-0.35,0.77-0.26,1.57-0.21,2.39c0.12,1.76-0.55,1.36-2.03,1.46
				c-3.72,0.26-5.68,4.44-4.12,7.62C803.18,329.32,805.34,328.05,804.63,326.61L804.63,326.61z"/>
		</g>
		<g>
			<path class="st3" d="M770.56,325.49c-0.58-1.19-0.13-2.66,0.94-3.41c0.96-0.67,1.91-0.3,2.97-0.41c1.34-0.13,2.29-0.89,2.59-2.22
				c0.16-0.71-0.08-1.38-0.03-2.08c0.09-1.33,0.39-1.04,1.58-1.08c1.42-0.05,2.61-0.64,2.93-2.09c0.35-1.57-2.06-2.24-2.41-0.66
				c-0.1,0.44-2.34,0.16-2.79,0.31c-0.73,0.25-1.26,0.71-1.57,1.41c-0.35,0.77-0.26,1.57-0.21,2.39c0.12,1.76-0.55,1.36-2.03,1.46
				c-3.72,0.26-5.68,4.44-4.12,7.62C769.11,328.2,771.27,326.93,770.56,325.49L770.56,325.49z"/>
		</g>
		<g>
			<path class="st3" d="M763.89,351.57c-0.58-1.19-0.13-2.66,0.94-3.41c0.96-0.67,1.91-0.3,2.97-0.41c1.34-0.13,2.29-0.89,2.59-2.22
				c0.16-0.71-0.08-1.38-0.03-2.08c0.09-1.33,0.39-1.04,1.58-1.08c1.42-0.05,2.61-0.64,2.93-2.09c0.35-1.57-2.06-2.24-2.41-0.66
				c-0.1,0.44-2.34,0.16-2.79,0.31c-0.73,0.25-1.26,0.71-1.57,1.41c-0.35,0.77-0.26,1.57-0.21,2.39c0.12,1.76-0.55,1.36-2.03,1.46
				c-3.72,0.26-5.68,4.44-4.12,7.62C762.44,354.28,764.6,353.01,763.89,351.57L763.89,351.57z"/>
		</g>
		<g>
			<path class="st3" d="M785.9,394.85c0.02,0.5,0.04,0.99,0.06,1.49c0.02,0.54,0.37,1.08,0.92,1.21c0.88,0.21,2.17-0.2,2.92,0.08
				c1.14,0.43,0.71,2.4,1.21,3.33c0.36,0.67,0.93,1.17,1.71,1.28c0.91,0.14,3.13-1.37,2.98,0.4c-0.13,1.6,2.37,1.59,2.5,0
				c0.1-1.26-0.5-2.46-1.61-3.1c-0.5-0.29-1.14-0.44-1.71-0.4c-0.69,0.05-1.43,0.75-1.78,0.04c-0.24-0.49,0.06-1.47-0.12-2.06
				c-0.18-0.58-0.55-1.1-1.05-1.46c-1.34-0.95-2.91-0.17-4.38-0.52c0.31,0.4,0.61,0.8,0.92,1.21c-0.02-0.5-0.04-0.99-0.06-1.49
				C788.33,393.24,785.83,393.23,785.9,394.85L785.9,394.85z"/>
		</g>
		<g>
			<path class="st3" d="M792.55,353.56c0.02,0.5,0.04,0.99,0.06,1.49c0.02,0.54,0.37,1.08,0.92,1.21c0.88,0.21,2.17-0.2,2.92,0.08
				c1.14,0.43,0.71,2.4,1.21,3.33c0.36,0.67,0.93,1.17,1.71,1.28c0.91,0.14,3.13-1.37,2.98,0.4c-0.13,1.6,2.37,1.59,2.5,0
				c0.1-1.26-0.5-2.46-1.61-3.1c-0.5-0.29-1.14-0.44-1.71-0.4c-0.69,0.05-1.43,0.75-1.78,0.04c-0.24-0.49,0.06-1.47-0.12-2.06
				c-0.18-0.58-0.55-1.1-1.05-1.46c-1.34-0.95-2.91-0.17-4.38-0.52c0.31,0.4,0.61,0.8,0.92,1.21c-0.02-0.5-0.04-0.99-0.06-1.49
				C794.98,351.96,792.48,351.95,792.55,353.56L792.55,353.56z"/>
		</g>
		<g>
			<path class="st3" d="M811.19,394.27c0.02,0.5,0.04,0.99,0.06,1.49c0.02,0.54,0.37,1.08,0.92,1.21c0.88,0.21,2.17-0.2,2.92,0.08
				c1.14,0.43,0.71,2.4,1.21,3.33c0.36,0.67,0.93,1.17,1.71,1.28c0.91,0.14,3.13-1.37,2.98,0.4c-0.13,1.6,2.37,1.59,2.5,0
				c0.1-1.26-0.5-2.46-1.61-3.1c-0.5-0.29-1.14-0.44-1.71-0.4c-0.69,0.05-1.43,0.75-1.78,0.04c-0.24-0.49,0.06-1.47-0.12-2.06
				c-0.18-0.58-0.55-1.1-1.05-1.46c-1.34-0.95-2.91-0.17-4.38-0.52c0.31,0.4,0.61,0.8,0.92,1.21c-0.02-0.5-0.04-0.99-0.06-1.49
				C813.62,392.67,811.12,392.66,811.19,394.27L811.19,394.27z"/>
		</g>
		<g>
			<path class="st3" d="M772.91,414.79c0.02,0.5,0.04,0.99,0.06,1.49c0.02,0.54,0.37,1.08,0.92,1.21c0.88,0.21,2.17-0.2,2.92,0.08
				c1.14,0.43,0.71,2.4,1.21,3.33c0.36,0.67,0.93,1.17,1.71,1.28c0.91,0.14,3.13-1.37,2.98,0.4c-0.13,1.6,2.37,1.59,2.5,0
				c0.1-1.26-0.5-2.46-1.61-3.1c-0.5-0.29-1.14-0.44-1.71-0.4c-0.69,0.05-1.43,0.75-1.78,0.04c-0.24-0.49,0.06-1.47-0.12-2.06
				c-0.18-0.58-0.55-1.1-1.05-1.46c-1.34-0.95-2.91-0.17-4.38-0.52c0.31,0.4,0.61,0.8,0.92,1.21c-0.02-0.5-0.04-0.99-0.06-1.49
				C775.34,413.19,772.84,413.18,772.91,414.79L772.91,414.79z"/>
		</g>
		<g>
			<path class="st3" d="M796.11,383.06c-0.58-1.19-0.13-2.66,0.94-3.41c0.96-0.67,1.91-0.3,2.97-0.41c1.34-0.13,2.29-0.89,2.59-2.22
				c0.16-0.71-0.08-1.38-0.03-2.08c0.09-1.33,0.39-1.04,1.58-1.08c1.42-0.05,2.61-0.64,2.93-2.09c0.35-1.57-2.06-2.24-2.41-0.66
				c-0.1,0.44-2.34,0.16-2.79,0.31c-0.73,0.25-1.26,0.71-1.57,1.41c-0.35,0.77-0.26,1.57-0.21,2.39c0.12,1.76-0.55,1.36-2.03,1.46
				c-3.72,0.26-5.68,4.44-4.12,7.62C794.66,385.77,796.81,384.5,796.11,383.06L796.11,383.06z"/>
		</g>
		<g>
			<path class="st3" d="M771.4,371.67c-0.58-1.19-0.13-2.66,0.94-3.41c0.96-0.67,1.91-0.3,2.97-0.41c1.34-0.13,2.29-0.89,2.59-2.22
				c0.16-0.71-0.08-1.38-0.03-2.08c0.09-1.33,0.39-1.04,1.58-1.08c1.42-0.05,2.61-0.64,2.93-2.09c0.35-1.57-2.06-2.24-2.41-0.66
				c-0.1,0.44-2.34,0.16-2.79,0.31c-0.73,0.25-1.26,0.71-1.57,1.41c-0.35,0.77-0.26,1.57-0.21,2.39c0.12,1.76-0.55,1.36-2.03,1.46
				c-3.72,0.26-5.68,4.44-4.12,7.62C769.95,374.38,772.11,373.11,771.4,371.67L771.4,371.67z"/>
		</g>
		<g>
			<path class="st3" d="M739.7,325.37c0.02,0.5,0.04,0.99,0.06,1.49c0.02,0.54,0.37,1.08,0.92,1.21c0.88,0.21,2.17-0.2,2.92,0.08
				c1.14,0.43,0.71,2.4,1.21,3.33c0.36,0.67,0.93,1.17,1.71,1.28c0.91,0.14,3.13-1.37,2.98,0.4c-0.13,1.6,2.37,1.59,2.5,0
				c0.1-1.26-0.5-2.46-1.61-3.1c-0.5-0.29-1.14-0.44-1.71-0.4c-0.69,0.05-1.43,0.75-1.78,0.04c-0.24-0.49,0.06-1.47-0.12-2.06
				c-0.18-0.58-0.55-1.1-1.05-1.46c-1.34-0.95-2.91-0.17-4.38-0.52c0.31,0.4,0.61,0.8,0.92,1.21c-0.02-0.5-0.04-0.99-0.06-1.49
				C742.13,323.77,739.63,323.76,739.7,325.37L739.7,325.37z"/>
		</g>
		<g>
			<path class="st3" d="M726.28,320.43c-0.58-1.19-0.13-2.66,0.94-3.41c0.96-0.67,1.91-0.3,2.97-0.41c1.34-0.13,2.29-0.89,2.59-2.22
				c0.16-0.71-0.08-1.38-0.03-2.08c0.09-1.33,0.39-1.04,1.58-1.08c1.42-0.05,2.61-0.64,2.93-2.09c0.35-1.57-2.06-2.24-2.41-0.66
				c-0.1,0.44-2.34,0.16-2.79,0.31c-0.73,0.25-1.26,0.71-1.57,1.41c-0.35,0.77-0.26,1.57-0.21,2.39c0.12,1.76-0.55,1.36-2.03,1.46
				c-3.72,0.26-5.68,4.44-4.12,7.62C724.83,323.13,726.99,321.87,726.28,320.43L726.28,320.43z"/>
		</g>
		<g>
			<path class="st3" d="M719.61,346.51c-0.58-1.19-0.13-2.66,0.94-3.41c0.96-0.67,1.91-0.3,2.97-0.41c1.34-0.13,2.29-0.89,2.59-2.22
				c0.16-0.71-0.08-1.38-0.03-2.08c0.09-1.33,0.39-1.04,1.58-1.08c1.42-0.05,2.61-0.64,2.93-2.09c0.35-1.57-2.06-2.24-2.41-0.66
				c-0.1,0.44-2.34,0.16-2.79,0.31c-0.73,0.25-1.26,0.71-1.57,1.41c-0.35,0.77-0.26,1.57-0.21,2.39c0.12,1.76-0.55,1.36-2.03,1.46
				c-3.72,0.26-5.68,4.44-4.12,7.62C718.16,349.22,720.31,347.95,719.61,346.51L719.61,346.51z"/>
		</g>
		<g>
			<path class="st3" d="M742.73,347.51c0.02,0.5,0.04,0.99,0.06,1.49c0.02,0.54,0.37,1.08,0.92,1.21c0.88,0.21,2.17-0.2,2.92,0.08
				c1.14,0.43,0.71,2.4,1.21,3.33c0.36,0.67,0.93,1.17,1.71,1.28c0.91,0.14,3.13-1.37,2.98,0.4c-0.13,1.6,2.37,1.59,2.5,0
				c0.1-1.26-0.5-2.46-1.61-3.1c-0.5-0.29-1.14-0.44-1.71-0.4c-0.69,0.05-1.43,0.75-1.78,0.04c-0.24-0.49,0.06-1.47-0.12-2.06
				c-0.18-0.58-0.55-1.1-1.05-1.46c-1.34-0.95-2.91-0.17-4.38-0.52c0.31,0.4,0.61,0.8,0.92,1.21c-0.02-0.5-0.04-0.99-0.06-1.49
				C745.16,345.91,742.66,345.9,742.73,347.51L742.73,347.51z"/>
		</g>
		<g>
			<path class="st3" d="M738.1,398.68c0.02,0.5,0.04,0.99,0.06,1.49c0.02,0.54,0.37,1.08,0.92,1.21c0.88,0.21,2.17-0.2,2.92,0.08
				c1.14,0.43,0.71,2.4,1.21,3.33c0.36,0.67,0.93,1.17,1.71,1.28c0.91,0.14,3.13-1.37,2.98,0.4c-0.13,1.6,2.37,1.59,2.5,0
				c0.1-1.26-0.5-2.46-1.61-3.1c-0.5-0.29-1.14-0.44-1.71-0.4c-0.69,0.05-1.43,0.75-1.78,0.04c-0.24-0.49,0.06-1.47-0.12-2.06
				c-0.18-0.58-0.55-1.1-1.05-1.46c-1.34-0.95-2.91-0.17-4.38-0.52c0.31,0.4,0.61,0.8,0.92,1.21c-0.02-0.5-0.04-0.99-0.06-1.49
				C740.53,397.08,738.03,397.07,738.1,398.68L738.1,398.68z"/>
		</g>
		<g>
			<path class="st3" d="M727.12,366.61c-0.58-1.19-0.13-2.66,0.94-3.41c0.96-0.67,1.91-0.3,2.97-0.41c1.34-0.13,2.29-0.89,2.59-2.22
				c0.16-0.71-0.08-1.38-0.03-2.08c0.09-1.33,0.39-1.04,1.58-1.08c1.42-0.05,2.61-0.64,2.93-2.09c0.35-1.57-2.06-2.24-2.41-0.66
				c-0.1,0.44-2.34,0.16-2.79,0.31c-0.73,0.25-1.26,0.71-1.57,1.41c-0.35,0.77-0.26,1.57-0.21,2.39c0.12,1.76-0.55,1.36-2.03,1.46
				c-3.72,0.26-5.68,4.44-4.12,7.62C725.67,369.32,727.83,368.05,727.12,366.61L727.12,366.61z"/>
		</g>
		<g>
			<path class="st3" d="M739.5,386.47c-0.58-1.19-0.13-2.66,0.94-3.41c0.96-0.67,1.91-0.3,2.97-0.41c1.34-0.13,2.29-0.89,2.59-2.22
				c0.16-0.71-0.08-1.38-0.03-2.08c0.09-1.33,0.39-1.04,1.58-1.08c1.42-0.05,2.61-0.64,2.93-2.09c0.35-1.57-2.06-2.24-2.41-0.66
				c-0.1,0.44-2.34,0.16-2.79,0.31c-0.73,0.25-1.26,0.71-1.57,1.41c-0.35,0.77-0.26,1.57-0.21,2.39c0.12,1.76-0.55,1.36-2.03,1.46
				c-3.72,0.26-5.68,4.44-4.12,7.62C738.05,389.18,740.2,387.91,739.5,386.47L739.5,386.47z"/>
		</g>
		<g>
			<path class="st3" d="M710.89,372.35c0.02,0.5,0.04,0.99,0.06,1.49c0.02,0.54,0.37,1.08,0.92,1.21c0.88,0.21,2.17-0.2,2.92,0.08
				c1.14,0.43,0.71,2.4,1.21,3.33c0.36,0.67,0.93,1.17,1.71,1.28c0.91,0.14,3.13-1.37,2.98,0.4c-0.13,1.6,2.37,1.59,2.5,0
				c0.1-1.26-0.5-2.46-1.61-3.1c-0.5-0.29-1.14-0.44-1.71-0.4c-0.69,0.05-1.43,0.75-1.78,0.04c-0.24-0.49,0.06-1.47-0.12-2.06
				c-0.18-0.58-0.55-1.1-1.05-1.46c-1.34-0.95-2.91-0.17-4.38-0.52c0.31,0.4,0.61,0.8,0.92,1.21c-0.02-0.5-0.04-0.99-0.06-1.49
				C713.32,370.75,710.82,370.74,710.89,372.35L710.89,372.35z"/>
		</g>
		<g>
			<path class="st3" d="M702.1,326.49c0.02,0.5,0.04,0.99,0.06,1.49c0.02,0.54,0.37,1.08,0.92,1.21c0.88,0.21,2.17-0.2,2.92,0.08
				c1.14,0.43,0.71,2.4,1.21,3.33c0.36,0.67,0.93,1.17,1.71,1.28c0.91,0.14,3.13-1.37,2.98,0.4c-0.13,1.6,2.37,1.59,2.5,0
				c0.1-1.26-0.5-2.46-1.61-3.1c-0.5-0.29-1.14-0.44-1.71-0.4c-0.69,0.05-1.43,0.75-1.78,0.04c-0.24-0.49,0.06-1.47-0.12-2.06
				c-0.18-0.58-0.55-1.1-1.05-1.46c-1.34-0.95-2.91-0.17-4.38-0.52c0.31,0.4,0.61,0.8,0.92,1.21c-0.02-0.5-0.04-0.99-0.06-1.49
				C704.53,324.89,702.03,324.88,702.1,326.49L702.1,326.49z"/>
		</g>
		<g>
			<path class="st3" d="M713.92,394.49c0.02,0.5,0.04,0.99,0.06,1.49c0.02,0.54,0.37,1.08,0.92,1.21c0.88,0.21,2.17-0.2,2.92,0.08
				c1.14,0.43,0.71,2.4,1.21,3.33c0.36,0.67,0.93,1.17,1.71,1.28c0.91,0.14,3.13-1.37,2.98,0.4c-0.13,1.6,2.37,1.59,2.5,0
				c0.1-1.26-0.5-2.46-1.61-3.1c-0.5-0.29-1.14-0.44-1.71-0.4c-0.69,0.05-1.43,0.75-1.78,0.04c-0.24-0.49,0.06-1.47-0.12-2.06
				c-0.18-0.58-0.55-1.1-1.05-1.46c-1.34-0.95-2.91-0.17-4.38-0.52c0.31,0.4,0.61,0.8,0.92,1.21c-0.02-0.5-0.04-0.99-0.06-1.49
				C716.36,392.89,713.86,392.88,713.92,394.49L713.92,394.49z"/>
		</g>
		<g>
			<path class="st3" d="M729.76,416.9c0.02,0.5,0.04,0.99,0.06,1.49c0.02,0.54,0.37,1.08,0.92,1.21c0.88,0.21,2.17-0.2,2.92,0.08
				c1.14,0.43,0.71,2.4,1.21,3.33c0.36,0.67,0.93,1.17,1.71,1.28c0.91,0.14,3.13-1.37,2.98,0.4c-0.13,1.6,2.37,1.59,2.5,0
				c0.1-1.26-0.5-2.46-1.61-3.1c-0.5-0.29-1.14-0.44-1.71-0.4c-0.69,0.05-1.43,0.75-1.78,0.04c-0.24-0.49,0.06-1.47-0.12-2.06
				c-0.18-0.58-0.55-1.1-1.05-1.46c-1.34-0.95-2.91-0.17-4.38-0.52c0.31,0.4,0.61,0.8,0.92,1.21c-0.02-0.5-0.04-0.99-0.06-1.49
				C732.19,415.3,729.69,415.29,729.76,416.9L729.76,416.9z"/>
		</g>
		<g>
			<path class="st3" d="M710.69,433.45c-0.58-1.19-0.13-2.66,0.94-3.41c0.96-0.67,1.91-0.3,2.97-0.41c1.34-0.13,2.29-0.89,2.59-2.22
				c0.16-0.71-0.08-1.38-0.03-2.08c0.09-1.33,0.39-1.04,1.58-1.08c1.42-0.05,2.61-0.64,2.93-2.09c0.35-1.57-2.06-2.24-2.41-0.66
				c-0.1,0.44-2.34,0.16-2.79,0.31c-0.73,0.25-1.26,0.71-1.57,1.41c-0.35,0.77-0.26,1.57-0.21,2.39c0.12,1.76-0.55,1.36-2.03,1.46
				c-3.72,0.26-5.68,4.44-4.12,7.62C709.24,436.15,711.4,434.89,710.69,433.45L710.69,433.45z"/>
		</g>
		<g>
			<path class="st3" d="M699.39,415.54c-0.58-1.19-0.13-2.66,0.94-3.41c0.96-0.67,1.91-0.3,2.97-0.41c1.34-0.13,2.29-0.89,2.59-2.22
				c0.16-0.71-0.08-1.38-0.03-2.08c0.09-1.33,0.39-1.04,1.58-1.08c1.42-0.05,2.61-0.64,2.93-2.09c0.35-1.57-2.06-2.24-2.41-0.66
				c-0.1,0.44-2.34,0.16-2.79,0.31c-0.73,0.25-1.26,0.71-1.57,1.41c-0.35,0.77-0.26,1.57-0.21,2.39c0.12,1.76-0.55,1.36-2.03,1.46
				c-3.72,0.26-5.68,4.44-4.12,7.62C697.94,418.25,700.09,416.98,699.39,415.54L699.39,415.54z"/>
		</g>
		<g>
			<path class="st3" d="M696.24,360.57c-0.58-1.19-0.13-2.66,0.94-3.41c0.96-0.67,1.91-0.3,2.97-0.41c1.34-0.13,2.29-0.89,2.59-2.22
				c0.16-0.71-0.08-1.38-0.03-2.08c0.09-1.33,0.39-1.04,1.58-1.08c1.42-0.05,2.61-0.64,2.93-2.09c0.35-1.57-2.06-2.24-2.41-0.66
				c-0.1,0.44-2.34,0.16-2.79,0.31c-0.73,0.25-1.26,0.71-1.57,1.41c-0.35,0.77-0.26,1.57-0.21,2.39c0.12,1.76-0.55,1.36-2.03,1.46
				c-3.72,0.26-5.68,4.44-4.12,7.62C694.79,363.27,696.95,362.01,696.24,360.57L696.24,360.57z"/>
		</g>
		<g>
			<path class="st3" d="M767.83,397.18c-0.58-1.19-0.13-2.66,0.94-3.41c0.96-0.67,1.91-0.3,2.97-0.41c1.34-0.13,2.29-0.89,2.59-2.22
				c0.16-0.71-0.08-1.38-0.03-2.08c0.09-1.33,0.39-1.04,1.58-1.08c1.42-0.05,2.61-0.64,2.93-2.09c0.35-1.57-2.06-2.24-2.41-0.66
				c-0.1,0.44-2.34,0.16-2.79,0.31c-0.73,0.25-1.26,0.71-1.57,1.41c-0.35,0.77-0.26,1.57-0.21,2.39c0.12,1.76-0.55,1.36-2.03,1.46
				c-3.72,0.26-5.68,4.44-4.12,7.62C766.38,399.89,768.54,398.62,767.83,397.18L767.83,397.18z"/>
		</g>
		<g>
			<path class="st3" d="M768.13,427.19c-1.19,0.57-2.67,0.1-3.4-0.98c-0.72-1.06-0.2-2.13-0.41-3.29c-0.24-1.29-1.1-2.1-2.38-2.31
				c-0.63-0.1-1.23,0.09-1.85,0.04c-1.48-0.12-1.03-0.68-1.09-1.85c-0.07-1.28-0.72-2.47-2.06-2.69c-1.57-0.25-2.25,2.16-0.66,2.41
				c0.38,0.06,0.14,2.39,0.28,2.8c0.26,0.76,0.73,1.28,1.46,1.6c0.66,0.29,1.36,0.26,2.07,0.22c0.63-0.04,1.34-0.32,1.78,0.4
				c0.18,0.3-0.11,1.28-0.09,1.63c0.24,3.73,4.41,5.7,7.6,4.17C770.85,428.65,769.58,426.49,768.13,427.19L768.13,427.19z"/>
		</g>
		<g>
			<path class="st3" d="M804.99,452.83c0.02,0.5,0.04,0.99,0.06,1.49c0.02,0.54,0.37,1.08,0.92,1.21c0.88,0.21,2.17-0.2,2.92,0.08
				c1.14,0.43,0.71,2.4,1.21,3.33c0.36,0.67,0.93,1.17,1.71,1.28c0.91,0.14,3.13-1.37,2.98,0.4c-0.13,1.6,2.37,1.59,2.5,0
				c0.1-1.26-0.5-2.46-1.61-3.1c-0.5-0.29-1.14-0.44-1.71-0.4c-0.69,0.05-1.43,0.75-1.78,0.04c-0.24-0.49,0.06-1.47-0.12-2.06
				c-0.18-0.58-0.55-1.1-1.05-1.46c-1.34-0.95-2.91-0.17-4.38-0.52c0.31,0.4,0.61,0.8,0.92,1.21c-0.02-0.5-0.04-0.99-0.06-1.49
				C807.42,451.23,804.92,451.22,804.99,452.83L804.99,452.83z"/>
		</g>
		<g>
			<path class="st3" d="M837.29,449.48c0.02,0.5,0.04,0.99,0.06,1.49c0.02,0.54,0.37,1.08,0.92,1.21c0.88,0.21,2.17-0.2,2.92,0.08
				c1.14,0.43,0.71,2.4,1.21,3.33c0.36,0.67,0.93,1.17,1.71,1.28c0.91,0.14,3.13-1.37,2.98,0.4c-0.13,1.6,2.37,1.59,2.5,0
				c0.1-1.26-0.5-2.46-1.61-3.1c-0.5-0.29-1.14-0.44-1.71-0.4c-0.69,0.05-1.43,0.75-1.78,0.04c-0.24-0.49,0.06-1.47-0.12-2.06
				c-0.18-0.58-0.55-1.1-1.05-1.46c-1.34-0.95-2.91-0.17-4.38-0.52c0.31,0.4,0.61,0.8,0.92,1.21c-0.02-0.5-0.04-0.99-0.06-1.49
				C839.72,447.88,837.22,447.87,837.29,449.48L837.29,449.48z"/>
		</g>
		<g>
			<path class="st3" d="M884.43,414.06c0.02,0.5,0.04,0.99,0.06,1.49c0.02,0.54,0.37,1.08,0.92,1.21c0.88,0.21,2.17-0.2,2.92,0.08
				c1.14,0.43,0.71,2.4,1.21,3.33c0.36,0.67,0.93,1.17,1.71,1.28c0.91,0.14,3.13-1.37,2.98,0.4c-0.13,1.6,2.37,1.59,2.5,0
				c0.1-1.26-0.5-2.46-1.61-3.1c-0.5-0.29-1.14-0.44-1.71-0.4c-0.69,0.05-1.43,0.75-1.78,0.04c-0.24-0.49,0.06-1.47-0.12-2.06
				c-0.18-0.58-0.55-1.1-1.05-1.46c-1.34-0.95-2.91-0.17-4.38-0.52c0.31,0.4,0.61,0.8,0.92,1.21c-0.02-0.5-0.04-0.99-0.06-1.49
				C886.87,412.46,884.37,412.45,884.43,414.06L884.43,414.06z"/>
		</g>
		<g>
			<path class="st3" d="M822.73,447.08c-0.58-1.19-0.13-2.66,0.94-3.41c0.96-0.67,1.91-0.3,2.97-0.41c1.34-0.13,2.29-0.89,2.59-2.22
				c0.16-0.71-0.08-1.38-0.03-2.08c0.09-1.33,0.39-1.04,1.58-1.08c1.42-0.05,2.61-0.64,2.93-2.09c0.35-1.57-2.06-2.24-2.41-0.66
				c-0.1,0.44-2.34,0.16-2.79,0.31c-0.73,0.25-1.26,0.71-1.57,1.41c-0.35,0.77-0.26,1.57-0.21,2.39c0.12,1.76-0.55,1.36-2.03,1.46
				c-3.72,0.26-5.68,4.44-4.12,7.62C821.28,449.79,823.43,448.52,822.73,447.08L822.73,447.08z"/>
		</g>
		<g>
			<path class="st3" d="M795.13,424.9c-0.58-1.19-0.13-2.66,0.94-3.41c0.96-0.67,1.91-0.3,2.97-0.41c1.34-0.13,2.29-0.89,2.59-2.22
				c0.16-0.71-0.08-1.38-0.03-2.08c0.09-1.33,0.39-1.04,1.58-1.08c1.42-0.05,2.61-0.64,2.93-2.09c0.35-1.57-2.06-2.24-2.41-0.66
				c-0.1,0.44-2.34,0.16-2.79,0.31c-0.73,0.25-1.26,0.71-1.57,1.41c-0.35,0.77-0.26,1.57-0.21,2.39c0.12,1.76-0.55,1.36-2.03,1.46
				c-3.72,0.26-5.68,4.44-4.12,7.62C793.68,427.61,795.84,426.35,795.13,424.9L795.13,424.9z"/>
		</g>
		<g>
			<path class="st3" d="M819.03,425.18c-0.58-1.19-0.13-2.66,0.94-3.41c0.96-0.67,1.91-0.3,2.97-0.41c1.34-0.13,2.29-0.89,2.59-2.22
				c0.16-0.71-0.08-1.38-0.03-2.08c0.09-1.33,0.39-1.04,1.58-1.08c1.42-0.05,2.61-0.64,2.93-2.09c0.35-1.57-2.06-2.24-2.41-0.66
				c-0.1,0.44-2.34,0.16-2.79,0.31c-0.73,0.25-1.26,0.71-1.57,1.41c-0.35,0.77-0.26,1.57-0.21,2.39c0.12,1.76-0.55,1.36-2.03,1.46
				c-3.72,0.26-5.68,4.44-4.12,7.62C817.58,427.89,819.74,426.62,819.03,425.18L819.03,425.18z"/>
		</g>
		<g>
			<path class="st3" d="M791.56,450.41c-0.58-1.19-0.13-2.66,0.94-3.41c0.96-0.67,1.91-0.3,2.97-0.41c1.34-0.13,2.29-0.89,2.59-2.22
				c0.16-0.71-0.08-1.38-0.03-2.08c0.09-1.33,0.39-1.04,1.58-1.08c1.42-0.05,2.61-0.64,2.93-2.09c0.35-1.57-2.06-2.24-2.41-0.66
				c-0.1,0.44-2.34,0.16-2.79,0.31c-0.73,0.25-1.26,0.71-1.57,1.41c-0.35,0.77-0.26,1.57-0.21,2.39c0.12,1.76-0.55,1.36-2.03,1.46
				c-3.72,0.26-5.68,4.44-4.12,7.62C790.11,453.12,792.26,451.85,791.56,450.41L791.56,450.41z"/>
		</g>
		<g>
			<path class="st3" d="M857.17,445.41c0.02,0.5,0.04,0.99,0.06,1.49c0.02,0.54,0.37,1.08,0.92,1.21c0.88,0.21,2.17-0.2,2.92,0.08
				c1.14,0.43,0.71,2.4,1.21,3.33c0.36,0.67,0.93,1.17,1.71,1.28c0.91,0.14,3.13-1.37,2.98,0.4c-0.13,1.6,2.37,1.59,2.5,0
				c0.1-1.26-0.5-2.46-1.61-3.1c-0.5-0.29-1.14-0.44-1.71-0.4c-0.69,0.05-1.43,0.75-1.78,0.04c-0.24-0.49,0.06-1.47-0.12-2.06
				c-0.18-0.58-0.55-1.1-1.05-1.46c-1.34-0.95-2.91-0.17-4.38-0.52c0.31,0.4,0.61,0.8,0.92,1.21c-0.02-0.5-0.04-0.99-0.06-1.49
				C859.61,443.81,857.1,443.8,857.17,445.41L857.17,445.41z"/>
		</g>
		<g>
			<path class="st3" d="M881.02,449.93c0.02,0.5,0.04,0.99,0.06,1.49c0.02,0.54,0.37,1.08,0.92,1.21c0.88,0.21,2.17-0.2,2.92,0.08
				c1.14,0.43,0.71,2.4,1.21,3.33c0.36,0.67,0.93,1.17,1.71,1.28c0.91,0.14,3.13-1.37,2.98,0.4c-0.13,1.6,2.37,1.59,2.5,0
				c0.1-1.26-0.5-2.46-1.61-3.1c-0.5-0.29-1.14-0.44-1.71-0.4c-0.69,0.05-1.43,0.75-1.78,0.04c-0.24-0.49,0.06-1.47-0.12-2.06
				c-0.18-0.58-0.55-1.1-1.05-1.46c-1.34-0.95-2.91-0.17-4.38-0.52c0.31,0.4,0.61,0.8,0.92,1.21c-0.02-0.5-0.04-0.99-0.06-1.49
				C883.46,448.33,880.96,448.32,881.02,449.93L881.02,449.93z"/>
		</g>
		<g>
			<path class="st3" d="M864.07,478.51c-0.38-0.83,2.92-1.07,3.44-1.49c0.97-0.77,0.8-2.16,1.73-2.82c0.96-0.68,2.24-0.04,3.31-0.73
				c1.31-0.85,1.75-2.56,3.04-3.52c1.28-0.95,0.03-3.12-1.26-2.16c-0.72,0.54-1.37,1.07-1.93,1.78c-0.38,0.47-0.64,1.11-1.12,1.47
				c-0.6,0.45-0.78,0.3-1.5,0.29c-1.58-0.02-2.76,0.48-3.33,2.05c-0.1,0.26-0.09,0.85-0.25,1.05c-0.71,0.87-0.92,0.21-1.7,0.38
				c-0.67,0.15-1.27,0.26-1.83,0.7c-1.39,1.09-1.41,2.78-0.74,4.25C862.57,481.24,864.73,479.97,864.07,478.51L864.07,478.51z"/>
		</g>
		<g>
			<path class="st3" d="M843.32,475.68c-0.38-0.83,2.92-1.07,3.44-1.49c0.97-0.77,0.8-2.16,1.73-2.82c0.96-0.68,2.24-0.04,3.31-0.73
				c1.31-0.85,1.75-2.56,3.04-3.52c1.28-0.95,0.03-3.12-1.26-2.16c-0.72,0.54-1.37,1.07-1.93,1.78c-0.38,0.47-0.64,1.11-1.12,1.47
				c-0.6,0.45-0.78,0.3-1.5,0.29c-1.58-0.02-2.76,0.48-3.33,2.05c-0.1,0.26-0.09,0.85-0.25,1.05c-0.71,0.87-0.92,0.21-1.7,0.38
				c-0.67,0.15-1.27,0.26-1.83,0.7c-1.39,1.09-1.41,2.78-0.74,4.25C841.82,478.41,843.97,477.14,843.32,475.68L843.32,475.68z"/>
		</g>
		<g>
			<path class="st3" d="M847.89,488.48c-0.24,0.99-0.07,1.89,0.68,2.63c0.4,0.39,0.9,0.48,1.33,0.77c0.74,0.24,1.29,0.76,1.64,1.56
				c-0.13,0.28-0.21,0.57-0.22,0.87c-0.1,0.99,0.34,1.62,1.16,2.13c1.52,0.95,2.7,1.51,3.33,3.37c0.51,1.52,2.93,0.87,2.41-0.66
				c-0.4-1.18-0.96-2.26-1.84-3.15c-0.43-0.43-0.93-0.82-1.45-1.13c-0.26-0.17-0.53-0.31-0.81-0.42c-0.44-0.06-0.49-0.17-0.16-0.34
				c-0.15-1.17,0.25-1.92-0.58-3.02c-0.31-0.41-3.09-1.86-3.07-1.93C850.68,487.58,848.27,486.92,847.89,488.48L847.89,488.48z"/>
		</g>
		<g>
			<path class="st3" d="M873.87,504.25c-0.38-0.83,2.92-1.07,3.44-1.49c0.97-0.77,0.8-2.16,1.73-2.82c0.96-0.68,2.24-0.04,3.31-0.73
				c1.31-0.85,1.75-2.56,3.04-3.52c1.28-0.95,0.03-3.12-1.26-2.16c-0.72,0.54-1.37,1.07-1.93,1.78c-0.38,0.47-0.64,1.11-1.12,1.47
				c-0.6,0.45-0.78,0.3-1.5,0.29c-1.58-0.02-2.76,0.48-3.33,2.05c-0.1,0.26-0.09,0.85-0.25,1.05c-0.71,0.87-0.92,0.21-1.7,0.38
				c-0.67,0.15-1.27,0.26-1.83,0.7c-1.39,1.09-1.41,2.78-0.74,4.25C872.37,506.98,874.53,505.71,873.87,504.25L873.87,504.25z"/>
		</g>
		<g>
			<path class="st3" d="M844.84,522.6c0.02,0.5,0.04,0.99,0.06,1.49c0.02,0.54,0.37,1.08,0.92,1.21c0.88,0.21,2.17-0.2,2.92,0.08
				c1.14,0.43,0.71,2.4,1.21,3.33c0.36,0.67,0.93,1.17,1.71,1.28c0.91,0.14,3.13-1.37,2.98,0.4c-0.13,1.6,2.37,1.59,2.5,0
				c0.1-1.26-0.5-2.46-1.61-3.1c-0.5-0.29-1.14-0.44-1.71-0.4c-0.69,0.05-1.43,0.75-1.78,0.04c-0.24-0.49,0.06-1.47-0.12-2.06
				c-0.18-0.58-0.55-1.1-1.05-1.46c-1.34-0.95-2.91-0.17-4.38-0.52c0.31,0.4,0.61,0.8,0.92,1.21c-0.02-0.5-0.04-0.99-0.06-1.49
				C847.27,521,844.77,520.99,844.84,522.6L844.84,522.6z"/>
		</g>
		<g>
			<path class="st3" d="M830.28,520.2c-0.58-1.19-0.13-2.66,0.94-3.41c0.96-0.67,1.91-0.3,2.97-0.41c1.34-0.13,2.29-0.89,2.59-2.22
				c0.16-0.71-0.08-1.38-0.03-2.08c0.09-1.33,0.39-1.04,1.58-1.08c1.42-0.05,2.61-0.64,2.93-2.09c0.35-1.57-2.06-2.24-2.41-0.66
				c-0.1,0.44-2.34,0.16-2.79,0.31c-0.73,0.25-1.26,0.71-1.57,1.41c-0.35,0.77-0.26,1.57-0.21,2.39c0.12,1.76-0.55,1.36-2.03,1.46
				c-3.72,0.26-5.68,4.44-4.12,7.62C828.83,522.9,830.98,521.64,830.28,520.2L830.28,520.2z"/>
		</g>
		<g>
			<path class="st3" d="M825.98,492.77c-0.58-1.19-0.13-2.66,0.94-3.41c0.96-0.67,1.91-0.3,2.97-0.41c1.34-0.13,2.29-0.89,2.59-2.22
				c0.16-0.71-0.08-1.38-0.03-2.08c0.09-1.33,0.39-1.04,1.58-1.08c1.42-0.05,2.61-0.64,2.93-2.09c0.35-1.57-2.06-2.24-2.41-0.66
				c-0.1,0.44-2.34,0.16-2.79,0.31c-0.73,0.25-1.26,0.71-1.57,1.41c-0.35,0.77-0.26,1.57-0.21,2.39c0.12,1.76-0.55,1.36-2.03,1.46
				c-3.72,0.26-5.68,4.44-4.12,7.62C824.53,495.48,826.69,494.21,825.98,492.77L825.98,492.77z"/>
		</g>
		<g>
			<path class="st3" d="M864.72,518.53c0.02,0.5,0.04,0.99,0.06,1.49c0.02,0.54,0.37,1.08,0.92,1.21c0.88,0.21,2.17-0.2,2.92,0.08
				c1.14,0.43,0.71,2.4,1.21,3.33c0.36,0.67,0.93,1.17,1.71,1.28c0.91,0.14,3.13-1.37,2.98,0.4c-0.13,1.6,2.37,1.59,2.5,0
				c0.1-1.26-0.5-2.46-1.61-3.1c-0.5-0.29-1.14-0.44-1.71-0.4c-0.69,0.05-1.43,0.75-1.78,0.04c-0.24-0.49,0.06-1.47-0.12-2.06
				c-0.18-0.58-0.55-1.1-1.05-1.46c-1.34-0.95-2.91-0.17-4.38-0.52c0.31,0.4,0.61,0.8,0.92,1.21c-0.02-0.5-0.04-0.99-0.06-1.49
				C867.16,516.93,864.66,516.92,864.72,518.53L864.72,518.53z"/>
		</g>
		<g>
			<path class="st3" d="M800.99,474.82c0.02,0.5,0.04,0.99,0.06,1.49c0.02,0.54,0.37,1.08,0.92,1.21c0.88,0.21,2.17-0.2,2.92,0.08
				c1.14,0.43,0.71,2.4,1.21,3.33c0.36,0.67,0.93,1.17,1.71,1.28c0.91,0.14,3.13-1.37,2.98,0.4c-0.13,1.6,2.37,1.59,2.5,0
				c0.1-1.26-0.5-2.46-1.61-3.1c-0.5-0.29-1.14-0.44-1.71-0.4c-0.69,0.05-1.43,0.75-1.78,0.04c-0.24-0.49,0.06-1.47-0.12-2.06
				c-0.18-0.58-0.55-1.1-1.05-1.46c-1.34-0.95-2.91-0.17-4.38-0.52c0.31,0.4,0.61,0.8,0.92,1.21c-0.02-0.5-0.04-0.99-0.06-1.49
				C803.42,473.21,800.92,473.2,800.99,474.82L800.99,474.82z"/>
		</g>
		<g>
			<path class="st3" d="M884.28,514.79c0.02,0.5,0.04,0.99,0.06,1.49c0.02,0.54,0.37,1.08,0.92,1.21c0.88,0.21,2.17-0.2,2.92,0.08
				c1.14,0.43,0.71,2.4,1.21,3.33c0.36,0.67,0.93,1.17,1.71,1.28c0.91,0.14,3.13-1.37,2.98,0.4c-0.13,1.6,2.37,1.59,2.5,0
				c0.1-1.26-0.5-2.46-1.61-3.1c-0.5-0.29-1.14-0.44-1.71-0.4c-0.69,0.05-1.43,0.75-1.78,0.04c-0.24-0.49,0.06-1.47-0.12-2.06
				c-0.18-0.58-0.55-1.1-1.05-1.46c-1.34-0.95-2.91-0.17-4.38-0.52c0.31,0.4,0.61,0.8,0.92,1.21c-0.02-0.5-0.04-0.99-0.06-1.49
				C886.71,513.19,884.21,513.18,884.28,514.79L884.28,514.79z"/>
		</g>
		<g>
			<path class="st3" d="M871.62,551.63c-0.38-0.83,2.92-1.07,3.44-1.49c0.97-0.77,0.8-2.16,1.73-2.82c0.96-0.68,2.24-0.04,3.31-0.73
				c1.31-0.85,1.75-2.56,3.04-3.52c1.28-0.95,0.03-3.12-1.26-2.16c-0.72,0.54-1.37,1.07-1.93,1.78c-0.38,0.47-0.64,1.11-1.12,1.47
				c-0.6,0.45-0.78,0.3-1.5,0.29c-1.58-0.02-2.76,0.48-3.33,2.05c-0.1,0.26-0.09,0.85-0.25,1.05c-0.71,0.87-0.92,0.21-1.7,0.38
				c-0.67,0.15-1.27,0.26-1.83,0.7c-1.39,1.09-1.41,2.78-0.74,4.25C870.12,554.36,872.28,553.09,871.62,551.63L871.62,551.63z"/>
		</g>
		<g>
			<path class="st3" d="M850.87,548.8c-0.38-0.83,2.92-1.07,3.44-1.49c0.97-0.77,0.8-2.16,1.73-2.82c0.96-0.68,2.24-0.04,3.31-0.73
				c1.31-0.85,1.75-2.56,3.04-3.52c1.28-0.95,0.03-3.12-1.26-2.16c-0.72,0.54-1.37,1.07-1.93,1.78c-0.38,0.47-0.64,1.11-1.12,1.47
				c-0.6,0.45-0.78,0.3-1.5,0.29c-1.58-0.02-2.76,0.48-3.33,2.05c-0.1,0.26-0.09,0.85-0.25,1.05c-0.71,0.87-0.92,0.21-1.7,0.38
				c-0.67,0.15-1.27,0.26-1.83,0.7c-1.39,1.09-1.41,2.78-0.74,4.25C849.37,551.53,851.53,550.26,850.87,548.8L850.87,548.8z"/>
		</g>
		<g>
			<path class="st3" d="M893.85,476.94c-0.58-1.19-0.13-2.66,0.94-3.41c0.96-0.67,1.91-0.3,2.97-0.41c1.34-0.13,2.29-0.89,2.59-2.22
				c0.16-0.71-0.08-1.38-0.03-2.08c0.09-1.33,0.39-1.04,1.58-1.08c1.42-0.05,2.61-0.64,2.93-2.09c0.35-1.57-2.06-2.24-2.41-0.66
				c-0.1,0.44-2.34,0.16-2.79,0.31c-0.73,0.25-1.26,0.71-1.57,1.41c-0.35,0.77-0.26,1.57-0.21,2.39c0.12,1.76-0.55,1.36-2.03,1.46
				c-3.72,0.26-5.68,4.44-4.12,7.62C892.4,479.65,894.56,478.38,893.85,476.94L893.85,476.94z"/>
		</g>
		<g>
			<path class="st3" d="M856.85,345.1c-0.31-0.92,0.32-1.57,1.23-1.49c0.67,0.06,1.23,0.46,1.94,0.43c1.12-0.06,2-0.78,2.23-1.87
				c0.15-0.74,0.09-0.61,0.84-0.89c0.54-0.2,1-0.49,1.37-0.94c0.72-0.86,0.77-1.99-0.06-2.78c-1.16-1.11-2.93,0.65-1.77,1.77
				c-0.44-0.42-0.04-0.44-0.8-0.29c-0.24,0.05-0.5,0.17-0.72,0.28c-0.44,0.22-0.88,0.53-1.14,0.97c-0.15,0.26-0.15,0.53-0.25,0.8
				c-0.03,0.12-0.03,0.23-0.01,0.35c0.06,0.24,0.01,0.25-0.16,0.03c-0.53,0.04-1.2-0.42-1.78-0.43c-2.39-0.04-4.09,2.51-3.36,4.71
				C854.95,347.28,857.36,346.63,856.85,345.1L856.85,345.1z"/>
		</g>
	</g>
</g>
<g id="details">
	<g>
		<g>
			<path class="st3" d="M205.41,388.9c1.7,7.24,4.23,14.57,7.64,21.81c18.55,39.4,55.86,60.86,83.33,47.92
				c3.7-1.74,7.01-4.03,9.96-6.76c-9.38-7.51-21.37-18.76-16.26-23.7c5.73-5.53,20.09,1.8,27.85,6.46
				c7.77-19.17,6.46-45.57-5.39-70.76c-0.78-1.67-1.61-3.29-2.46-4.88c-4.73,8.7-14.21,24.77-18.52,22.29
				c-4.49-2.58,3.95-27.02,8.15-38.34c-6.25-8-13.32-14.65-20.79-19.7c-0.48,10.76-2.24,27.49-8.48,27.78
				c-6.54,0.3-15.9-24.36-20.79-38.7c-7.11-0.51-14.05,0.61-20.46,3.63c-5.49,2.58-10.15,6.36-13.98,11.03
				c9.34,9.31,29.71,30.24,27.92,33.98c-1.82,3.81-26.19-11.5-36.54-18.23c-2.5,7.19-3.81,15.26-3.84,23.84
				c12.31,5.36,39.56,17.83,38.78,23.06C240.82,394.59,217.67,391.1,205.41,388.9z M240.14,415.2c9.26-0.73,16.95,1.11,17.18,4.1
				c0.23,2.99-7.08,6-16.34,6.73c-9.26,0.72-16.95-1.11-17.18-4.1C223.57,418.93,230.88,415.92,240.14,415.2z"/>
		</g>
		<g>
			<path class="st3" d="M401.86,506.54c-2.92-4.41,16.5-27.23,25.4-37.29c-3.65-7.77-8.25-14.53-13.56-19.99
				c-6.54,10.47-22.15,34.65-25.41,31.97c-3.21-2.64,6.41-30.21,10.93-42.6c-5.45-2.62-11.27-4.07-17.33-4.09
				c-7.08-0.02-13.84,1.89-20.07,5.36c1.63,15.06,3.57,41.37-2.48,43.86c-5.77,2.37-14.44-12.04-19.43-21.59
				c-4.63,7.73-8.23,16.75-10.51,26.64c8.59,8.48,26.58,27.06,23.6,31.3c-2.86,4.06-18.25-6.49-26.21-12.37
				c-0.09,1.81-0.16,3.63-0.17,5.47c-0.1,27.84,9.88,52.32,25.03,66.41c5.06-7.5,14.98-20.22,22.51-17.63
				c6.72,2.32,0.61,17.58-4.71,28.35c3.83,1.23,7.8,1.9,11.89,1.91c30.37,0.11,55.11-35.11,55.26-78.66c0.03-8-0.78-15.71-2.3-22.99
				C424.12,497.77,404.62,510.72,401.86,506.54z M431.59,528.3c1.05,2.81-5.14,7.72-13.84,10.98c-8.69,3.26-16.6,3.62-17.65,0.81
				c-1.05-2.81,5.14-7.72,13.84-10.98C422.64,525.85,430.54,525.49,431.59,528.3z"/>
		</g>
		<g>
			<path class="st1" d="M350.39,920.82h67.86c16.63,0,30.11-13.48,30.11-30.11v-62.58H320.27v62.58
				C320.27,907.34,333.76,920.82,350.39,920.82z"/>
			<g>
				<path class="st3" d="M419.39,750.87c-1.85,12.86,0.6,24.2,11.14,32.38c7.66,5.95,10.14,13.44,12.1,22.66
					c1.91,8.97,2.59,18.14,3,27.28c0.7,15.67,1.44,31.43,1.55,47.11c0.05,6.88,0.08,14.21-2.26,20.76
					c-2.04,5.7-6.26,9.69-10.96,13.3c-1.26,0.97-0.01,3.14,1.26,2.16c8.81-6.79,13.11-14.09,14.11-25.27
					c1.43-16.08-0.33-32.68-0.87-48.78c-0.56-16.74-0.59-35.34-7.56-50.93c-3.01-6.73-8.81-9.05-13.49-14.23
					c-6.31-6.98-6.9-16.9-5.62-25.77C422.02,749.96,419.61,749.28,419.39,750.87L419.39,750.87z"/>
			</g>
			<g>
				<path class="st3" d="M420.24,749.93c-15.7-0.14-31.4-0.27-47.09-0.4c-3.84-0.03-7.68-0.06-11.52-0.1
					c-3.37-0.03-7.52-0.65-10.85-0.07c-2.22,0.39-3.44,1.86-1.89,3.85c0.98,1.27,2.74-0.51,1.77-1.77c0.85,1.09,5.72,0.43,7.17,0.45
					c2.86,0.02,5.73,0.05,8.59,0.07c6.12,0.05,12.23,0.1,18.35,0.15c11.83,0.1,23.66,0.19,35.49,0.3
					C421.85,752.45,421.85,749.95,420.24,749.93L420.24,749.93z"/>
			</g>
			<g>
				<path class="st3" d="M347.47,753.11c1.87,5.84,2.66,12.24,0.02,17.98c-2.28,4.96-6.73,8.36-10.62,12.02
					c-7.07,6.65-11.08,14.91-13.44,24.24c-2.7,10.65-3.3,21.69-3.74,32.63c-0.51,12.4-0.93,24.8-1.32,37.21
					c-0.05,1.61,2.45,1.61,2.5,0c0.39-12.4,0.82-24.81,1.32-37.21c0.51-12.42,1.18-25.05,5.09-36.95
					c1.85-5.64,4.51-10.96,8.55-15.36c3.39-3.7,7.51-6.67,10.74-10.54c5.95-7.14,6.05-16.14,3.32-24.68
					C349.39,750.91,346.98,751.57,347.47,753.11L347.47,753.11z"/>
			</g>
		</g>
		<g>
			<path class="st3" d="M275.65,423.24c4.64,12.72,8.45,25.78,12.43,38.71c7.81,25.41,15.3,50.91,22.53,76.49
				c18.26,64.59,35.34,129.71,48.04,195.65c5.88,30.51,11.24,61.51,12.24,92.63c0.05,1.6,2.55,1.61,2.5,0
				c-0.87-26.92-5.1-53.75-9.88-80.22c-5.99-33.09-13.38-65.93-21.35-98.59c-14.6-59.84-31.15-119.24-49.08-178.17
				c-4.79-15.76-9.37-31.69-15.02-47.17C277.51,421.07,275.09,421.72,275.65,423.24L275.65,423.24z"/>
		</g>
		<g>
			<path class="st3" d="M382.79,525.63c4.59,79.21,4.31,158.81,0.87,238.06c-0.93,21.44-2.15,42.88-3.7,64.28
				c-0.12,1.61,2.38,1.6,2.5,0c5.76-79.14,7.39-158.69,5.44-238.01c-0.53-21.46-1.37-42.9-2.61-64.33
				C385.2,524.03,382.7,524.02,382.79,525.63L382.79,525.63z"/>
		</g>
		<g>
			<path class="st4" d="M290.14,460.32c-10.13-39.78-23.83-78.58-39.64-116.43c-0.61-1.46-3.03-0.82-2.41,0.66
				c15.81,37.86,29.51,76.66,39.64,116.43C288.13,462.55,290.54,461.89,290.14,460.32L290.14,460.32z"/>
		</g>
		<g>
			<path class="st4" d="M298.6,392.9c-11.34,6.85-19.06,18.13-21.21,31.22c-0.26,1.57,2.15,2.25,2.41,0.66
				c2.05-12.47,9.23-23.18,20.06-29.72C301.23,394.22,299.98,392.06,298.6,392.9L298.6,392.9z"/>
		</g>
		<g>
			<path class="st4" d="M268.58,391.96c-7.68-9.5-17.28-16.92-28.4-21.97c-1.45-0.66-2.73,1.49-1.26,2.16
				c10.94,4.97,20.34,12.24,27.89,21.58C267.83,394.97,269.59,393.2,268.58,391.96L268.58,391.96z"/>
		</g>
		<g>
			<path class="st4" d="M378.68,459.82c-2.91,23.39-0.78,47.15,1.68,70.48c2.13,20.24,5.64,40.81,4.92,61.23
				c-0.06,1.61,2.44,1.61,2.5,0c0.72-20.41-2.79-40.98-4.92-61.23c-2.46-23.33-4.59-47.1-1.68-70.48
				C381.38,458.23,378.88,458.25,378.68,459.82L378.68,459.82z"/>
		</g>
		<g>
			<path class="st4" d="M382.35,529.98c-6.54-13.6-17.25-24.15-28.17-34.3c-1.18-1.09-2.95,0.67-1.77,1.77
				c10.77,10,21.33,20.38,27.78,33.79C380.89,532.69,383.05,531.42,382.35,529.98L382.35,529.98z"/>
		</g>
		<g>
			<path class="st4" d="M410.54,550.63c-13.43,1.13-25.64,13.25-25.39,26.92c0.03,1.61,2.53,1.61,2.5,0
				c-0.22-12.23,10.8-23.41,22.89-24.42C412.13,553,412.14,550.5,410.54,550.63L410.54,550.63z"/>
		</g>
	</g>
</g>
</svg>
