<?xml version="1.0" encoding="utf-8"?>
<!-- Generator: Adobe Illustrator 23.0.2, SVG Export Plug-In . SVG Version: 6.00 Build 0)  -->
<svg version="1.1" xmlns="http://www.w3.org/2000/svg" xmlns:xlink="http://www.w3.org/1999/xlink" x="0px" y="0px"
	 viewBox="0 0 1080 1080" style="enable-background:new 0 0 1080 1080;" xml:space="preserve">
<style type="text/css">
	.st0{fill:#FFECDD;}
	.st1{fill:#CAE9ED;}
	.st2{fill:#EC9A4A;}
	.st3{fill:#0D4D90;}
	.st4{fill:#F8BAB4;}
	.st5{fill:none;}
	.st6{fill:#FFFFFF;}
</style>
<g id="bckgr">
	<g>
		<g>
			<path class="st0" d="M808.93,434.94c-4.05-12.81-9.19-25.79-15.57-38.93c-103.5-213.48-317.64-143.81-362.12-84.93
				c-44.48,58.87-44.55,101.67-11.91,140.44c9.83,11.67,30.4,15.71,51.76,18.5c1.4-15.29,1.59-41.71,1.63-42.63
				c0.32-8.33-4.29-33.93,2.31-37.06c4.42-2.1,13.29,10.89,21.07,14.84c2,1.02,4.61-0.62,7.01-0.9c7.33-0.86,21.03,0.47,23.14,0.69
				c0.19-0.27,1-1.02,3.48-2.94c5.06-3.94,16.32-7.67,16.32-7.67s1.11,21.16,0.54,37.65c-0.56,16.49-11.43,26.42-11.43,26.42
				s13.42,16.37,16.91,32.42c4.47,20.56-0.74,41.96-0.63,42.28c0,0,24.45,23.33,23.97,25.9c1.58-1.02,9.73-4.58,11.36,4.84
				c1.37,7.88-0.71,16.38-1.82,18.81c-1.37,3-6.23,2.58-6.67,2.53c-4.92-0.55-52.65-50.41-61.05-54.76
				c-4.5-2.33-13.55,26.02-21.22,27.56c10.16,10.21,19.33,23.76,21.39,47.17c1.16,13.22,1.32,25.04,0.63,35.65
				c12.05-7.77,25.74-17.45,25.74-17.45l14.79,17.05c0,0-5.89,7.06-11.1,11.94c-5.21,4.88-18.83,11.77-18.83,11.77
				s3.53,2.19,16.14,11.1c12.61,8.91,16.81,23.04,20.68,33.63c2.77,7.6,4.32,13.38,2.18,19.33c-0.06,0.28-0.13,0.56-0.2,0.84
				c-0.93,3.39-3.25,6.55-6.23,8.29c-1.56,1.08-3.18,1.47-4.77,1.39c-0.35,0.01-0.71-0.01-1.06-0.05c-2.27-0.24-4.38-1.33-6.2-2.7
				c-1.43-1.08-2.72-2.43-3.72-3.94c-0.49-0.57-0.85-1.04-1.01-1.3c-0.23-0.36-0.37-0.96-0.5-1.77c-0.41-1.23-0.61-2.52-0.52-3.82
				c-0.54-3.63-1.62-8.59-4.86-13.92c-5.72-9.42-23.04-20.35-23.04-20.35s9.58,26.9,11.27,37.66c1.68,10.76-2.02,35.98-3.36,45.4
				c-1.35,9.42-4.05,25.27-4.05,25.27s-4.87-3.9-11.69-10.72c-6.82-6.82-7.14-19.16-9.09-32.47c-1.78-12.17-3.29-21.09-11.22-42.6
				c-14.52,12.65-31.83,18.39-46.69,22.34c-24.43,6.48-83.81,31.96-61.11,80.56c20.38,43.63,120.21,50.22,219.7,3.2
				c14.97-7.07,34.72-18.83,56.27-34.65C742.32,721.12,858.34,591.34,808.93,434.94z"/>
		</g>
		<g>
			<path class="st1" d="M526.52,404.98c0,0-0.11-0.01-0.28-0.03C526.04,405.23,526.52,404.98,526.52,404.98z"/>
		</g>
		<g>
			<path class="st1" d="M575.18,559.26c0.14-0.03,0.19-0.12,0.22-0.24C575.15,559.18,575.06,559.28,575.18,559.26z"/>
		</g>
	</g>
	<g>
		<path class="st2" d="M813.63,491.72c-13.35,0-24.21-10.86-24.21-24.21c0-13.35,10.86-24.21,24.21-24.21s24.21,10.86,24.21,24.21
			C837.84,480.86,826.98,491.72,813.63,491.72z M813.63,446.31c-11.69,0-21.21,9.51-21.21,21.21c0,11.69,9.51,21.21,21.21,21.21
			s21.21-9.51,21.21-21.21C834.84,455.82,825.33,446.31,813.63,446.31z"/>
	</g>
	<g>
		<g>
			<path class="st3" d="M687.62,429.03c2.69-1.22,5.4-3.71,6.56-6.45c-0.76-0.32-1.52-0.64-2.28-0.96c-0.6,3.57,2.12,6.4,5.38,7.31
				c-0.1-0.76-0.2-1.52-0.3-2.28c-3.69,2.05-4.29,4.97-5.49,8.71c0.8,0.22,1.61,0.44,2.41,0.66c0.81-4.42-2.52-8.59-7.09-8.48
				c-1.61,0.04-1.61,2.54,0,2.5c2.84-0.07,5.21,2.43,4.68,5.32c-0.29,1.57,1.91,2.22,2.41,0.66c0.99-3.08,1.22-5.48,4.35-7.22
				c0.95-0.53,0.72-2-0.3-2.28c-1.78-0.5-4-2.07-3.64-4.24c0.21-1.27-1.69-2.37-2.28-0.96c-1.02,2.41-3.3,4.49-5.66,5.56
				C684.89,427.54,686.16,429.69,687.62,429.03L687.62,429.03z"/>
		</g>
	</g>
	<g>
		<g>
			<path class="st3" d="M627.87,314c2.69-1.22,5.4-3.71,6.56-6.45c-0.76-0.32-1.52-0.64-2.28-0.96c-0.6,3.57,2.12,6.4,5.38,7.31
				c-0.1-0.76-0.2-1.52-0.3-2.28c-3.69,2.05-4.29,4.97-5.49,8.71c0.8,0.22,1.61,0.44,2.41,0.66c0.81-4.42-2.52-8.59-7.09-8.48
				c-1.61,0.04-1.61,2.54,0,2.5c2.84-0.07,5.21,2.43,4.68,5.32c-0.29,1.57,1.91,2.22,2.41,0.66c0.99-3.08,1.22-5.48,4.35-7.22
				c0.95-0.53,0.72-2-0.3-2.28c-1.78-0.5-4-2.07-3.64-4.24c0.21-1.27-1.69-2.37-2.28-0.96c-1.02,2.41-3.3,4.49-5.66,5.56
				C625.15,312.51,626.42,314.66,627.87,314L627.87,314z"/>
		</g>
	</g>
	<g>
		<g>
			<path class="st3" d="M715.2,391.2c2.69-1.22,5.4-3.71,6.56-6.45c-0.76-0.32-1.52-0.64-2.28-0.96c-0.6,3.57,2.12,6.4,5.38,7.31
				c-0.1-0.76-0.2-1.52-0.3-2.28c-3.69,2.05-4.29,4.97-5.49,8.71c0.8,0.22,1.61,0.44,2.41,0.66c0.81-4.42-2.52-8.59-7.09-8.48
				c-1.61,0.04-1.61,2.54,0,2.5c2.84-0.07,5.21,2.43,4.68,5.32c-0.29,1.57,1.91,2.22,2.41,0.66c0.99-3.08,1.22-5.48,4.35-7.22
				c0.95-0.53,0.72-2-0.3-2.28c-1.78-0.5-4-2.07-3.64-4.24c0.21-1.27-1.69-2.37-2.28-0.96c-1.02,2.41-3.3,4.49-5.66,5.56
				C712.47,389.71,713.74,391.86,715.2,391.2L715.2,391.2z"/>
		</g>
	</g>
	<g>
		<g>
			<path class="st3" d="M732.85,575.83c2.69-1.22,5.4-3.71,6.56-6.45c-0.76-0.32-1.52-0.64-2.28-0.96c-0.6,3.57,2.12,6.4,5.38,7.31
				c-0.1-0.76-0.2-1.52-0.3-2.28c-3.69,2.05-4.29,4.97-5.49,8.71c0.8,0.22,1.61,0.44,2.41,0.66c0.81-4.42-2.52-8.59-7.09-8.48
				c-1.61,0.04-1.61,2.54,0,2.5c2.84-0.07,5.21,2.43,4.68,5.32c-0.29,1.57,1.91,2.22,2.41,0.66c0.99-3.08,1.22-5.48,4.35-7.22
				c0.95-0.53,0.72-2-0.3-2.28c-1.78-0.5-4-2.07-3.64-4.24c0.21-1.27-1.69-2.37-2.28-0.96c-1.02,2.41-3.3,4.49-5.66,5.56
				C730.12,574.34,731.39,576.49,732.85,575.83L732.85,575.83z"/>
		</g>
	</g>
</g>
<g id="chrctr">
	<g>
		<g>
			<path class="st2" d="M583.44,442.88c0,0-3.3,5.62-10.09,8.53c-6.79,2.91-19.01,6.79-23.86,5.82s-10.47-2.13-10.47-2.13l-3.3,5.43
				c0,0,10.67,15.71,14.74,26.96s4.18,20.11,3.15,28.76c-1.03,8.65-3.67,12.02-2.35,15.4c1.32,3.37,24.05,27.86,24.05,27.86
				s4.99-6.45,8.8-1.03c3.81,5.43,2.05,7.77,2.05,7.77s3.23,3.52,2.2,5.57c-1.03,2.05-2.93,3.37-2.93,3.37s2.35,3.52,0.44,6.6
				c-1.91,3.08-4.11,3.08-5.57,3.08c-1.47,0-3.52,0.29-3.52,0.29s-22.87-24.03-30.54-30.4s-28.84-24.69-28.84-24.69
				s-11.17,11.69-14.94,17.67c-3.77,5.98-8.32,15.33-8.19,17.67c0.13,2.34,5.07,5.98,7.93,8.45c2.86,2.47,17.35,18.42,23.97,27.92
				c6.62,9.5,28.5,34.26,35.45,40.03c6.95,5.77,28.67,28.5,49.7,28.5s25.61-6.28,27.65-9.84s23.75-53.43,25.44-84.3
				c1.7-30.87,0.51-62.08-7.8-78.87c-8.31-16.79-18.83-29.34-33.42-38.5c-14.59-9.16-37.32-16.62-37.32-16.62L583.44,442.88z"/>
		</g>
		<g>
			<path class="st2" d="M469.57,463.8c0,0-22.14,12.33-32.91,36.42C425.9,524.3,407.1,578.3,407.1,601.66
				c0,23.35,3.65,50.17,16.97,61.85c13.32,11.68,27.73,7.48,40.32,3.47c12.59-4.01,55.65-25.73,65.32-33.02
				c9.67-7.3,14.05-10.58,14.05-10.58l-21.44-32.55c0,0-30.45,3.17-46.17,11.03c-15.72,7.86-17.82,9.96-17.82,9.96
				s-4.72-7.6-3.93-19.65c0.79-12.05,2.1-14.93,2.1-14.93s-12.05-21.22-7.07-42.7c4.98-21.48,14.93-33.27,14.93-33.27
				s2.05-11.67,3.51-15.19c1.46-3.52,2.75-6,2.75-6L469.57,463.8z"/>
		</g>
		<g>
			<g>
				<path class="st3" d="M450.56,671.25c-7.22,21.75-6.55,46.95-3.41,69.37c1.37,9.73,3.28,19.84,7.74,28.69
					c4.72,9.37,11.77,17.76,20.05,24.17c8.91,6.89,19.46,11.4,30.7,12.59c13.61,1.44,26.48-2.42,38.68-8.12
					c23.47-10.97,45.44-25.22,65.73-41.28c25.85-20.46,49.16-44.39,67.57-71.81c0.9-1.34-1.27-2.59-2.16-1.26
					c-29.61,44.11-72.22,80.43-118.94,105.43c-10.97,5.87-22.47,11.91-34.85,14c-13,2.19-26.24-0.01-37.72-6.52
					c-18.31-10.37-29.11-28.09-33.04-48.32c-2.54-13.06-3.43-26.5-3.18-39.8c0.23-12.26,1.34-24.78,5.22-36.48
					C453.48,670.38,451.06,669.73,450.56,671.25L450.56,671.25z"/>
			</g>
		</g>
		<g>
			<path class="st4" d="M546.56,434.97c0,0,1.89-0.99,12.3-0.05c11.38,1.02,21.14,5.9,21.14,5.9l-6.39-18.28l-2.5-16.31
				c0,0-5.51,8.69-10.29,14.28c-5.85,6.84-14.08,8.42-14.08,8.42L546.56,434.97z"/>
		</g>
		<g>
			<g>
				<path class="st3" d="M570.46,404.97c-0.28,6.45,1.7,13.09,3.41,19.24c1.86,6.7,4.06,13.29,6.17,19.92
					c0.48,1.53,2.9,0.88,2.41-0.66c-1.97-6.2-4.02-12.36-5.8-18.62c-1.8-6.34-3.97-13.21-3.69-19.87
					C573.03,403.37,570.53,403.37,570.46,404.97L570.46,404.97z"/>
			</g>
		</g>
		<g>
			<g>
				<path class="st3" d="M544.88,371.97c0.48,2.08,1.07,4.8,2.73,6.29c1.19,1.07,2.97-0.69,1.77-1.77
					c-1.31-1.18-1.71-3.55-2.09-5.19C546.93,369.74,544.52,370.4,544.88,371.97L544.88,371.97z"/>
			</g>
		</g>
		<g>
			<g>
				<path class="st3" d="M522.94,376.73c0.14,2.55,1.26,4.84,2.83,6.81c1,1.26,2.76-0.52,1.77-1.77c-1.13-1.42-2-3.2-2.09-5.04
					C525.36,375.13,522.86,375.12,522.94,376.73L522.94,376.73z"/>
			</g>
		</g>
		<g>
			<g>
				<path class="st3" d="M531.78,340.4c1.51,15.16,13.56,28.38,28.84,30.52c5.16,0.72,13.26-1.08,14.22,5.87
					c0.66,4.75-0.14,9.66-0.01,14.43c0.25,9.1,7.41,13.56,11.42,21c0.76,1.42,2.92,0.16,2.16-1.26c-1.76-3.27-4.2-5.93-6.52-8.81
					c-4.02-4.97-4.61-9.35-4.44-15.58c0.15-5.37,1.56-14.11-4.53-16.77c-3.36-1.46-7.21-0.85-10.75-1.19
					c-4.67-0.45-9.16-2.12-13.11-4.62c-8.21-5.2-13.83-13.89-14.79-23.58C534.12,338.82,531.62,338.8,531.78,340.4L531.78,340.4z"/>
			</g>
		</g>
		<g>
			<g>
				<path class="st3" d="M519.76,398.57c-10.37-1.33-9.6-11.94-14.53-19.06c-2.62-3.78-6.46-6.33-8.44-10.59
					c-2.22-4.78-2.61-10.28-2.26-15.47c0.7-10.25,4.59-20.64,11.27-28.49c5.95-6.99,14.03-11.52,22.04-15.73
					c1.42-0.75,0.16-2.91-1.26-2.16c-9.1,4.78-18.04,10.05-24.36,18.38c-6.55,8.64-10.19,19.86-10.29,30.69
					c-0.05,4.78,0.64,9.7,2.71,14.05c2.56,5.38,7.78,8.59,10.41,13.95c1.94,3.94,2.54,8.74,5.19,12.31
					c2.33,3.15,5.78,4.14,9.52,4.62C521.35,401.28,521.34,398.77,519.76,398.57L519.76,398.57z"/>
			</g>
		</g>
		<g>
			
				<ellipse transform="matrix(0.6757 -0.7372 0.7372 0.6757 -100.9461 534.8536)" class="st4" cx="557.38" cy="382.15" rx="4.74" ry="3.11"/>
		</g>
		<g>
			<ellipse transform="matrix(0.5 -0.866 0.866 0.5 -75.5974 646.2988)" class="st4" cx="521.91" cy="388.62" rx="3.11" ry="4.74"/>
		</g>
		<g>
			<g>
				<path class="st3" d="M531.23,340.28c-3.71,5.27-8.54,9.41-13.69,13.22c-3.47,2.57-6.32,5.2-7.14,9.64
					c-0.29,1.57,2.12,2.25,2.41,0.66c1.08-5.82,6.69-8.48,10.89-11.95c3.68-3.04,6.94-6.41,9.69-10.32
					C534.32,340.23,532.15,338.98,531.23,340.28L531.23,340.28z"/>
			</g>
		</g>
		<g>
			<g>
				<path class="st3" d="M539.27,343.84c5.28,11.68,16.85,18.41,29.62,17.35c1.59-0.13,1.61-2.63,0-2.5
					c-11.96,1-22.52-5.18-27.46-16.11C540.77,341.12,538.61,342.39,539.27,343.84L539.27,343.84z"/>
			</g>
		</g>
		<g>
			<g>
				<path class="st3" d="M505.44,366.35c-2.89-13.07,8.2-18.39,16.94-24.85c6.8-5.03,9.76-10.97,10.82-19.33
					c0.2-1.59-2.3-1.58-2.5,0c-0.8,6.32-2.79,11.56-7.77,15.75c-3.64,3.06-7.88,5.3-11.62,8.23c-6.69,5.23-10.16,12.33-8.28,20.86
					C503.37,368.58,505.78,367.92,505.44,366.35L505.44,366.35z"/>
			</g>
		</g>
		<g>
			<g>
				<path class="st3" d="M516.22,529.2c-6.88,6.94-13.24,14.57-18.02,23.13c-2.14,3.83-7.43,11.42-4.25,15.65
					c3.42,4.55,8.56,8.16,12.71,12c5.23,4.84,10.98,9.93,14.4,16.27c0.76,1.42,2.92,0.16,2.16-1.26
					c-5.48-10.15-15.8-17.44-24.03-25.21c-1-0.94-3.43-2.63-3.8-4.03c-0.37-1.39,1.27-4.38,1.81-5.68c0.92-2.23,1.98-4.38,3.15-6.48
					c4.69-8.38,10.89-15.82,17.63-22.62C519.13,529.82,517.36,528.05,516.22,529.2L516.22,529.2z"/>
			</g>
		</g>
		<g>
			<g>
				<path class="st3" d="M519.64,593.66c12.37,20.58,27.77,38.99,46.4,54.19c17.86,14.58,40.02,30.17,64.08,21.84
					c1.51-0.52,0.86-2.94-0.66-2.41c-24.52,8.5-47.44-9.02-65.15-24.11c-16.96-14.45-31.04-31.69-42.51-50.76
					C520.97,591.02,518.8,592.28,519.64,593.66L519.64,593.66z"/>
			</g>
		</g>
		<g>
			<g>
				<path class="st3" d="M516.74,531.43c16.8,12.87,32.41,27.52,47.2,42.62c8.2,8.38,16.17,17.03,23.45,26.23
					c5.8,7.34,11.67,15.25,14.98,24.09c0.56,1.49,2.98,0.85,2.41-0.66c-3.2-8.54-8.61-16.15-14.15-23.31
					c-7.39-9.55-15.55-18.5-23.97-27.15c-15.21-15.62-31.33-30.7-48.66-43.98C516.73,528.29,515.48,530.46,516.74,531.43
					L516.74,531.43z"/>
			</g>
		</g>
		<g>
			<g>
				<path class="st3" d="M595.81,607.29c-4.25-15.75-0.25-32.21,2.67-47.85c2.79-14.95,6.18-29.83,12.23-43.84
					c0.63-1.46-1.52-2.74-2.16-1.26c-6.39,14.78-9.9,30.43-12.81,46.22c-2.87,15.56-6.57,31.75-2.34,47.41
					C593.82,609.51,596.23,608.85,595.81,607.29L595.81,607.29z"/>
			</g>
		</g>
		<g>
			<g>
				<path class="st3" d="M541.73,458.09c9.23,1.73,19.44,0.21,28.1-3.29c3.28-1.32,6.38-2.99,8.9-5.49
					c1.88-1.87,3.63-5.04,6.51-5.14c1.31-0.04,3,0.77,4.23,1.15c19.58,5.98,38.43,14.38,52.07,30.22
					c17.85,20.73,22.3,50.13,22.5,76.62c0.17,22.12-3.33,44.45-9.06,65.78c-2.89,10.75-6.39,21.47-11.34,31.46
					c-3.25,6.55-7.37,14.29-14.11,17.81c-1.43,0.74-0.16,2.9,1.26,2.16c5.63-2.93,9.47-8.68,12.53-14.04
					c4.69-8.2,8.08-17.16,10.95-26.13c7.1-22.15,11.3-45.63,12.14-68.89c0.92-25.72-2.06-54.71-16.02-76.95
					c-11.89-18.96-30.4-29.83-50.9-37.26c-4.07-1.48-8.22-3.08-12.44-4.06c-3.62-0.85-5.56,0.65-8.16,3.36
					c-8.88,9.26-23.98,12.65-36.5,10.3C540.83,455.39,540.15,457.8,541.73,458.09L541.73,458.09z"/>
			</g>
		</g>
		<g>
			<path class="st3" d="M552.17,405.82c0.82-1.39-1.34-2.65-2.16-1.26c-0.62,1.04-1.45,1.89-2.42,2.53
				c0.02,0.93,0.05,1.86,0.07,2.79C549.49,409.04,551.08,407.67,552.17,405.82z"/>
			<path class="st3" d="M538.05,389.25c-0.24,0.16-0.47,0.34-0.7,0.53c0.04,0.3,0.09,0.59,0.13,0.89
				C537.67,390.2,537.86,389.73,538.05,389.25z"/>
			<path class="st3" d="M536.72,395.36c0.2-1.92,0.99-2.85,2.6-3.95c0.51-0.35,0.66-0.82,0.57-1.41c-0.49-3.36-0.98-6.73-1.47-10.09
				c-0.23-1.59-2.64-0.91-2.41,0.66c0.45,3.07,0.89,6.14,1.34,9.21c0.23-0.18,0.46-0.36,0.7-0.53c-0.19,0.47-0.38,0.94-0.57,1.41
				c-0.04-0.3-0.09-0.59-0.13-0.89c-2.24,1.81-3.84,4.56-3.37,7.29c0.86-0.49,1.74-0.94,2.64-1.34
				C536.66,395.6,536.67,395.49,536.72,395.36z"/>
			<path class="st5" d="M545.2,420.43c-0.03-3.26-0.08-6.53-0.13-9.79c-1.18,0.19-2.4,0.18-3.63-0.06
				c-1.58-0.31-0.91-2.72,0.66-2.41c1,0.19,1.99,0.16,2.93-0.04c-0.07-4.11-0.15-8.21-0.22-12.32c-2.65,0.49-5.14,1.3-7.48,2.4
				c0.59,0.46,1.46,0.8,2.67,0.98c0.56-0.56,1.11-1.12,1.67-1.68c0.66-1.47,2.82-0.19,2.16,1.26c-1.58,3.49-6.23,4.02-8.62,1.01
				c-0.08-0.1-0.15-0.21-0.22-0.32c-2.81,1.66-5.35,3.79-7.59,6.41c-0.3,0.35-0.8,0.41-1.22,0.32c-0.36-0.08-0.71-0.14-1.07-0.21
				c3.52,5.25,7.55,10.14,11.8,14.55c1.72,1.79,3.55,3.99,5.58,5.41c0.91,0.64,1.79,1.04,2.66,1.25
				C545.22,424.94,545.22,422.68,545.2,420.43z"/>
			<path class="st3" d="M523.28,403.13c-7.41-11.96-12.01-25.6-10.44-39.68c0.18-1.6-2.32-1.58-2.5,0
				c-1.49,13.34,2.51,27.04,9.42,39.16c0.56,0.06,1.13,0.12,1.69,0.19C522.07,402.88,522.68,403.02,523.28,403.13z"/>
			<path class="st3" d="M574.62,393.66c-2.47,8.81-6.66,17.49-12.69,24.43c-2.96,3.4-6.45,6.48-10.65,8.22
				c-1.27,0.53-2.46,0.91-3.62,1.04c-0.02,0.47-0.02,0.95-0.04,1.42c-0.02,0.38-0.04,0.77-0.06,1.15
				c5.28-0.35,10.76-4.47,14.31-8.08c7.37-7.47,12.35-17.48,15.17-27.51C577.47,392.77,575.06,392.11,574.62,393.66z"/>
			<path class="st3" d="M512,402.32c-3.16,0.11-6.31,0.47-9.41,1.09c-3.1,0.61-5.52,1.9-8.74-0.56c-1.13-0.87-1.96-2.44-2.94-3.51
				c-4.34-4.78-9.68-8.4-15.59-10.96c-0.74-0.32-1.58-0.1-1.84,0.75c-2.16,7.19-3.54,14.66-3.75,22.19c-0.2,7.16,1.37,14,0.73,21.18
				c-1.45,16.39-2.19,32.87-1.05,49.3c0.11,1.6,2.61,1.61,2.5,0c-1.1-15.84-0.48-31.77,0.9-47.57c0.32-3.67,0.79-7.36,0.38-11.05
				c-0.36-3.18-0.94-6.27-0.97-9.49c-0.08-7.61,1.2-15.18,3.28-22.49c-0.48-0.22-0.95-0.44-1.44-0.65c0.61-0.25,1.22-0.5,1.84-0.75
				c-0.14,0.46-0.26,0.93-0.4,1.4c4.19,1.96,8.06,4.45,11.44,7.67c2.52,2.4,4.57,6.51,7.83,7.94c3.46,1.52,8.35-1.05,11.93-1.52
				c4.92-0.65,9.82-0.59,14.69,0.07c-0.56-0.9-1.1-1.82-1.62-2.74C517.19,402.34,514.59,402.23,512,402.32z"/>
			<path class="st3" d="M474.06,390.53c0.48,0.21,0.96,0.43,1.44,0.65c0.13-0.47,0.26-0.94,0.4-1.4
				C475.28,390.03,474.67,390.28,474.06,390.53z"/>
			<path class="st3" d="M544.79,394.35c0.01,0.49,0.02,0.97,0.03,1.46c0.51-0.09,1.03-0.18,1.56-0.25
				C545.84,395.15,545.32,394.75,544.79,394.35z"/>
			<path class="st3" d="M545.05,429.77c-0.32,6.01-1.2,11.97-3.47,17.59c-2.88,7.12-7.73,13.5-15.39,15.59
				c-7.12,1.94-15.51,1.36-21.95-2.34c-1.4-0.8-2.66,1.36-1.26,2.16c12.74,7.31,29.8,4.2,37.77-8.27c4.68-7.33,6.34-16.02,6.8-24.59
				C546.71,429.97,545.88,429.93,545.05,429.77z"/>
			<path class="st3" d="M547.65,427.34c0.2-5.81,0.14-11.64,0-17.47c-0.82,0.37-1.69,0.63-2.59,0.77c0.05,3.26,0.11,6.53,0.13,9.79
				c0.02,2.25,0.02,4.5-0.05,6.76C545.99,427.4,546.82,427.44,547.65,427.34z"/>
			<path class="st3" d="M537.34,398.21c2.34-1.11,4.83-1.91,7.48-2.4c-0.01-0.49-0.02-0.97-0.03-1.46c0.53,0.4,1.05,0.8,1.58,1.21
				c-0.52,0.07-1.04,0.16-1.56,0.25c0.07,4.11,0.15,8.21,0.22,12.32c0.91-0.19,1.78-0.53,2.56-1.04c-0.11-4.25-0.23-8.5-0.3-12.74
				c-0.01-0.9-0.78-1.31-1.58-1.21c-3.17,0.43-6.22,1.29-9.08,2.58C536.35,396.78,536.59,397.61,537.34,398.21z"/>
			<path class="st3" d="M527.41,405.87c2.24-2.62,4.78-4.75,7.59-6.41c-0.55-0.78-0.88-1.58-1.02-2.39
				c-1.36,0.78-2.67,1.66-3.91,2.66c-0.99,0.8-2.34,2.71-3.44,3.22c-1.1,0.51-2.22,0.39-3.35,0.19c0.6,0.96,1.21,1.91,1.84,2.85
				c0.36,0.07,0.71,0.13,1.07,0.21C526.61,406.28,527.11,406.21,527.41,405.87z"/>
			<path class="st3" d="M545.07,410.64c0.9-0.14,1.77-0.4,2.59-0.77c-0.02-0.93-0.04-1.86-0.07-2.79c-0.78,0.51-1.65,0.85-2.56,1.04
				C545.05,408.96,545.06,409.8,545.07,410.64z"/>
			<path class="st3" d="M537.34,398.21c-0.75-0.6-0.99-1.42-0.71-2.48c-0.9,0.4-1.78,0.85-2.64,1.34c0.14,0.81,0.47,1.61,1.02,2.39
				C535.76,399.01,536.54,398.59,537.34,398.21z"/>
			<path class="st3" d="M547.65,427.34c-0.84,0.09-1.66,0.06-2.49-0.15c-0.02,0.86-0.06,1.72-0.11,2.58c0.82,0.15,1.66,0.2,2.5,0.14
				c0.02-0.38,0.04-0.77,0.06-1.15C547.63,428.29,547.64,427.81,547.65,427.34z"/>
			<path class="st3" d="M521.46,402.8c-0.56-0.08-1.13-0.13-1.69-0.19c0.53,0.92,1.07,1.84,1.62,2.74c1.25,0.17,2.49,0.39,3.73,0.63
				c-0.63-0.94-1.25-1.89-1.84-2.85C522.68,403.02,522.07,402.88,521.46,402.8z"/>
		</g>
		<g>
			<g>
				<path class="st3" d="M511.9,431.33c-3.92,0.6-7.68-0.36-10.93-2.59c-1.33-0.91-2.58,1.25-1.26,2.16
					c3.84,2.63,8.28,3.54,12.85,2.84C514.15,433.5,513.47,431.09,511.9,431.33L511.9,431.33z"/>
			</g>
		</g>
		<g>
			<g>
				<path class="st3" d="M534.14,433.6c3.26,0.17,7.07-1.29,8.3-4.54c0.57-1.51-1.84-2.16-2.41-0.66c-0.82,2.15-3.9,2.81-5.89,2.7
					C532.54,431.02,532.54,433.52,534.14,433.6L534.14,433.6z"/>
			</g>
		</g>
		<g>
			<g>
				<path class="st3" d="M534.09,460.83c5.59,7.61,10.67,15.69,14.41,24.38c4.27,9.9,5.33,19.7,4.03,30.39
					c-0.59,4.87-2.27,10-2.32,14.9c-0.03,3.04,1.73,4.83,3.71,6.92c6.73,7.13,13.04,14.63,19.83,21.71
					c1.12,1.16,2.88-0.61,1.77-1.77c-6.43-6.71-12.42-13.81-18.77-20.59c-2.43-2.59-3.96-4.05-3.83-7.96c0.09-2.72,1-5.57,1.42-8.26
					c0.73-4.69,1.31-9.43,1.34-14.19c0.09-17.29-9.5-33.26-19.43-46.78C535.31,458.29,533.14,459.53,534.09,460.83L534.09,460.83z"
					/>
			</g>
		</g>
		<g>
			<g>
				<path class="st3" d="M463.18,500.79c-11.42,13.48-16.18,33.59-14.95,51c1.35,19.01,11.6,44.1,31.94,49.41
					c1.56,0.41,2.22-2,0.66-2.41c-19.82-5.17-29.56-30.61-30.22-49.09c-0.58-16.15,3.72-34.63,14.33-47.15
					C465.98,501.34,464.22,499.56,463.18,500.79L463.18,500.79z"/>
			</g>
		</g>
		<g>
			<g>
				<path class="st3" d="M469.09,461.79c-26.35,15.92-39.11,45.9-47.91,74.09c-7.06,22.63-14.06,46.05-15.17,69.86
					c-0.8,17.26,1.58,34.99,10.52,50.05c0.82,1.38,2.98,0.13,2.16-1.26c-14.75-24.85-11.51-56.44-4.88-83.33
					c5.77-23.41,12.31-47.53,23.3-69.07c7.81-15.28,18.37-29.2,33.23-38.18C471.73,463.12,470.47,460.95,469.09,461.79
					L469.09,461.79z"/>
			</g>
		</g>
		<g>
			<g>
				<path class="st3" d="M416.74,655.98c5.48,8.12,13.14,15.93,23.53,16.81c8.01,0.68,16.47-2.13,23.92-4.68
					c21.06-7.21,41.35-17.7,60.23-29.42c6.43-3.99,13.99-8.22,18.92-14.12c1.02-1.23-0.73-3-1.77-1.77c-3.86,4.62-9.5,8-14.5,11.24
					c-8.31,5.39-16.94,10.28-25.71,14.87c-16.92,8.85-36.01,18.94-55.26,21.2c-11.9,1.4-20.84-5.97-27.2-15.4
					C418,653.39,415.83,654.64,416.74,655.98L416.74,655.98z"/>
			</g>
		</g>
		<g>
			<g>
				<path class="st3" d="M471.75,664.5c-0.03,13.59,4.81,26.67,10.05,39.02c4.64,10.94,11.35,22.03,13.72,33.77
					c1.3,6.45,1.08,13.22,1.88,19.75c0.76,6.23,2.34,12.27,4.05,18.29c1.36,4.8,2.68,9.83,5.55,13.99
					c2.94,4.27,7.25,7.34,11.44,10.27c1.32,0.92,2.57-1.24,1.26-2.16c-4.6-3.22-9.26-6.62-11.95-11.68
					c-2.8-5.27-4.14-11.6-5.61-17.34c-2.83-11.01-1.77-22.6-4.61-33.49c-2.72-10.4-8.16-20.17-12.42-29.98
					c-5.53-12.74-10.89-26.34-10.86-40.44C474.26,662.89,471.76,662.89,471.75,664.5L471.75,664.5z"/>
			</g>
		</g>
		<g>
			<g>
				<path class="st3" d="M514.36,692.36c7.37,16.48,11.63,33.62,10.94,51.75c-0.68,17.92-4.63,35.63-7.19,53.33
					c-0.23,1.57,2.18,2.25,2.41,0.66c2.66-18.35,6.82-36.74,7.33-55.33c0.49-18.11-3.97-35.22-11.32-51.67
					C515.87,689.63,513.71,690.9,514.36,692.36L514.36,692.36z"/>
			</g>
		</g>
		<g>
			<path class="st3" d="M523.6,447.17l-1.31-1.9c-0.64-0.93,0.01-2.19,1.14-2.21l2.7-0.04c1.16-0.02,1.84,1.29,1.17,2.23l-1.39,1.94
				C525.34,447.99,524.15,447.98,523.6,447.17z"/>
		</g>
		<g>
			<g>
				<path class="st3" d="M548.51,480.48c12.64,1.22,24.69-2.93,36.03-8.16c9.47-4.36,18.6-10.04,23.61-19.5
					c0.75-1.42-1.4-2.69-2.16-1.26c-4.82,9.1-13.64,14.42-22.72,18.61c-10.94,5.05-22.56,8.99-34.77,7.81
					C546.91,477.82,546.92,480.32,548.51,480.48L548.51,480.48z"/>
			</g>
		</g>
		<g>
			<g>
				<path class="st3" d="M549.85,460.9c1.07,5.95,2.14,11.9,3.21,17.84c0.28,1.58,2.69,0.91,2.41-0.66
					c-1.07-5.95-2.14-11.9-3.21-17.84C551.97,458.65,549.56,459.32,549.85,460.9L549.85,460.9z"/>
			</g>
		</g>
		<g>
			<g>
				<path class="st3" d="M563.12,456.93c3.76,5.67,7.22,11.52,10.39,17.54c0.75,1.42,2.91,0.16,2.16-1.26
					c-3.16-6.03-6.63-11.87-10.39-17.54C564.4,454.33,562.23,455.58,563.12,456.93L563.12,456.93z"/>
			</g>
		</g>
		<g>
			<g>
				<path class="st3" d="M575.7,449.55c5.82,5.3,11.4,10.86,17.03,16.37c1.15,1.13,2.92-0.64,1.77-1.77
					c-5.63-5.5-11.21-11.06-17.03-16.37C576.29,446.7,574.51,448.46,575.7,449.55L575.7,449.55z"/>
			</g>
		</g>
		<g>
			<g>
				<path class="st3" d="M524.61,310.52c7.54-4.22,17.42-4.95,25.81-4.17c9.06,0.84,19.49,3.72,26.89,9.15
					c6.97,5.12,10.51,13.65,13.87,21.33c6.02,13.79,4.61,35.06,21.68,41.03c4,1.4,8.27,1.8,12.26,3.23
					c4.48,1.6,8.64,4.05,12.26,7.13c6.52,5.55,11.33,13.08,13.46,21.38c5.05,19.72-7.47,40.55-26.34,47.09
					c-1.51,0.52-0.86,2.94,0.66,2.41c15.43-5.35,27.08-19.44,29.04-35.74c2-16.64-7.26-33.37-21.67-41.61
					c-8.31-4.75-19.84-3.92-26.44-11.25c-7.75-8.59-7.42-21.09-11.28-31.42c-2.81-7.52-6.42-15.83-11.87-21.84
					c-6.2-6.83-16.1-10.3-24.9-12.22c-11-2.39-24.55-2.34-34.69,3.34C521.94,309.15,523.2,311.31,524.61,310.52L524.61,310.52z"/>
			</g>
		</g>
		<g>
			<g>
				<path class="st3" d="M635.67,407.54c6.66,9.42,5.88,21.44-2.09,29.81c-1.11,1.16,0.66,2.94,1.77,1.77
					c8.72-9.15,9.81-22.48,2.48-32.84C636.9,404.98,634.74,406.23,635.67,407.54L635.67,407.54z"/>
			</g>
		</g>
		<g>
			<g>
				<g>
					<path class="st3" d="M490.99,510.39c2.56-9.84-10.83-18.45-5.82-27.49c-0.65,0.08-1.31,0.17-1.96,0.25
						c7.62,6.71,13.17,15.42,18.23,24.14c5.53,9.51,2.31,20.82,5.73,31.09c0.51,1.52,2.92,0.87,2.41-0.66
						c-3.52-10.6-0.22-21.78-5.98-31.69c-5.17-8.89-10.85-17.8-18.62-24.64c-0.59-0.52-1.55-0.49-1.96,0.25
						c-5.71,10.3,8.19,18.02,5.57,28.09C488.17,511.28,490.58,511.95,490.99,510.39L490.99,510.39z"/>
				</g>
			</g>
			<g>
				<g>
					<path class="st3" d="M489.47,508.32c-5.62-2.61-13.3-6.09-16.52-11.54c-2.97-5.03,0.55-11.54-0.44-17.18
						c-0.16-0.9-1.51-1.24-2.09-0.55c-10.51,12.35-5.15,30.36-5.33,45.06c-0.1,7.71,1.6,13.06,7.34,18.4
						c6.83,6.35,13.98,12.4,20.96,18.59c1.2,1.06,2.97-0.7,1.77-1.77c-5.65-5.01-11.3-10.01-16.95-15.02c-2.77-2.45-6.08-4.85-8.1-8
						c-2.37-3.67-2.57-7.96-2.51-12.2c0.1-7.29-0.62-14.39-0.99-21.66c-0.39-7.69,0.41-15.55,5.58-21.63
						c-0.7-0.18-1.39-0.37-2.09-0.55c1.1,6.28-3.12,12.91,0.96,18.68c3.77,5.33,11.43,8.88,17.15,11.54
						C489.66,511.15,490.93,508.99,489.47,508.32L489.47,508.32z"/>
				</g>
			</g>
			<g>
				<g>
					<path class="st3" d="M465.36,502.67c1.49,1.83,2.28,4.11,3.73,5.96c1.36,1.73,3.1,3.07,4.85,4.38
						c1.29,0.96,2.54-1.21,1.26-2.16c-1.9-1.42-3.73-2.92-4.98-4.97c-1.03-1.69-1.84-3.44-3.09-4.98
						C466.11,499.65,464.35,501.43,465.36,502.67L465.36,502.67z"/>
				</g>
			</g>
			<g>
				<g>
					<path class="st3" d="M465.37,513.4c0.78,1.83,1.82,3.5,3.05,5.07c0.59,0.75,1.21,1.48,1.86,2.17c0.39,0.41,1.87,1.61,1.95,1.85
						c0.51,1.52,2.93,0.87,2.41-0.66c-0.52-1.54-2.4-2.69-3.45-3.9c-1.51-1.75-2.76-3.67-3.67-5.8
						C466.9,510.66,464.75,511.93,465.37,513.4L465.37,513.4z"/>
				</g>
			</g>
			<g>
				<g>
					<path class="st3" d="M465.94,525.55c1.95,3.08,4.14,5.99,6.57,8.71c1.07,1.2,2.83-0.57,1.77-1.77
						c-2.28-2.57-4.34-5.3-6.18-8.21C467.24,522.93,465.07,524.18,465.94,525.55L465.94,525.55z"/>
				</g>
			</g>
		</g>
		<g>
			<g>
				<path class="st3" d="M448.66,621.61c17.69-18.41,45.4-25.57,70-28.28c1.58-0.17,1.6-2.68,0-2.5
					c-25.24,2.78-53.59,10.1-71.76,29.01C445.78,621.01,447.55,622.78,448.66,621.61L448.66,621.61z"/>
			</g>
		</g>
		<g>
			<g>
				<path class="st3" d="M575.87,560.18c2.24-1.62,5.68-3.99,7.97-1.13c1.61,2,2.71,6.72-0.88,7.23c-1.59,0.23-0.91,2.64,0.66,2.41
					c5.04-0.72,4.8-6.81,2.83-10.23c-2.86-4.96-8.05-3.19-11.84-0.43C573.32,558.96,574.57,561.13,575.87,560.18L575.87,560.18z"/>
			</g>
		</g>
		<g>
			<g>
				<path class="st3" d="M585.41,567.04c1.04,1.71,2.29,3.78,0.69,5.53c-0.36,0.4-3.72,3-4.14,2.52c-1.06-1.22-2.82,0.56-1.77,1.77
					c2.06,2.36,5.85-0.93,7.48-2.36c2.83-2.48,1.57-5.95-0.1-8.73C586.74,564.4,584.58,565.66,585.41,567.04L585.41,567.04z"/>
			</g>
		</g>
		<g>
			<g>
				<path class="st3" d="M584.39,575.64c0.98,2.14,1.2,5.42-0.67,7.18c-1.59,1.49-4.25,1.12-6.22,0.9c-1.6-0.17-1.59,2.33,0,2.5
					c3.03,0.33,6.57,0.37,8.59-2.34c2.05-2.76,1.82-6.53,0.46-9.51C585.88,572.92,583.72,574.19,584.39,575.64L584.39,575.64z"/>
			</g>
		</g>
		<g>
			<g>
				<path class="st3" d="M528.25,665.23c12.43-6.22,24.28-12.65,31.62-25.01c0.82-1.39-1.34-2.65-2.16-1.26
					c-7.13,12-18.7,18.09-30.72,24.11C525.54,663.79,526.81,665.95,528.25,665.23L528.25,665.23z"/>
			</g>
		</g>
		<g>
			<g>
				<path class="st3" d="M547.83,733.78c2.7-1.44,4.61-4.09,5.05-7.12c0.23-1.57-2.18-2.25-2.41-0.66c-0.36,2.45-1.71,4.46-3.9,5.63
					C545.15,732.38,546.41,734.54,547.83,733.78L547.83,733.78z"/>
			</g>
		</g>
		<g>
			<g>
				<path class="st3" d="M554.9,738.86c3.65-2.21,5.89-5.81,6.43-10.01c0.2-1.59-2.3-1.58-2.5,0c-0.42,3.29-2.37,6.14-5.19,7.85
					C552.26,737.53,553.52,739.69,554.9,738.86L554.9,738.86z"/>
			</g>
		</g>
		<g>
			<g>
				<path class="st3" d="M458.09,609.93c-4.58-10.4-3.23-21.18-1.51-32.05c0.25-1.57-2.16-2.25-2.41-0.66
					c-1.83,11.6-3.1,22.93,1.76,33.98C456.58,612.66,458.74,611.39,458.09,609.93L458.09,609.93z"/>
			</g>
		</g>
		<g>
			<g>
				<g>
					<path class="st3" d="M661.3,604.49c6.18-5.09,14.96-6.02,22.67-5.47c8.99,0.64,16.51,5.42,22.39,12.07
						c6.24,7.07,10.06,15.71,14.19,24.08c4.28,8.69,8.48,17.42,12.62,26.18c14.31,30.3,27.7,61.02,41.06,91.75
						c6.64,15.26,13.3,30.52,20.23,45.65c0.67,1.46,2.82,0.19,2.16-1.26c-13.87-30.28-26.73-60.99-40.26-91.42
						c-7.96-17.91-16.12-35.73-24.57-53.42c-4.54-9.51-9.14-18.99-13.88-28.4c-3.68-7.3-8.25-14.28-14.55-19.6
						c-11.59-9.79-31.6-12-43.83-1.92C658.29,603.74,660.06,605.5,661.3,604.49L661.3,604.49z"/>
				</g>
			</g>
			<g>
				<g>
					<g>
						<g>
							<path class="st3" d="M804.96,796.45c3.07,2.32,4.34,7.03,5.18,10.6c0.42,1.77,0.5,3.19,2.07,4.31
								c1.75,1.25,4.31,1.35,6.36,1.49c3.95,0.27,7.62,0.53,11.54,1.24c8.52,1.55,17.09,2.84,25.7,3.82
								c4.66,0.53,9.34,0.97,14.02,1.36c4.66,0.39,18.22,0.29,14.36,9.07c-0.64,1.46,1.51,2.73,2.16,1.26
								c3.05-6.94-2.14-11.02-8.72-12.1c-10.91-1.8-22.15-1.95-33.12-3.55c-8.9-1.3-17.57-2.84-26.51-3.64
								c-5.72-0.51-5.18-4.12-6.88-8.57c-1.09-2.85-2.43-5.59-4.91-7.45C804.94,793.32,803.69,795.49,804.96,796.45L804.96,796.45z"
								/>
						</g>
					</g>
					<g>
						<g>
							<path class="st3" d="M777.85,830.13c3.14-0.5,8.65-1.07,10.94-3.59c2.01-2.21,0.32-6.28-0.52-8.68
								c-0.79-2.24-2.46-4.39-3.05-6.62c-1.3-4.88,1.3-6.31,4.98-8.51c2.71-1.62,5.56-2.8,8.5-3.92c1.67-0.63,4.95-3.03,6.57-1.86
								c1.3,0.95,2.55-1.22,1.26-2.16c-3.21-2.34-6.91,0.94-10.02,2.14c-4.5,1.74-10,4.1-13.32,7.73c-2.93,3.2-0.96,6.01,0.71,9.4
								c0.95,1.92,2,3.99,2.49,6.09c0.62,2.65,1.15,4.65-1.69,5.72c-2.41,0.91-4.97,1.43-7.51,1.83
								C775.6,827.97,776.27,830.38,777.85,830.13L777.85,830.13z"/>
						</g>
					</g>
				</g>
				<g>
					<g>
						<path class="st3" d="M789.65,862.9c20.5-2.55,41.22-3.9,61.35-8.78c13.38-3.25,34.72-9.24,36.01-25.96
							c0.12-1.6-2.38-1.6-2.5,0c-1.29,16.69-25.88,21.82-38.77,24.6c-18.49,3.97-37.36,5.32-56.09,7.65
							C788.07,860.59,788.05,863.1,789.65,862.9L789.65,862.9z"/>
					</g>
				</g>
				<g>
					<g>
						<path class="st3" d="M790.51,860.52c-1.6-5.7-3.06-11.49-5.27-17c-0.86-2.14-1.82-4.24-2.98-6.24
							c-0.2-0.34-4.77-7.24-3.96-7.27c1.6-0.05,1.61-2.55,0-2.5c-6.37,0.2-0.9,6.88,0.51,8.94c5,7.31,6.94,16.34,9.3,24.74
							C788.53,862.73,790.94,862.07,790.51,860.52L790.51,860.52z"/>
					</g>
				</g>
				<g>
					<g>
						<path class="st3" d="M788.3,856.69c18.87-0.88,37.64-3.47,56-7.92c8.81-2.13,17.67-4.55,26.18-7.69
							c6.23-2.29,12-5.34,15.64-11.08c0.86-1.36-1.3-2.62-2.16-1.26c-4.51,7.12-12.85,9.62-20.45,12.05
							c-7.75,2.47-15.6,4.62-23.53,6.43c-16.99,3.88-34.28,6.16-51.68,6.97C786.69,854.27,786.69,856.77,788.3,856.69L788.3,856.69z
							"/>
					</g>
				</g>
				<g>
					<g>
						<path class="st3" d="M803.31,819.22c1.53-0.56,3.02-1.22,4.43-2.05c0.66-0.39,1.29-0.81,1.91-1.25
							c0.33-0.24,1.52-1.5,1.87-1.49c-0.4-0.31-0.8-0.61-1.21-0.92c0.01,0.07,0.03,0.13,0.04,0.2c0.11-0.41,0.21-0.81,0.32-1.22
							c-0.05,0.05-0.11,0.11-0.16,0.16c0.5-0.07,1.01-0.13,1.51-0.2c-0.04-0.03-0.08-0.06-0.12-0.09c-1.31-0.94-2.56,1.23-1.26,2.16
							c0.04,0.03,0.08,0.06,0.12,0.09c0.45,0.32,1.14,0.16,1.51-0.2c0.49-0.47,0.58-0.92,0.45-1.57c-0.11-0.55-0.68-0.9-1.21-0.92
							c-1.5-0.06-2.68,1.54-3.84,2.32c-1.57,1.06-3.26,1.91-5.04,2.57C801.14,817.36,801.79,819.77,803.31,819.22L803.31,819.22z"/>
					</g>
				</g>
				<g>
					<g>
						<path class="st3" d="M805.8,822.07c3.78-1.38,7.21-3.31,10.37-5.79c1.26-0.99-0.52-2.75-1.77-1.77
							c-2.8,2.2-5.92,3.92-9.27,5.15C803.64,820.2,804.28,822.62,805.8,822.07L805.8,822.07z"/>
					</g>
				</g>
				<g>
					<g>
						<path class="st3" d="M811.56,824.26c5.15-1.74,9.93-4.21,14.29-7.45c-0.5-0.65-1.01-1.31-1.51-1.96
							c-0.3,0.32-0.6,0.64-0.89,0.96c-1.1,1.18,0.67,2.95,1.77,1.77c0.3-0.32,0.6-0.64,0.89-0.96c0.92-0.99-0.33-2.85-1.51-1.96
							c-4.2,3.12-8.73,5.53-13.7,7.2C809.38,822.36,810.03,824.78,811.56,824.26L811.56,824.26z"/>
					</g>
				</g>
				<g>
					<g>
						<path class="st3" d="M822.21,824.98c4.48-1.26,8.52-3.36,12.18-6.25c1.26-1-0.52-2.76-1.77-1.77
							c-3.3,2.61-7.02,4.47-11.07,5.61C820,823.01,820.65,825.42,822.21,824.98L822.21,824.98z"/>
					</g>
				</g>
				<g>
					<g>
						<path class="st3" d="M831.53,825.96c3.45-1.45,6.57-3.37,9.39-5.83c1.21-1.06-0.56-2.82-1.77-1.77
							c-2.47,2.16-5.25,3.92-8.28,5.19C829.4,824.16,830.05,826.58,831.53,825.96L831.53,825.96z"/>
					</g>
				</g>
				<g>
					<g>
						<path class="st3" d="M840.42,826.35c2.44-1.4,4.89-2.81,7.33-4.21c1.39-0.8,0.14-2.96-1.26-2.16
							c-2.44,1.4-4.89,2.81-7.33,4.21C837.77,824.99,839.02,827.15,840.42,826.35L840.42,826.35z"/>
					</g>
				</g>
			</g>
			<g>
				<g>
					<path class="st3" d="M747.67,812.61c13.13-10.13,26.32-20.17,39.44-30.3c1.26-0.97,0.01-3.14-1.26-2.16
						c-13.13,10.13-26.32,20.17-39.44,30.3C745.15,811.42,746.39,813.59,747.67,812.61L747.67,812.61z"/>
				</g>
			</g>
			<g>
				<g>
					<path class="st3" d="M672.02,671.65c6.57,23.66,19.25,45.78,30.86,67.24c13.45,24.85,25.9,50.39,41.45,74.02
						c0.88,1.34,3.05,0.09,2.16-1.26c-15.28-23.23-27.52-48.31-40.75-72.73c-11.75-21.69-24.67-44.02-31.31-67.94
						C674,669.44,671.59,670.09,672.02,671.65L672.02,671.65z"/>
				</g>
			</g>
		</g>
		<g>
			<g>
				<g>
					<path class="st3" d="M574.9,845.32c20.78-7.26,40.86-17.19,60.49-27.06c23.14-11.63,47.26-23.86,67.23-40.56
						c5.11-4.27,13.24-10.87,12.96-18.37c-0.06-1.6-2.56-1.61-2.5,0c0.24,6.48-7.25,12.38-11.63,16.1
						c-8.81,7.48-18.7,13.7-28.6,19.61c-22.66,13.54-46.42,25.35-70.48,36.19c-9.24,4.16-18.56,8.32-28.13,11.67
						C572.73,843.44,573.38,845.85,574.9,845.32L574.9,845.32z"/>
				</g>
			</g>
			<g>
				<g>
					<g>
						<g>
							<path class="st3" d="M545.22,813.5c-7.71,0.8-15.39,1.8-23.04,3.07c-4.4,0.73-8.78,1.54-13.14,2.44
								c-2.41,0.49-5.88,0.57-7.91,2.1c-3.97,2.99-3.83,12.15-4.62,16.56c-1.38,7.71-4.81,14.04-7.5,21.27
								c-4.15,11.14-3.94,23.8,0.1,34.93c1.89,5.23,4.6,10.13,8.1,14.46c1.17,1.45,1.92,2.67,3.61,3.07
								c1.33,0.31,3.86-0.78,5.29-1.07c2.35-0.48,4.7-0.95,7.05-1.43c1.58-0.32,0.91-2.73-0.66-2.41c-2.92,0.59-5.87,1.4-8.82,1.79
								c-3.88,0.51-5.03-1.87-7.09-4.98c-3.03-4.57-5.24-9.65-6.58-14.97c-2.79-11.06-1.63-22.47,3.15-32.79
								c2.24-4.84,4.23-9.42,5.29-14.68c0.99-4.91,0.66-15.57,5.65-18.24c2.44-1.31,6.63-1.41,9.35-1.94
								c3.12-0.6,6.26-1.17,9.4-1.69c7.43-1.23,14.89-2.21,22.38-2.98C546.8,815.83,546.82,813.33,545.22,813.5L545.22,813.5z"/>
						</g>
					</g>
					<g>
						<g>
							<path class="st3" d="M566.93,839.54c-5.56,0.56-9.83,3.64-13.7,7.51c-5.02,5.02-9.61,10.75-13.9,16.39
								c-10.28,13.51-18.48,28.43-27.01,43.06c-0.81,1.39,1.35,2.65,2.16,1.26c7.34-12.59,14.43-25.37,22.81-37.31
								c4.11-5.86,8.65-11.34,13.3-16.77c4.32-5.04,9.3-10.93,16.34-11.64C568.51,841.88,568.53,839.38,566.93,839.54L566.93,839.54
								z"/>
						</g>
					</g>
					<g>
						<g>
							<path class="st3" d="M568.06,840.69c-0.2-5.56-0.39-15.52-6.72-17.96c-3.42-1.32-7.8,0.57-11.25,0.87
								c-2.13,0.19-5.49,0.89-6.68-1.04c-1.26-2.03,2.39-5.41,3.76-7.3c0.95-1.3-1.22-2.55-2.16-1.26
								c-1.95,2.68-9.71,10.75-2.55,12.05c3.99,0.72,8.21-0.05,12.18-0.53c2-0.25,5.69-0.58,7.38,0.59
								c1.45,1.01,1.98,3.53,2.37,5.13c0.75,3.06,1.06,6.32,1.18,9.45C565.62,842.3,568.12,842.3,568.06,840.69L568.06,840.69z"/>
						</g>
					</g>
					<g>
						<g>
							<path class="st3" d="M507.28,819.96c-2.45,8.97-4.9,17.97-6.04,27.21c-0.66,5.29-0.41,10.73-1.71,15.93
								c-0.88,3.53-2.36,6.84-2.79,10.48c-1.51,12.75,5.14,26.92,15.24,34.61c1.28,0.97,2.53-1.2,1.26-2.16
								c-11.14-8.48-16.81-24.55-12.64-37.93c2.42-7.76,2.27-15.33,3.48-23.32c1.24-8.18,3.44-16.18,5.62-24.16
								C510.12,819.07,507.71,818.41,507.28,819.96L507.28,819.96z"/>
						</g>
					</g>
					<g>
						<g>
							<path class="st3" d="M529.03,870.06c-1-2.28-2.19-4.44-3.65-6.45c-0.6-0.82-1.23-1.63-1.89-2.4
								c-0.34-0.39-0.69-0.78-1.05-1.16c-0.27-0.28-0.54-0.56-0.82-0.83c-0.32-0.38-0.37-0.37-0.14,0.03
								c-0.31,0.4-0.61,0.8-0.92,1.21c0.05-0.02,0.11-0.03,0.16-0.05c-0.41-0.11-0.81-0.21-1.22-0.32c0.05,0.04,0.1,0.08,0.15,0.12
								c-0.07-0.5-0.13-1.01-0.2-1.51c-0.02,0.04-0.04,0.07-0.06,0.11c-0.73,1.43,1.42,2.7,2.16,1.26c0.02-0.04,0.04-0.07,0.06-0.11
								c0.23-0.45,0.24-1.16-0.2-1.51c-0.48-0.39-0.9-0.59-1.53-0.39c-0.51,0.16-0.94,0.65-0.92,1.21c0.08,1.86,2.56,3.44,3.64,4.82
								c1.74,2.23,3.13,4.67,4.27,7.26C527.52,872.79,529.67,871.52,529.03,870.06L529.03,870.06z"/>
						</g>
					</g>
					<g>
						<g>
							<path class="st3" d="M532.46,864c-3.15-4.31-6.37-8.57-10.91-11.51c-0.32,0.76-0.64,1.52-0.96,2.28
								c0.23,0.06,0.47,0.11,0.7,0.17c1.56,0.38,2.23-2.03,0.66-2.41c-0.23-0.06-0.47-0.11-0.7-0.17c-1.39-0.34-2.16,1.51-0.96,2.28
								c4.16,2.69,7.13,6.65,10.01,10.61C531.24,866.55,533.41,865.3,532.46,864L532.46,864z"/>
						</g>
					</g>
					<g>
						<g>
							<path class="st3" d="M538.6,857.23c-2.26-5.02-5.5-9.41-9.63-13.05c-0.5,0.65-1.01,1.31-1.51,1.96
								c0.21,0.11,0.42,0.22,0.63,0.33c1.42,0.74,2.69-1.41,1.26-2.16c-0.21-0.11-0.42-0.22-0.63-0.33
								c-1.2-0.63-2.63,0.98-1.51,1.96c3.98,3.51,7.06,7.71,9.24,12.55C537.1,859.96,539.25,858.69,538.6,857.23L538.6,857.23z"/>
						</g>
					</g>
					<g>
						<g>
							<path class="st3" d="M544.5,850.04c-2.8-4.24-5.91-8.23-9.34-11.97c-1.09-1.19-2.85,0.58-1.77,1.77
								c3.29,3.58,6.27,7.4,8.95,11.46C543.23,852.64,545.39,851.38,544.5,850.04L544.5,850.04z"/>
						</g>
					</g>
					<g>
						<g>
							<path class="st3" d="M550.31,844.17c-2.19-3.19-4.21-6.67-6.65-9.68c-1.07-1.32-3.44-1.81-3.53,0.55
								c-0.06,1.61,2.44,1.61,2.5,0c-0.86,0.72-0.94,1.39-0.24,2c0.3,0.43,0.59,0.86,0.89,1.29c0.52,0.75,1.03,1.51,1.55,2.26
								c1.11,1.61,2.22,3.23,3.33,4.84C549.05,846.75,551.22,845.5,550.31,844.17L550.31,844.17z"/>
						</g>
					</g>
				</g>
				<g>
					<g>
						<path class="st3" d="M550.99,801.69c9.95,12.38,20.14,25.49,21.59,41.89c0.14,1.59,2.64,1.6,2.5,0
							c-1.52-17.15-11.9-30.69-22.33-43.66C551.75,798.67,550,800.45,550.99,801.69L550.99,801.69z"/>
					</g>
				</g>
				<g>
					<g>
						<path class="st3" d="M552.94,801.04c37.06-20.95,71.12-46.83,108.82-66.69c1.42-0.75,0.16-2.91-1.26-2.16
							c-37.7,19.86-71.77,45.74-108.82,66.69C550.27,799.67,551.53,801.83,552.94,801.04L552.94,801.04z"/>
					</g>
				</g>
				<g>
					<g>
						<path class="st3" d="M545.28,816.46c4.52-1.61,8.95-3.46,13.28-5.53c1.45-0.69,0.18-2.85-1.26-2.16
							c-4.14,1.98-8.36,3.73-12.68,5.28C543.11,814.59,543.76,817,545.28,816.46L545.28,816.46z"/>
					</g>
				</g>
			</g>
		</g>
		<g>
			<g>
				<path class="st3" d="M660.57,709.2c7.38-3.67,15.56-3.52,23.6-3.54c1.61-0.01,1.61-2.51,0-2.5c-8.54,0.03-17.05,0-24.87,3.89
					C657.86,707.76,659.13,709.92,660.57,709.2L660.57,709.2z"/>
			</g>
		</g>
		<g>
			<g>
				<path class="st3" d="M761.93,801.32c5.97,8.69,11.6,17.58,16.91,26.69c0.81,1.39,2.97,0.13,2.16-1.26
					c-5.31-9.1-10.95-18-16.91-26.69C763.19,798.74,761.02,799.99,761.93,801.32L761.93,801.32z"/>
			</g>
		</g>
	</g>
</g>
<g id="details">
	<g>
		<g>
			<g>
				<path class="st3" d="M477.47,281.88c-0.78-5.23,26.47-17.7,38.78-23.06c-0.03-8.58-1.34-16.66-3.84-23.84
					c-10.35,6.73-34.72,22.03-36.54,18.23c-1.79-3.74,18.58-24.67,27.92-33.98c-3.83-4.67-8.49-8.45-13.98-11.03
					c-6.4-3.01-13.35-4.14-20.46-3.63c-4.88,14.34-14.25,39-20.79,38.7c-6.24-0.29-7.99-17.02-8.48-27.78
					c-7.46,5.05-14.54,11.7-20.79,19.7c4.2,11.32,12.65,35.76,8.15,38.34c-4.31,2.47-13.8-13.59-18.52-22.29
					c-0.85,1.6-1.68,3.22-2.46,4.88c-11.86,25.19-13.16,51.59-5.39,70.76c7.76-4.65,22.13-11.99,27.85-6.46
					c5.11,4.94-6.88,16.19-16.26,23.7c2.95,2.73,6.27,5.02,9.96,6.76c27.48,12.93,64.79-8.52,83.33-47.92
					c3.41-7.24,5.93-14.57,7.64-21.81C501.36,283.35,478.21,286.84,477.47,281.88z M495.22,314.17c-0.23,2.99-7.93,4.82-17.18,4.1
					c-9.26-0.73-16.57-3.74-16.34-6.73s7.93-4.82,17.18-4.1C488.14,308.17,495.45,311.18,495.22,314.17z"/>
			</g>
		</g>
		<g>
			<g>
				<path class="st3" d="M284.72,382.84c-1.52,7.28-2.33,15-2.3,22.99c0.15,43.55,24.9,78.76,55.26,78.66
					c4.09-0.01,8.06-0.69,11.89-1.91c-5.32-10.77-11.43-26.04-4.71-28.35c7.53-2.59,17.45,10.13,22.51,17.63
					c15.14-14.09,25.12-38.57,25.03-66.41c-0.01-1.84-0.07-3.66-0.17-5.47c-7.96,5.88-23.35,16.44-26.21,12.37
					c-2.98-4.23,15-22.82,23.6-31.29c-2.28-9.89-5.88-18.91-10.51-26.64c-4.99,9.55-13.65,23.97-19.42,21.59
					c-6.05-2.49-4.11-28.8-2.48-43.86c-6.23-3.47-12.99-5.39-20.07-5.36c-6.06,0.02-11.88,1.47-17.33,4.09
					c4.53,12.38,14.14,39.96,10.93,42.6c-3.26,2.68-18.87-21.49-25.41-31.97c-5.3,5.46-9.9,12.22-13.56,19.99
					c8.9,10.06,28.31,32.88,25.4,37.29C314.41,402.97,294.9,390.02,284.72,382.84z M305.08,421.36c8.69,3.26,14.89,8.17,13.84,10.98
					c-1.05,2.81-8.95,2.45-17.65-0.81c-8.69-3.26-14.89-8.17-13.84-10.98C288.48,417.74,296.38,418.1,305.08,421.36z"/>
			</g>
		</g>
		<g>
			<g>
				<path class="st4" d="M368.64,813.07h-67.86c-16.63,0-30.11-13.48-30.11-30.11v-62.58h128.09v62.58
					C398.75,799.59,385.27,813.07,368.64,813.07z"/>
			</g>
			<g>
				<g>
					<path class="st3" d="M297.23,643.79c1.27,8.87,0.69,18.79-5.62,25.77c-4.65,5.14-10.51,7.57-13.49,14.23
						c-6.97,15.59-7,34.19-7.56,50.93c-0.54,16.1-2.3,32.71-0.87,48.78c1,11.19,5.28,18.47,14.11,25.27
						c1.27,0.98,2.52-1.19,1.26-2.16c-4.69-3.61-8.92-7.6-10.96-13.3c-2.34-6.55-2.3-13.89-2.26-20.76
						c0.1-15.69,0.85-31.45,1.55-47.11c0.4-8.84,1.05-17.69,2.82-26.37c1.92-9.44,4.42-17.5,12.29-23.56
						c10.56-8.14,12.98-19.55,11.14-32.38C299.41,641.54,297,642.21,297.23,643.79L297.23,643.79z"/>
				</g>
			</g>
			<g>
				<g>
					<path class="st3" d="M298.78,644.68c11.83-0.11,23.66-0.2,35.49-0.3c5.8-0.05,11.59-0.1,17.39-0.14
						c2.87-0.02,5.74-0.05,8.6-0.07c1.73-0.01,7.09,0.87,8.12-0.45c-0.97,1.26,0.78,3.04,1.77,1.77c1.36-1.76,0.62-3.24-1.47-3.83
						c-2.94-0.83-7.29,0.01-10.32,0.03c-4.16,0.04-8.32,0.07-12.48,0.11c-15.7,0.13-31.4,0.26-47.09,0.4
						C297.17,642.2,297.17,644.7,298.78,644.68L298.78,644.68z"/>
				</g>
			</g>
			<g>
				<g>
					<path class="st3" d="M369.14,644.69c-2.62,8.19-2.73,17.05,2.81,24.07c3.29,4.16,7.67,7.25,11.24,11.15
						c4.03,4.4,6.7,9.73,8.55,15.36c3.81,11.6,4.55,23.91,5.05,36.02c0.53,12.71,0.96,25.42,1.36,38.14c0.05,1.6,2.55,1.61,2.5,0
						c-0.38-12.09-0.8-24.19-1.29-36.28c-0.45-11.25-1.01-22.6-3.78-33.56c-2.28-9.01-6.09-17.2-12.86-23.7
						c-3.69-3.54-8.03-6.75-10.61-11.27c-3.37-5.91-2.56-13.06-0.57-19.27C372.04,643.82,369.63,643.16,369.14,644.69L369.14,644.69
						z"/>
				</g>
			</g>
		</g>
		<g>
			<g>
				<path class="st3" d="M440.97,314.82c-4.69,12.84-8.53,26.03-12.55,39.09c-7.88,25.64-15.43,51.39-22.72,77.21
					c-18.25,64.61-35.31,129.75-47.95,195.7c-5.82,30.35-11.11,61.2-12.11,92.15c-0.05,1.61,2.45,1.61,2.5,0
					c0.88-27.28,5.21-54.44,10.1-81.24c6.01-32.94,13.39-65.62,21.34-98.14c14.59-59.7,31.12-118.95,49.02-177.73
					c4.72-15.49,9.22-31.15,14.78-46.37C443.93,313.97,441.51,313.32,440.97,314.82L440.97,314.82z"/>
			</g>
		</g>
		<g>
			<g>
				<path class="st3" d="M333.73,417.88c-4.59,79.21-4.31,158.81-0.87,238.06c0.93,21.44,2.15,42.88,3.7,64.28
					c0.12,1.6,2.62,1.61,2.5,0c-5.76-79.14-7.39-158.69-5.44-238.01c0.53-21.46,1.37-42.9,2.61-64.33
					C336.32,416.28,333.82,416.28,333.73,417.88L333.73,417.88z"/>
			</g>
		</g>
		<g>
			<g>
				<path class="st6" d="M431.29,353.24c10.13-39.78,23.83-78.58,39.64-116.43c0.62-1.48-1.8-2.13-2.41-0.66
					c-15.81,37.86-29.51,76.66-39.64,116.43C428.48,354.13,430.89,354.8,431.29,353.24L431.29,353.24z"/>
			</g>
		</g>
		<g>
			<g>
				<path class="st6" d="M419.16,287.31c10.83,6.54,18.01,17.25,20.06,29.72c0.26,1.58,2.67,0.91,2.41-0.66
					c-2.15-13.08-9.87-24.37-21.21-31.22C419.05,284.31,417.79,286.47,419.16,287.31L419.16,287.31z"/>
			</g>
		</g>
		<g>
			<g>
				<path class="st6" d="M452.21,285.97c7.55-9.34,16.96-16.61,27.89-21.58c1.46-0.66,0.19-2.82-1.26-2.16
					c-11.12,5.05-20.72,12.47-28.4,21.97C449.44,285.45,451.2,287.23,452.21,285.97L452.21,285.97z"/>
			</g>
		</g>
		<g>
			<g>
				<path class="st6" d="M337.84,352.08c2.91,23.39,0.78,47.15-1.68,70.48c-2.13,20.24-5.64,40.81-4.92,61.23
					c0.06,1.6,2.56,1.61,2.5,0c-0.72-20.41,2.79-40.98,4.92-61.23c2.46-23.33,4.59-47.1,1.68-70.48
					C340.14,350.5,337.64,350.48,337.84,352.08L337.84,352.08z"/>
			</g>
		</g>
		<g>
			<g>
				<path class="st6" d="M338.83,423.49c6.45-13.41,17.02-23.79,27.78-33.79c1.18-1.1-0.59-2.86-1.77-1.77
					c-10.92,10.14-21.63,20.7-28.17,34.3C335.98,423.67,338.13,424.94,338.83,423.49L338.83,423.49z"/>
			</g>
		</g>
		<g>
			<g>
				<path class="st6" d="M308.49,445.39c12.1,1.02,23.12,12.19,22.89,24.42c-0.03,1.61,2.47,1.61,2.5,0
					c0.25-13.68-11.96-25.8-25.39-26.92C306.88,442.75,306.89,445.25,308.49,445.39L308.49,445.39z"/>
			</g>
		</g>
	</g>
</g>
</svg>
