<?xml version="1.0" encoding="utf-8"?>
<!-- Generator: Adobe Illustrator 23.0.2, SVG Export Plug-In . SVG Version: 6.00 Build 0)  -->
<svg version="1.1" xmlns="http://www.w3.org/2000/svg" xmlns:xlink="http://www.w3.org/1999/xlink" x="0px" y="0px"
	 viewBox="0 0 1080 1080" style="enable-background:new 0 0 1080 1080;" xml:space="preserve">
<style type="text/css">
	.st0{fill:#FFECDD;}
	.st1{fill:#EC9A4A;}
	.st2{fill:#F8BAB4;}
	.st3{fill:#0D4D90;}
</style>
<g id="Layer_2">
	<g>
		<path class="st0" d="M346.94,939.55c-9.97-14.47-29.04-13.85-43.2-39.92c-20.21-37.2,76.54-119.7-21.35-151.51
			c41.09-31.07,45.65-58.81,69.78-98.88c55.21-91.68,175.12-209.04,221.58-148.15c28.94,37.92-70.53,103.75-95.76,144.31
			c-24.04,38.65-39.54,68.66-30.03,86.91c11.95,22.94,26.51-2.13,66.18-17.36c27.3-10.48,31.95,62.2,4.74,103.74
			c-27.21,41.54-42.64,52.89-30.51,71.85c10.4,16.27,40.46,0.73,36.14,32.92c-4.64,34.51-67.87,73-120.7,77.98
			c-19.17,1.81-43.16-1.8-67.62-9.44C356.08,975.81,355.21,951.57,346.94,939.55z"/>
		<path class="st1" d="M145.13,832.18c62.91-28.68,66.01-102.04,125.29-87.45c4.28,1.05,8.26,2.19,11.97,3.39
			c-6.9,5.22-14.83,10.54-24.07,16.02c-26.13,15.52-48.77,64.73-50.56,91.57c-1.98,29.65,5.29,52.7,27.19,76.63
			c23.92,26.13,63.14,47.78,101.24,59.66c-7.1,5.78-16.84,10.54-29.84,13.34C151.93,1038.66,79.92,861.91,145.13,832.18z"/>
		<path class="st2" d="M207.77,855.71c1.79-26.84,24.43-76.05,50.56-91.57c9.23-5.48,17.16-10.8,24.07-16.02
			c97.89,31.81,1.14,114.31,21.35,151.51c14.16,26.07,33.23,25.45,43.2,39.92c8.27,12.01,9.14,36.26-10.75,52.45
			c-38.09-11.89-77.32-33.53-101.24-59.66C213.06,908.42,205.79,885.37,207.77,855.71z"/>
	</g>
	<g>
		<path class="st1" d="M520.6,845.63c-1.57,0-3.15-0.13-4.73-0.39c-7.59-1.25-14.25-5.38-18.73-11.63
			c-9.26-12.91-6.3-30.94,6.6-40.21c6.25-4.49,13.88-6.27,21.47-5.03c7.59,1.25,14.25,5.38,18.73,11.63l0,0
			c4.49,6.25,6.27,13.88,5.03,21.47s-5.38,14.25-11.63,18.74C532.39,843.77,526.57,845.63,520.6,845.63z M520.48,791.56
			c-5.24,0-10.33,1.63-14.67,4.74c-11.31,8.12-13.9,23.92-5.78,35.22c3.93,5.48,9.76,9.09,16.41,10.19
			c6.65,1.09,13.33-0.47,18.81-4.4c11.31-8.12,13.9-23.92,5.78-35.22l0,0c-3.93-5.48-9.76-9.09-16.41-10.19
			C523.24,791.68,521.86,791.56,520.48,791.56z"/>
	</g>
</g>
<g id="Layer_1">
	<g>
		<polygon class="st0" points="311.64,145.67 513.47,76.31 985.1,73.05 985.1,530.85 510.41,448.1 315.06,173 		"/>
		<path class="st2" d="M289.49,437.88c0,0-12.5,44.76-20.3,79.03c-7.8,34.26-20.06,105.3-22.56,115.32S221,786,218.77,799.65
			c-2.23,13.65-14.76,94.15-14.76,94.15l41.78,2.23l54.6-170.76l54.04-190.54c0,0-3.34,167.42-4.46,184.97s-9.19,172.71-9.19,172.71
			l48.19-6.13c0,0,14.49-118.11,15.6-132.32c1.11-14.21,18.94-139.84,20.89-149.87c1.95-10.03,15.32-73.26,16.71-83.57
			s2.79-39.56-5.57-60.17c-8.36-20.61-10.86-27.02-10.86-27.02s-18.11,10.31-28.97,11.42c-10.86,1.11-42.26,1.45-56.59-2.55
			C325.86,438.21,289.49,437.88,289.49,437.88z"/>
		<g>
			<path class="st3" d="M314.63,145.44c17.3-0.36,34.59-1.19,51.84-2.52c4.79-0.37,13.27,0.47,16.81-3.73
				c1.87-2.23,2.31-6.5-1.23-7.15c-0.58-0.11-1.27,0.06-1.56,0.64c-0.52,1-0.49,1.43,0.01,2.45c0.2,0.4,0.75,0.72,1.2,0.69
				c0.15-0.01,0.3-0.03,0.45-0.04c1.76-0.15,1.78-2.92,0-2.77c0.24,0.36,0.49,0.71,0.73,1.07c-0.52,0.21-1.04,0.42-1.56,0.64
				c-0.12,1-0.25,1.99-0.37,2.99c-1.03,0.47-2.06,0.93-3.09,1.4c-1.43,0.39-3.07,0.36-4.55,0.5c-2.92,0.27-5.86,0.48-8.79,0.7
				c-5.53,0.42-11.07,0.78-16.61,1.1c-11.08,0.63-22.17,1.04-33.27,1.28C312.86,142.71,312.85,145.47,314.63,145.44L314.63,145.44z"
				/>
		</g>
		<g>
			<path class="st3" d="M319.58,176.09c5.24,1.52,10.67,1.82,16.01,0.6c5.71-1.3,9.63-4.58,14.55-7.45
				c6.34-3.7,13.68,3.44,20.48,4.04c2.15,0.19,5.87,0.26,6.26-2.5c0.25-1.74-2.42-2.5-2.67-0.74c-0.46,3.27-13.83-3.34-15.11-3.94
				c-3.1-1.48-5.94-1.51-9.06,0.03c-4.56,2.25-7.95,5.72-12.95,7.29c-5.54,1.74-11.23,1.62-16.77,0.01
				C318.6,172.92,317.87,175.59,319.58,176.09L319.58,176.09z"/>
		</g>
		<g>
			<path class="st3" d="M380.45,138c-1.72,10.9-4.43,21.61-6.15,32.51c-0.28,1.74,2.39,2.49,2.67,0.74
				c1.72-10.9,4.43-21.61,6.15-32.51C383.39,136.99,380.72,136.24,380.45,138L380.45,138z"/>
		</g>
		<g>
			<path class="st3" d="M309.01,143.77c-5.13-1.98-10.45-2.22-15.89-2.26c-2.77-0.02-5.56,0-8.33-0.24
				c-1.9-0.17-9.84-0.99-10.43-3.43c-0.21,0.52-0.42,1.04-0.64,1.56c-0.12,0.02-0.24,0.04-0.36,0.05c-0.34-0.44-0.68-0.89-1.02-1.33
				c0,0.1,0,0.2,0,0.3c0,1.78,2.77,1.78,2.77,0c0-0.1,0-0.2,0-0.3c0-0.64-0.43-1.14-1.02-1.33c-0.71-0.24-1.16-0.19-1.77,0.23
				c-0.53,0.36-0.79,0.93-0.64,1.56c1.03,4.26,9.65,5.15,13.1,5.46c7.91,0.7,15.89-0.53,23.48,2.41
				C309.93,147.08,310.65,144.41,309.01,143.77L309.01,143.77z"/>
		</g>
		<g>
			<path class="st3" d="M293.51,164.65c-4.51-1.26-8.64-3.92-12.44-6.59c-3.28-2.31-7.28-5.01-9.48-8.47
				c-0.95-1.5-3.35-0.11-2.39,1.4c2.29,3.59,6.11,6.31,9.51,8.77c4.27,3.1,8.94,6.13,14.06,7.56
				C294.49,167.8,295.22,165.13,293.51,164.65L293.51,164.65z"/>
		</g>
		<g>
			<path class="st3" d="M321.24,181.8c-2.71,9.83,4.35,19.08,14.54,19.08c1.78,0,1.78-2.77,0-2.77c-8.36,0-14.09-7.52-11.87-15.57
				C324.38,180.82,321.71,180.09,321.24,181.8L321.24,181.8z"/>
		</g>
		<g>
			<path class="st3" d="M335.4,197.4c-1.63,1.39-0.96,4.01,0.65,5.11c1.73,1.19,4.3,1.57,5.84-0.11c1.16-1.26,0.54-3.04-0.52-4.14
				c-1.38-1.43-3.44-1.83-5.31-1.27c-1.7,0.51-0.98,3.18,0.74,2.67c0.81-0.24,1.63-0.23,2.33,0.3c0.23,0.17,0.39,0.36,0.53,0.59
				c0.1,0.16,0.04,0.21,0.12,0.28c-0.09-0.07-0.01,0.03,0.02-0.13c0.04-0.29,0.38-0.25-0.05-0.03c-0.13,0.06-0.21,0.12-0.36,0.14
				c-0.42,0.07-1-0.2-1.37-0.36c-0.36-0.16-1.11-0.68-0.65-1.08C338.71,198.19,336.74,196.24,335.4,197.4L335.4,197.4z"/>
		</g>
		<g>
			<path class="st3" d="M356.4,174.21c-0.65,2.77,0.38,4.78,2.53,6.5c1.69,1.34,2.21,3.47,0.15,4.9c-1.92,1.33-4.45,0.3-6.16-0.81
				c-1.5-0.98-2.89,1.42-1.4,2.39c3.32,2.17,8.3,2.77,10.76-1.01c0.91-1.4,1.26-3.23,0.7-4.82c-0.9-2.57-4.65-3.27-3.91-6.41
				C359.47,173.21,356.81,172.47,356.4,174.21L356.4,174.21z"/>
		</g>
		<g>
			<path class="st3" d="M346.32,200.71c4.44,0.37,8.81,0.13,13.19-0.65c1.75-0.31,1.01-2.98-0.74-2.67
				c-4.13,0.74-8.27,0.9-12.45,0.55C344.55,197.79,344.56,200.56,346.32,200.71L346.32,200.71z"/>
		</g>
		<g>
			<path class="st3" d="M372.02,136.82c-2.58-21.84-24.29-34.26-44.9-32.75c-22.44,1.65-43.19,15.06-51.91,36.02
				c-0.68,1.64,1.99,2.36,2.67,0.74c8.01-19.27,27.08-31.67,47.56-33.84c19.38-2.05,41.33,8.72,43.82,29.83
				C369.46,138.57,372.23,138.59,372.02,136.82L372.02,136.82z"/>
		</g>
		<g>
			<path class="st3" d="M269.41,152.34c-5.17,13.13-10.49,26.31-17.16,38.76c-6.99,13.04-18.58,28.67-34.9,28.69
				c-1.24,0-1.77,1.49-0.98,2.36c10.93,12.03,26.17,25.69,43.85,24.61c1.77-0.11,1.78-2.88,0-2.77
				c-16.97,1.04-31.43-12.28-41.89-23.8c-0.33,0.79-0.65,1.58-0.98,2.36c15.91-0.02,28.02-13.84,35.38-26.62
				c7.81-13.56,13.62-28.33,19.34-42.86C272.74,151.42,270.06,150.7,269.41,152.34L269.41,152.34z"/>
		</g>
		<g>
			<path class="st3" d="M307.39,151.42c0.04,12.05,5.56,22.68,9.12,33.93c2.03,6.41,3.8,13.02,4.49,19.72
				c0.29,2.8,1.67,18.67-2.78,18.82c-1.88,0.06-1.89,2.99,0,2.93c3.5-0.12,5.03-4.7,5.44-7.51c1.04-7.21,0.58-14.44-0.85-21.56
				c-3.12-15.54-12.43-30.3-12.49-46.32C310.31,149.53,307.38,149.53,307.39,151.42L307.39,151.42z"/>
		</g>
		<g>
			<path class="st3" d="M301.93,156.23c-0.02,2.87-0.05,5.73-0.07,8.6c0.91-0.25,1.82-0.49,2.73-0.74
				c-2.73-5.52-11.37-3.33-11.74,2.6c0.62-0.47,1.24-0.94,1.85-1.41c-2.07-0.07-3.49-1.12-4.25-3.17c-0.55-1.16-2.38-0.81-2.68,0.35
				c-2.79,11.01,0.8,21.6,2.54,32.46c2.11,13.17,0.79,26.7-2.57,39.55c-6.33,24.23-19.82,45.64-33.04,66.62
				c-1.01,1.6,1.53,3.07,2.53,1.48c13.03-20.68,26.28-41.79,32.86-65.56c3.17-11.44,4.79-23.42,3.93-35.29
				c-0.92-12.8-6.68-25.65-3.43-38.47c-0.89,0.12-1.79,0.23-2.68,0.35c1.23,2.61,3.13,4.08,6,4.52c0.98,0.15,1.79-0.38,1.85-1.41
				c0.21-3.38,4.96-3.79,6.28-1.12c0.67,1.35,2.72,0.64,2.73-0.74c0.02-2.87,0.05-5.73,0.07-8.6
				C304.88,154.34,301.95,154.34,301.93,156.23L301.93,156.23z"/>
		</g>
		<g>
			<path class="st3" d="M316.89,225.41c-5.17,18.76-6.81,38.38-9.43,57.6c-2.54,18.57-4.94,38.54-13.66,55.41
				c-0.86,1.67,1.66,3.16,2.53,1.48c8.63-16.7,11.2-36.23,13.75-54.62c2.73-19.71,4.34-39.85,9.64-59.1
				C320.22,224.37,317.39,223.59,316.89,225.41L316.89,225.41z"/>
		</g>
		<g>
			<path class="st3" d="M242.66,265.49c1.41,11.93,2.81,23.86,4.23,35.79c1.1,9.3,2.14,19.08,7.06,27.27
				c4.54,7.58,12.72,13.77,21.21,16.21c7.07,2.03,15.68,1.99,20.72-4.03c1.2-1.44-0.86-3.52-2.07-2.07
				c-5.76,6.87-16.79,4.52-23.71,0.82c-8.51-4.54-14.47-11.59-17.23-20.85c-2.41-8.11-2.98-16.74-3.96-25.1
				c-1.1-9.35-2.21-18.7-3.31-28.05C245.37,263.64,242.44,263.62,242.66,265.49L242.66,265.49z"/>
		</g>
		<g>
			<path class="st3" d="M287.6,237.45c-10.05,0.52-20.44,3.9-29.75,7.55c-8.67,3.4-16.61,9.92-15.13,20.29
				c0.25,1.76,2.92,1.01,2.67-0.74c-1.64-11.48,10.07-15.98,18.67-18.86c7.51-2.52,15.58-5.06,23.53-5.47
				C289.38,240.13,289.39,237.36,287.6,237.45L287.6,237.45z"/>
		</g>
		<g>
			<path class="st3" d="M333.68,215.89c9.54,5.65,20.98,6.56,27.65-3.61c7.65-11.66,12.08-26.01,14.38-39.64
				c0.29-1.74-2.37-2.49-2.67-0.74c-1.84,10.9-5.09,21.49-9.97,31.42c-2.47,5.03-5.08,10.88-10.51,13.21
				c-5.79,2.48-12.43-0.04-17.49-3.04C333.54,212.59,332.15,214.98,333.68,215.89L333.68,215.89z"/>
		</g>
		<g>
			<path class="st3" d="M371.47,202.91c11,7.02,24.04,11.82,33.79,20.61c7.84,7.07,15.43,14.45,22.9,21.89
				c7.81,7.78,14.82,15.46,21.06,24.52c10.55,15.31,22.75,29.4,36.29,42.13c1.37,1.29,3.45-0.78,2.07-2.07
				c-11.41-10.72-21.88-22.38-31.17-34.99c-5.34-7.25-9.91-14.68-16.06-21.27c-10.98-11.75-22.56-23.48-34.84-33.89
				c-9.56-8.1-22.05-12.75-32.58-19.46C371.35,199.36,369.88,201.9,371.47,202.91L371.47,202.91z"/>
		</g>
		<g>
			<path class="st3" d="M372.74,201.01c-0.89-0.76-2.77-3.52-1.9-4.84c0.66-1.01,1.2-0.7,2.32-0.34c2.03,0.65,3.85,2.03,5.68,3.1
				c2.96,1.72,6.04,3.06,9.44,1.84c1.67-0.59,0.95-3.27-0.74-2.67c-6.34,2.26-11.4-6.39-18.14-5.22c-0.44,0.08-0.87,0.54-0.97,0.97
				c-0.73,3.29-0.32,6.83,2.35,9.12C372.12,204.12,374.09,202.17,372.74,201.01L372.74,201.01z"/>
		</g>
		<g>
			<path class="st3" d="M389.45,198.8c-4.58-6.53-10.19-12.26-15.73-17.97c-1.24-1.28-3.2,0.68-1.96,1.96
				c5.37,5.53,10.85,11.09,15.29,17.41C388.07,201.64,390.47,200.26,389.45,198.8L389.45,198.8z"/>
		</g>
		<g>
			<path class="st3" d="M376.93,165.89c6.33,7.06,12.85,13.96,19.19,21.02c1.19,1.33,3.14-0.63,1.96-1.96
				c-6.33-7.06-12.85-13.96-19.19-21.02C377.7,162.6,375.75,164.57,376.93,165.89L376.93,165.89z"/>
		</g>
		<g>
			<path class="st3" d="M372.75,173.25c6.1,6.74,12.9,12.79,19,19.53c1.2,1.32,3.15-0.64,1.96-1.96c-6.1-6.74-12.9-12.79-19-19.53
				C373.51,169.96,371.56,171.93,372.75,173.25L372.75,173.25z"/>
		</g>
		<g>
			<path class="st3" d="M379.5,160.27c5.13,2.09,9.33,7.29,13.13,11.2c4.04,4.15,7.72,8.6,10.31,13.8c0.8,1.59,3.18,0.19,2.39-1.4
				c-2.96-5.93-7.32-10.96-11.99-15.61c-4-3.99-7.78-8.48-13.11-10.66C378.58,156.93,377.87,159.61,379.5,160.27L379.5,160.27z"/>
		</g>
		<g>
			<path class="st3" d="M391.99,161.95c2.95-5.91,12.68,6.74,14.73,9.16c3.5,4.13,6.82,8.42,10.07,12.75
				c5.07,6.76,9.97,13.66,14.75,20.64c2.97,4.33,7.04,7.72,10.76,11.42c20.87,20.78,41.64,42.08,59.8,65.3
				c4.49,5.74,8.9,11.66,12.46,18.03c1.81,3.23,4.77,8.06,3.69,11.94c-0.5,1.82,2.32,2.6,2.83,0.78c0.97-3.49-0.59-7.28-2.03-10.41
				c-2.6-5.62-6.2-10.79-9.84-15.77c-9.81-13.43-20.93-25.91-32.2-38.12c-10.41-11.28-21.1-22.31-31.97-33.15
				c-2.82-2.81-5.65-5.62-8.51-8.39c-1.72-1.67-2.92-3.77-4.77-6.45c-6.47-9.31-13.1-18.54-20.24-27.35
				c-3.75-4.63-16.56-22.88-22.06-11.86C388.62,162.16,391.15,163.64,391.99,161.95L391.99,161.95z"/>
		</g>
		<g>
			<path class="st3" d="M412.93,299.62c17.69,15.33,39.52,25.43,62.75,28.59c8.74,1.19,18.39,1.99,27.16,0.46
				c8.81-1.54,14.52-7.45,17.94-15.49c0.73-1.72-1.79-3.21-2.53-1.48c-3.56,8.37-9.39,13.63-18.59,14.43
				c-8.87,0.78-18.06,0.16-26.82-1.29c-21.39-3.55-41.47-13.11-57.84-27.29C413.59,296.32,411.5,298.39,412.93,299.62L412.93,299.62
				z"/>
		</g>
		<g>
			<path class="st3" d="M346.94,237.39c10.71,0.14,21.58-1.74,32.2,0.2c10.36,1.89,21.63,6.51,30.79,11.6
				c15.12,8.4,30.8,17.57,44.22,28.51c1.45,1.18,3.53-0.88,2.07-2.07c-6.82-5.56-14.24-10.34-21.7-14.99
				c-8.08-5.04-16.19-10.37-24.62-14.79c-9.12-4.77-19.86-9.16-29.98-11.08c-10.89-2.06-22-0.16-32.98-0.3
				C345.06,234.44,345.05,237.37,346.94,237.39L346.94,237.39z"/>
		</g>
		<g>
			<path class="st3" d="M292.07,439c26.15-3.23,50.78,7.16,76.64,8.07c18.95,0.67,41-1.44,57.14-12.31c1.47-0.99,0.09-3.39-1.4-2.39
				c-16.45,11.08-39.19,12.89-58.46,11.81c-24.95-1.4-48.62-11.07-73.93-7.95C290.33,436.44,290.31,439.21,292.07,439L292.07,439z"
				/>
		</g>
		<g>
			<path class="st3" d="M424.65,432.89c-0.47,1.05,0.26,1.99,0.69,2.93c1.28,2.73,2.55,5.45,3.7,8.24
				c4.93,12.02,8.81,24.75,11.25,37.51c3.22,16.81,1.16,34.19-2.13,50.82c-3.15,15.9-6.79,31.68-9.82,47.61
				c-12.28,64.63-20.27,129.98-27.76,195.3c-4.23,36.9-8.29,73.82-12.84,110.68c-0.22,1.76,2.55,1.75,2.77,0
				c8.01-64.97,14.51-130.11,23.11-195.01c4.39-33.15,9.33-66.23,15.32-99.12c2.92-16,6.08-31.95,9.57-47.84
				c3.34-15.24,6.37-30.67,6.12-46.35c-0.25-15.91-4.66-31.65-9.96-46.56c-1.53-4.3-3.21-8.55-5.08-12.72
				c-0.54-1.19-1.02-2.47-1.68-3.6c-0.81-1.38-0.24-1.89-0.87-0.49C427.77,432.68,425.38,431.27,424.65,432.89L424.65,432.89z"/>
		</g>
		<g>
			<path class="st3" d="M352.92,531.97c-24.14,95.52-52.94,189.78-82.78,283.65c-8.43,26.52-16.94,53-25.45,79.49
				c0.44-0.34,0.89-0.68,1.33-1.02c-14.02-0.6-28.04-1.2-42.07-1.81c-1.78-0.08-1.78,2.69,0,2.77c14.02,0.6,28.04,1.2,42.07,1.81
				c0.62,0.03,1.15-0.45,1.33-1.02c30.13-93.79,60.27-187.61,86.76-282.51c7.48-26.79,14.65-53.67,21.47-80.63
				C356.02,530.98,353.35,530.24,352.92,531.97L352.92,531.97z"/>
		</g>
		<g>
			<path class="st3" d="M289.43,437.32c-9.51,26.99-15.89,55.15-22.06,83.05c-8.25,37.34-15.42,74.92-22.22,112.54
				c-7,38.76-13.55,77.61-19.86,116.49c-5.13,31.61-10.08,63.24-14.99,94.88c-2.47,15.92-4.97,31.84-7.6,47.73
				c-0.08,0.46-0.18,0.92-0.3,1.37c-0.47,1.72,2.2,2.45,2.67,0.74c1.07-3.91,1.48-8.1,2.12-12.1c1.5-9.35,2.94-18.71,4.4-28.07
				c4.68-30.16,9.37-60.32,14.22-90.46c6.18-38.45,12.59-76.86,19.4-115.21c6.79-38.24,13.94-76.43,22.06-114.41
				c6.32-29.56,12.91-59.27,22.22-88.06c0.84-2.6,1.71-5.19,2.62-7.77C292.69,436.37,290.02,435.65,289.43,437.32L289.43,437.32z"/>
		</g>
		<g>
			<path class="st3" d="M353.21,535c1.45,15.7,0.61,31.78,0.3,47.52c-0.54,27.24-1.52,54.48-2.6,81.71
				c-2.32,58.56-5.15,117.12-8.72,175.62c-1.08,17.74-1.79,35.64-3.94,53.29c-0.12,0.99,0.98,1.46,1.75,1.33
				c16.06-2.52,32.25-4.23,48.31-6.75c1.75-0.28,1.01-2.94-0.74-2.67c-16.06,2.52-32.25,4.23-48.31,6.75
				c0.58,0.44,1.17,0.89,1.75,1.33c1.83-14.95,2.49-30.1,3.44-45.13c1.69-26.82,3.15-53.65,4.52-80.48
				c3-58.84,5.74-117.73,7.13-176.64c0.44-18.49,1.59-37.43-0.11-55.89C355.82,533.24,353.05,533.23,353.21,535L353.21,535z"/>
		</g>
		<g>
			<path class="st3" d="M413.17,471.77c3.06,14.78,15.39,25.93,30.29,27.86c1.76,0.23,1.75-2.54,0-2.77
				c-13.71-1.77-24.83-12.36-27.62-25.83C415.48,469.29,412.81,470.03,413.17,471.77L413.17,471.77z"/>
		</g>
		<g>
			<path class="st3" d="M274.36,495.76c15.02-0.83,28.05-11.19,32.18-25.67c0.49-1.72-2.18-2.45-2.67-0.74
				c-3.78,13.26-15.72,22.87-29.51,23.64C272.58,493.09,272.57,495.86,274.36,495.76L274.36,495.76z"/>
		</g>
		<g>
			<g>
				<g>
					<g>
						<path class="st3" d="M375.17,914.51c2.21,2.77,2.34,7.31,2.3,10.7c-0.02,2-0.51,3.76,0.79,5.44c1.24,1.61,3.48,2.35,5.32,3.01
							c3.61,1.29,7.07,2.31,10.56,3.95c7.86,3.7,15.82,7.17,23.9,10.34c4.63,1.82,9.3,3.54,13.99,5.21
							c4.41,1.57,17.55,4.94,11.57,12.45c-0.99,1.25,0.77,3.03,1.77,1.77c4.78-6.01,0.63-11.26-5.48-13.99
							c-10.31-4.6-21.33-7.71-31.73-12.18c-5.15-2.21-10.2-4.62-15.29-6.96c-2.97-1.36-6.13-2.01-9.16-3.19
							c-5.02-1.95-3.45-6.03-4.01-10.5c-0.35-2.83-0.96-5.56-2.77-7.82C375.93,911.48,374.17,913.26,375.17,914.51L375.17,914.51z"
							/>
					</g>
					<g>
						<path class="st3" d="M340.32,940.12c3.17,0.32,8.63,1.19,11.51-0.67c2.33-1.5,1.89-5.28,1.76-7.65
							c-0.12-2.15-0.63-4.19-0.89-6.32c-0.33-2.71-0.44-5.29,1.74-6.95c1.18-0.9,3.14-1.24,4.58-1.67
							c3.43-1.01,6.79-1.18,10.28-1.73c1.61-0.25,4.72-1.68,6.03-0.06c1.01,1.25,2.77-0.53,1.77-1.77
							c-2.45-3.02-6.34-0.89-9.59-0.56c-5.07,0.51-11.7,1.35-15.94,4.43c-3.46,2.51-1.79,6.28-1.1,9.82
							c0.36,1.83,0.76,3.78,0.67,5.66c-0.13,2.7-0.03,4.81-3.09,5.11c-2.56,0.26-5.17,0.11-7.73-0.15
							C338.72,937.46,338.73,939.96,340.32,940.12L340.32,940.12z"/>
					</g>
				</g>
				<g>
					<path class="st3" d="M340.89,974.92c20.88,2.84,41.7,6.76,62.83,7.16c13.86,0.26,37.02,0.15,42.64-15.92
						c0.53-1.52-1.88-2.18-2.41-0.66c-5.6,16.01-31.76,14.52-45.03,13.92c-19.28-0.86-38.27-4.32-57.36-6.91
						C339.98,972.3,339.3,974.71,340.89,974.92L340.89,974.92z"/>
				</g>
				<g>
					<path class="st3" d="M342.34,972.86c-0.09-5.61-0.01-11.23-0.19-16.83c-0.08-2.54-0.26-5.09-0.55-7.61
						c-0.14-1.2-0.3-2.61-0.51-3.8c-0.09-0.54-1.17-4.69-0.32-4.5c1.57,0.36,2.23-2.05,0.66-2.41c-6.5-1.5-2.53,8.95-2.25,11.51
						c0.83,7.83,0.53,15.77,0.65,23.64C339.87,974.47,342.37,974.47,342.34,972.86L342.34,972.86z"/>
				</g>
				<g>
					<path class="st3" d="M341.17,968.58c18.43,3.97,37.24,6.08,56.09,6.55c9.47,0.24,19.01,0.16,28.46-0.6
						c7.07-0.57,13.94-1.88,19.31-6.82c1.19-1.09-0.59-2.86-1.77-1.77c-6.56,6.05-15.95,6.11-24.37,6.49
						c-8.42,0.38-16.86,0.4-25.29,0.09c-17.4-0.64-34.74-2.68-51.77-6.35C340.27,965.83,339.6,968.24,341.17,968.58L341.17,968.58z"
						/>
				</g>
				<g>
					<path class="st3" d="M367.73,936.09c1.63-0.15,3.24-0.41,4.82-0.85c0.84-0.24,1.66-0.52,2.47-0.84
						c0.3-0.12,1.63-0.92,1.88-0.84c-0.31-0.4-0.61-0.8-0.92-1.21c0,0.07-0.01,0.14-0.01,0.2c0.21-0.36,0.41-0.72,0.62-1.08
						c-0.07,0.04-0.13,0.07-0.2,0.11c0.5,0.07,1.01,0.13,1.51,0.2c-0.03-0.04-0.06-0.08-0.09-0.11c-1.03-1.24-2.79,0.54-1.77,1.77
						c0.03,0.04,0.06,0.08,0.09,0.11c0.35,0.43,1.06,0.45,1.51,0.2c0.59-0.32,0.79-0.73,0.83-1.39c0.03-0.56-0.41-1.05-0.92-1.21
						c-1.4-0.43-2.85,0.73-4.12,1.19c-1.85,0.66-3.76,1.08-5.71,1.26C366.14,933.74,366.12,936.24,367.73,936.09L367.73,936.09z"/>
				</g>
				<g>
					<path class="st3" d="M369.4,939.48c4.02-0.38,7.81-1.36,11.52-2.95c1.47-0.63,0.2-2.79-1.26-2.16
						c-3.28,1.4-6.71,2.27-10.26,2.6C367.82,937.13,367.8,939.64,369.4,939.48L369.4,939.48z"/>
				</g>
				<g>
					<path class="st3" d="M374.42,943.08c5.44-0.37,10.66-1.52,15.74-3.54c-0.32-0.76-0.64-1.52-0.96-2.28
						c-0.37,0.23-0.74,0.47-1.11,0.7c-1.36,0.86-0.1,3.02,1.26,2.16c0.37-0.23,0.74-0.47,1.11-0.7c1.14-0.72,0.41-2.83-0.96-2.28
						c-4.86,1.94-9.85,3.1-15.07,3.45C372.82,940.69,372.81,943.19,374.42,943.08L374.42,943.08z"/>
				</g>
				<g>
					<path class="st3" d="M384.52,946.5c4.67-0.08,9.1-1.08,13.38-2.93c1.47-0.64,0.2-2.79-1.26-2.16
						c-3.87,1.67-7.91,2.51-12.12,2.59C382.91,944.03,382.91,946.53,384.52,946.5L384.52,946.5z"/>
				</g>
				<g>
					<path class="st3" d="M393.62,949.78c3.59-0.5,7-1.59,10.25-3.19c1.44-0.71,0.18-2.87-1.26-2.16c-3.06,1.51-6.27,2.47-9.65,2.94
						C391.37,947.6,392.04,950.01,393.62,949.78L393.62,949.78z"/>
				</g>
				<g>
					<path class="st3" d="M401.79,952.49c2.72-0.73,5.44-1.46,8.16-2.19c1.55-0.42,0.89-2.83-0.66-2.41
						c-2.72,0.73-5.44,1.46-8.16,2.19C399.57,950.49,400.23,952.9,401.79,952.49L401.79,952.49z"/>
				</g>
			</g>
			<g>
				<path class="st3" d="M348.77,891.61c-0.46,8.1-1.69,16.22-2.7,24.26c-0.62,4.89-1.25,9.79-1.96,14.67
					c-0.23,1.56-0.45,3.12-0.72,4.68c-0.1,0.54-0.3,1.16-0.31,1.71c-0.03,1.15-0.7,0.32,0.57,0.07c-1.58,0.31-0.91,2.72,0.66,2.41
					c1.55-0.31,1.55-3.9,1.72-4.98c0.76-4.77,1.37-9.56,1.99-14.34c1.22-9.44,2.7-18.96,3.24-28.48
					C351.36,890,348.86,890,348.77,891.61L348.77,891.61z"/>
			</g>
			<g>
				<path class="st3" d="M374.23,889.51c-2.23,7.76-4.47,15.52-6.7,23.29c-0.45,1.55,1.97,2.21,2.41,0.66
					c2.23-7.76,4.47-15.52,6.7-23.29C377.08,888.62,374.67,887.96,374.23,889.51L374.23,889.51z"/>
			</g>
		</g>
		<g>
			<g>
				<path class="st3" d="M229.5,923.96c-2.5,0.63-3.09-6.32-3.54-7.91c-0.7-2.5-1.74-4.53-3.79-6.21
					c-3.89-3.21-10.29-3.13-15.08-2.76c-5.05,0.4-8.45,0.98-10.43,5.91c-1.92,4.79-2.83,10.08-3.45,15.19
					c-0.19,1.59,2.31,1.58,2.5,0c0.55-4.5,1.4-9.19,2.96-13.46c1.44-3.93,3.38-4.61,7.3-5.05c2.39-0.27,4.78-0.3,7.18-0.08
					c3.66,0.34,7.31,0.89,9.37,4.35c1.29,2.17,1.45,4.92,2.08,7.31c0.77,2.91,1.99,6.01,5.56,5.11
					C231.72,925.98,231.06,923.57,229.5,923.96L229.5,923.96z"/>
			</g>
			<g>
				<path class="st3" d="M238.71,895.84c-0.37-0.84-0.15,0-0.29,0.54c-0.22,0.79-0.25,1.7-0.38,2.51c-0.38,2.45-0.78,4.89-1.17,7.33
					c-0.54,3.3-1.08,6.59-1.63,9.88c-0.26,1.57,2.15,2.25,2.41,0.66c0.66-3.98,1.32-7.95,1.96-11.93c0.41-2.51,2.35-7.8,1.26-10.26
					C240.22,893.11,238.06,894.38,238.71,895.84L238.71,895.84z"/>
			</g>
			<g>
				<path class="st3" d="M231.25,925.35c1.86-2.47,4.35-6.92,7.01-8.5c2.36-1.4,1.48,3.17,1.49,4.84c0.03,3.29,0.05,6.59,0.08,9.88
					c0.1,12.85,0.21,25.69,0.31,38.54c0.01,1.61,2.51,1.61,2.5,0c-0.08-9.22-0.15-18.45-0.23-27.67c-0.03-3.95-0.06-7.91-0.1-11.86
					c-0.04-4.38,0.62-9.51-0.11-13.84c-1.64-9.69-10.96,4.47-13.11,7.33C228.12,925.38,230.29,926.62,231.25,925.35L231.25,925.35z"
					/>
			</g>
			<g>
				<path class="st3" d="M240.56,969.51c-10.43,6.79-22.66,10.35-35.08,10.63c-10.56,0.24-24.77-1.83-28.75-13.38
					c-0.52-1.51-2.94-0.86-2.41,0.66c3.79,10.99,15.83,14.66,26.39,15.16c14.4,0.68,29.02-3.04,41.12-10.92
					C243.17,970.8,241.91,968.63,240.56,969.51L240.56,969.51z"/>
			</g>
			<g>
				<path class="st3" d="M239.68,959.55c-9.57,7.23-21.79,12.25-33.85,12.79c-8.66,0.38-26.49-2.96-26.55-14.57
					c-0.01-1.61-2.51-1.61-2.5,0c0.05,10.39,13.62,16.11,22.32,16.95c14.63,1.42,30.25-4.27,41.83-13.01
					C242.21,960.75,240.96,958.58,239.68,959.55L239.68,959.55z"/>
			</g>
			<g>
				<path class="st3" d="M217.65,919.49c-3.28,0.4-6.57,0.61-9.87,0.62c-1.61,0.01-1.61,2.51,0,2.5c3.31-0.01,6.59-0.22,9.87-0.62
					C219.23,921.8,219.25,919.3,217.65,919.49L217.65,919.49z"/>
			</g>
			<g>
				<path class="st3" d="M217.65,927.79c-4.01,0.63-8,0.48-11.96-0.39c-1.21-0.27-2.1,1.16-1.22,2.09c0.27,0.28,0.54,0.57,0.81,0.85
					c1.11,1.17,2.88-0.6,1.77-1.77c-0.27-0.28-0.54-0.57-0.81-0.85c-0.41,0.7-0.81,1.39-1.22,2.09c4.42,0.97,8.82,1.09,13.29,0.39
					C219.89,929.96,219.22,927.55,217.65,927.79L217.65,927.79z"/>
			</g>
			<g>
				<path class="st3" d="M217.3,935.66c-2.94,0.15-5.88,0.3-8.81,0.44c-1.51,0.08-4.05-0.37-5.24,0.78c-0.53,0.51-0.41,1.24,0,1.77
					c0.04,0.05,0.09,0.11,0.13,0.16c0.32,0.41,1.09,0.47,1.51,0.2c0.04-0.03,0.09-0.06,0.13-0.09c1.34-0.88,0.08-3.05-1.26-2.16
					c-0.04,0.03-0.09,0.06-0.13,0.09c0.5,0.07,1.01,0.13,1.51,0.2c-0.04-0.05-0.09-0.11-0.13-0.16c0,0.59,0,1.18,0,1.77
					c0.15-0.15,2.03,0.03,2.49,0.01c1.14-0.06,2.29-0.11,3.43-0.17c2.12-0.11,4.24-0.21,6.37-0.32
					C218.9,938.08,218.91,935.58,217.3,935.66L217.3,935.66z"/>
			</g>
			<g>
				<path class="st3" d="M214.77,944.06c-4.18,0.34-10.76,0.23-14.24-2.33c-1.3-0.95-2.55,1.21-1.26,2.16
					c2.14,1.58,5.14,1.94,7.7,2.27c2.55,0.33,5.23,0.62,7.8,0.41C216.36,946.43,216.37,943.93,214.77,944.06L214.77,944.06z"/>
			</g>
			<g>
				<path class="st3" d="M193.17,928.14c-0.76,4.24-1.13,8.83-3.36,12.63c-2.29,3.9-6.42,6.09-9.26,9.52
					c-4.11,4.95-6.17,10.97-6.41,17.36c-0.06,1.61,2.44,1.61,2.5,0c0.36-9.25,4.91-15.15,11.51-21.08
					c5.33-4.79,6.23-11.01,7.44-17.77C195.86,927.23,193.45,926.55,193.17,928.14L193.17,928.14z"/>
			</g>
		</g>
		<g>
			<path class="st3" d="M214.48,907.37c0.14-4.06,1.94-8.37,2.99-12.28c0.42-1.56-1.99-2.22-2.41-0.66
				c-1.11,4.13-2.93,8.64-3.08,12.94C211.92,908.98,214.42,908.98,214.48,907.37L214.48,907.37z"/>
		</g>
		<g>
			<path class="st3" d="M273.89,345.32c-2.08,25.64-6.32,51.01-12.66,75.94c-0.25,1,0.71,2.21,1.8,1.8
				c7.49-2.79,15.64-0.9,23.32,0.08c7.79,0.99,15.59,1.96,23.4,2.83c15.92,1.78,31.91,3.17,47.93,3.6
				c30.23,0.81,60.67-1.92,89.55-11.29c1.79-0.58,1.02-3.41-0.78-2.83c-29.9,9.7-61.42,12.21-92.69,11.06
				c-15.69-0.58-31.34-2.02-46.94-3.81c-7.81-0.89-15.6-1.87-23.39-2.88c-7.13-0.92-14.26-2.19-21.18,0.39c0.6,0.6,1.2,1.2,1.8,1.8
				c6.41-25.18,10.67-50.82,12.77-76.71C276.98,343.44,274.05,343.45,273.89,345.32L273.89,345.32z"/>
		</g>
		<g>
			<path class="st3" d="M406.21,282.75c4.75,12.56,7.58,25.41,9.54,38.66c1.79,12.07,4.15,23.93,6.11,35.96
				c1.88,11.53,6.43,22.37,10.6,33.25c3.66,9.56,7.97,18.66,13.8,27.09c1.06,1.54,3.61,0.08,2.53-1.48
				c-6.08-8.8-10.47-18.3-14.22-28.29c-4.05-10.76-8.25-21.25-10.08-32.63c-0.83-5.15-2.12-10.1-3.12-15.2
				c-1.25-6.42-1.83-13.01-2.79-19.48c-1.96-13.25-4.79-26.1-9.54-38.66C408.38,280.23,405.55,280.98,406.21,282.75L406.21,282.75z"
				/>
		</g>
		<g>
			<path class="st3" d="M418.1,425.24c0.3,1.64,0.5,3.36,1.19,4.89c0.63,1.4,1.06,2.83,1.46,4.32c0.47,1.72,3.14,0.99,2.67-0.74
				c-0.45-1.66-0.97-3.22-1.64-4.79c-0.41-0.96-0.76-3.03-1.01-4.42C420.45,422.76,417.78,423.5,418.1,425.24L418.1,425.24z"/>
		</g>
		<g>
			<path class="st3" d="M298.48,423.29c-0.25,2.44-0.54,4.91-1.61,7.15c-1.01,2.11-2.31,4.09-3.37,6.18
				c-0.81,1.58,1.58,2.99,2.39,1.4c1.2-2.36,2.7-4.59,3.75-7.02c1.05-2.44,1.33-5.09,1.6-7.71
				C301.44,421.52,298.67,421.54,298.48,423.29L298.48,423.29z"/>
		</g>
		<g>
			<path class="st3" d="M271.99,150.57c0.26-3.91,0.87-7.74,1.82-11.53c0.43-1.73-2.23-2.47-2.67-0.74
				c-1.01,4.03-1.65,8.12-1.92,12.27C269.11,152.34,271.87,152.34,271.99,150.57L271.99,150.57z"/>
		</g>
		<g>
			<path class="st3" d="M347.7,219.49c-0.85,4.79-1.46,9.6-1.81,14.45c-0.13,1.78,2.64,1.77,2.77,0c0.33-4.6,0.9-9.17,1.71-13.71
				C350.68,218.49,348.01,217.74,347.7,219.49L347.7,219.49z"/>
		</g>
		<g>
			<path class="st3" d="M344.86,235.37c-4.22,11.88-16.72,12.5-26.73,7.9c-1.61-0.74-3.02,1.65-1.4,2.39
				c11.81,5.43,25.93,4.14,30.79-9.56C348.13,234.42,345.46,233.7,344.86,235.37L344.86,235.37z"/>
		</g>
		<g>
			<path class="st3" d="M948.98,106.71c0.69,3.56,0.56,7.65,0.65,11.35c0.2,7.74,0.24,15.48,0.27,23.23
				c0.09,24.01-0.05,48.02-0.15,72.03c-0.25,62.56-0.51,125.13,0.68,187.68c0.56,29.58,1.33,59.2,3.52,88.71
				c0.13,1.77,2.9,1.78,2.77,0c-4.26-57.42-4.18-115.23-4.35-172.77c-0.17-56.49,0.42-112.99,0.31-169.48
				c-0.02-9.32-0.04-18.64-0.25-27.95c-0.1-4.44,0.06-9.13-0.79-13.52C951.31,104.22,948.64,104.96,948.98,106.71L948.98,106.71z"/>
		</g>
		<g>
			<path class="st3" d="M918.1,107.65c0.69,3.57,0.56,7.56,0.65,11.23c0.19,7.49,0.23,14.99,0.26,22.48
				c0.09,23.52-0.07,47.04-0.17,70.56c-0.27,61.09-0.53,122.19,0.64,183.27c0.56,29.32,1.34,58.68,3.51,87.94
				c0.13,1.77,2.9,1.78,2.77,0c-4.21-56.66-4.16-113.69-4.32-170.48c-0.15-55.16,0.45-110.33,0.36-165.49
				c-0.02-8.94-0.04-17.89-0.24-26.83c-0.1-4.41,0.05-9.07-0.79-13.42C920.43,105.17,917.77,105.91,918.1,107.65L918.1,107.65z"/>
		</g>
		<g>
			<path class="st3" d="M886.28,136.65c1.83,9.5,1.12,19.96,1.3,29.57c0.39,20.2,0.54,40.41,0.74,60.61
				c0.52,53.83,1.04,107.68,2.68,161.49c0.84,27.58,1.92,55.17,3.97,82.7c0.13,1.77,2.9,1.78,2.77,0
				c-3.88-52.22-4.79-104.67-5.62-157.01c-0.75-47.53-0.88-95.07-1.68-142.6c-0.19-11.54,0.71-24.08-1.49-35.48
				C888.61,134.17,885.95,134.91,886.28,136.65L886.28,136.65z"/>
		</g>
		<g>
			<path class="st3" d="M540.96,129.08c1.54,7.96,1.11,16.61,1.3,24.67c0.39,16.25,0.54,32.51,0.74,48.77
				c0.54,44.93,1.12,89.87,2.67,134.79c0.89,25.66,2.08,51.31,3.98,76.92c0.13,1.77,2.9,1.78,2.77,0
				c-6.36-85.57-5.48-171.41-7.31-257.14c-0.2-9.4,0.31-19.46-1.48-28.74C543.29,126.59,540.62,127.33,540.96,129.08L540.96,129.08z
				"/>
		</g>
		<g>
			<path class="st3" d="M550.63,416.35c10.14-0.2,20.94,2.77,30.85,4.49c21.16,3.67,42.27,7.58,63.39,11.43
				c55.72,10.16,111.47,20.28,167.46,28.91c27.63,4.26,55.34,8.23,83.18,10.91c1.77,0.17,1.76-2.6,0-2.77
				c-53.78-5.17-107.21-14.44-160.42-23.69c-49.46-8.59-98.79-17.97-148.23-26.65c-7.94-1.39-15.89-2.78-23.87-3.99
				c-4.03-0.61-8.26-1.5-12.36-1.41C548.85,413.61,548.84,416.38,550.63,416.35L550.63,416.35z"/>
		</g>
		<g>
			<path class="st3" d="M543.05,130.09c30.17-0.81,60.61,1.06,90.77,1.84c54.99,1.43,109.98,3.03,164.96,4.76
				c29.21,0.92,58.42,1.88,87.63,2.94c1.78,0.06,1.78-2.7,0-2.77c-54.22-1.96-108.45-3.63-162.69-5.21
				c-48.29-1.41-96.57-2.77-144.87-3.82c-11.91-0.26-23.89-0.83-35.81-0.51C541.27,127.37,541.27,130.14,543.05,130.09
				L543.05,130.09z"/>
		</g>
		<g>
			<path class="st3" d="M924.24,485.57c4.7-0.48,9.27,1.59,13.9,2.22c5.45,0.74,10.92,0.81,16.02,3.12c1.61,0.73,3.02-1.66,1.4-2.39
				c-4.54-2.05-9.24-2.6-14.14-3.12c-5.69-0.6-11.45-3.18-17.18-2.59C922.49,482.98,922.47,485.75,924.24,485.57L924.24,485.57z"/>
		</g>
		<g>
			<path class="st3" d="M921.84,109.48c9.44-1.67,18.59-2.51,28.17-1.77c1.78,0.14,1.77-2.63,0-2.77
				c-9.81-0.76-19.26,0.16-28.91,1.87C919.35,107.12,920.09,109.79,921.84,109.48L921.84,109.48z"/>
		</g>
		<g>
			<path class="st3" d="M924.05,430.81c5.3-1.4,10.59-1.91,16.04-1.39c4.06,0.39,7.85,1.08,11.93,0.48
				c1.76-0.26,1.01-2.93-0.74-2.67c-4.99,0.74-9.88-0.71-14.87-0.8c-4.46-0.08-8.81,0.58-13.1,1.71
				C921.59,428.6,922.32,431.27,924.05,430.81L924.05,430.81z"/>
		</g>
		<g>
			<path class="st3" d="M922.52,317.02c9.12-0.31,18.21-0.12,27.31,0.55c1.78,0.13,1.77-2.64,0-2.77
				c-9.1-0.67-18.19-0.86-27.31-0.55C920.75,314.31,920.74,317.08,922.52,317.02L922.52,317.02z"/>
		</g>
		<g>
			<path class="st3" d="M921.44,306.45c9.26-0.93,18.63,0.33,27.85-0.68c1.75-0.19,1.77-2.96,0-2.77
				c-9.23,1.01-18.59-0.25-27.85,0.68C919.68,303.86,919.66,306.63,921.44,306.45L921.44,306.45z"/>
		</g>
		<g>
			<path class="st3" d="M923.09,235.76c8.54-0.21,17.07-0.42,25.61-0.62c1.78-0.04,1.79-2.81,0-2.77
				c-8.54,0.21-17.07,0.42-25.61,0.62C921.32,233.04,921.31,235.81,923.09,235.76L923.09,235.76z"/>
		</g>
		<g>
			<path class="st3" d="M922.48,204.93c9.57-0.78,19-2.28,28.33-4.53c1.73-0.42,1-3.09-0.74-2.67c-9.09,2.19-18.27,3.67-27.6,4.43
				C920.72,202.31,920.71,205.08,922.48,204.93L922.48,204.93z"/>
		</g>
		<g>
			<path class="st3" d="M873.92,111.25c1.31,3.13,4.31,5.31,7.81,4.74c3.13-0.51,6.75-3.76,5.69-7.24
				c-0.51-1.67-2.19-2.66-3.59-3.54c-1.59-1-3.42-1.84-5.35-1.75c-3.02,0.15-5.86,3.27-4.61,6.29c0.67,1.62,3.35,0.91,2.67-0.74
				c-0.93-2.26,1.89-3.06,3.52-2.59c1.63,0.47,3.51,1.56,4.22,3.08c0.63,1.34,0.03,2.21-1.18,3.03c-0.63,0.43-1.4,0.72-2.16,0.78
				c-1.88,0.13-3.63-1.08-4.35-2.8C875.92,108.89,873.24,109.6,873.92,111.25L873.92,111.25z"/>
		</g>
		<g>
			<path class="st3" d="M851.92,110.63c1.31,3.13,4.31,5.31,7.81,4.74c3.13-0.51,6.75-3.76,5.69-7.24
				c-0.51-1.67-2.19-2.66-3.59-3.54c-1.59-1-3.42-1.84-5.35-1.75c-3.02,0.15-5.86,3.27-4.61,6.29c0.67,1.62,3.35,0.91,2.67-0.74
				c-0.93-2.26,1.89-3.06,3.52-2.59c1.63,0.47,3.51,1.56,4.22,3.08c0.63,1.34,0.03,2.21-1.18,3.03c-0.63,0.43-1.4,0.72-2.16,0.78
				c-1.88,0.13-3.63-1.08-4.35-2.8C853.91,108.28,851.23,108.99,851.92,110.63L851.92,110.63z"/>
		</g>
		<g>
			<path class="st3" d="M830.37,110.34c1.31,3.13,4.31,5.31,7.81,4.74c3.13-0.51,6.75-3.76,5.69-7.24
				c-0.51-1.67-2.19-2.66-3.59-3.54c-1.59-1-3.42-1.84-5.35-1.75c-3.02,0.15-5.86,3.27-4.61,6.29c0.67,1.62,3.35,0.91,2.67-0.74
				c-0.93-2.26,1.89-3.06,3.52-2.59c1.63,0.47,3.51,1.56,4.22,3.08c0.63,1.34,0.03,2.21-1.18,3.03c-0.63,0.43-1.4,0.72-2.16,0.78
				c-1.88,0.13-3.63-1.08-4.35-2.8C832.37,107.99,829.69,108.7,830.37,110.34L830.37,110.34z"/>
		</g>
		<g>
			<path class="st3" d="M555.14,390c22.28-21.6,45.09-42.64,68.41-63.12c-0.65,0-1.31,0-1.96,0c10.19,9.97,19.72,20.55,28.57,31.73
				c0.44,0.55,1.52,0.53,1.96,0c29.84-35.83,59.68-71.66,89.52-107.48c-0.72-0.09-1.45-0.19-2.17-0.28
				c8.52,12.3,15.61,25.45,21.14,39.36c0.38,0.96,1.99,1.54,2.53,0.33c18.78-42.45,39.63-83.95,62.46-124.35
				c-0.84-0.11-1.69-0.22-2.53-0.33c7.17,52.63,20.73,104.23,40.35,153.6c0.4,1,1.47,1.34,2.31,0.61
				c8.35-7.19,16.7-14.39,25.05-21.58c1.35-1.16-0.61-3.12-1.96-1.96c-8.35,7.19-16.7,14.39-25.05,21.58
				c0.77,0.2,1.54,0.41,2.31,0.61c-19.62-49.36-33.18-100.96-40.35-153.6c-0.17-1.22-1.99-1.28-2.53-0.33
				c-22.84,40.41-43.68,81.91-62.46,124.35c0.84,0.11,1.69,0.22,2.53,0.33c-5.62-14.14-12.76-27.51-21.42-40.02
				c-0.46-0.67-1.56-1.02-2.17-0.28c-29.84,35.83-59.68,71.66-89.52,107.48c0.65,0,1.31,0,1.96,0
				c-8.85-11.18-18.38-21.76-28.57-31.73c-0.56-0.55-1.39-0.5-1.96,0c-23.32,20.48-46.13,41.52-68.41,63.12
				C551.9,389.29,553.86,391.24,555.14,390L555.14,390z"/>
		</g>
		<g>
			<path class="st3" d="M551.6,296.8c26.14-11.91,56.58-6.76,80.94,7.05c25.35,14.37,42.55,39.38,68.41,53.05
				c11.98,6.33,25.58,11.14,39.21,11.78c13.92,0.65,25.48-4.78,35.6-14.04c19.58-17.92,30.95-42.5,44.07-65.09
				c7.75-13.36,16.31-26.27,27.39-37.14c12.02-11.79,26.35-21.02,41.97-27.29c1.63-0.66,0.92-3.33-0.74-2.67
				c-25.17,10.1-45.91,27.39-61.1,49.77c-15.25,22.46-25.55,48.18-42.93,69.22c-9.67,11.71-21.6,22.87-37.39,24.35
				c-15.48,1.46-32-4.46-45.42-11.69c-25.93-13.96-43.23-39.26-69.04-53.42c-25.05-13.74-55.76-18.39-82.35-6.28
				C548.59,295.14,549.99,297.53,551.6,296.8L551.6,296.8z"/>
		</g>
		<g>
			<path class="st3" d="M671.74,332.14c-0.64-1.22-2.26-1.46-3.34-0.68c-1.28,0.93-1.16,2.71-0.34,3.92c1.5,2.21,4.94,2.4,6.88,0.69
				c2.04-1.81,1.69-5.12-0.29-6.84c-2.11-1.84-6.03-1.12-6.57,1.91c-0.31,1.74,2.36,2.49,2.67,0.74c0.37-2.06,3.26-0.33,2.77,1.44
				c-0.22,0.79-1.03,1.16-1.81,1.14c-0.35-0.01-0.71-0.09-1-0.29c-0.19-0.13-0.27-0.33-0.44-0.46c-0.03-0.09-0.05-0.17-0.08-0.26
				c-0.16,0.39-0.44,0.42-0.84,0.09C670.18,335.11,672.57,333.72,671.74,332.14L671.74,332.14z"/>
		</g>
		<g>
			<path class="st3" d="M841.23,253.61c-2.67,0.96-2.62,4.79,0.08,5.73c2.81,0.98,5.97-1.68,6.8-4.28c0.88-2.73-3.16-5.55-5.58-5.51
				c-2.64,0.05-4.42,3.26-2.59,5.31c1.19,1.33,3.14-0.63,1.96-1.96c0.01,0.01,0.23-0.41,0.45-0.52c0.34-0.16,0.78,0.02,1.1,0.16
				c0.34,0.15,1.96,1.21,2.02,1.68c0.07,0.57-1.59,2.09-2,2.31c-0.3,0.16-0.74,0.35-1.09,0.24c0.06,0.02-0.72-0.4-0.43-0.5
				C843.63,255.68,842.91,253,841.23,253.61L841.23,253.61z"/>
		</g>
		<g>
			<path class="st3" d="M570.72,411.84c0,3.98,0.25,7.94,0.75,11.89c0.22,1.74,2.99,1.77,2.77,0c-0.5-3.95-0.75-7.91-0.75-11.89
				C573.49,410.06,570.72,410.05,570.72,411.84L570.72,411.84z"/>
		</g>
		<g>
			<path class="st3" d="M601.13,417.55c0.27,3.8,0.53,7.59,0.8,11.39c0.12,1.77,2.89,1.78,2.77,0c-0.27-3.8-0.53-7.59-0.8-11.39
				C603.78,415.78,601.01,415.76,601.13,417.55L601.13,417.55z"/>
		</g>
		<g>
			<path class="st3" d="M635.75,424.52c0.6,3.51,0.92,7.03,1.01,10.58c0.04,1.78,2.81,1.79,2.77,0c-0.09-3.8-0.47-7.57-1.11-11.32
				C638.12,422.03,635.46,422.77,635.75,424.52L635.75,424.52z"/>
		</g>
		<g>
			<path class="st3" d="M669.83,430.62c0.56,3.38,0.77,6.77,0.68,10.19c-0.05,1.78,2.72,1.78,2.77,0c0.1-3.68-0.17-7.3-0.78-10.93
				C672.21,428.13,669.54,428.87,669.83,430.62L669.83,430.62z"/>
		</g>
		<g>
			<path class="st3" d="M706.78,439.03c0.22,2.35,0.27,4.69,0.14,7.05c-0.09,1.78,2.68,1.78,2.77,0c0.12-2.36,0.07-4.7-0.14-7.05
				C709.39,437.27,706.62,437.25,706.78,439.03L706.78,439.03z"/>
		</g>
		<g>
			<path class="st3" d="M741.25,445.51c0,1.75,0,3.51,0,5.26c0,1.78,2.77,1.78,2.77,0c0-1.75,0-3.51,0-5.26
				C744.02,443.73,741.25,443.73,741.25,445.51L741.25,445.51z"/>
		</g>
		<g>
			<path class="st3" d="M772.82,451.48c0.33,1.84,0.42,3.68,0.33,5.54c-0.09,1.78,2.68,1.78,2.77,0c0.1-2.11-0.06-4.2-0.43-6.28
				C775.18,449,772.51,449.74,772.82,451.48L772.82,451.48z"/>
		</g>
		<g>
			<path class="st3" d="M808.55,457.01c0.16,1.65,0.2,3.3,0.11,4.95c-0.1,1.78,2.67,1.77,2.77,0c0.09-1.66,0.05-3.3-0.11-4.95
				C811.15,455.25,808.38,455.23,808.55,457.01L808.55,457.01z"/>
		</g>
		<g>
			<path class="st3" d="M850.75,462.62c0.16,2.64,0.09,5.27-0.2,7.9c-0.2,1.77,2.57,1.75,2.77,0c0.29-2.63,0.36-5.26,0.2-7.9
				C853.41,460.85,850.64,460.84,850.75,462.62L850.75,462.62z"/>
		</g>
		<g>
			<path class="st3" d="M546.66,378.15c1.9-0.28,3.8-0.56,5.7-0.83c1.76-0.26,1.01-2.92-0.74-2.67c-1.9,0.28-3.8,0.56-5.7,0.83
				C544.16,375.73,544.91,378.4,546.66,378.15L546.66,378.15z"/>
		</g>
		<g>
			<path class="st3" d="M545.6,344.1c1.68-0.13,3.37-0.27,5.05-0.4c1.76-0.14,1.78-2.91,0-2.77c-1.68,0.14-3.37,0.27-5.05,0.4
				C543.84,341.47,543.82,344.24,545.6,344.1L545.6,344.1z"/>
		</g>
		<g>
			<path class="st3" d="M543.58,308.01c1.91,0,3.82,0,5.73,0c1.78,0,1.78-2.77,0-2.77c-1.91,0-3.82,0-5.73,0
				C541.8,305.25,541.8,308.01,543.58,308.01L543.58,308.01z"/>
		</g>
		<g>
			<path class="st3" d="M543.6,274.81c1.55-0.95,3.22-1.53,5.04-1.67c1.76-0.14,1.78-2.91,0-2.77c-2.3,0.18-4.46,0.84-6.44,2.05
				C540.69,273.34,542.08,275.74,543.6,274.81L543.6,274.81z"/>
		</g>
		<g>
			<path class="st3" d="M542.24,238.99c1.57-0.15,3.14-0.29,4.71-0.44c1.76-0.16,1.78-2.93,0-2.77c-1.57,0.15-3.14,0.29-4.71,0.44
				C540.48,236.39,540.46,239.16,542.24,238.99L542.24,238.99z"/>
		</g>
		<g>
			<path class="st3" d="M541.56,204.55c1.94,0.16,3.85,0.03,5.76-0.32c1.75-0.33,1.01-2.99-0.74-2.67
				c-1.67,0.31-3.34,0.36-5.03,0.22C539.78,201.63,539.79,204.4,541.56,204.55L541.56,204.55z"/>
		</g>
		<g>
			<path class="st3" d="M540.21,167.54c1.68-0.14,3.37-0.13,5.04,0.1c0.75,0.1,1.48-0.18,1.7-0.97c0.19-0.65-0.23-1.6-0.97-1.7
				c-1.93-0.27-3.83-0.36-5.78-0.2C538.45,164.92,538.43,167.69,540.21,167.54L540.21,167.54z"/>
		</g>
		<g>
			<path class="st3" d="M606.92,169.82c-9.82,4.12-12.59,17.64-10.06,27.1c3.32,12.45,18.15,13.12,28.45,8.95
				c11.37-4.6,14.97-18.2,8.14-28.24c-5.51-8.1-19.97-15.25-28.36-7.35c-1.3,1.22,0.66,3.18,1.96,1.96
				c7.37-6.95,20.62,0.86,24.77,7.98c5.56,9.54,0.86,20.65-9.53,23.77c-3.9,1.17-8.29,1.53-12.35,1.06
				c-6.18-0.72-9.54-4.31-10.73-10.22c-1.51-7.55,0.56-19.04,8.44-22.35C609.27,171.81,608.56,169.13,606.92,169.82L606.92,169.82z"
				/>
		</g>
		<g>
			<path class="st3" d="M599.39,156.46c-13.52,5.28-18.35,21.17-18.95,34.5c-0.32,7.25,1,15.08,4.6,21.45
				c3.89,6.88,10.99,9.93,18.57,10.85c14.9,1.8,33.61-1.33,43.06-14.17c9.53-12.95,6.9-31.22-3.39-42.85
				c-10.17-11.5-33.77-22.3-46.73-9.22c-1.26,1.27,0.7,3.23,1.96,1.96c10.68-10.78,30.18-2.53,39.63,6.01
				c10.73,9.7,15.33,25.77,8.43,39.05c-6.71,12.92-22.35,16.79-35.81,16.83c-7.26,0.02-15.63-0.86-20.92-6.43
				c-4.7-4.94-6.38-13.08-6.67-19.68c-0.57-12.82,3.71-30.46,16.93-35.63C601.76,158.49,601.05,155.81,599.39,156.46L599.39,156.46z
				"/>
		</g>
		<g>
			<path class="st3" d="M618.47,207.19c0.41,3.74,0.98,7.44,1.72,11.13c0.35,1.74,3.02,1.01,2.67-0.74
				c-0.7-3.44-1.24-6.9-1.63-10.39C621.04,205.44,618.27,205.42,618.47,207.19L618.47,207.19z"/>
		</g>
		<g>
			<path class="st3" d="M636.62,190.9c4.16,0.52,8.33,0.75,12.52,0.69c1.78-0.03,1.79-2.8,0-2.77c-4.19,0.06-8.36-0.17-12.52-0.69
				C634.86,187.91,634.87,190.68,636.62,190.9L636.62,190.9z"/>
		</g>
		<g>
			<path class="st3" d="M635.1,180.01c2.79-2.76,6.08-4.76,9.82-5.94c1.69-0.54,0.97-3.21-0.74-2.67
				c-4.19,1.33-7.92,3.56-11.05,6.66C631.87,179.31,633.83,181.26,635.1,180.01L635.1,180.01z"/>
		</g>
		<g>
			<path class="st3" d="M589.85,167.01c3.03,3.25,5.85,6.68,8.43,10.3c1.03,1.44,3.43,0.06,2.39-1.4
				c-2.72-3.81-5.67-7.44-8.86-10.86C590.59,163.75,588.63,165.71,589.85,167.01L589.85,167.01z"/>
		</g>
		<g>
			<path class="st3" d="M587.89,209.96c3.25-2.41,6.7-4.46,10.38-6.14c1.62-0.74,0.21-3.13-1.4-2.39
				c-3.68,1.68-7.13,3.73-10.38,6.14C585.08,208.62,586.46,211.03,587.89,209.96L587.89,209.96z"/>
		</g>
		<g>
			<path class="st3" d="M695.22,167.32c-7.56,3.37-9.5,14.31-7,21.51c3.04,8.77,14.7,8.71,21.93,5.39
				c7.9-3.64,10.29-13.26,5.79-20.56c-4.13-6.72-15.19-11.94-21.9-6.04c-1.34,1.18,0.62,3.13,1.96,1.96
				c5.73-5.04,15.58,1.14,18.27,6.76c3.62,7.57-1.19,14.87-8.86,16.53c-6.94,1.5-14.18,0.14-15.24-7.95
				c-0.73-5.55,0.92-12.74,6.45-15.21C698.24,168.98,696.83,166.6,695.22,167.32L695.22,167.32z"/>
		</g>
		<g>
			<path class="st3" d="M689.97,157.29c-10.05,4.05-13.76,15.52-14.27,25.57c-0.6,11.7,4.27,22.69,16.75,24.47
				c11.26,1.61,25.46-0.74,32.73-10.31c7.6-10,5.3-24.3-2.98-33.09c-7.88-8.36-24.81-15.6-34.47-6.14
				c-1.27,1.25,0.68,3.21,1.96,1.96c10.13-9.92,28.73,1.35,34.32,11.22c7.53,13.29,0.51,28.46-13.79,32.48
				c-5.82,1.64-12.51,2.12-18.48,0.99c-7.57-1.44-11.3-6.65-12.75-13.91c-2.05-10.3,0.86-26.18,11.72-30.56
				C692.34,159.3,691.63,156.62,689.97,157.29L689.97,157.29z"/>
		</g>
		<g>
			<path class="st3" d="M703.83,195.19c0.31,2.8,0.73,5.57,1.29,8.33c0.35,1.74,3.02,1.01,2.67-0.74c-0.51-2.52-0.91-5.04-1.19-7.6
				C706.41,193.43,703.64,193.41,703.83,195.19L703.83,195.19z"/>
		</g>
		<g>
			<path class="st3" d="M717.63,183.49c3.08,0.39,6.17,0.56,9.27,0.51c1.78-0.03,1.79-2.8,0-2.77c-3.11,0.05-6.19-0.12-9.27-0.51
				C715.87,180.5,715.88,183.27,717.63,183.49L717.63,183.49z"/>
		</g>
		<g>
			<path class="st3" d="M716.76,175.32c2.02-2,4.4-3.45,7.11-4.31c1.69-0.54,0.97-3.21-0.74-2.67c-3.16,1-5.97,2.69-8.34,5.02
				C713.53,174.62,715.49,176.58,716.76,175.32L716.76,175.32z"/>
		</g>
		<g>
			<path class="st3" d="M682.75,165.7c2.23,2.38,4.29,4.89,6.18,7.55c1.03,1.44,3.43,0.06,2.39-1.4c-2.03-2.85-4.23-5.56-6.62-8.11
				C683.49,162.44,681.54,164.4,682.75,165.7L682.75,165.7z"/>
		</g>
		<g>
			<path class="st3" d="M681.74,197.55c2.4-1.79,4.96-3.3,7.68-4.55c1.62-0.74,0.21-3.13-1.4-2.39c-2.72,1.25-5.28,2.76-7.68,4.55
				C678.93,196.21,680.31,198.62,681.74,197.55L681.74,197.55z"/>
		</g>
	</g>
</g>
</svg>
