<?xml version="1.0" encoding="utf-8"?>
<!-- Generator: Adobe Illustrator 23.0.2, SVG Export Plug-In . SVG Version: 6.00 Build 0)  -->
<svg version="1.1" xmlns="http://www.w3.org/2000/svg" xmlns:xlink="http://www.w3.org/1999/xlink" x="0px" y="0px"
	 viewBox="0 0 1080 1080" style="enable-background:new 0 0 1080 1080;" xml:space="preserve">
<style type="text/css">
	.st0{fill:#FFFFFF;}
	.st1{fill:#FFECDD;}
	.st2{fill:#EC9A4A;}
	.st3{fill:#0D4D90;}
	.st4{fill:#F8BAB4;}
</style>
<g id="background">
	<g>
		<circle class="st0" cx="799.41" cy="430.39" r="13.17"/>
	</g>
	<g>
		<g>
			<path class="st1" d="M771.09,760.17c2.92-4.93,4.57-14.98,8.77-22.46c4.2-7.49,10.77-14.61,10.77-14.61s-6.94-0.73-8.58-4.38
				c-1.64-3.65-3.47-4.57-3.47-4.57s-10.77-3.47-14.98-2.19c-4.2,1.28-14.43,11.51-14.43,11.51s-25.75-16.98-31.41-35.06
				c-5.66-18.08-6.39-32.14,2.92-37.99c9.31-5.84,19.36-6.76,24.47-2.56s16.44,13.51,16.44,13.51s-0.37-21.18,9.5-24.65
				c9.86-3.47,29.59-2.01,38.72-0.73s42.19,15.52,42.19,15.52s2.56,0.91,2.19-1.46c-0.37-2.37-0.91-12.42,1.64-15.52
				c2.56-3.1,5.51-4.55,5.51-4.55s2,9.38,13.98,18.56c0.38,0.29,0.76,0.58,1.15,0.89c19-37.58,30.58-80.45,31-129.05
				c0.13-15.75-0.9-32.1-3.23-49.07c-37.97-275.69-302.11-275.69-373.09-226.17s-86.59,97.24-64.26,152.33
				c16.52,40.75,122.1,53.61,117.63,90.83c-4.47,37.23-35.74-23.82-83.39,16.38c-16.8,14.18,33.28,39.42,19.36,99.77
				c-26.8,116.15-89.69,120.18-132.97,117.79c-29.61-1.64-105.09,5.23-97.4,67.69c6.9,56.06,115.86,99.65,243.9,83.3
				c19.26-2.46,45.56-8.4,75.34-18.23c44.57-14.71,96.95-38.13,145.27-71.62c0.63-1.85,1.41-3.69,2.39-5.49
				C764.15,764.92,768.16,765.1,771.09,760.17z"/>
		</g>
	</g>
	<g>
		<circle class="st2" cx="727.98" cy="284.77" r="69.34"/>
	</g>
	<g>
		<path class="st3" d="M685.01,258.76c-16.49,0-29.9-13.41-29.9-29.9s13.41-29.9,29.9-29.9s29.9,13.41,29.9,29.9
			S701.49,258.76,685.01,258.76z M685.01,200.97c-15.38,0-27.9,12.51-27.9,27.9s12.51,27.9,27.9,27.9s27.9-12.51,27.9-27.9
			S700.39,200.97,685.01,200.97z"/>
	</g>
	<g>
		<g>
			<path class="st3" d="M693.33,467.77c3.38-1.53,6.77-4.65,8.23-8.09c-0.76-0.32-1.52-0.64-2.28-0.96
				c-0.73,4.36,2.65,7.78,6.61,8.89c-0.1-0.76-0.2-1.52-0.3-2.28c-4.61,2.56-5.33,6.2-6.84,10.88c0.8,0.22,1.61,0.44,2.41,0.66
				c1-5.41-3.11-10.49-8.69-10.36c-1.61,0.04-1.61,2.54,0,2.5c3.86-0.09,7,3.32,6.28,7.2c-0.29,1.57,1.91,2.22,2.41,0.66
				c1.28-4,1.62-7.13,5.69-9.39c0.95-0.53,0.72-2-0.3-2.28c-2.47-0.69-5.36-2.85-4.87-5.81c0.21-1.27-1.69-2.37-2.28-0.96
				c-1.32,3.11-4.28,5.81-7.33,7.19C690.61,466.27,691.88,468.43,693.33,467.77L693.33,467.77z"/>
		</g>
	</g>
	<g>
		<g>
			<path class="st3" d="M617.3,321.38c3.38-1.53,6.77-4.65,8.23-8.09c-0.76-0.32-1.52-0.64-2.28-0.96
				c-0.73,4.36,2.65,7.78,6.61,8.89c-0.1-0.76-0.2-1.52-0.3-2.28c-4.61,2.56-5.34,6.2-6.84,10.88c0.8,0.22,1.61,0.44,2.41,0.66
				c1-5.41-3.11-10.49-8.69-10.36c-1.61,0.04-1.61,2.54,0,2.5c3.86-0.09,7,3.32,6.28,7.2c-0.29,1.57,1.91,2.22,2.41,0.66
				c1.28-4,1.62-7.13,5.69-9.39c0.95-0.53,0.72-2-0.3-2.28c-2.47-0.69-5.36-2.85-4.87-5.81c0.21-1.27-1.69-2.37-2.28-0.96
				c-1.32,3.11-4.28,5.81-7.33,7.19C614.57,319.88,615.84,322.04,617.3,321.38L617.3,321.38z"/>
		</g>
	</g>
	<g>
		<g>
			<path class="st3" d="M819.23,332.8c3.38-1.53,6.77-4.65,8.23-8.09c-0.76-0.32-1.52-0.64-2.28-0.96
				c-0.73,4.36,2.65,7.78,6.61,8.89c-0.1-0.76-0.2-1.52-0.3-2.28c-4.61,2.56-5.34,6.2-6.84,10.88c0.8,0.22,1.61,0.44,2.41,0.66
				c1-5.41-3.11-10.49-8.69-10.36c-1.61,0.04-1.61,2.54,0,2.5c3.86-0.09,7,3.32,6.28,7.2c-0.29,1.57,1.91,2.22,2.41,0.66
				c1.28-4,1.62-7.13,5.69-9.39c0.95-0.53,0.72-2-0.3-2.28c-2.47-0.69-5.36-2.85-4.87-5.81c0.21-1.27-1.69-2.37-2.28-0.96
				c-1.32,3.11-4.28,5.81-7.33,7.19C816.5,331.31,817.77,333.46,819.23,332.8L819.23,332.8z"/>
		</g>
	</g>
</g>
<g id="character">
	<g>
		<g>
			
				<ellipse transform="matrix(0.9801 -0.1983 0.1983 0.9801 -117.0832 171.2068)" class="st4" cx="796.34" cy="670.23" rx="3.96" ry="6.03"/>
		</g>
		<g>
			<path class="st4" d="M765.2,675.66c0,0,0.57,8.8,7.01,22.98c1.43,3.14,6.47,4.82,7.38,6.79c1.3,2.81,0.1,7.65,0.1,7.65
				s-9.37-2.29-12.42-1.6c-9.45,2.12-17.06,10.21-17.06,10.21s-0.13-13.23,2.1-22.51c4.53-18.78,10.12-22.48,10.12-22.48
				L765.2,675.66z"/>
		</g>
		<g>
			<path class="st4" d="M535.63,635.21c0,0,12.94-32.51,26.87-44.46c13.93-11.94,67.35-37.49,67.35-37.49s-26.54-57.73-57.06-92.89
				s-79.29-84.93-86.26-89.24s-16.92-8.96-16.92-8.96s-19.91-39.15-36.49-50.09c-16.59-10.95-29.19-5.31-29.19-5.31l-33.51-28.2
				c0,0-19.91,13.6-27.54,20.57c-7.63,6.97-12.61,15.26-12.61,15.26l8.63,11.28l20.24,15.26l-52.75,46.11
				c0,0,2.65,15.26,11.61,26.54c8.96,11.28,23.22,22.89,23.22,22.89l58.06-46.45c0,0,22.23,89.24,24.22,99.86
				c1.99,10.62,4.98,53.41,19.91,75.31c14.93,21.9,23.89,25.88,39.48,32.18s21.56,10.28,27.2,15.92
				c5.64,5.64,14.6,15.59,19.24,18.58C533.97,634.88,535.63,635.21,535.63,635.21z"/>
		</g>
		<g>
			<path class="st2" d="M751.99,652.38c0,0-17.87-36.32-28.25-42.37s-23.77-7.53-33.47-10.52c-9.7-2.99-19.41-4.18-30.76-16.42
				c-11.35-12.24-27.92-30.01-27.92-30.01s-32.1,10-45.99,19.11c-13.89,9.11-33,26.87-41.51,44.49
				c-8.51,17.62-7.91,20.45-7.91,20.45s28.07,51.66,34.34,61.96c6.27,10.3,33.59,49.17,33.59,49.17l-31.31,4.64l8.35,12.75
				c0,0,7.42-0.7,13.45,5.57c6.03,6.26,6.49,9.28,6.49,9.28s35.71-10.44,45.92-5.33s11.13,9.28,12.99,10.9
				c1.86,1.62,5.57,8.35,7.88,9.04c2.32,0.7,9.74,3.01,10.9,5.57c1.16,2.55,1.16,4.87,1.16,4.87s37.57-7.65,47.31-20.87
				c9.74-13.22,9.74-28.52,13.22-40.35c3.48-11.83,8.69-20.84,8.69-20.84s-26.07-19.54-31.41-35.06
				c-5.34-15.52-6.9-28.22,2.92-37.99s22.66-3.92,24.47-2.56S751.99,652.38,751.99,652.38z"/>
		</g>
		<g>
			<g>
				<path class="st3" d="M848.82,648.03c-14.36-6.66-29.55-11.26-45.24-13.43c-8.18-1.13-16.63-1.88-24.9-1.44
					c-5.63,0.29-10.4,2.06-13.35,7.12c-4.99,8.54-5.32,21.22-3.97,30.74c1.96,13.74,8.95,25.83,17.54,36.49
					c1.01,1.25,2.77-0.53,1.77-1.77c-7.91-9.82-14.4-20.94-16.59-33.5c-1.61-9.23-1.36-20.91,2.79-29.5
					c3.65-7.56,11.55-7.25,18.82-7.09c7.07,0.16,14.14,0.8,21.12,1.95c14.11,2.31,27.79,6.58,40.76,12.6
					C849.01,650.86,850.28,648.7,848.82,648.03L848.82,648.03z"/>
			</g>
		</g>
		<g>
			<g>
				<path class="st3" d="M823.96,650.75c-4.37-2.12-9.82-3.82-13.73-6.65c-2.43-1.76-2.68-5.42-6.16-5.77
					c-4.54-0.45-6.42,4.54-4.49,8c0.78,1.41,2.94,0.15,2.16-1.26c2.11-2.47,3.43-2.94,3.96-1.41c0.19,0.36,0.41,0.7,0.66,1.01
					c1.17,0.71,2.14,1.35,3.42,1.98c4.29,2.12,8.62,4.18,12.93,6.26C824.14,653.61,825.41,651.45,823.96,650.75L823.96,650.75z"/>
			</g>
		</g>
		<g>
			<g>
				<path class="st3" d="M815.44,658.76c-2.94,4.06-3.61,9.24-1.79,13.91c0.58,1.48,3,0.84,2.41-0.66
					c-1.61-4.13-1.07-8.39,1.53-11.99C818.55,658.71,816.38,657.46,815.44,658.76L815.44,658.76z"/>
			</g>
		</g>
		<g>
			<g>
				<path class="st3" d="M786.93,637.48c-2.51,3.8-4.13,8-4.81,12.51c-0.24,1.57,2.17,2.25,2.41,0.66
					c0.65-4.32,2.15-8.26,4.56-11.91C789.98,637.39,787.82,636.14,786.93,637.48L786.93,637.48z"/>
			</g>
		</g>
		<g>
			<g>
				<path class="st3" d="M826.31,647.88c1.14-1.47,2.55-2.7,4.14-3.67c1.37-0.84,0.12-3-1.26-2.16c-1.97,1.21-3.63,2.74-5.04,4.56
					c-0.42,0.54-0.08,1.39,0.45,1.71C825.24,648.71,825.9,648.41,826.31,647.88L826.31,647.88z"/>
			</g>
		</g>
		<g>
			<g>
				<path class="st3" d="M854.39,650.4c-10.01,3.29-25.6,11.8-23.29,24.68c0.19,1.08,0.76,2.02,0.97,3.07
					c1.15,1.37,1.15,2.91,0.01,4.63c-0.79,0.68-1.55,1.39-2.28,2.14c-2.24,2.32-4.19,4.95-5.74,7.78
					c-3.15,5.76-4.62,12.1-4.56,18.64c0.63-0.36,1.25-0.72,1.88-1.08c-6.21-3.85-13.3-4.64-20.2-2.22
					c-1.51,0.53-0.86,2.95,0.66,2.41c6.29-2.21,12.59-1.55,18.27,1.97c0.81,0.5,1.89-0.15,1.88-1.08c-0.06-6.63,1.54-13.04,5-18.73
					c1.89-3.12,4.3-5.52,6.84-8.07c1.08-1.09,2.22-2.03,2.22-3.72c0-1.76-1.74-3.43-2.23-4.99c-1.26-3.98,0.32-8.11,2.74-11.25
					c4.48-5.83,11.63-9.51,18.48-11.76C856.58,652.31,855.93,649.89,854.39,650.4L854.39,650.4z"/>
			</g>
		</g>
		<g>
			<g>
				<path class="st3" d="M780.31,706.32c-3.3,4.04-2.55,9.43,1.06,13.04c4.67,4.69,12.11,5.92,18.43,5.19c1.58-0.18,1.6-2.68,0-2.5
					c-4.3,0.5-8.62,0.1-12.58-1.75c-4.43-2.06-9.08-7.39-5.14-12.22C783.09,706.85,781.33,705.07,780.31,706.32L780.31,706.32z"/>
			</g>
		</g>
		<g>
			<g>
				<path class="st3" d="M855.19,649.11c0.2-6.51,0.71-14.22,6.77-18.06c-0.61-0.25-1.22-0.5-1.84-0.75
					c3.24,11.17,12.61,17.66,21.32,24.49c9.85,7.72,17.59,17.33,23.06,28.59c12.37,25.44,11.8,54.59,7.33,81.89
					c-0.26,1.57,2.15,2.25,2.41,0.66c4.29-26.14,5.12-53.72-5.24-78.61c-4.4-10.57-10.66-20.41-18.91-28.39
					c-9.62-9.3-23.56-15.52-27.56-29.29c-0.22-0.75-1.14-1.19-1.84-0.75c-6.91,4.37-7.78,12.7-8.01,20.22
					C852.64,650.72,855.14,650.72,855.19,649.11L855.19,649.11z"/>
			</g>
		</g>
		<g>
			<g>
				<path class="st3" d="M790.68,722.03c-5.55,3.87-9.51,8.79-12.08,15.06c-2.39,5.83-3.39,12.15-5.95,17.91
					c-3.08,6.92-9.64,10.44-13.83,16.54c-4.08,5.95-6.49,12.99-7.42,20.12c-2.29,17.41,6.32,32.54,16.5,45.95
					c4.88,6.42,9.79,13.65,17.33,17.11c3.36,1.54,7.34,2.47,9.98,5.21c2.91,3.03,3.09,7.54,4.31,11.34
					c1.56,4.85,5.34,8.65,10.82,7.28c2.84-0.71,5.28-2.61,7.52-4.39c4.24-3.37,8-6.62,13.31-8.16c9.74-2.83,19.97-0.3,29.58,1.75
					c8.74,1.87,17.49,3.07,26.45,2.84c9.05-0.23,18.09-1.69,26.73-4.38c3.68-1.15,7.29-2.52,10.81-4.11
					c2.83-1.28,6.95-2.61,8.48-5.58c2.97-5.76-5.01-14.14-8.42-18.16c-6.09-7.17-11.84-14.32-14.61-23.49
					c-4.83-15.97-1.02-33.3,3.84-48.76c0.48-1.54-1.93-2.2-2.41-0.66c-6.45,20.49-10.22,43.84,2.14,62.89
					c3.63,5.59,8.32,10.3,12.38,15.56c1.7,2.2,4.39,5.41,4.76,8.27c0.73,5.53-7.1,7.72-11.12,9.33c-4.01,1.6-8.16,2.9-12.36,3.92
					c-8.87,2.16-18.05,3.02-27.16,2.6c-9.48-0.43-18.48-2.85-27.76-4.53c-7.01-1.26-14.25-1.87-21.24-0.1
					c-7.53,1.91-11.67,7.26-18.06,11.09c-10.86,6.52-10.91-6.6-13.97-13.01c-2.88-6.04-9.32-6.86-14.62-9.84
					c-7.58-4.25-13.22-13.2-18.12-20.13c-5.09-7.2-9.66-14.99-11.81-23.61c-2.35-9.43-1.27-19.74,2.66-28.61
					c1.76-3.96,4.12-7.69,7.15-10.8c2.36-2.43,5.18-4.27,7.24-7c3.71-4.9,5.17-10.94,6.88-16.73c2.47-8.35,5.97-15.46,13.31-20.58
					C793.26,723.28,792.01,721.11,790.68,722.03L790.68,722.03z"/>
			</g>
		</g>
		<g>
			<g>
				<path class="st3" d="M788.38,772.18c-12.04,8.97-19.97,27.74-12.82,42.16c2.63,5.29,7.66,8.73,12.22,12.22
					c7.5,5.74,13.55,12.13,17.41,20.87c0.65,1.47,2.8,0.2,2.16-1.26c-2.91-6.58-7.03-12.25-12.41-17.02
					c-4.4-3.9-9.58-6.97-13.68-11.2c-12.08-12.45-3.81-34.55,8.38-43.62C790.92,773.39,789.67,771.22,788.38,772.18L788.38,772.18z"
					/>
			</g>
		</g>
		<g>
			<g>
				<path class="st3" d="M779.38,713.27c-5.92-2.82-12.35-4.49-18.6-1.7c-5.03,2.24-8.59,6.59-11.84,10.87
					c-0.97,1.28,1.2,2.53,2.16,1.26c2.68-3.52,5.65-7.21,9.62-9.33c5.73-3.06,11.82-1.6,17.4,1.06
					C779.56,716.11,780.83,713.96,779.38,713.27L779.38,713.27z"/>
			</g>
		</g>
		<g>
			<g>
				<path class="st3" d="M761.66,676.74c-5.36,3.22-12.18,5.44-17.61,1.06c-1.24-1-3.02,0.76-1.77,1.77
					c6.36,5.12,14.16,3.23,20.64-0.67C764.3,678.07,763.05,675.91,761.66,676.74L761.66,676.74z"/>
			</g>
		</g>
		<g>
			<g>
				<path class="st3" d="M757.33,656.26c-6.67-8.53-20.45-15.35-31.19-11.22c-10.65,4.09-14.57,16.44-14.24,26.93
					c0.69,22.3,19.25,40.23,36.47,51.88c1.34,0.9,2.59-1.26,1.26-2.16c-15.25-10.32-30.81-24.99-34.55-43.85
					c-1.94-9.78-0.29-22.33,8.38-28.52c10.16-7.26,25.27-0.04,32.11,8.71C756.55,659.3,758.31,657.52,757.33,656.26L757.33,656.26z"
					/>
			</g>
		</g>
		<g>
			<g>
				<path class="st3" d="M747.86,722.23c-6.57,9.92-9.5,23.49-11.35,35.1c-1.49,9.39-2.67,16.75-9.14,24.11
					c-6.05,6.87-13.63,12.79-22.8,14.5c-1.58,0.29-0.91,2.7,0.66,2.41c15.42-2.87,30.18-17.63,32.7-33.1
					c2.26-13.87,4.13-29.74,12.08-41.75C750.91,722.15,748.74,720.89,747.86,722.23L747.86,722.23z"/>
			</g>
		</g>
		<g>
			<g>
				<path class="st3" d="M514.56,755.65c11.06-3.17,22.9-0.5,34.19-0.26c10.63,0.22,21.27-0.43,31.8-1.92
					c19-2.68,39.93-7.14,55.13-19.59c1.25-1.02-0.53-2.78-1.77-1.77c-16.03,13.14-39.31,17.38-59.38,19.62
					c-10.13,1.13-20.36,1.46-30.55,1c-10.07-0.46-20.2-2.32-30.08,0.51C512.36,753.69,513.01,756.1,514.56,755.65L514.56,755.65z"/>
			</g>
		</g>
		<g>
			<g>
				<path class="st3" d="M466.78,767.69c-3.5,7.47-11.72,13.04-12.33,21.79c-0.53,7.6,6.04,12.54,11.33,16.83
					c13.82,11.19,27.82,20.13,45.75,22.62c18.05,2.51,36.29,0.01,54.41,0.11c9.53,0.05,19.13,0.81,28.32,3.49
					c9.3,2.71,17.6,7.75,27.19,9.55c10.19,1.92,20.86,2.56,31.2,3.28c10.36,0.73,20.45,0.16,30.01-4.19
					c1.46-0.67,0.19-2.82-1.26-2.16c-16.18,7.37-36.2,3.6-53.25,1.56c-9.69-1.16-17.82-4.66-26.8-8.23
					c-6.83-2.71-14-4.28-21.29-5.08c-32.67-3.58-67.3,7.5-97-11.25c-7.74-4.89-16.63-10.83-22.66-17.81
					c-9.46-10.95,4.09-19.77,8.54-29.26C469.61,767.5,467.46,766.23,466.78,767.69L466.78,767.69z"/>
			</g>
		</g>
		<g>
			<g>
				<path class="st3" d="M528.96,776.82c4.44,4.96,10.85,6.05,17.2,6.58c9.98,0.84,20,1.37,29.99,2.05
					c4.09,0.28,8.35,0.88,12.45,0.43c4.47-0.49,8.67-2.37,12.94-3.67c9.61-2.94,19.57-4.74,29.61-5.33
					c4.61-0.27,9.24-0.31,13.85-0.08c2.51,0.12,5.22,0.11,7.65,0.76c3.45,0.92,2.99,3.96,4.02,6.64c1.18,3.05,5.37,3.57,6.97,6.55
					c1.41,2.63,0.8,5.32,4.04,6.26c2.15,0.62,4.41,0.15,6.54,1.29c2.34,1.25,6.02,4.56,3.92,7.59c-1.14,1.65-5.61,2.78-7.42,3.42
					c-2.15,0.75-4.36,1.21-6.57,1.73c-2.99,0.7-10.42,3.51-6.34,7.71c1.82,1.88,6.12,1.78,8.48,1.98
					c5.79,0.48,11.64,0.34,17.35,1.52c5.15,1.07,10.01,3.19,15.12,4.38c4.16,0.97,8.17,1.02,12.42,0.73c1.6-0.11,1.61-2.61,0-2.5
					c-9.75,0.66-17.56-3.05-26.88-5.03c-3.88-0.82-7.85-1.05-11.8-1.25c-2.07-0.11-4.15-0.18-6.22-0.36
					c-0.87-0.07-3.36,0.01-4.19-0.47c-1.43,0.08-1.61-0.56-0.56-1.91c-0.13-1.17,0.28-1.8,1.22-1.88c1.48-0.94,4.51-1,6.19-1.48
					c1.91-0.54,3.78-1.22,5.6-2c2.13-0.91,6.06-2.15,7.01-4.64c1.62-4.26-4.32-9.14-7.65-10.42c-1.4-0.54-3.12-0.32-4.43-0.84
					c-2.39-0.95-2.63-3.16-3.68-5.09c-1.58-2.9-6.01-4.27-6.83-7.28c-0.61-2.25,0.18-3.58-1.92-5.34c-2.03-1.7-4.92-2.02-7.44-2.26
					c-19-1.82-37.28,1.61-55.3,7.35c-10.42,3.32-22.68,0.68-33.42-0.05c-9.39-0.64-23.29,0.83-30.17-6.86
					C529.65,773.86,527.88,775.63,528.96,776.82L528.96,776.82z"/>
			</g>
		</g>
		<g>
			<g>
				<path class="st3" d="M654.49,839.55c16.93,0.58,34,3.27,50.9,0.93c4.3-0.59,11.84-1.23,13.46-6.33c1.47-4.63-3.15-7.52-6.69-9.1
					c-1.46-0.65-2.73,1.5-1.26,2.16c0.71,0.32,1.66,0.6,2.27,1.09c1.68,1.36,3.07,5.6,1.39,7.14c-1.87,1.72-5.63,1.99-7.99,2.36
					c-6.03,0.96-12.17,1.18-18.27,1.09c-11.29-0.17-22.53-1.45-33.82-1.84C652.88,836.99,652.88,839.49,654.49,839.55L654.49,839.55
					z"/>
			</g>
		</g>
		<g>
			<g>
				<path class="st3" d="M672.15,811.91c4.98,1.8,10.1,3.11,15.19,4.56c1.55,0.44,2.21-1.97,0.66-2.41
					c-5.09-1.45-10.21-2.76-15.19-4.56C671.3,808.95,670.64,811.37,672.15,811.91L672.15,811.91z"/>
			</g>
		</g>
		<g>
			<g>
				<path class="st3" d="M689.34,816.48c6.64-8.35,19.86-9.88,29.35-6.12c10.74,4.25,16.63,15.99,16.08,27.21
					c-0.62,12.55-9.22,20.38-21.57,21.35c-5.5,0.43-11.37,0.07-16.21-2.84c-5.38-3.24-8.42-9.14-10.07-14.99
					c-0.43-1.55-2.85-0.89-2.41,0.66c3.91,13.92,14.38,20.78,28.68,19.66c12.8-1,22.35-8.52,23.89-21.63
					c1.44-12.25-4.46-25.77-15.94-31.13c-10.53-4.92-26-3.48-33.56,6.05C686.58,815.96,688.34,817.74,689.34,816.48L689.34,816.48z"
					/>
			</g>
		</g>
		<g>
			<g>
				<path class="st3" d="M563.69,781.32c2.31-7.87,9.21-14.04,17.59-14.45c3.76-0.19,7.52,0.85,10.74,2.78
					c1.37,0.82,9.32,6.99,7.69,9.08c-0.98,1.25,0.78,3.03,1.77,1.77c2.36-3.03-1.38-7.09-3.55-9.35c-3.46-3.59-8.21-5.99-13.15-6.63
					c-10.73-1.39-20.53,6.01-23.49,16.13C560.82,782.2,563.23,782.86,563.69,781.32L563.69,781.32z"/>
			</g>
		</g>
		<g>
			<g>
				<path class="st3" d="M545.28,779.18c-1.68-5.09-4.88-8.95-9.63-11.45c-0.7-0.37-1.63-0.06-1.84,0.75
					c-0.28,1.09-0.56,2.17-0.84,3.26c0.8,0,1.61,0,2.41,0c-0.45-2.49-1.21-5.58-3.95-6.46c-2.06-0.66-4.01,0.25-4.92,2.13
					c0.72,0,1.44,0,2.16,0c-2.1-4.67-7.75-9.37-13.28-7.71c-3.38,1.02-4.93,5.38-1.38,7.27c1.05,0.56,2.41-0.61,1.71-1.71
					c-2.84-4.47-6.94-10.16-13.09-9.16c-4.19,0.68-6.82,4.79-5.27,8.78c0.8-0.22,1.61-0.44,2.41-0.66
					c-3.96-9.62-16.36-10.72-21.6-1.53c0.76,0.1,1.52,0.2,2.28,0.3c-2.67-10.24-15.94-10.65-19.59-0.88c0.76-0.1,1.52-0.2,2.28-0.3
					c-2.16-3.78-5.78-7.48-10.53-7.08c-3.99,0.34-6.93,3.34-7.15,7.27c0.71-0.29,1.42-0.59,2.13-0.88
					c-3.41-3.47-7.81-7.35-13.07-6.51c-4.04,0.64-7.18,3.73-7.06,7.9c0.78-0.21,1.55-0.42,2.33-0.63
					c-3.46-4.92-7.96-10.14-14.35-10.81c-4.79-0.5-9.53,1.63-11.57,6.11c0.72,0,1.44,0,2.16,0c-2.9-4.53-7.48-10.36-12.88-12.01
					c-3.39-1.03-6.85,0.95-5.82,4.75c0.7-0.41,1.39-0.81,2.09-1.22c-2.69-3-10.75-13.55-15.85-10.04c-2.58,1.78-1.84,6.11,1.44,6.24
					c0.82,0.03,1.41-0.82,1.21-1.58c-2.01-7.29-7.07-14.18-14.26-17.1c-1.87-0.76-4.24-1.4-5.84,0.22
					c-1.41,1.42-1.26,3.41,0.26,4.63c0.86,0.69,2.57,0.08,2.09-1.22c-2.56-6.95-7.43-12.28-14.22-15.28
					c-0.56-0.25-1.42-0.23-1.71,0.45c-1.14,2.65-0.58,4.79,1.73,6.53c1.12,0.85,2.14-0.73,1.71-1.71
					c-3.09-7.08-6.43-11.55-13.65-14.67c-1.46-0.63-2.74,1.52-1.26,2.16c6.84,2.95,9.84,7.11,12.75,13.77
					c0.57-0.57,1.14-1.14,1.71-1.71c-0.28-1.04-0.55-2.07-0.83-3.11c-0.57,0.15-1.14,0.3-1.71,0.45c6.19,2.73,10.72,7.4,13.07,13.78
					c0.7-0.41,1.39-0.81,2.09-1.22c1.06-1.65,2.36-1.74,3.88-0.28c0.43,0.24,0.86,0.48,1.28,0.72c1.81,1.07,3.44,2.43,4.87,3.96
					c2.78,2.96,4.55,6.39,5.63,10.29c0.4-0.53,0.8-1.05,1.21-1.58c2.29-1.52,4.16-1.18,5.62,1.04c0.83,0.73,1.64,1.48,2.44,2.24
					c1.6,1.53,3.1,3.14,4.58,4.79c0.85,0.95,2.4-0.06,2.09-1.22c2.32-1.45,4.3-1.38,5.92,0.2c1.21,0.9,2.35,1.87,3.42,2.93
					c1.85,1.82,3.39,3.87,4.78,6.05c0.46,0.72,1.75,0.9,2.16,0c1.96-4.31,6.85-5.83,11.22-4.46c4.54,1.42,7.77,5.45,10.38,9.17
					c0.67,0.95,2.37,0.7,2.33-0.63c-0.14-4.89,5.34-6.22,9.06-4.76c2.7,1.06,4.79,3.1,6.8,5.14c0.79,0.81,2.07,0.17,2.13-0.88
					c0.25-4.42,4.72-5.48,8.03-4.05c2.32,1,3.77,2.99,4.99,5.12c0.57,1,1.92,0.67,2.28-0.3c2.85-7.61,12.78-6.72,14.77,0.88
					c0.27,1.04,1.75,1.23,2.28,0.3c4.03-7.07,13.88-6.73,17.03,0.93c0.6,1.46,3,0.85,2.41-0.66c-2.36-6.1,5.66-6.12,8.88-3.74
					c2.14,1.58,3.51,3.85,4.91,6.05c0.57-0.57,1.14-1.14,1.71-1.71c-0.13-2.81,1.16-3.69,3.87-2.63c1.06,0.22,2.03,0.62,2.92,1.2
					c2.13,1.26,3.45,3.07,4.45,5.29c0.38,0.83,1.77,0.8,2.16,0c2.83,0.26,4.26,1.51,4.3,3.73c0.23,1.24,2.12,1.14,2.41,0
					c0.28-1.09,0.56-2.17,0.84-3.26c-0.61,0.25-1.22,0.5-1.84,0.75c4.22,2.22,6.98,5.4,8.48,9.96
					C543.37,781.36,545.79,780.71,545.28,779.18L545.28,779.18z"/>
			</g>
		</g>
		<g>
			<g>
				<path class="st3" d="M534.25,635.15c20.12,37.08,38.35,75.82,65.91,108.11c1.05,1.23,2.81-0.55,1.77-1.77
					c-27.41-32.11-45.51-70.73-65.52-107.6C535.64,632.48,533.48,633.74,534.25,635.15L534.25,635.15z"/>
			</g>
		</g>
		<g>
			<g>
				<path class="st3" d="M537.09,635.79c6.06-18.56,16.12-35.32,30.64-48.49c17.73-16.07,40.1-25.9,62.75-32.85
					c1.53-0.47,0.88-2.89-0.66-2.41c-23.07,7.09-45.8,17.13-63.85,33.5c-14.84,13.45-25.1,30.64-31.29,49.59
					C534.18,636.66,536.59,637.31,537.09,635.79L537.09,635.79z"/>
			</g>
		</g>
		<g>
			<g>
				<path class="st3" d="M535.3,634.76c-5.47-3.06-10.64-7.17-15.19-11.47c-5.8-5.49-9.67-12.52-16.54-16.88
					c-6.76-4.29-14.69-6.42-21.9-9.78c-7.27-3.38-14.25-7.48-20.5-12.52c-13.97-11.27-21.99-27.52-28.3-44.01
					c-3.22-8.43-3.3-17.59-4.48-26.45c-1.28-9.59-3.04-19.11-5.19-28.54c-0.36-1.57-2.77-0.9-2.41,0.66
					c2.41,10.58,4.33,21.27,5.63,32.05c1.02,8.46,1.43,16.65,4.72,24.63c6.51,15.81,13.74,31.25,27.06,42.44
					c5.91,4.96,12.47,9.1,19.37,12.54c7.39,3.68,15.46,5.95,22.68,9.93c8.07,4.45,12.16,12.32,18.8,18.33
					c4.57,4.13,9.62,8.22,15.01,11.23C535.44,637.71,536.71,635.55,535.3,634.76L535.3,634.76z"/>
			</g>
		</g>
		<g>
			<g>
				<path class="st3" d="M423.42,487.16c-5.12-20.78-9.8-41.66-14.62-62.51c-2.33-10.08-4.57-20.22-7.2-30.23
					c-1.11-4.22-3.69-7.36-5.31-11.35c-1.94-4.77-2.53-9.92-3.09-14.99c-0.82,0.11-1.64,0.22-2.46,0.33
					c1.91,7.05,3.93,14.12,7.32,20.63c0.61,1.18,2.25,0.52,2.33-0.63c0.27-3.75,1.3-7.45,2.14-11.11c0.36-1.57-2.05-2.23-2.41-0.66
					c-0.89,3.88-1.94,7.79-2.23,11.77c0.78-0.21,1.55-0.42,2.33-0.63c-3.29-6.31-5.22-13.19-7.07-20.03
					c-0.36-1.31-2.61-1.11-2.46,0.33c0.45,4.06,0.9,8.15,1.97,12.1c1.11,4.07,3.31,7.09,5.17,10.8c2.41,4.82,3.08,11.15,4.32,16.35
					c1.28,5.36,2.54,10.72,3.78,16.09c4.98,21.48,9.79,43,15.06,64.41C421.39,489.38,423.81,488.72,423.42,487.16L423.42,487.16z"/>
			</g>
		</g>
		<g>
			<g>
				<path class="st3" d="M396.49,390.18c-17.56,16.08-36.12,30.98-55.62,44.63c-1.31,0.92-0.06,3.08,1.26,2.16
					c19.67-13.78,38.41-28.81,56.13-45.03C399.45,390.86,397.68,389.1,396.49,390.18L396.49,390.18z"/>
			</g>
		</g>
		<g>
			<g>
				<path class="st3" d="M305.45,385.91c2.25,22.06,18.56,37.58,34.17,51.62c1.19,1.07,2.97-0.69,1.77-1.77
					c-15.01-13.5-31.26-28.56-33.44-49.85C307.78,384.33,305.28,384.31,305.45,385.91L305.45,385.91z"/>
			</g>
		</g>
		<g>
			<g>
				<path class="st3" d="M308.01,387.39c4.48-3.75,8.95-7.51,13.43-11.26c-0.7-0.18-1.39-0.37-2.09-0.55
					c4.71,20.29,23.17,34.19,35.48,49.86c0.99,1.26,2.75-0.52,1.77-1.77c-12.04-15.33-30.23-28.94-34.83-48.76
					c-0.23-0.99-1.41-1.12-2.09-0.55c-4.48,3.75-8.95,7.51-13.43,11.26C305.01,386.66,306.79,388.42,308.01,387.39L308.01,387.39z"
					/>
			</g>
		</g>
		<g>
			<g>
				<path class="st3" d="M323.46,375.04c13.18-11.66,26.36-23.31,39.54-34.97c6.59-5.83,13.18-11.66,19.77-17.48
					c5.87-5.19,11.8-10.68,18.98-14.01c17.03-7.89,32.46,5.38,43.02,17.69c9.71,11.32,16.87,24.58,23.46,37.89
					c8.12,16.41,16.44,32.32,25.89,48.03c10.43,17.34,21.19,34.49,32.02,51.58c6.63,10.45,13.13,21.04,20.05,31.3
					c0.9,1.33,3.06,0.08,2.16-1.26c-17.92-26.56-34.69-54.06-51.23-81.49c-10.03-16.63-18.79-33.51-27.45-50.88
					c-6.61-13.24-13.88-26.33-23.65-37.54c-8.82-10.13-21.43-21.79-35.95-20.28c-7.26,0.75-13.71,4.62-19.39,8.98
					c-7.73,5.94-14.84,12.77-22.14,19.23c-15.62,13.81-31.24,27.63-46.86,41.44C320.48,374.34,322.26,376.1,323.46,375.04
					L323.46,375.04z"/>
			</g>
		</g>
		<g>
			<g>
				<path class="st3" d="M472.57,364.85c18.15,9.33,32.46,24.47,46.52,38.95c14.38,14.81,28.22,30.15,41.48,45.97
					c20.43,24.38,41.33,49.64,56.2,77.87c2.94,5.59,5.86,11.18,8.74,16.8c1.11,2.16,2.21,4.32,3.29,6.5
					c0.26,0.52,0.61,1.86,1.07,2.21c1.32,1.01-1.67,0.98,0.91-0.54c-1.39,0.82-0.13,2.98,1.26,2.16c0.01,0,0.01-0.01,0.02-0.01
					c0.52-0.3,0.67-0.86,0.57-1.41c-0.43-2.49-2.47-5.27-3.59-7.49c-2.48-4.88-5-9.74-7.54-14.59c-4.92-9.41-9.66-18.13-15.69-26.71
					c-24.17-34.35-50.89-66.9-79.89-97.28c-15.64-16.39-31.67-34.1-52.08-44.59C472.4,361.96,471.14,364.11,472.57,364.85
					L472.57,364.85z"/>
			</g>
		</g>
		<g>
			<g>
				<path class="st3" d="M360.62,340.67c-6.48-6.24-14.24-11.29-20.38-17.86c-1.1-1.18-2.87,0.59-1.77,1.77
					c6.14,6.57,13.9,11.62,20.38,17.86C360.02,343.56,361.79,341.79,360.62,340.67L360.62,340.67z"/>
			</g>
		</g>
		<g>
			<g>
				<path class="st3" d="M339.73,325.7c5.51-8.14,12.6-14.79,19.94-21.24c2.99-2.63,5.97-5.28,8.96-7.9
					c2.73-2.39,7.34-7.01,11.38-6.28c1.57,0.28,2.25-2.13,0.66-2.41c-7.14-1.28-14.16,7.28-18.92,11.46
					c-8.8,7.72-17.58,15.35-24.18,25.11C336.67,325.78,338.84,327.03,339.73,325.7L339.73,325.7z"/>
			</g>
		</g>
		<g>
			<g>
				<path class="st3" d="M338.82,323.94c-1.56-1.92-3.18-3.78-4.75-5.69c-2.76-3.37-2.9-3.42-0.21-6.65
					c3.94-4.73,8.22-9.18,12.79-13.31c4.91-4.43,10.16-8.48,15.7-12.09c2.24-1.46,4.69-3.36,7.18-4.36c4.01-1.61,5.57,1.1,8.35,3.83
					c0.5-0.65,1.01-1.31,1.51-1.96c-1.17-0.52-1.49-0.56-2.76-0.38c-1.59,0.22-0.91,2.63,0.66,2.41c0.28,0.04,0.56,0.08,0.84,0.13
					c1.22,0.54,2.6-0.9,1.51-1.96c-2.33-2.28-4.91-6.52-8.63-5.63c-5.23,1.26-11.19,6.47-15.46,9.58
					c-10.07,7.34-18.97,16.08-26.62,25.91c-0.33,0.43-0.52,1.01-0.2,1.51c2.43,3.73,5.51,6.98,8.31,10.42
					C338.07,326.96,339.83,325.18,338.82,323.94L338.82,323.94z"/>
			</g>
		</g>
		<g>
			<g>
				<path class="st3" d="M381.04,290.05c6.98,5.32,13.61,11.07,19.89,17.21c1.15,1.13,2.92-0.64,1.77-1.77
					c-6.43-6.29-13.24-12.15-20.39-17.6C381.02,286.92,379.78,289.09,381.04,290.05L381.04,290.05z"/>
			</g>
		</g>
		<g>
			<g>
				<path class="st3" d="M519.65,558.59c7.82-7.19,16.6-13.51,26.7-17.04c4.9-1.71,10.01-2.68,15.11-3.58
					c2.94-0.52,6.47-1.32,9.44-0.44c3.77,1.12,5.5,4.43,7.06,7.69c0.65-0.5,1.31-1.01,1.96-1.51c-0.55-0.46-1.11-0.92-1.66-1.38
					c-1.23-1.02-3.01,0.74-1.77,1.77c0.55,0.46,1.11,0.92,1.66,1.38c1.1,0.91,2.59-0.2,1.96-1.51c-2.21-4.6-4.83-8.38-10.2-9.13
					c-6.05-0.85-13.33,1.29-19.13,2.79c-12.62,3.26-23.41,10.48-32.92,19.21C516.69,557.92,518.46,559.68,519.65,558.59
					L519.65,558.59z"/>
			</g>
		</g>
		<g>
			<g>
				<path class="st3" d="M312.39,401.08c21.66-14.59,43.37-29.3,66.67-41.18c6.11-3.11,12.32-6.05,18.67-8.65
					c3.17-1.3,7.2-3.29,10.71-2.33c4.17,1.14,6.53,6.13,8.44,9.55c6.42,11.5,9.96,24.36,13.43,36.98
					c7.14,26.01,12.96,52.39,21.27,78.07c3.72,11.51,8.04,22.92,14.43,33.24c6,9.69,13.56,18.32,21.66,26.3
					c21.48,21.17,45.42,40.12,68.22,59.84c1.21,1.05,2.99-0.71,1.77-1.77c-21.35-18.46-43.35-36.38-63.92-55.71
					c-9.57-9-18.62-18.71-25.57-29.92c-7.28-11.76-11.83-24.9-15.89-38.05c-8.32-26.96-14.19-54.6-22.1-81.68
					c-3.42-11.71-7.36-24.38-14.71-34.33c-6.79-9.2-16.89-3.43-25.35,0.36c-28.05,12.57-53.6,29.99-79.01,47.1
					C309.8,399.82,311.05,401.98,312.39,401.08L312.39,401.08z"/>
			</g>
		</g>
		<g>
			<g>
				<path class="st3" d="M185.56,656.13c36.1-5.32,72.19-10.81,108.18-16.83c10.44-1.75,20.88-3.51,31.26-5.59
					c1.58-0.32,0.91-2.73-0.66-2.41c-41.72,8.34-84.02,14.12-126.09,20.42c-4.45,0.67-8.9,1.33-13.35,1.99
					C183.31,653.96,183.98,656.37,185.56,656.13L185.56,656.13z"/>
			</g>
		</g>
		<g>
			<g>
				<path class="st3" d="M185.68,654.45c-0.44-3.97-3.22-9.51-1.48-12.86c2.09-4.05,7.61-6.64,11.32-9.24
					c6.89-4.83,13.79-9.62,20.62-14.54c13.71-9.87,27.06-20.23,39.26-31.93c-0.59,0-1.18,0-1.77,0
					c9.02,10.84,14.19,26.49,30.59,27.05c8.6,0.29,17.22-1.93,25.86-2.05c1.77-0.02,4.08-0.26,5.84,0.05c4.77,0.85,4.91,3,5.67,6.73
					c0.94,4.67,1.38,9.39,1.54,14.14c0.05,1.6,2.55,1.61,2.5,0c-0.15-4.37-0.54-8.71-1.3-13.01c-0.47-2.69-0.81-6.35-2.86-8.43
					c-1.54-1.58-3.48-1.77-5.55-1.92c-5.13-0.37-10.43-0.01-15.55,0.47c-10,0.94-20.27,3.92-28.78-3.28
					c-6.9-5.83-10.48-14.65-16.19-21.51c-0.44-0.53-1.32-0.43-1.77,0c-14.01,13.44-29.54,25.06-45.36,36.25
					c-7.6,5.38-15.26,10.66-22.85,16.06c-1.74,1.24-4.58,2.58-5.11,4.88c-0.37,1.6,0.61,3.19,1.07,4.64
					c0.9,2.81,1.47,5.58,1.79,8.52C183.36,656.03,185.86,656.05,185.68,654.45L185.68,654.45z"/>
			</g>
		</g>
		<g>
			<g>
				<path class="st3" d="M255.97,585.6c2.11-3.49,4.32-6.92,6.49-10.38c1.11-1.77,1.94-3.7,3.71-4.82
					c2.64-1.67,7.37-0.98,10.51-1.08c4.11-0.13,6.06-0.22,9.47,2.64c1.46,1.22,2.43,2.32,4.32,2.87c3.39,1,6.93-0.13,9.12-2.91
					c0.92-1.17,0.97-3.59,1.77-4.44c1.22-0.33,2.43-0.66,3.65-0.99c0.74,0.71,1.4,1.48,1.99,2.32c0.96,1.24,1.8,2.53,2.55,3.9
					c2.91,5.35,4.75,11.38,6.75,17.12c4.01,11.56,6.61,23.21,7.04,35.47c0.06,1.6,2.56,1.61,2.5,0
					c-0.48-13.51-3.59-26.25-8.12-38.94c-2.14-5.99-4.07-12.37-7.68-17.68c-1.66-2.44-5.21-7.34-8.9-5.81
					c-1.45,0.6-1.79,1.68-2.15,3.11c-0.83,3.32-1.83,6.81-6.21,6.73c-3.52-0.07-3.87-1.71-5.68-3.51
					c-4.12-4.11-10.67-2.38-15.99-2.21c-5.42,0.18-6.77,0.47-9.62,5.07c-2.54,4.1-5.18,8.14-7.67,12.26
					C252.97,585.72,255.13,586.98,255.97,585.6L255.97,585.6z"/>
			</g>
		</g>
		<g>
			<g>
				<path class="st3" d="M296.9,571.32c-3.58-6.18-7.75-12.14-12.15-17.77c-0.64-0.82-1.79-0.21-2.09,0.55
					c-5.24,13.49-24.52,5.48-35.18,7.9c-9.73,2.21-19.6,6.65-27.8,12.31c-1.32,0.91-0.07,3.08,1.26,2.16
					c9.13-6.29,21.84-12.74,33.18-12.82c10.75-0.08,25.85,4.25,30.95-8.87c-0.7,0.18-1.39,0.37-2.09,0.55
					c4.27,5.45,8.29,11.27,11.76,17.26C295.55,573.97,297.71,572.72,296.9,571.32L296.9,571.32z"/>
			</g>
		</g>
		<g>
			<g>
				<path class="st3" d="M215.89,575.24c-7.41,2.88-14.81,5.88-21.76,9.77c-5.89,3.3-13.21,7.67-17.23,13.24
					c-2.65,3.68-2.07,7.68,1.82,10.14c5.89,3.73,13.67,1.44,19.51-1.06c6.98-2.99,13.23-7.37,19.08-12.18
					c3.09-2.54,6.06-5.22,9.01-7.92c1.73-1.59,4.3-3.33,5.14-5.68c1.68-4.68-2.93-7.54-6.99-7.62c-6.63-0.13-13.6,2.81-19.37,5.76
					c-1.43,0.73-0.17,2.89,1.26,2.16c4.24-2.17,8.49-3.78,13.15-4.71c1.14-0.23,2.47-0.63,3.64-0.57c1.78-0.59,2.8,0.34,3.05,2.79
					c2.08,1.34,2.51,2.46,1.29,3.36c-0.87,1.84-3.93,3.65-5.48,5.05c-7.79,7.02-16.15,13.91-26.02,17.8
					c-3.87,1.53-12.59,4.45-16.02,0.67c-0.57-1.86-1.13-3.72-1.7-5.58c0.56-0.9,1.23-1.72,1.99-2.44c0.74-0.78,1.57-1.49,2.38-2.2
					c2.02-1.77,4.16-3.4,6.38-4.92c8.48-5.79,17.99-9.74,27.52-13.44C218.04,577.07,217.39,574.65,215.89,575.24L215.89,575.24z"/>
			</g>
		</g>
		<g>
			<g>
				<path class="st3" d="M176,604.19c-3.92,1.85-7.63,6.06-11.02,8.74c-4.39,3.45-8.96,4.65-8.05,10.84
					c0.99,6.72,2.69,12.3,8.42,16.21c6.83,4.66,12.58,9.95,18.43,15.8c1.14,1.14,2.91-0.63,1.77-1.77
					c-4.27-4.27-8.49-8.77-13.31-12.44c-2.48-1.89-5.41-3.25-7.75-5.32c-3.15-2.78-3.58-6.63-4.53-10.5
					c-1.14-4.6-0.77-5.31,2.62-7.83c1.71-1.27,3.38-2.61,5.05-3.92c2.94-2.32,6.25-6.05,9.63-7.65
					C178.72,605.66,177.45,603.51,176,604.19L176,604.19z"/>
			</g>
		</g>
		<g>
			<g>
				<path class="st3" d="M158.26,621.33c8.17,5.72,16.88,10.63,24.52,17.07c1.22,1.03,3-0.73,1.77-1.77
					c-7.81-6.59-16.68-11.62-25.03-17.46C158.2,618.25,156.95,620.42,158.26,621.33L158.26,621.33z"/>
			</g>
		</g>
		<g>
			<g>
				<path class="st3" d="M284.74,453.97c16.02-8.2,32.65-15.1,49.92-20.2c1.54-0.46,0.88-2.87-0.66-2.41
					c-17.47,5.16-34.31,12.15-50.51,20.46C282.05,452.55,283.31,454.71,284.74,453.97L284.74,453.97z"/>
			</g>
		</g>
		<g>
			<g>
				<path class="st3" d="M256.28,428.56c17.39-9.92,34.49-20.47,50.56-32.43c1.28-0.95,0.03-3.12-1.26-2.16
					c-16.06,11.96-33.17,22.51-50.56,32.43C253.62,427.2,254.88,429.36,256.28,428.56L256.28,428.56z"/>
			</g>
		</g>
		<g>
			<g>
				<path class="st3" d="M252.57,422.6c0.83,17.66,19.26,27.56,33.69,32.85c-0.1-0.76-0.2-1.52-0.3-2.28
					c-6.4,4.92-8.09,12.46-9.87,19.97c-2.61,11.02-7.21,21.24-14.97,29.6c-1.09,1.18,0.67,2.95,1.77,1.77
					c6.18-6.65,10.68-14.58,13.55-23.18c2.88-8.65,2.99-19.99,10.79-25.99c0.87-0.67,0.77-1.89-0.3-2.28
					c-13.28-4.87-31.08-14.03-31.85-30.44C254.99,421,252.49,420.99,252.57,422.6L252.57,422.6z"/>
			</g>
		</g>
		<g>
			<g>
				<path class="st3" d="M153.67,417.53c-11.87,4.15-11.13,16.76-3.19,24.53c6.43,6.3,14.06,11.56,21.17,17.05
					c6.41,4.95,12.86,9.85,19.41,14.61c13.81,10.04,28.1,19.47,43.19,27.5c6.2,3.3,13.26,7.8,20.44,8.45
					c5.32,0.48,5.87-1.5,8.51-5.49c-0.72-0.42-1.44-0.84-2.16-1.26c0,0.01-0.01,0.01-0.01,0.02c-0.7,1.44,1.45,2.71,2.16,1.26
					c0-0.01,0.01-0.01,0.01-0.02c0.7-1.44-1.26-2.61-2.16-1.26c-0.65,0.99-1.26,2.51-2.1,3.31c-2.51,2.34-7.47,0.39-10.3-0.73
					c-6.43-2.52-12.6-6.07-18.61-9.44c-11.29-6.33-22.14-13.41-32.69-20.9c-11.04-7.83-21.76-16.11-32.43-24.44
					c-5.06-3.95-10.84-7.81-14.86-12.86c-5.1-6.4-3.89-15.06,4.3-17.92C155.84,419.42,155.19,417,153.67,417.53L153.67,417.53z"/>
			</g>
		</g>
		<g>
			<g>
				<path class="st3" d="M152.19,421.13c6.7,9.22,15.69,17,24.15,24.57c9.08,8.13,18.55,15.83,28.35,23.08
					c9.95,7.36,20.26,14.24,30.87,20.61c5.15,3.09,10.35,6.28,15.88,8.65c2.14,0.92,4.35,1.73,6.63,2.25
					c1.18,0.27,2.39,0.49,3.59,0.61c0.55,0.04,1.1,0.09,1.65,0.13c1.8,0.53,2.18,0.09,1.13-1.31c0.57-0.15,1.14-0.3,1.71-0.45
					c-0.07-0.04-0.14-0.09-0.21-0.13c-1.37-0.85-2.63,1.31-1.26,2.16c0.07,0.04,0.14,0.09,0.21,0.13c0.61,0.38,1.33,0.09,1.71-0.45
					c0.06-0.09,0.13-0.18,0.19-0.27c0.29-0.41,0.2-1.19-0.2-1.51c-0.6-0.49-0.91-0.43-1.61-0.65c-2.92-0.94-6.38-0.55-9.44-1.59
					c-5.82-1.98-11.17-5.26-16.44-8.37c-10.4-6.14-20.52-12.78-30.3-19.88c-9.93-7.21-19.52-14.89-28.71-23.02
					c-8.95-7.91-18.68-16.12-25.74-25.82C153.41,418.58,151.24,419.83,152.19,421.13L152.19,421.13z"/>
			</g>
		</g>
		<g>
			<g>
				<path class="st3" d="M155.85,420.19c10.12-4.27,19.67,3.91,28.56,7.66c7.29,3.07,15.02,4.97,22.89,5.77
					c16.09,1.63,32.33-1.65,46.56-9.28c1.42-0.76,0.16-2.92-1.26-2.16c-16.13,8.65-34.98,11.44-52.93,7.77
					c-8.87-1.81-16.6-5.5-24.63-9.53c-6.59-3.31-13.38-5.37-20.45-2.39C153.11,418.65,154.39,420.8,155.85,420.19L155.85,420.19z"/>
			</g>
		</g>
		<g>
			<g>
				<path class="st3" d="M242.81,425.12c-4.95,6.09-10.03,12.41-12.72,19.89c-1.44,4-4.12,13.22,1.1,15.74
					c4.73,2.28,8.83-3.4,10.12-7.22c2.81-8.34-1.12-17.36,2.4-25.55c0.39-0.9-0.27-2.22-1.41-1.84c-8.46,2.86-17.78,6.99-18.54,17.1
					c0.82-0.11,1.64-0.22,2.46-0.33c-1.49-3.54-2.45-7.07-2.9-10.9c-0.17-1.42-1.92-1.68-2.46-0.33c-1.7,4.27-2.61,8.6-2.84,13.17
					c0.78-0.21,1.55-0.42,2.33-0.63c-2.02-3.91-3.89-7.87-5.6-11.92c-0.52-1.24-2.41-1.18-2.46,0.33
					c-0.12,3.59-0.75,6.86-1.93,10.22c0.76-0.1,1.52-0.2,2.28-0.3c-2.09-2.87-3.67-5.81-4.85-9.18c-0.37-1.05-2.18-1.32-2.41,0
					c-0.45,2.55-0.9,5.09-1.34,7.64c0.76-0.1,1.52-0.2,2.28-0.3c-1.16-2.22-3.23-9.27-6.35-9.57c-3.25-0.31-4.84,6.43-5.74,8.42
					c0.72,0,1.44,0,2.16,0c-0.93-2.09-2.47-8.99-5.27-9.45c-3.3-0.54-4.53,6.25-5.18,7.96c0.8,0.22,1.61,0.44,2.41,0.66
					c0.51-3.56,0.37-6.85-0.49-10.34c-0.21-0.84-1.5-1.3-2.09-0.55c-0.88,1.12-1.72,2-2.79,2.93c-1.22,1.05,0.56,2.82,1.77,1.77
					c1.07-0.93,1.92-1.81,2.79-2.93c-0.7-0.18-1.39-0.37-2.09-0.55c0.76,3.06,0.94,5.89,0.49,9.01c-0.22,1.58,1.82,2.19,2.41,0.66
					c0.48-1.24,0.95-2.49,1.43-3.73c0.63-2.49,1.19-2.63,1.69-0.41c1.27,1.38,2,4.51,2.76,6.23c0.37,0.82,1.79,0.81,2.16,0
					c0.48-1.06,2.27-6.82,3.76-6.5c1.09,0.23,3.43,6.55,4.01,7.65c0.47,0.9,2.1,0.77,2.28-0.3c0.45-2.55,0.9-5.09,1.34-7.64
					c-0.8,0-1.61,0-2.41,0c1.24,3.54,2.89,6.73,5.1,9.77c0.64,0.88,1.91,0.76,2.28-0.3c1.26-3.6,1.9-7.08,2.02-10.89
					c-0.82,0.11-1.64,0.22-2.46,0.33c1.79,4.25,3.73,8.42,5.85,12.52c0.6,1.16,2.27,0.53,2.33-0.63c0.23-4.42,1.13-8.42,2.75-12.51
					c-0.82-0.11-1.64-0.22-2.46-0.33c0.47,4.03,1.42,7.81,2.99,11.56c0.54,1.28,2.34,1.15,2.46-0.33
					c0.66-8.83,9.48-12.25,16.71-14.69c-0.47-0.61-0.94-1.22-1.41-1.84c-3.87,9.02,1.33,19.98-3.68,28.43
					c-0.51,0.67-1.01,1.34-1.52,2.01c-1.86-0.8-3.71-1.59-5.57-2.39c-0.58-0.95,0.37-4.19,0.6-5.26c0.58-2.78,1.67-5.45,2.95-7.97
					c2.71-5.32,6.49-10.04,10.24-14.65C245.59,425.65,243.83,423.87,242.81,425.12L242.81,425.12z"/>
			</g>
		</g>
		<g>
			<g>
				<path class="st3" d="M172.59,438.48c-1.15-5.86,2.05-11.26,7.72-13.07c1.53-0.49,0.87-2.9-0.66-2.41
					c-7.02,2.24-10.89,8.93-9.47,16.14C170.49,440.72,172.9,440.05,172.59,438.48L172.59,438.48z"/>
			</g>
		</g>
		<g>
			<g>
				<path class="st3" d="M313.36,268.25c4.11,5.53,8.13,11.12,12.03,16.8c3.84,5.58,9.27,11.78,11.15,18.36
					c0.44,1.54,2.85,0.89,2.41-0.66c-1.81-6.36-6.66-12.01-10.34-17.4c-4.24-6.21-8.61-12.32-13.09-18.35
					C314.57,265.71,312.4,266.96,313.36,268.25L313.36,268.25z"/>
			</g>
		</g>
		<g>
			<g>
				<path class="st3" d="M331.3,236.87c10.29,16.1,22.31,30.95,35.91,44.37c0.5-0.65,1.01-1.31,1.51-1.96
					c-0.4-0.22-0.81-0.45-1.21-0.67c-1.41-0.78-2.67,1.38-1.26,2.16c0.4,0.22,0.81,0.45,1.21,0.67c1.22,0.68,2.54-0.95,1.51-1.96
					c-13.46-13.28-25.34-27.94-35.52-43.86C332.6,234.25,330.43,235.5,331.3,236.87L331.3,236.87z"/>
			</g>
		</g>
		<g>
			<g>
				<path class="st3" d="M317.85,269.78c0.48-7.66,1.21-15.3,2.26-22.9c0.39-2.85,0.39-6.56,1.47-9.24
					c1.67-4.16,6.86-4.84,10.8-5.43c-0.22-0.8-0.44-1.61-0.66-2.41c-0.12-0.02-0.25-0.04-0.37-0.07c-1.42-0.76-2.68,1.39-1.26,2.16
					c0.94,0.5,1.26,0.54,2.3,0.32c1.6-0.34,0.89-2.64-0.66-2.41c-3.38,0.5-8,1.21-10.62,3.69c-2.14,2.02-2.26,5.17-2.69,7.91
					c-1.46,9.41-2.46,18.88-3.06,28.38C315.25,271.39,317.75,271.38,317.85,269.78L317.85,269.78z"/>
			</g>
		</g>
		<g>
			<g>
				<path class="st3" d="M334.02,233.99c-3.9-15.23-14.59-26.97-21.98-40.5c-4.38-8.01-6.37-16.02-7.69-24.98
					c-1.01-6.84-2.43-14.14-7.31-19.38c-8.86-9.53-20.58-4.74-25.89,5.57c-6.49,12.59-6.94,27.65-4.35,41.32
					c1.91,10.06,5.16,19.69,5.77,29.99c0.57,9.68-0.84,19.27-2.25,28.82c-0.23,1.57,2.18,2.25,2.41,0.66
					c1.28-8.64,2.62-17.32,2.47-26.08c-0.15-8.83-2.01-17.27-4.12-25.8c-2.22-9.02-3.76-18.09-3.09-27.42
					c0.63-8.73,2.93-19.41,9.21-25.92c9.83-10.2,20.58,0.97,23.25,11.02c2.33,8.76,2.37,17.7,5.9,26.18
					c6.9,16.57,20.72,29.52,25.25,47.17C332.01,236.22,334.42,235.56,334.02,233.99L334.02,233.99z"/>
			</g>
		</g>
		<g>
			<g>
				<path class="st3" d="M277.7,259.78c11.94-0.7,26.66-0.97,35.55,8.58c1.1,1.18,2.86-0.59,1.77-1.77
					c-9.35-10.05-24.71-10.05-37.31-9.31C276.1,257.37,276.09,259.87,277.7,259.78L277.7,259.78z"/>
			</g>
		</g>
		<g>
			<g>
				<path class="st3" d="M292.05,148.28c-17.08,4.24-16.72,28.08-16.24,41.63c0.77,21.49,1.53,42.98,2.3,64.46
					c0.06,1.6,2.56,1.61,2.5,0c-0.65-18.23-1.3-36.46-1.95-54.7c-0.33-9.25-1.59-19.08-0.05-28.26c1.36-8.13,5.2-18.51,14.11-20.72
					C294.27,150.31,293.61,147.9,292.05,148.28L292.05,148.28z"/>
			</g>
		</g>
		<g>
			<g>
				<path class="st3" d="M278.56,169.36c3.8,26.56,24.71,45.26,37.06,67.87c0.72-0.42,1.44-0.84,2.16-1.26
					c-0.35-0.5-0.71-1.01-1.06-1.51c-0.92-1.31-3.09-0.06-2.16,1.26c0.35,0.5,0.71,1.01,1.06,1.51c0.91,1.3,2.94,0.17,2.16-1.26
					c-12.23-22.41-33.04-40.95-36.8-67.27C280.74,167.11,278.33,167.79,278.56,169.36L278.56,169.36z"/>
			</g>
		</g>
		<g>
			<g>
				<path class="st3" d="M287.8,182.84c4.18-2.71,8.43-3.81,13.41-3.48c-0.29-0.71-0.59-1.42-0.88-2.13c-2.85,2.4-5.69,4.8-8.54,7.2
					c-0.8,0.68-0.17,2.22,0.88,2.13c3.94-0.33,7.65-1.04,11.43-2.24c-0.47-0.61-0.94-1.22-1.41-1.84
					c-2.17,4.98-8.82,5.42-9.29,11.54c-0.07,0.89,0.85,1.32,1.58,1.21c3.97-0.62,7.7-1.64,11.44-3.12
					c-0.47-0.61-0.94-1.22-1.41-1.84c-2.24,3.37-4.47,6.75-6.71,10.12c-0.6,0.91,0.4,2.15,1.41,1.84c3.38-1.05,6.77-2.1,10.15-3.15
					c-0.47-0.61-0.94-1.22-1.41-1.84c-1.31,2.43-6.54,8.61-4.92,11.61c1.82,3.37,4.93-0.38,6.84-0.73c4.2-0.77,0.86,3.38,0.34,5.34
					c-0.33,1.26-0.8,2.89,0,4.06c0.63,0.92,1.62,1.24,2.7,1.22c0.59-0.01,1.19-0.48,1.74-0.47c0.33-0.18,0.66-0.37,0.99-0.55
					c2.6,1.41,3.34,3.09,2.21,5.06c-0.18,0.52,0.12,1.15,0.57,1.41c0.99,0.58,1.13,0.65,2.27,0.51c1.58-0.19,1.6-2.7,0-2.5
					c0.88-0.11,0.4-4.18,0.11-4.83c-0.42-0.97-1.21-1.97-2.21-2.4c-1.5-0.64-1.78-0.01-3.22,0.07c-0.71,0.76-1.33,0.69-1.86-0.2
					c-1.48-0.75-1.4-1.88,0.23-3.42c0.35-0.66,1.26-1.67,1.49-2.47c0.64-2.23-0.41-3.94-2.82-4.22c-2.23-0.27-3,1.38-4.83,2.02
					c-3.38,1.19-1.02-1.66-0.2-3.19c0.91-1.69,1.82-3.38,2.74-5.07c0.5-0.92-0.33-2.17-1.41-1.84c-3.38,1.05-6.77,2.1-10.15,3.15
					c0.47,0.61,0.94,1.22,1.41,1.84c2.24-3.37,4.47-6.75,6.71-10.12c0.57-0.86-0.39-2.24-1.41-1.84c-3.74,1.49-7.47,2.5-11.44,3.12
					c0.53,0.4,1.05,0.8,1.58,1.21c0.35-4.61,7.14-6.12,8.95-10.28c0.4-0.92-0.27-2.2-1.41-1.84c-3.54,1.12-7.06,1.84-10.77,2.15
					c0.29,0.71,0.59,1.42,0.88,2.13c2.85-2.4,5.69-4.8,8.54-7.2c0.89-0.75,0.1-2.07-0.88-2.13c-5.36-0.36-10.16,0.89-14.67,3.82
					C285.19,181.56,286.44,183.72,287.8,182.84L287.8,182.84z"/>
			</g>
		</g>
		<g>
			<g>
				<path class="st3" d="M246.66,256.53c10.05-0.65,20.8,0.36,30.51,3.01c1.55,0.42,2.22-1.99,0.66-2.41
					c-9.91-2.71-20.93-3.76-31.17-3.1C245.07,254.13,245.06,256.63,246.66,256.53L246.66,256.53z"/>
			</g>
		</g>
		<g>
			<g>
				<path class="st3" d="M247.75,255.69c0.14-5.68-2.75-13.42-9.43-13.43c-6.13,0-8.57,5.64-8.27,11.01c0.09,1.6,2.59,1.61,2.5,0
					c-0.22-3.9,1.07-8.57,5.77-8.51c5.1,0.06,7.03,6.7,6.93,10.93C245.21,257.3,247.71,257.3,247.75,255.69L247.75,255.69z"/>
			</g>
		</g>
		<g>
			<g>
				<path class="st3" d="M350.86,262.35c5.61,0.01,11.19-0.28,16.77-0.88c0.62-0.07,1.33-0.52,1.25-1.25
					c-0.79-7.57,11.17-9.05,13.24-2.2c1.06,3.5,1.15,7.67,1.51,11.31c0.75,7.53,1.09,15.07,1.12,22.63
					c0.63-0.36,1.25-0.72,1.88-1.08c-0.37-0.18-0.74-0.37-1.11-0.55c-1.43-0.72-2.7,1.44-1.26,2.16c0.37,0.18,0.74,0.37,1.11,0.55
					c0.83,0.41,1.89-0.08,1.88-1.08c-0.04-7.89-0.41-15.77-1.22-23.62c-0.46-4.47-0.26-11.59-3.62-15.14
					c-5.32-5.61-16.85-0.78-16.03,7.02c0.42-0.42,0.83-0.83,1.25-1.25c-5.58,0.6-11.16,0.89-16.77,0.88
					C349.25,259.85,349.25,262.35,350.86,262.35L350.86,262.35z"/>
			</g>
		</g>
		<g>
			<g>
				<path class="st3" d="M230.02,253.48c9.75,55.75,16.57,111.98,20.46,168.44c0.11,1.6,2.61,1.61,2.5,0
					c-3.91-56.69-10.77-113.14-20.55-169.11C232.16,251.23,229.75,251.9,230.02,253.48L230.02,253.48z"/>
			</g>
		</g>
		<g>
			<g>
				<path class="st3" d="M244.68,424.19c-3.42-35.56-7.23-71.09-11.47-106.56c-2.12-17.74-4.33-35.46-6.65-53.18
					c-0.68-5.17-1.84-10.58-0.67-15.78c1.43-6.38,7.97-5.21,12.89-3.87c1.55,0.43,2.22-1.99,0.66-2.41
					c-3.62-0.99-8.55-1.99-12.09-0.31c-3.85,1.84-4.29,7.04-4.41,10.8c-0.22,7.11,1.49,14.37,2.4,21.4
					c1.27,9.84,2.5,19.69,3.71,29.54c4.9,40.06,9.27,80.18,13.13,120.36C242.34,425.77,244.84,425.79,244.68,424.19L244.68,424.19z"
					/>
			</g>
		</g>
		<g>
			<g>
				<path class="st3" d="M249.39,511.65c1.05,15.23,2.1,30.47,3.15,45.7c0.11,1.6,2.61,1.61,2.5,0c-1.05-15.23-2.1-30.47-3.15-45.7
					C251.78,510.06,249.28,510.04,249.39,511.65L249.39,511.65z"/>
			</g>
		</g>
		<g>
			<g>
				<path class="st3" d="M266.21,496.95c0.19,21.73-0.58,43.77,1.35,65.42c0.14,1.59,2.64,1.6,2.5,0
					c-1.93-21.66-1.16-43.7-1.35-65.42C268.69,495.34,266.19,495.34,266.21,496.95L266.21,496.95z"/>
			</g>
		</g>
		<g>
			<g>
				<path class="st3" d="M249.54,280.23c24.23-4.92,48.34,4.53,72.67,2.82c1.6-0.11,1.61-2.61,0-2.5
					c-24.58,1.72-48.84-7.71-73.33-2.73C247.3,278.14,247.97,280.55,249.54,280.23L249.54,280.23z"/>
			</g>
		</g>
		<g>
			<g>
				<path class="st3" d="M248.98,280.01c6.23,42.99,9.33,86.45,13.05,129.71c0.25,2.87,0.48,5.75,0.76,8.62
					c0.09,0.89-0.04,2.45,0.48,3.24c0.88,1.34,3.04,0.09,2.16-1.26c0.23,0.34-0.15-2.09-0.21-2.75c-0.24-2.5-0.45-5-0.66-7.5
					c-0.74-8.61-1.46-17.22-2.21-25.83c-2.01-23.23-4.11-46.45-6.62-69.62c-1.27-11.78-2.64-23.54-4.34-35.27
					C251.16,277.76,248.75,278.44,248.98,280.01L248.98,280.01z"/>
			</g>
		</g>
		<g>
			<g>
				<path class="st3" d="M264.53,278.41c3.77,21.89,5.41,43.99,6.18,66.17c0.77,22.35,3.31,44.43,5.8,66.64
					c0.18,1.56,2.61,1.63,2.5,0c-0.06-0.96-0.13-1.93-0.19-2.89c-0.11-1.6-2.61-1.61-2.5,0c0.06,0.96,0.13,1.93,0.19,2.89
					c0.83,0,1.67,0,2.5,0c-2.56-22.87-5.05-45.56-5.87-68.57c-0.77-21.75-2.5-43.44-6.2-64.9
					C266.67,276.16,264.26,276.83,264.53,278.41L264.53,278.41z"/>
			</g>
		</g>
		<g>
			<g>
				<path class="st3" d="M274.84,279.53c4.72,20.13,4.86,41.31,6.32,61.86c1.52,21.43,3.04,42.85,4.56,64.28
					c0.11,1.6,2.61,1.61,2.5,0c-1.57-22.09-3.13-44.17-4.7-66.26c-1.43-20.15-1.64-40.81-6.27-60.55
					C276.89,277.3,274.48,277.96,274.84,279.53L274.84,279.53z"/>
			</g>
		</g>
		<g>
			<g>
				<path class="st3" d="M288.27,281.98c7.34,37.67,5.77,76.3,11.01,114.22c0.22,1.59,2.63,0.91,2.41-0.66
					c-5.24-37.93-3.67-76.54-11.01-114.22C290.38,279.74,287.97,280.4,288.27,281.98L288.27,281.98z"/>
			</g>
		</g>
		<g>
			<g>
				<path class="st3" d="M298.67,281.44c4.39,33.85,7.33,67.85,9.04,101.94c0.08,1.6,2.58,1.61,2.5,0
					c-1.72-34.09-4.65-68.09-9.04-101.94C300.97,279.87,298.47,279.85,298.67,281.44L298.67,281.44z"/>
			</g>
		</g>
		<g>
			<g>
				<path class="st3" d="M315.2,283.44c1.12,18.83,2.88,37.64,4.71,56.41c0.76,7.76,1.54,15.52,2.42,23.28
					c0.25,2.24-0.11,7.45,1.35,9.4c0.95,1.27,3.12,0.03,2.16-1.26c-1.05-1.4-1.01-8.17-1.28-10.59c-0.85-7.76-1.63-15.54-2.39-23.31
					c-1.74-17.95-3.4-35.92-4.47-53.93C317.6,281.84,315.1,281.83,315.2,283.44L315.2,283.44z"/>
			</g>
		</g>
		<g>
			<g>
				<path class="st3" d="M323.44,286.87c2.1,26.07,4.91,52.08,7.01,78.16c0.13,1.59,2.63,1.61,2.5,0
					c-2.1-26.07-4.91-52.08-7.01-78.16C325.81,285.28,323.31,285.26,323.44,286.87L323.44,286.87z"/>
			</g>
		</g>
		<g>
			<g>
				<path class="st3" d="M342.75,330.01c0.25,7.95,0.26,15.9,0.01,23.85c-0.05,1.61,2.45,1.61,2.5,0c0.25-7.95,0.24-15.9-0.01-23.85
					C345.2,328.4,342.7,328.39,342.75,330.01L342.75,330.01z"/>
			</g>
		</g>
		<g>
			<g>
				<path class="st3" d="M392.43,398.49c0.61,14.62,1.22,29.25,1.83,43.87c0.07,1.6,2.57,1.61,2.5,0
					c-0.61-14.62-1.22-29.25-1.83-43.87C394.87,396.89,392.37,396.88,392.43,398.49L392.43,398.49z"/>
			</g>
		</g>
		<g>
			<g>
				<path class="st3" d="M486.04,600.92c1.31,16.15,2.42,32.31,3.61,48.46c0.5,6.82,0.02,14.64,1.65,21.27
					c1.39,5.63,10.7,2.22,14.15,0.8c1.47-0.6,0.83-3.02-0.66-2.41c-1.72,0.7-3.38,1.31-5.21,1.65c-3.61,0.67-5.16-0.2-6.07-3.4
					c-0.75-2.62-0.47-6-0.68-8.74c-0.49-6.49-0.96-12.98-1.43-19.47c-0.92-12.72-1.83-25.45-2.86-38.16
					C488.41,599.33,485.91,599.31,486.04,600.92L486.04,600.92z"/>
			</g>
		</g>
		<g>
			<g>
				<path class="st3" d="M500.38,606.28c2.09,21.01,3.65,42.07,4.65,63.16c0.83,0,1.67,0,2.5,0c-0.04-0.73-0.08-1.46-0.13-2.19
					c-0.09-1.6-2.59-1.61-2.5,0c0.04,0.73,0.08,1.46,0.13,2.19c0.09,1.6,2.58,1.61,2.5,0c-1.01-21.09-2.56-42.15-4.65-63.16
					C502.72,604.7,500.22,604.68,500.38,606.28L500.38,606.28z"/>
			</g>
		</g>
		<g>
			<g>
				<path class="st3" d="M395.37,491.54c2.71,41.36,5.54,82.7,8.25,124.06c0.1,1.6,2.61,1.61,2.5,0
					c-2.71-41.36-5.54-82.7-8.25-124.06C397.77,489.94,395.27,489.93,395.37,491.54L395.37,491.54z"/>
			</g>
		</g>
		<g>
			<g>
				<path class="st3" d="M382.63,496.03c3.33,40.67,4.16,81.5,7.49,122.17c0.13,1.59,2.63,1.61,2.5,0
					c-3.33-40.67-4.16-81.5-7.49-122.17C385,494.44,382.5,494.43,382.63,496.03L382.63,496.03z"/>
			</g>
		</g>
		<g>
			<g>
				<path class="st3" d="M405.29,587.91c10.24,3.02,20.7,5.25,30.95,8.24c5.27,1.54,10.57,3.16,15.59,5.38
					c4.6,2.03,8.85,4.73,13.34,6.97c3.42,1.7,6.91,2.82,10.52,4.02c4.17,1.38,7.99,3.5,12.11,5.02c1.51,0.56,2.16-1.86,0.66-2.41
					c-4.12-1.52-7.92-3.65-12.11-5.02c-4.63-1.51-8.95-3.2-13.25-5.53c-8.51-4.6-16.9-8.13-26.2-10.84
					c-10.25-2.99-20.71-5.22-30.95-8.24C404.41,585.04,403.75,587.45,405.29,587.91L405.29,587.91z"/>
			</g>
		</g>
		<g>
			<g>
				<path class="st3" d="M404.49,598.78c10.24,3.02,20.7,5.25,30.95,8.24c5.27,1.54,10.57,3.16,15.59,5.38
					c4.6,2.03,8.85,4.73,13.34,6.97c3.42,1.7,6.91,2.82,10.52,4.02c4.17,1.38,7.99,3.5,12.11,5.02c1.51,0.56,2.16-1.86,0.66-2.41
					c-4.12-1.52-7.92-3.65-12.11-5.02c-4.63-1.51-8.95-3.2-13.25-5.53c-8.51-4.6-16.9-8.13-26.2-10.84
					c-10.25-2.99-20.71-5.22-30.95-8.24C403.61,595.91,402.95,598.32,404.49,598.78L404.49,598.78z"/>
			</g>
		</g>
		<g>
			<g>
				<path class="st3" d="M148.81,647.22c-0.24,4.68,0.17,9.21,1.22,13.77c0.11,0.49,0.68,0.97,1.21,0.92
					c9.3-0.89,18.87-0.17,28.18,0.21c14.62,0.6,29.24,1.48,43.84,2.39c13.51,0.84,27.01,1.75,40.52,2.6
					c4.55,0.29,9.09,0.57,13.64,0.8c2.02,0.1,4.38,0.51,6.39,0.13c4.68-0.88,9.64-4.23,13.92-6.19c8.54-3.91,17.09-7.93,25.94-11.09
					c1.5-0.54,0.86-2.95-0.66-2.41c-7.33,2.62-14.46,5.86-21.55,9.07c-5.62,2.54-11.62,6.4-17.6,8.01c-1.3,0.35-3.72,0.1-5.47,0.02
					c-4.47-0.2-8.94-0.49-13.41-0.77c-28.51-1.78-57.01-3.89-85.56-5.07c-6.26-0.26-12.54-0.48-18.81-0.5
					c-2.29-0.01-4.59,0-6.88,0.12c-0.2,0.01-0.68,0.1-0.91,0.05c-1.76-0.37-0.11,0.43-0.76-0.61c-1.65-2.62-0.91-8.43-0.75-11.46
					C151.39,645.62,148.89,645.62,148.81,647.22L148.81,647.22z"/>
			</g>
		</g>
		<g>
			<g>
				<path class="st3" d="M151.2,647.74c4.99-2.07,9.54-5.1,14.53-7.16c1.47-0.61,0.82-3.03-0.66-2.41
					c-4.99,2.07-9.54,5.1-14.53,7.16C149.07,645.93,149.71,648.35,151.2,647.74L151.2,647.74z"/>
			</g>
		</g>
		<g>
			<g>
				<path class="st3" d="M148.12,654.46c-7.78,5.89-15.85,11.4-23.63,17.3c-0.89,0.68-0.74,2.4,0.63,2.33
					c16.85-0.86,33.93-0.14,50.8-0.19c25.31-0.09,50.62-0.17,75.93-0.25c3.38-0.01,6.83,0.18,10.2-0.03
					c0.39-0.02,1.28-0.17,1.65-0.01c-1.94-0.84-0.58,1.58-0.27,2.84c0.56,2.3,1.64,5.13,1.3,7.51c-0.22,1.57,2.19,2.25,2.41,0.66
					c0.59-4.17-1.41-8.56-2.19-12.6c-0.1-0.53-0.69-0.92-1.21-0.92c-40.44,0.49-80.9,0.26-121.34,0.41
					c-5.74,0.02-11.55-0.22-17.28,0.08c0.21,0.78,0.42,1.55,0.63,2.33c7.78-5.89,15.85-11.4,23.63-17.3
					C150.65,655.66,149.4,653.49,148.12,654.46L148.12,654.46z"/>
			</g>
		</g>
		<g>
			<g>
				<path class="st3" d="M126.76,674.58c0.07-0.07,0.13-0.14,0.2-0.21c0.41-0.42,0.45-1.01,0.2-1.51c-0.31-0.62-0.62-0.87-1.3-1
					c-0.56-0.11-1.1,0.08-1.41,0.57c-1.23,1.98-0.56,5.17-0.62,7.41c-0.07,2.82-0.25,5.7,0.39,8.46c0.15,0.64,0.91,1.07,1.54,0.87
					c-0.54,0.17,1.17-0.01,1.58-0.02c1.71-0.04,3.42-0.07,5.13-0.1c5.71-0.1,11.43-0.19,17.14-0.28
					c16.94-0.27,33.89-0.52,50.83-0.79c16.14-0.26,32.29-0.51,48.43-0.85c5.78-0.12,13.86,1.3,18.98-1.86
					c7.61-4.7,15.17-9.5,22.67-14.38c3.98-2.59,7.95-5.19,11.85-7.91c2.12-1.48,4.7-2.96,6.38-4.96c1.03-1.22-0.73-3-1.77-1.77
					c-3.96,4.7-10.91,8.03-15.98,11.35c-7.18,4.7-14.43,9.3-21.72,13.84c-1.27,0.79-3.4,2.43-4.45,2.78
					c0.49-0.16-1.33,0.03-1.8,0.05c-4.17,0.19-8.35,0.24-12.52,0.33c-32.44,0.7-64.88,1.12-97.32,1.62
					c-6.75,0.11-13.5,0.21-20.25,0.33c-2.33,0.04-5.57-0.49-7.85,0.22c0.51,0.29,1.03,0.58,1.54,0.87
					c-0.53-2.28-0.38-4.69-0.32-7.01c0.02-1.06,0.07-2.11,0.09-3.17c-0.01,0.27,0.15-6.24-1.4-4.64
					C123.88,673.97,125.64,675.74,126.76,674.58L126.76,674.58z"/>
			</g>
		</g>
		<g>
			<g>
				<path class="st3" d="M133.39,690.2c0.76,5.03,1.45,10.11,1.64,15.19c0.02,0.66,0.55,1.27,1.25,1.25
					c29.44-0.93,59.03,0.06,88.48,0.18c15.89,0.07,31.78,0.15,47.68,0.13c3.38,0,7.27,0.5,10.61-0.08c3.55-0.61,6.78-4.6,9.4-6.87
					c7.26-6.3,14.41-12.72,21.55-19.16c1.35-1.22,2.58-1.93,2.95-3.64c0.73-3.42-0.35-8.02-0.5-11.54c-0.07-1.6-2.57-1.61-2.5,0
					c0.15,3.35,0.12,6.74,0.44,10.07c0.05,0.49,0.2,1.27,0.08,1.77c0.02-0.09,0.54-1.13,0.16-0.59c-0.47,0.66-1.36,1.23-1.96,1.77
					c-6.11,5.52-12.25,11.02-18.43,16.45c-2.81,2.46-5.61,4.94-8.49,7.31c-0.73,0.6-1.48,1.41-2.34,1.83
					c-0.63,0.31,0.61-0.1-0.27,0.09c-3.09,0.67-6.97,0.07-10.11,0.08c-33.42,0.04-66.85-0.23-100.27-0.34
					c-12.14-0.04-24.32-0.36-36.46,0.03c0.42,0.42,0.83,0.83,1.25,1.25c-0.2-5.31-0.94-10.61-1.73-15.86
					C135.57,687.95,133.16,688.62,133.39,690.2L133.39,690.2z"/>
			</g>
		</g>
		<g>
			<g>
				<path class="st3" d="M143.14,707.63c0.27,4.5,0.53,9,0.8,13.5c0.04,0.61,0.55,1.34,1.25,1.25c7.95-1.05,16.57-0.1,24.55,0.02
					c16.01,0.22,32.02,0.55,48.03,0.88c15.39,0.32,30.78,0.67,46.17,1.03c4.79,0.11,9.58,0.23,14.37,0.34
					c1.63,0.04,3.8,0.48,5.37-0.09c2.58-0.93,5.37-3.91,7.56-5.52c4.56-3.35,9.11-6.7,13.62-10.11c2.71-2.04,8.29-4.88,8.9-8.51
					c0.42-2.54-0.58-5.8-0.83-8.37c-0.28-2.91-0.55-5.83-0.96-8.72c-0.22-1.59-2.63-0.91-2.41,0.66c0.41,2.91,0.65,5.85,0.94,8.78
					c0.18,1.82,1.31,5.4,0.81,7.18c-0.63,2.27-4.13,4.1-5.86,5.42c-2.09,1.58-4.18,3.15-6.28,4.72c-3.61,2.69-7.24,5.36-10.88,8.03
					c-1.34,0.98-2.68,1.96-4.02,2.94c-0.3,0.22-2.15,1.45-1.56,1.28c-0.22,0.07-4.2-0.18-5.44-0.21c-4.81-0.12-9.62-0.23-14.43-0.34
					c-30.08-0.7-60.16-1.39-90.24-1.84c-8.91-0.13-18.54-1.23-27.41-0.06c0.42,0.42,0.83,0.83,1.25,1.25c-0.27-4.5-0.53-9-0.8-13.5
					C145.55,706.03,143.05,706.02,143.14,707.63L143.14,707.63z"/>
			</g>
		</g>
		<g>
			<g>
				<path class="st3" d="M281.13,706.82c0.36,4.61,0.45,9.21,0.27,13.82c-0.06,1.61,2.44,1.61,2.5,0c0.18-4.62,0.09-9.22-0.27-13.82
					C283.51,705.23,281,705.22,281.13,706.82L281.13,706.82z"/>
			</g>
		</g>
		<g>
			<g>
				<path class="st3" d="M278.34,688.61c0.95,5.79,1.91,11.58,2.86,17.38c0.26,1.58,2.67,0.91,2.41-0.66
					c-0.95-5.79-1.91-11.59-2.86-17.38C280.49,686.36,278.08,687.03,278.34,688.61L278.34,688.61z"/>
			</g>
		</g>
		<g>
			<g>
				<path class="st3" d="M147.88,722.36c0.33,6.51,1.15,13,1.48,19.51c0.03,0.66,0.55,1.27,1.25,1.25
					c32.19-1.03,64.45-0.28,96.64,0.44c12.5,0.28,24.99,0.61,37.48,0.93c2.63,0.07,5.58,0.51,8.2,0.18c1.9-0.24,2.76-1.23,4.19-2.6
					c11.77-11.31,22.67-23.5,34.71-34.54c0.33-0.3,0.43-0.8,0.32-1.22c-1.44-5.77-2.13-11.72-3.56-17.49
					c-0.39-1.56-2.8-0.9-2.41,0.66c0.72,2.88,1.21,5.83,1.78,8.74c0.35,1.8,0.7,3.6,1.06,5.4c0.45,2.24,0.74,2.13-0.34,3.41
					c-5.08,6.01-11.57,11.27-17.11,16.89c-5.24,5.31-10.39,10.71-15.74,15.91c-2.46,2.39-1.71,2.36-4.76,2.3
					c-27.78-0.51-55.54-1.45-83.32-1.78c-19.04-0.22-38.1-0.35-57.14,0.26c0.42,0.42,0.83,0.83,1.25,1.25
					c-0.33-6.51-1.15-13-1.48-19.51C150.3,720.76,147.8,720.75,147.88,722.36L147.88,722.36z"/>
			</g>
		</g>
		<g>
			<g>
				<path class="st3" d="M153.03,755.62c0.19,8.01,2.51,16.08,3.99,23.92c0.09,0.5,0.69,0.95,1.21,0.92
					c33.69-2.26,67.37,0.4,101.06,1.32c8.18,0.22,16.36,0.34,24.54,0.25c5.47-0.06,13.12,1.52,17.13-2.93
					c9.54-10.59,18.41-22.14,27.28-33.31c0.99-1.25-0.77-3.03-1.77-1.77c-5.18,6.53-10.54,12.91-15.86,19.33
					c-2.52,3.03-5.03,6.07-7.52,9.12c-0.98,1.2-1.88,2.57-2.96,3.68c-2.68,2.74-4.85,3.12-8.44,3.22
					c-18.66,0.53-37.32-0.18-55.96-0.96c-18.63-0.77-37.28-1.61-55.94-1.34c-4.58,0.07-9.15,0.2-13.72,0.42
					c-1.1,0.05-6.04,1.03-6.83,0.34c-0.33-0.29-0.61-3.14-0.69-3.55c-1.19-6.09-2.86-12.43-3.01-18.66
					C155.49,754.02,152.99,754.01,153.03,755.62L153.03,755.62z"/>
			</g>
		</g>
		<g>
			<g>
				<path class="st3" d="M321.43,718.04c6.83,4.85,7.2,19.21,5.02,26.41c0.7-0.18,1.39-0.37,2.09-0.55
					c-0.27-0.23-0.55-0.47-0.82-0.7c-1.21-1.04-2.99,0.72-1.77,1.77c0.27,0.23,0.55,0.47,0.82,0.7c0.71,0.61,1.8,0.39,2.09-0.55
					c2.55-8.44,1.72-23.63-6.17-29.23C321.38,714.95,320.13,717.12,321.43,718.04L321.43,718.04z"/>
			</g>
		</g>
		<g>
			<g>
				<path class="st3" d="M155.44,756.41c1.63-2.73,4.61-4.88,7.01-6.9c2.56-2.15,5.21-4.2,7.76-6.36c1.23-1.04-0.55-2.8-1.77-1.77
					c-2.74,2.33-5.6,4.53-8.34,6.86c-2.39,2.03-5.18,4.17-6.82,6.91C152.46,756.53,154.62,757.79,155.44,756.41L155.44,756.41z"/>
			</g>
		</g>
		<g>
			<g>
				<path class="st3" d="M230.19,884.72c23.35-27.38,49.65-52.09,78.48-73.62c1.27-0.95,0.03-3.12-1.26-2.16
					c-29.01,21.67-55.5,46.46-78.99,74.01C227.38,884.17,229.14,885.94,230.19,884.72L230.19,884.72z"/>
			</g>
		</g>
		<g>
			<g>
				<path class="st3" d="M230.98,882.6c14.83-8.36,35.65-2.93,51.02,0.99c8.41,2.14,16.75,4.55,25.26,6.29
					c6.93,1.42,15.11,3.24,22.22,2.34c6.21-0.79,11.01-8.18,15.11-12.35c6.59-6.69,13.06-13.5,19.48-20.36
					c12.38-13.23,24.56-26.65,36.96-39.86c1.1-1.17-0.66-2.94-1.77-1.77c-12.4,13.21-24.58,26.63-36.96,39.86
					c-5.99,6.4-12.03,12.76-18.17,19.03c-3.02,3.09-6.06,6.16-9.15,9.18c-4.05,3.95-8.61,3.97-13.98,3.51
					c-16.53-1.43-32.29-7.24-48.43-10.68c-13.39-2.86-30.32-5.4-42.86,1.66C228.32,881.24,229.57,883.4,230.98,882.6L230.98,882.6z"
					/>
			</g>
		</g>
		<g>
			<g>
				<path class="st3" d="M227.46,882.24c-0.04,3.15-0.07,6.3-0.11,9.46c-0.01,0.51,0.39,1.1,0.92,1.21
					c34.25,6.52,68.44,11.7,103.12,15.34c1.6,0.17,1.59-2.33,0-2.5c-18.59-1.95-37.17-4.06-55.66-6.86
					c-8.86-1.34-17.68-2.85-26.49-4.53c-4.51-0.86-9.03-1.72-13.54-2.58c-1.89-0.36-4.7-0.19-5.83-1.98
					c-0.8-1.26,0.07-6.02,0.09-7.57C229.98,880.64,227.48,880.63,227.46,882.24L227.46,882.24z"/>
			</g>
		</g>
		<g>
			<g>
				<path class="st3" d="M329.92,893.85c0.21,4.38,0.36,8.77,0.57,13.15c0.05,0.98,1.4,1.79,2.13,0.88
					c15.75-19.44,33.46-37.39,50.91-55.3c6.19-6.36,12.42-12.69,18.69-18.97c0.75-0.76,2.32-1.8,2.66-2.89
					c0.36-1.13-0.57-3.17-0.82-4.23c-0.55-2.38-1.09-4.78-1.73-7.14c-0.42-1.55-2.83-0.89-2.41,0.66c0.64,2.36,1.18,4.75,1.73,7.14
					c0.24,1.02,0.45,2.06,0.71,3.08c0.29,1.14,0.67-1.1,0.32-0.62c-0.99,1.35-2.5,2.5-3.67,3.68c-6.45,6.48-12.85,13-19.22,19.56
					c-16.77,17.26-33.76,34.56-48.92,53.27c0.71,0.29,1.42,0.59,2.13,0.88c-0.21-4.38-0.36-8.77-0.57-13.15
					C332.35,892.25,329.85,892.24,329.92,893.85L329.92,893.85z"/>
			</g>
		</g>
		<g>
			<g>
				<path class="st3" d="M309.26,809.42c18.83,2.22,37.65,4.58,56.46,6.99c7.9,1.01,15.79,2.02,23.68,3.08
					c3.23,0.43,7.71,0.29,10.78,1.56c-0.18-0.7-0.37-1.39-0.55-2.09c0,0-0.01,0.01-0.01,0.01c-1.02,1.23,0.74,3.01,1.77,1.77
					c0,0,0.01-0.01,0.01-0.01c0.64-0.78,0.35-1.72-0.55-2.09c-2.81-1.16-6.84-1.03-9.81-1.43c-8.02-1.08-16.04-2.11-24.07-3.14
					c-19.23-2.46-38.46-4.87-57.71-7.15C307.67,806.73,307.68,809.23,309.26,809.42L309.26,809.42z"/>
			</g>
		</g>
		<g>
			<g>
				<path class="st3" d="M305.64,807.24c-18.98,1.15-37.8,0.3-56.67-1.97c-8.91-1.07-17.93-2.24-26.93-1.74
					c-2.34,0.13-4.27,0.11-6.1,1.66c-2.16,1.83-4.14,4.16-6.26,6.09c-22.52,20.62-45.23,42-71.7,57.52
					c-1.11,0.65-0.58,2.26,0.63,2.33c31.1,1.73,62.98,3.39,93.52,9.82c1.57,0.33,2.24-2.08,0.66-2.41
					c-30.76-6.48-62.85-8.17-94.18-9.91c0.21,0.78,0.42,1.55,0.63,2.33c25.25-14.8,47.14-34.96,68.64-54.64
					c2.16-1.98,4.32-3.96,6.49-5.94c1.08-0.99,2.18-2.62,3.34-3.43c1.63-1.13,4.38-0.95,6.26-1c9.02-0.24,17.99,0.98,26.92,2.04
					c18.21,2.17,36.44,2.84,54.75,1.73C307.24,809.64,307.25,807.14,305.64,807.24L305.64,807.24z"/>
			</g>
		</g>
		<g>
			<g>
				<path class="st3" d="M136.95,870.62c-0.46,4.94-0.56,9.54-0.03,14.47c0.08,0.71,0.51,1.19,1.25,1.25
					c12.63,0.99,25.28,1.75,37.92,2.5c17.01,1.01,35.62-0.09,52.11,4.58c1.55,0.44,2.21-1.97,0.66-2.41
					c-16.27-4.61-34.44-3.59-51.21-4.58c-13.17-0.77-26.34-1.55-39.49-2.59c0.42,0.42,0.83,0.83,1.25,1.25
					c-0.53-4.94-0.44-9.54,0.03-14.47C139.6,869.02,137.1,869.03,136.95,870.62L136.95,870.62z"/>
			</g>
		</g>
		<g>
			<g>
				<path class="st3" d="M631.19,554.96c10.24,9.38,18.83,19.92,28.12,30.16c8.63,9.52,19.4,14.17,31.88,16.52
					c6.61,1.24,13.45,1.65,19.89,3.69c6.65,2.11,12.08,6.35,16.7,11.48c9.51,10.57,16.63,23.53,24.04,35.6
					c0.84,1.37,3,0.11,2.16-1.26c-7.15-11.65-14.07-23.86-22.9-34.35c-8.39-9.96-17.96-14.31-30.72-16.21
					c-14.26-2.13-27.86-5.13-38.14-16.02c-9.88-10.45-18.6-21.63-29.25-31.39C631.77,552.11,630,553.87,631.19,554.96L631.19,554.96
					z"/>
			</g>
		</g>
		<g>
			<g>
				<path class="st3" d="M391.44,620.29c4.71,1.59,9.72,0.98,13.92-1.67c1.36-0.86,0.1-3.02-1.26-2.16
					c-3.68,2.33-7.86,2.82-11.99,1.42C390.58,617.36,389.93,619.78,391.44,620.29L391.44,620.29z"/>
			</g>
		</g>
		<g>
			<g>
				<path class="st3" d="M369.99,497.89c2.15,52.07,3.95,104.15,5.93,156.22c0.45,11.67,0.89,23.34,1.37,35.01
					c0.07,1.6,2.57,1.61,2.5,0c-2.15-52.07-3.95-104.15-5.93-156.22c-0.45-11.67-0.89-23.34-1.37-35.01
					C372.42,496.29,369.92,496.28,369.99,497.89L369.99,497.89z"/>
			</g>
		</g>
		<g>
			<g>
				<path class="st3" d="M354.68,497.3c3.08,52.89,4.81,105.87,7.26,158.79c0.55,11.77,1.09,23.54,1.78,35.3
					c0.09,1.6,2.59,1.61,2.5,0c-3.08-52.89-4.81-105.87-7.26-158.79c-0.55-11.77-1.09-23.54-1.78-35.3
					C357.09,495.7,354.59,495.69,354.68,497.3L354.68,497.3z"/>
			</g>
		</g>
		<g>
			<g>
				<path class="st3" d="M365.03,693.48c4.67,1.71,9.69,1.19,13.95-1.36c1.38-0.83,0.12-2.99-1.26-2.16
					c-3.74,2.24-7.94,2.6-12.02,1.11C364.18,690.52,363.53,692.94,365.03,693.48L365.03,693.48z"/>
			</g>
		</g>
		<g>
			<g>
				<path class="st3" d="M284.47,459.83c5.91,0.56,12.22-0.63,18.07-1.33c9.9-1.18,19.78-2.61,29.64-4.1
					c21.07-3.18,42.12-6.61,63.04-10.63c1.58-0.3,0.91-2.71-0.66-2.41c-20.51,3.94-41.14,7.3-61.79,10.44
					c-10.37,1.57-20.76,3.09-31.17,4.32c-5.55,0.65-11.52,1.74-17.13,1.22C282.87,457.18,282.88,459.68,284.47,459.83L284.47,459.83
					z"/>
			</g>
		</g>
		<g>
			<g>
				<path class="st3" d="M278.95,472.86c24.41,3.53,48.81,7.06,73.22,10.58c10.42,1.5,19.16,1.75,29.13-2.02
					c11.27-4.27,22.27-7.54,34.37-8.48c1.59-0.12,1.61-2.62,0-2.5c-10.42,0.81-20.55,3.02-30.32,6.74
					c-4.69,1.78-9.35,3.87-14.32,4.73c-6.7,1.16-13.54-0.2-20.17-1.15c-23.75-3.43-47.49-6.86-71.24-10.29
					C278.04,470.22,277.36,472.63,278.95,472.86L278.95,472.86z"/>
			</g>
		</g>
		<g>
			<g>
				<path class="st3" d="M274.4,484.86c23.97,3.48,47.85,7.55,71.8,11.23c11.21,1.72,23.13,4.75,34.3,1.5
					c6.08-1.77,11.82-4.54,17.88-6.36c7.19-2.16,14.56-3.45,22.04-4.03c1.59-0.12,1.61-2.62,0-2.5c-12.93,1-24.51,4.77-36.61,9.16
					c-12.76,4.63-25.53,1.58-38.52-0.42c-23.42-3.61-46.78-7.58-70.23-10.99C273.49,482.22,272.81,484.63,274.4,484.86L274.4,484.86
					z"/>
			</g>
		</g>
		<g>
			<g>
				<path class="st3" d="M377.01,408.31c-0.3,6.8,0.35,13.73,0.71,20.52c0.26,5.01-0.43,11.53,1.1,16.37
					c0.48,1.53,2.9,0.88,2.41-0.66c-0.52-1.65-0.32-3.88-0.43-5.59c-0.24-3.72-0.44-7.45-0.64-11.17
					c-0.33-6.44-0.94-13.01-0.66-19.46C379.58,406.7,377.08,406.7,377.01,408.31L377.01,408.31z"/>
			</g>
		</g>
		<g>
			<g>
				<path class="st3" d="M393.79,443.13c6.04,1.79,11.96,3.89,17.78,6.32c1.48,0.62,2.13-1.8,0.66-2.41
					c-5.82-2.42-11.74-4.52-17.78-6.32C392.91,440.26,392.24,442.67,393.79,443.13L393.79,443.13z"/>
			</g>
		</g>
		<g>
			<g>
				<path class="st3" d="M325.05,636.66c12.45,4.7,24.74,9.81,36.85,15.32c1.45,0.66,2.73-1.49,1.26-2.16
					c-12.31-5.6-24.79-10.8-37.45-15.57C324.21,633.68,323.56,636.1,325.05,636.66L325.05,636.66z"/>
			</g>
		</g>
		<g>
			<g>
				<path class="st3" d="M323.53,651.07c13.26,4.3,26.12,9.58,38.58,15.84c1.43,0.72,2.7-1.44,1.26-2.16
					c-12.64-6.36-25.71-11.73-39.17-16.09C322.67,648.16,322.01,650.58,323.53,651.07L323.53,651.07z"/>
			</g>
		</g>
		<g>
			<g>
				<path class="st3" d="M155.09,757.47c45.7-3.26,91.29,3.57,137,3.04c1.61-0.02,1.61-2.52,0-2.5c-45.71,0.54-91.29-6.3-137-3.04
					C153.49,755.09,153.48,757.59,155.09,757.47L155.09,757.47z"/>
			</g>
		</g>
		<g>
			<g>
				<path class="st3" d="M292.29,761.01c10.42-11.32,21.53-22.32,29.88-35.31c0.87-1.36-1.29-2.61-2.16-1.26
					c-8.23,12.8-19.22,23.65-29.49,34.8C289.44,760.42,291.2,762.19,292.29,761.01L292.29,761.01z"/>
			</g>
		</g>
		<g>
			<g>
				<path class="st3" d="M320.81,725.76c0.39,5.43,0.94,10.85,1.18,16.28c0.07,1.6,2.57,1.61,2.5,0c-0.25-5.44-0.8-10.85-1.18-16.28
					C323.2,724.16,320.7,724.15,320.81,725.76L320.81,725.76z"/>
			</g>
		</g>
		<g>
			<g>
				<path class="st3" d="M297.92,775.63c8.91-10.38,17.58-20.96,25.99-31.74c0.98-1.25-0.78-3.04-1.77-1.77
					c-8.41,10.78-17.08,21.37-25.99,31.74C295.11,775.08,296.87,776.85,297.92,775.63L297.92,775.63z"/>
			</g>
		</g>
		<g>
			<g>
				<path class="st3" d="M158.78,774.71c23.16-0.33,46.31,1.61,69.44,1.13c22.35-0.46,44.75,0.61,67.09,1.17
					c1.61,0.04,1.61-2.46,0-2.5c-22.34-0.56-44.74-1.64-67.09-1.17c-23.12,0.48-46.28-1.45-69.44-1.13
					C157.17,772.24,157.17,774.74,158.78,774.71L158.78,774.71z"/>
			</g>
		</g>
		<g>
			<g>
				<path class="st3" d="M326.93,687.96c-4.39-0.22-8.77-0.14-13.15,0.25c-1.59,0.14-1.6,2.64,0,2.5c4.38-0.39,8.76-0.48,13.15-0.25
					C328.53,690.55,328.53,688.05,326.93,687.96L326.93,687.96z"/>
			</g>
		</g>
		<g>
			<g>
				<path class="st3" d="M324.71,649.24c-0.42-5.22,0.8-10.34,0.79-15.55c0-1.61-2.5-1.61-2.5,0c0.01,5.21-1.21,10.33-0.79,15.55
					C322.34,650.83,324.84,650.84,324.71,649.24L324.71,649.24z"/>
			</g>
		</g>
		<g>
			<g>
				<path class="st3" d="M247.88,687.25c6.54,0.01,13.1,0.48,19.63,0.81c3.41,0.17,8.37,1.4,11.62,0.25
					c1.72-0.61,3.49-2.22,5.02-3.2c3.35-2.14,6.7-4.27,10.05-6.41c7.29-4.66,14.57-9.32,21.81-14.04c1.34-0.88,0.09-3.04-1.26-2.16
					c-6.9,4.5-13.83,8.94-20.77,13.38c-5.06,3.24-10.29,7.61-15.79,10.07c-0.95,0.42-0.01,0.15-0.12,0.17
					c-0.62,0.1-1.39-0.08-2.01-0.11c-3.03-0.16-6.05-0.32-9.08-0.47c-6.36-0.32-12.74-0.77-19.1-0.78
					C246.27,684.75,246.27,687.25,247.88,687.25L247.88,687.25z"/>
			</g>
		</g>
		<g>
			<g>
				<path class="st3" d="M303.97,663.38c3.79,0.04,7.55,0.34,11.29,0.93c1.57,0.25,2.25-2.16,0.66-2.41
					c-3.97-0.63-7.94-0.98-11.96-1.02C302.36,660.86,302.36,663.36,303.97,663.38L303.97,663.38z"/>
			</g>
		</g>
		<g>
			<g>
				<path class="st3" d="M264.25,672.87c1.49-1.61,3.18-2.95,5.09-4.02c1.4-0.79,0.14-2.95-1.26-2.16c-2.09,1.17-3.97,2.65-5.6,4.41
					C261.4,672.28,263.16,674.05,264.25,672.87L264.25,672.87z"/>
			</g>
		</g>
		<g>
			<g>
				<path class="st3" d="M280.41,652.23c1.01,4.29,1.81,8.61,2.38,12.97c0.2,1.57,2.71,1.59,2.5,0c-0.59-4.59-1.4-9.13-2.47-13.64
					C282.45,650,280.04,650.67,280.41,652.23L280.41,652.23z"/>
			</g>
		</g>
		<g>
			<g>
				<path class="st3" d="M282.17,653.32c14.05-6.49,28.09-12.98,42.14-19.48c1.46-0.67,0.19-2.83-1.26-2.16
					c-14.05,6.49-28.09,12.98-42.14,19.48C279.45,651.84,280.71,653.99,282.17,653.32L282.17,653.32z"/>
			</g>
		</g>
		<g>
			<g>
				<path class="st3" d="M236.36,649.34c14.69,1.37,29.39,3,44.11,3.99c1.61,0.11,1.6-2.39,0-2.5c-14.72-0.98-29.42-2.62-44.11-3.99
					C234.75,646.69,234.77,649.19,236.36,649.34L236.36,649.34z"/>
			</g>
		</g>
	</g>
</g>
</svg>
