<?xml version="1.0" encoding="utf-8"?>
<!-- Generator: Adobe Illustrator 23.0.2, SVG Export Plug-In . SVG Version: 6.00 Build 0)  -->
<svg version="1.1" xmlns="http://www.w3.org/2000/svg" xmlns:xlink="http://www.w3.org/1999/xlink" x="0px" y="0px"
	 viewBox="0 0 1080 1080" style="enable-background:new 0 0 1080 1080;" xml:space="preserve">
<style type="text/css">
	.st0{fill:#FFECDD;}
	.st1{fill:#0D4D90;}
	.st2{fill:#F8BAB4;}
	.st3{fill:#EC9A4A;}
</style>
<g id="bckgr">
	<g>
		<path class="st0" d="M446.82,803.95c44.38,22.91,68.69,48.79,1.39,90.18c-52.18,32.1-146.26,22.53-218.28-59.95
			c-117.76-134.87-98.95-312.06,15-331.5c100.37-17.13,146.53,84.41,129.1,145.61C353.49,720.39,387.97,773.56,446.82,803.95z"/>
	</g>
	<g>
		<g>
			<path class="st1" d="M677.45,311.74c2.69-1.22,5.4-3.71,6.56-6.45c-0.76-0.32-1.52-0.64-2.28-0.96c-0.6,3.57,2.12,6.4,5.38,7.31
				c-0.1-0.76-0.2-1.52-0.3-2.28c-3.69,2.05-4.29,4.97-5.49,8.71c0.8,0.22,1.61,0.44,2.41,0.66c0.81-4.42-2.52-8.59-7.09-8.48
				c-1.61,0.04-1.61,2.54,0,2.5c2.84-0.07,5.21,2.43,4.68,5.32c-0.29,1.57,1.91,2.22,2.41,0.66c0.99-3.08,1.22-5.48,4.35-7.22
				c0.95-0.53,0.72-2-0.3-2.28c-1.78-0.5-4-2.07-3.64-4.24c0.21-1.27-1.69-2.37-2.28-0.96c-1.02,2.41-3.3,4.49-5.66,5.56
				C674.73,310.25,676,312.41,677.45,311.74L677.45,311.74z"/>
		</g>
	</g>
	<g>
		<g>
			<path class="st1" d="M452.4,306.49c2.69-1.22,5.4-3.71,6.56-6.45c-0.76-0.32-1.52-0.64-2.28-0.96c-0.6,3.57,2.12,6.4,5.38,7.31
				c-0.1-0.76-0.2-1.52-0.3-2.28c-3.69,2.05-4.29,4.97-5.49,8.71c0.8,0.22,1.61,0.44,2.41,0.66c0.81-4.42-2.52-8.59-7.09-8.48
				c-1.61,0.04-1.61,2.54,0,2.5c2.84-0.07,5.21,2.43,4.68,5.32c-0.29,1.57,1.91,2.22,2.41,0.66c0.99-3.08,1.22-5.48,4.35-7.22
				c0.95-0.53,0.72-2-0.3-2.28c-1.78-0.5-4-2.07-3.64-4.24c0.21-1.27-1.69-2.37-2.28-0.96c-1.02,2.41-3.3,4.49-5.66,5.56
				C449.68,304.99,450.95,307.15,452.4,306.49L452.4,306.49z"/>
		</g>
	</g>
	<g>
		<g>
			<path class="st1" d="M741.77,201.38c2.69-1.22,5.4-3.71,6.56-6.45c-0.76-0.32-1.52-0.64-2.28-0.96c-0.6,3.57,2.12,6.4,5.38,7.31
				c-0.1-0.76-0.2-1.52-0.3-2.28c-3.69,2.05-4.29,4.97-5.49,8.71c0.8,0.22,1.61,0.44,2.41,0.66c0.81-4.42-2.52-8.59-7.09-8.48
				c-1.61,0.04-1.61,2.54,0,2.5c2.84-0.07,5.21,2.43,4.68,5.32c-0.29,1.57,1.91,2.22,2.41,0.66c0.99-3.08,1.22-5.48,4.35-7.22
				c0.95-0.53,0.72-2-0.3-2.28c-1.78-0.5-4-2.07-3.64-4.24c0.21-1.27-1.69-2.37-2.28-0.96c-1.02,2.41-3.3,4.49-5.66,5.56
				C739.05,199.88,740.32,202.04,741.77,201.38L741.77,201.38z"/>
		</g>
	</g>
</g>
<g id="chrctr">
	<g>
		<path class="st2" d="M574.96,350.66c0,0-0.56-0.42,9.89-0.7c10.44-0.28,19.58,2.59,19.58,2.59l-4.83-14.97l-2.5-16.31
			c0,0-5.51,8.69-10.29,14.28c-5.85,6.84-14.08,8.42-14.08,8.42L574.96,350.66z"/>
	</g>
	<g>
		<g>
			<g>
				<path class="st1" d="M531.86,607.48c22.41,7.78,44.42,16.62,66.69,24.76c1.51,0.55,2.17-1.86,0.66-2.41
					c-22.27-8.14-44.29-16.99-66.69-24.76C531,604.54,530.34,606.95,531.86,607.48L531.86,607.48z"/>
			</g>
		</g>
		<g>
			<g>
				<path class="st1" d="M599.91,631.5c22.76-15.1,47.18-28.16,71.63-40.3c1.44-0.72,0.18-2.87-1.26-2.16
					c-24.45,12.15-48.87,25.2-71.63,40.3C597.31,630.22,598.56,632.39,599.91,631.5L599.91,631.5z"/>
			</g>
		</g>
		<g>
			<g>
				<path class="st1" d="M529.35,585.98c14.4,5.9,28.99,11.3,43.68,16.43c6.66,2.32,13.44,4.4,20.06,6.84
					c9.15,3.37,11.85,13.02,5.5,20.68c-1.02,1.23,0.74,3.01,1.77,1.77c3.76-4.54,5.46-10.75,3.32-16.42
					c-2.68-7.08-10.21-8.46-16.6-10.66c-19.18-6.58-38.28-13.36-57.06-21.05C528.53,582.96,527.88,585.38,529.35,585.98
					L529.35,585.98z"/>
			</g>
		</g>
		<g>
			<g>
				<path class="st1" d="M600.51,611.14c22.69-12.32,45.6-24.3,67.43-38.11c1.36-0.86,0.1-3.02-1.26-2.16
					c-21.83,13.81-44.75,25.79-67.43,38.11C597.83,609.75,599.09,611.91,600.51,611.14L600.51,611.14z"/>
			</g>
		</g>
		<g>
			<g>
				<path class="st1" d="M529.64,584.64c3.61-2.17,7.21-4.37,10.82-6.54c1.38-0.83,0.12-2.99-1.26-2.16
					c-3.61,2.17-7.21,4.37-10.82,6.54C527,583.31,528.26,585.47,529.64,584.64L529.64,584.64z"/>
			</g>
		</g>
		<g>
			<g>
				<path class="st1" d="M531.6,588.3c1.62,5.72,2.09,11.27,1.9,17.19c-0.05,1.61,2.45,1.61,2.5,0c0.2-6.14-0.31-11.93-1.99-17.86
					C533.57,586.09,531.16,586.74,531.6,588.3L531.6,588.3z"/>
			</g>
		</g>
		<g>
			<g>
				<path class="st1" d="M532.61,575.2c22.58,7.22,44.93,15.11,67.36,22.76c0.62,0.21,1.4-0.24,1.54-0.87
					c1.45-6.47,0.86-13.37-1.31-19.61c-0.53-1.51-2.94-0.86-2.41,0.66c2.03,5.82,2.67,12.24,1.31,18.28
					c0.51-0.29,1.03-0.58,1.54-0.87c-22.43-7.65-44.78-15.54-67.36-22.76C531.74,572.29,531.09,574.71,532.61,575.2L532.61,575.2z"
					/>
			</g>
		</g>
		<g>
			<g>
				<path class="st1" d="M532.21,558.01c21.88,6.75,43.83,13.33,65.56,20.54c1.53,0.51,2.19-1.91,0.66-2.41
					c-21.73-7.2-43.69-13.78-65.56-20.54C531.34,555.12,530.68,557.53,532.21,558.01L532.21,558.01z"/>
			</g>
		</g>
		<g>
			<g>
				<path class="st1" d="M600.92,597.8c22.12-12.36,45.17-22.9,67.69-34.5c1.43-0.74,0.17-2.9-1.26-2.16
					c-22.51,11.6-45.57,22.14-67.69,34.5C598.25,596.43,599.51,598.59,600.92,597.8L600.92,597.8z"/>
			</g>
		</g>
		<g>
			<g>
				<path class="st1" d="M600.83,578.34c11.43-5.76,22.86-11.53,34.29-17.29c5.57-2.81,11.14-5.62,16.7-8.42
					c2.94-1.48,8.41-5.54,11.78-2.95c3.03,2.32,3.52,8.01,3.04,11.36c-0.23,1.57,2.18,2.25,2.41,0.66
					c0.73-5.04-0.31-11.63-4.79-14.86c-4.53-3.25-11.51,2.52-15.46,4.51c-16.41,8.27-32.82,16.55-49.24,24.82
					C598.13,576.9,599.39,579.06,600.83,578.34L600.83,578.34z"/>
			</g>
		</g>
		<g>
			<g>
				<path class="st1" d="M662.17,545.81c-21.58-5.6-42.87-13.02-63.95-20.25c-1.53-0.52-2.18,1.89-0.66,2.41
					c21.08,7.23,42.37,14.65,63.95,20.25C663.07,548.62,663.73,546.21,662.17,545.81L662.17,545.81z"/>
			</g>
		</g>
		<g>
			<g>
				<path class="st1" d="M533.51,557.78c8.13-4.81,17.32-8.25,25.92-12.09c13.02-5.83,26.08-11.58,39.08-17.46
					c1.46-0.66,0.19-2.82-1.26-2.16c-13,5.88-26.06,11.63-39.08,17.46c-8.6,3.85-17.79,7.29-25.92,12.09
					C530.87,556.44,532.13,558.6,533.51,557.78L533.51,557.78z"/>
			</g>
		</g>
		<g>
			<g>
				<path class="st1" d="M668.97,573.04c1.11-0.49,3.47,7.09,3.64,7.89c0.31,1.46,1.02,7.96-2.14,7.7c0.11,0.82,0.22,1.64,0.33,2.46
					c0.15-0.05,0.3-0.1,0.44-0.15c1.5-0.55,0.85-2.97-0.66-2.41c-0.15,0.06-0.29,0.11-0.44,0.15c-1.37,0.45-1.07,2.34,0.33,2.46
					c4.35,0.35,5.31-6.31,4.84-9.25c-0.47-2.95-2.88-13.08-7.61-11C666.24,571.52,667.51,573.68,668.97,573.04L668.97,573.04z"/>
			</g>
		</g>
		<g>
			<g>
				<path class="st1" d="M658.79,567.85c1.42,0.74,3.06,0.95,4.58,1.42c1.98,0.61,3.89,1.36,5.76,2.24
					c1.45,0.68,2.72-1.48,1.26-2.16c-1.63-0.76-3.28-1.46-4.98-2.04c-1.71-0.59-3.76-0.78-5.36-1.61
					C658.63,564.95,657.37,567.1,658.79,567.85L658.79,567.85z"/>
			</g>
		</g>
		<g>
			<g>
				<path class="st1" d="M534.58,558.79c0.03,5.28,0.39,10.56,0.64,15.84c0.08,1.6,2.58,1.61,2.5,0
					c-0.25-5.27-0.61-10.56-0.64-15.84C537.07,557.19,534.57,557.18,534.58,558.79L534.58,558.79z"/>
			</g>
		</g>
	</g>
	<g>
		<path class="st3" d="M577.37,360.09c0,0-20.24,0.79-34.97,2.63c-14.72,1.84-25.76,6.05-25.76,6.05l0.79,101.48l43.38,11.57
			c0,0,25.76-25.5,37.59-26.82c11.83-1.31,18.93-1.31,18.93-1.31s5.78,7.36,8.15,12.09c2.37,4.73,2.63,8.41,2.63,8.41l-11.04,12.88
			c0,0,0,8.15,8.41,10.25s22.61-1.31,22.61-1.31s4.28,10.24,16.71,15.42c25.13,10.45,69.33-4.8,77.88-38.53
			c8.45-33.34-33.34-65.74-39.38-70.74s-40.75-29.18-70.46-37.33s-26.29-5.78-26.29-5.78s-4.73,6.57-13.14,5.26
			S577.37,360.09,577.37,360.09z"/>
	</g>
	<g>
		<path class="st2" d="M472.42,633.35l-69.08,196.97c0,0,20.99,10.5,27.12,18.81c6.12,8.31,13.12,15.31,13.12,15.31l13.12-29.3
			l101.9-88.35l10.5-80.04L472.42,633.35z"/>
	</g>
	<g>
		<path class="st2" d="M601.26,719.55L638.31,690c0,0-32.36-13.13-32.36-11.26C605.95,680.62,601.26,719.55,601.26,719.55z"/>
	</g>
	<g>
		<g>
			<path class="st1" d="M536.33,278.49c-2.68,24.03,12.42,49.26,30.39,64.26c6.79,5.67,15.98-0.65,21.13-5.88
				c7.37-7.47,12.35-17.48,15.17-27.51c0.44-1.55-1.98-2.21-2.41-0.66c-2.47,8.81-6.66,17.49-12.69,24.43
				c-2.96,3.4-6.45,6.48-10.65,8.22c-3.14,1.3-5.78,1.73-8.78-0.36c-2.03-1.42-3.86-3.62-5.58-5.41
				c-14.45-15.03-26.48-35.54-24.08-57.09C539.01,276.89,536.51,276.9,536.33,278.49L536.33,278.49z"/>
		</g>
	</g>
	<g>
		<g>
			<path class="st1" d="M596.45,320.02c-0.28,6.45,1.7,13.09,3.41,19.24c1.86,6.7,4.06,13.29,6.17,19.92
				c0.48,1.53,2.9,0.88,2.41-0.66c-1.97-6.2-4.02-12.36-5.8-18.62c-1.8-6.34-3.97-13.21-3.69-19.87
				C599.02,318.41,596.52,318.41,596.45,320.02L596.45,320.02z"/>
		</g>
	</g>
	<g>
		<g>
			<path class="st1" d="M570.87,287.01c0.48,2.08,1.07,4.8,2.73,6.29c1.19,1.07,2.97-0.69,1.77-1.77c-1.31-1.18-1.71-3.55-2.09-5.19
				C572.92,284.78,570.51,285.44,570.87,287.01L570.87,287.01z"/>
		</g>
	</g>
	<g>
		<g>
			<path class="st1" d="M548.93,291.77c0.14,2.55,1.26,4.84,2.83,6.81c1,1.26,2.76-0.52,1.77-1.77c-1.13-1.42-2-3.2-2.09-5.04
				C551.35,290.17,548.84,290.16,548.93,291.77L548.93,291.77z"/>
		</g>
	</g>
	<g>
		<g>
			<path class="st1" d="M567.43,325.62c4.25,0.83,8.51-1.01,10.73-4.76c0.82-1.39-1.34-2.65-2.16-1.26
				c-1.62,2.74-4.76,4.22-7.91,3.61C566.52,322.9,565.85,325.31,567.43,325.62L567.43,325.62z"/>
		</g>
	</g>
	<g>
		<g>
			<path class="st1" d="M557.77,255.44c0.93,9.32,5.58,17.69,12.91,23.53c3.45,2.75,7.42,4.86,11.67,6.09
				c4.7,1.37,14.79-0.39,17.75,3.82c1.39,1.98,0.86,5.53,0.87,7.84c0.02,3.47-0.33,6.99-0.13,10.46c0.24,4.39,2.13,7.83,4.83,11.23
				c3.95,4.96,7.38,9.2,9,15.52c1.82,7.11,1.33,14.38-0.99,21.29c-0.49,1.46,1.49,1.99,2.28,0.96c8.28-10.75,7.24-25.4,3.13-37.61
				c-0.51-1.52-2.93-0.87-2.41,0.66c3.92,11.65,5.03,25.42-2.88,35.69c0.76,0.32,1.52,0.64,2.28,0.96
				c3.43-10.19,3.09-22.41-2.73-31.73c-2.97-4.76-8.16-8.48-9.61-14.08c-1.53-5.88,0.32-12.41-0.39-18.43
				c-1.21-10.37-13.08-6.87-20.34-8.99c-12.19-3.55-21.48-14.59-22.74-27.21C560.11,253.86,557.61,253.84,557.77,255.44
				L557.77,255.44z"/>
		</g>
	</g>
	<g>
		<g>
			<path class="st1" d="M619.19,318.59c-2.51-10.3,6.82-21.85,11.8-30.08c5.37-8.88,9.58-16.85,9.32-27.45
				c-0.3-12.41-4.03-25.01-11.83-34.8c-5.91-7.42-17.22-14.21-26.89-14.32c-1.61-0.02-1.61,2.48,0,2.5
				c11.34,0.12,22.94,9.23,28.49,18.53c6.21,10.41,10.16,25.78,6.93,37.79c-2.58,9.58-9.35,17.97-14.18,26.49
				c-3.68,6.49-7.93,14.31-6.06,22C617.16,320.82,619.57,320.15,619.19,318.59L619.19,318.59z"/>
		</g>
	</g>
	<g>
		<g>
			<path class="st1" d="M545.75,313.61c-10.37-1.33-9.6-11.94-14.53-19.06c-2.62-3.78-6.46-6.33-8.44-10.59
				c-2.22-4.78-2.61-10.28-2.26-15.47c0.7-10.25,4.59-20.64,11.27-28.49c5.95-6.99,14.03-11.52,22.04-15.73
				c1.42-0.75,0.16-2.91-1.26-2.16c-9.1,4.78-18.04,10.05-24.36,18.38c-6.55,8.64-10.19,19.86-10.29,30.69
				c-0.05,4.78,0.64,9.7,2.71,14.05c2.56,5.38,7.78,8.59,10.41,13.95c1.94,3.94,2.54,8.74,5.19,12.31c2.33,3.15,5.78,4.14,9.52,4.62
				C547.34,316.32,547.33,313.82,545.75,313.61L545.75,313.61z"/>
		</g>
	</g>
	<g>
		<g>
			<path class="st1" d="M553.86,221.92c-5.37-3.68-11.21-7.49-12.4-14.4c-1.06-6.15,1.47-12.25,5.32-16.98
				c7.1-8.71,18.46-13.88,29.39-15.56c10.19-1.57,23.24-2.21,29.2,7.92c2.55,4.33,4.12,8.87,3.73,13.98
				c-0.46,6.05-4.27,10.6-8.5,14.6c-1.17,1.11,0.6,2.87,1.77,1.77c9.03-8.54,12.08-19.2,5.79-30.5
				c-6.44-11.56-19.23-12.03-31.15-10.39c-13.45,1.84-28.2,8.65-35.11,20.93c-2.84,5.04-4.12,11.05-2.46,16.7
				c1.94,6.57,7.8,10.42,13.16,14.09C553.93,224.99,555.18,222.83,553.86,221.92L553.86,221.92z"/>
		</g>
	</g>
	<g>
		<g>
			<path class="st1" d="M627.24,473.13c-4.98,3.77-8.66,8.6-12.39,13.55c-5.09,6.75-10.38,13.35-15.89,19.76
				c-2.39,2.78-4.82,5.53-7.29,8.24c-2.39,2.63-5.7,7.62-8.79,9.35c-0.43,0.44-0.85,0.87-1.28,1.31c-1.99-0.45-2.37-1.66-1.16-3.6
				c0.56-1.96,1.68-3.98,2.54-5.84c1.74-3.77,3.49-7.54,5.23-11.32c0.56-1.22-0.91-2.6-1.96-1.51
				c-7.57,7.76-13.78,18.24-22.92,24.27c-1.88,1.24-4.51,3.07-3.84-0.5c0.51-2.73,2.91-5.65,4.41-7.86
				c4.52-6.67,9.36-13.1,14.45-19.33c1.03-1.26-0.5-2.75-1.77-1.77c-4.82,3.75-9.64,7.49-14.28,11.46
				c-2.08,1.78-4.13,3.61-6.12,5.49c-1.11,1.05-2.2,2.11-3.27,3.19c-1.71,1.74-1.74,3.15-4.23,1.55c-2.4-1.53-1.38-1.64,0.1-3.79
				c0.71-1.02,1.42-2.04,2.15-3.05c2.11-2.95,4.27-5.86,6.5-8.72c3.82-4.91,7.84-9.66,11.99-14.3c1.08-1.21-0.56-2.83-1.77-1.77
				c-4.13,3.61-8.26,7.22-12.39,10.82c-1.94,1.7-3.89,3.4-5.83,5.09c-1.11,0.97-2.39,2.48-3.64,3.18c-0.49,0.42-0.97,0.85-1.46,1.27
				c-1.33-0.83-2.66-1.65-3.99-2.48c-0.49-1.6,4.26-6.32,5.13-7.35c1.71-2.03,3.5-3.99,5.34-5.9c3.5-3.61,7.2-7.02,11-10.31
				c7.77-6.73,15.76-13.35,23.93-19.58c8.7-6.64,21.04-9.07,31.81-7.57c1.57,0.22,2.25-2.19,0.66-2.41c-11.62-1.62-24.58,0.83-34,8
				c-11.48,8.74-23.07,18.03-33.31,28.22c-3,2.99-20.15,18.5-10.49,22.81c3.8,1.7,7.7-3.42,10.05-5.47
				c6.32-5.52,12.63-11.04,18.95-16.55c-0.59-0.59-1.18-1.18-1.77-1.77c-5.88,6.57-11.46,13.39-16.69,20.5
				c-2.31,3.14-10.48,11.17-6.18,15.56c4.08,4.16,9.45-3.82,11.85-6.15c6.78-6.6,14.26-12.41,21.72-18.21
				c-0.59-0.59-1.18-1.18-1.77-1.77c-2.52,3.09-26.65,32.16-17.7,33.71c4.56,0.79,10.06-5.54,12.7-8.31
				c5.7-5.95,10.68-12.55,16.43-18.45c-0.65-0.5-1.31-1.01-1.96-1.51c-2.12,4.58-4.27,9.15-6.35,13.74
				c-1.25,2.74-2.79,5.86-2.03,8.96c1.8,7.39,9.69-3.01,11.42-4.86c6.91-7.35,13.54-14.97,19.86-22.83
				c6.23-7.75,11.57-16.99,19.57-23.04C629.77,474.33,628.53,472.16,627.24,473.13L627.24,473.13z"/>
		</g>
	</g>
	<g>
		<g>
			<path class="st1" d="M607.24,360.38c41.88,7.9,81.23,25.73,110.55,57.27c6.16,6.62,11.81,13.7,16.98,21.12
				c5.72,8.21,7.46,16.72,6.85,26.72c-0.66,10.89-4.28,18.98-11.27,27.25c-5.76,6.81-12.56,12.56-20.95,15.81
				c-19.99,7.74-46.75,8.42-59.18-11.97c-0.84-1.37-3-0.12-2.16,1.26c11.37,18.66,31.74,19.93,51.25,16.11
				c8.64-1.69,16.75-4.87,23.67-10.39c7.2-5.75,14.84-14,18.13-22.73c3.36-8.91,3.97-19.39,2.34-28.72
				c-1.63-9.32-7.66-16.58-13.36-23.86c-12.74-16.29-28.1-30.43-45.58-41.5c-23.28-14.75-49.63-23.69-76.61-28.78
				C606.33,357.67,605.66,360.08,607.24,360.38L607.24,360.38z"/>
		</g>
	</g>
	<g>
		<g>
			<path class="st1" d="M657.09,490.7c-7.35,4.19-15.26,6.27-23.71,6.26c0.42,0.42,0.83,0.83,1.25,1.25
				c-0.19-16.77-5.71-32.8-15.97-46.08c-0.25,0.61-0.5,1.22-0.75,1.84c5.53-2.28,11.79-4.1,17.82-3.47
				c6.45,0.67,11.02,5.32,14.43,10.49c6.25,9.47,8.55,19.37,6.48,30.56c-0.29,1.57,2.12,2.25,2.41,0.66
				c2.37-12.79-0.57-24.56-8.46-34.96c-3.19-4.21-7.42-7.89-12.71-9.02c-6.74-1.44-14.47,0.79-20.64,3.33
				c-0.65,0.27-1.3,1.12-0.75,1.84c9.99,12.94,15.44,28.46,15.63,44.82c0.01,0.68,0.57,1.25,1.25,1.25c8.87,0,17.27-2.22,24.98-6.61
				C659.75,492.06,658.49,489.9,657.09,490.7L657.09,490.7z"/>
		</g>
	</g>
	<g>
		<g>
			<path class="st1" d="M643.69,447.86c16.62-14.02,39.83-18.16,60.32-10.96c1.52,0.53,2.17-1.88,0.66-2.41
				c-21.36-7.51-45.47-2.98-62.75,11.6C640.69,447.13,642.47,448.89,643.69,447.86L643.69,447.86z"/>
		</g>
	</g>
	<g>
		<g>
			<path class="st1" d="M516.5,379.41c0.09,61.08-0.77,122.19-4.65,183.15c-0.1,1.5,0.25,4.61-0.39,5.96
				c-0.93,1.95,1.48,0.17,0.03,0.83c-0.43,0.2-1.39-0.04-1.85-0.08c-2.27-0.17-4.53-0.62-6.76-1.06
				c-6.35-1.26-12.63-2.87-18.89-4.52c-16.68-4.4-33.22-9.3-49.77-14.17c-13.33-3.92-26.69-8.46-40.3-11.29
				c-1.57-0.33-2.24,2.08-0.66,2.41c15.41,3.21,30.53,8.42,45.61,12.85c18.95,5.56,37.92,11.33,57.17,15.79
				c5.19,1.2,11.47,3.27,16.88,2.43c0.56-0.09,0.88-0.7,0.92-1.21c4.3-63.61,5.27-127.37,5.18-191.11
				C519,377.8,516.5,377.8,516.5,379.41L516.5,379.41z"/>
		</g>
	</g>
	<g>
		<g>
			<path class="st1" d="M271.42,409.19c1.18-19.17,2.21-38.35,3.55-57.51c0.63-9.04,1.32-18.07,2.19-27.08
				c0.36-3.77,0.74-7.54,1.22-11.3c0.33-2.65,0.86-4.63,4-5.16c0.21-0.03,0.43,0.08,0.64,0.07c4.19-0.27,9.49,1.74,13.55,2.59
				c8.38,1.74,16.73,3.59,25.08,5.46c47.66,10.66,95.23,21.96,142.43,34.54c10.63,2.83,21.24,5.73,31.76,8.92
				c3.82,1.16,7.64,2.35,11.41,3.65c1.45,0.5,3.05,0.91,4.42,1.6c4.75,2.42,4.5,9.6,4.88,14.24c0.13,1.59,2.63,1.61,2.5,0
				c-0.46-5.67-0.3-13.85-6.33-16.5c-2.73-1.2-5.66-2.06-8.49-2.98c-8.76-2.85-17.63-5.36-26.5-7.81
				c-25-6.9-50.17-13.18-75.37-19.32c-25.19-6.14-50.44-12.08-75.73-17.78c-14.11-3.18-28.46-7.2-42.84-9
				c-4.27-0.53-6.81,0.54-7.6,5.07c-1.68,9.67-2.12,19.72-2.88,29.5c-1.78,22.92-2.98,45.87-4.38,68.82
				C268.82,410.8,271.32,410.79,271.42,409.19L271.42,409.19z"/>
		</g>
	</g>
	<g>
		<g>
			<path class="st1" d="M403.73,456.49c-4.6,35.16-9.22,70.33-16.21,105.11c-0.22,1.11,0.83,1.89,1.84,1.41
				c9.24-4.36,16.84-11.53,25.56-16.77c1.38-0.83,0.12-2.99-1.26-2.16c-8.72,5.23-16.32,12.4-25.56,16.77
				c0.61,0.47,1.22,0.94,1.84,1.41c7.04-35,11.67-70.39,16.3-105.77C406.44,454.9,403.94,454.91,403.73,456.49L403.73,456.49z"/>
		</g>
	</g>
	<g>
		<g>
			<path class="st1" d="M405.47,454.54c-16.34-3.67-32.52-8-48.69-12.33c-0.65-0.17-1.36,0.22-1.54,0.87
				c-7.87,29.04-15.74,58.09-23.61,87.13c-0.91,3.35-3.83,8.99-1.15,12.16c1.28,1.52,3.41,1.96,5.2,2.59
				c3.66,1.29,7.34,2.52,11.01,3.77c13.86,4.72,27.75,9.38,41.59,14.16c1.52,0.53,2.18-1.89,0.66-2.41
				c-12.05-4.15-24.12-8.22-36.18-12.32c-3.02-1.02-6.03-2.05-9.05-3.08c-2.25-0.77-7.48-1.55-9.25-3.17
				c-3.61-3.3-1.23-8.11-0.17-11.99c0.86-3.19,1.73-6.38,2.59-9.58c6.92-25.53,13.84-51.07,20.76-76.6
				c-0.51,0.29-1.03,0.58-1.54,0.87c16.17,4.33,32.35,8.65,48.69,12.33C406.37,457.3,407.04,454.89,405.47,454.54L405.47,454.54z"/>
		</g>
	</g>
	<g>
		<g>
			<path class="st1" d="M403.09,394.39c-2.41-1.24-3.79-2.67-4.35-5.35c-0.71-3.38-1.05-11.01,2.47-12.76
				c1.08-0.53,0.59-1.91-0.3-2.28c-4.51-1.89-9.01-1.56-13.26,0.83c0.57,0.15,1.14,0.3,1.71,0.45c-4.01-8.67-14.66-4.68-17.91,2.38
				c-3.15,6.84-3.7,21.53,4.82,24.99c3.01,1.22,5.45,0.64,8.07-0.99c2.41-1.49,2.51-1.31,3.91,1.36c0.69,1.31,1.11,2.46,2.45,3.29
				c6.9,4.27,13.19-4.91,13.24-10.75c0.02-1.61-2.48-1.61-2.5,0c-0.03,3.13-1.84,8.23-5.62,8.75c-4.04,0.56-4.76-1.7-6.29-4.32
				c-1.11-1.92-2.49-3.54-4.8-2.75c-0.48,0.16-0.7,0.75-1.08,1.04c-2.48,1.93-3.96,3.65-7.23,1.71c-3.65-2.17-4.22-7.02-4.29-10.84
				c-0.08-3.87,0.14-8.1,2.13-11.53c2.75-4.73,10.02-7.35,12.93-1.06c0.29,0.62,1.17,0.75,1.71,0.45c3.68-2.06,7.46-2.2,11.34-0.58
				c-0.1-0.76-0.2-1.52-0.3-2.28c-4.64,2.3-4.36,9.86-3.82,14.21c0.48,3.87,2.23,6.44,5.7,8.21
				C403.26,397.28,404.53,395.12,403.09,394.39L403.09,394.39z"/>
		</g>
	</g>
	<g>
		<g>
			<path class="st1" d="M391.29,369.32c0.05-4.76,4.94-8.43,9.29-5.92c-0.08-0.65-0.17-1.31-0.25-1.96
				c-0.77,0.7-1.42,1.43-1.88,2.36c-0.42,0.85-0.54,1.86-1.06,2.66c-1.56,2.4-4.37,2.81-6.82,1.86c-1.5-0.58-2.15,1.84-0.66,2.41
				c2.8,1.08,5.06,0.8,7.5-0.96c1.01-0.73,1.87-1.43,2.42-2.57c0.73-1.52,0.93-2.79,2.27-4c0.6-0.54,0.42-1.58-0.25-1.96
				c-6-3.46-12.99,1.4-13.05,8.08C388.77,370.93,391.27,370.93,391.29,369.32L391.29,369.32z"/>
		</g>
	</g>
	<g>
		<g>
			<path class="st1" d="M180.25,515.72c55.02,19.99,110.53,38.61,166.08,57.04c60.87,20.19,121.88,39.96,182.96,59.51
				c44.28,14.18,88.59,28.24,132.95,42.19c9.07,2.85,18.14,6.19,27.34,8.57c1.84,0.48,2.3,0.3,3.95-0.82
				c5.43-3.65,10.78-7.44,16.17-11.15c49.91-34.34,99.92-68.58,150.57-101.84c5.76-3.78,11.53-7.54,17.32-11.28
				c-0.57-0.15-1.14-0.3-1.71-0.45c0.68,1.59,0.18,5.86,0.24,7.92c0.09,3.33-0.61,7.74,0.24,10.96c0.33,1.27-0.7,1.61,0.61,0.3
				c-0.11,0.11-0.29,0.22-0.42,0.31c-0.88,0.57-1.72,1.24-2.57,1.85c-8.9,6.41-17.81,12.81-26.73,19.2
				c-32.89,23.55-65.87,46.98-99.07,70.1c-18.16,12.65-36.37,25.22-54.81,37.46c0.63,0.36,1.25,0.72,1.88,1.08
				c-1.01-8.31-2.03-16.61-3.04-24.92c-0.19-1.58-2.69-1.6-2.5,0c1.01,8.31,2.03,16.61,3.04,24.92c0.11,0.86,1.01,1.66,1.88,1.08
				c35.45-23.53,70.22-48.11,104.94-72.7c25.39-17.98,50.71-36.07,75.95-54.26c2.03-1.46,3.26-1.84,3.34-4.42
				c0.13-3.95-0.15-7.97-0.26-11.92c-0.07-2.45,0.44-5.91-0.55-8.23c-0.26-0.6-1.2-0.78-1.71-0.45
				c-52.01,33.55-103.06,68.61-154.09,103.63c-7.89,5.41-15.77,10.83-23.64,16.26c-2.09,1.44-4.34,2.78-6.33,4.37
				c-1.09,0.87-2.14,0.85-0.73,0.97c-1.88-0.16-4.06-1.27-5.85-1.83c-4.76-1.49-9.51-2.98-14.27-4.47
				c-41.3-12.96-82.56-26.04-123.79-39.21c-59.74-19.08-119.42-38.36-178.97-58c-57.01-18.8-113.96-37.82-170.5-58
				c-5.76-2.05-11.51-4.13-17.26-6.21C179.4,512.76,178.75,515.17,180.25,515.72L180.25,515.72z"/>
		</g>
	</g>
	<g>
		<g>
			<path class="st1" d="M577.37,359.09c-9.23,0.06-18.49,0.91-27.66,1.89c-10.27,1.1-20.38,3.96-30.5,5.95
				c-1.58,0.31-0.91,2.72,0.66,2.41c10.19-2,20.37-4.88,30.7-5.95c8.89-0.92,17.86-1.74,26.8-1.8
				C578.98,361.58,578.98,359.08,577.37,359.09L577.37,359.09z"/>
		</g>
	</g>
	<g>
		<g>
			<path class="st1" d="M703.63,513.53c56.94,15.59,113.75,31.79,171.4,44.61c1.57,0.35,2.24-2.06,0.66-2.41
				c-57.65-12.82-114.46-29.02-171.4-44.61C702.74,510.69,702.07,513.11,703.63,513.53L703.63,513.53z"/>
		</g>
	</g>
	<g>
		<g>
			<path class="st1" d="M470.76,633.21c-18.09,67.51-48.17,131.07-67.89,198.06c-0.46,1.55,1.96,2.21,2.41,0.66
				c19.72-67,49.8-130.55,67.89-198.06C473.59,632.32,471.18,631.66,470.76,633.21L470.76,633.21z"/>
		</g>
	</g>
	<g>
		<g>
			<path class="st1" d="M542.49,656.95c-14.97,24.8-27.91,50.85-40.59,76.88c-14.49,29.74-28.35,59.79-41.77,90.03
				c-6.01,13.54-11.92,27.12-17.66,40.77c-0.62,1.48,1.8,2.13,2.41,0.66c23.93-56.86,49.67-113.21,78.12-167.96
				c6.87-13.23,13.94-26.36,21.65-39.13C545.48,656.83,543.32,655.57,542.49,656.95L542.49,656.95z"/>
		</g>
	</g>
	<g>
		<g>
			<path class="st1" d="M403.45,832.84c14.07,7.57,31.21,17.06,38.39,32.05c0.69,1.45,2.85,0.18,2.16-1.26
				c-7.36-15.36-24.89-25.2-39.29-32.94C403.29,829.92,402.03,832.08,403.45,832.84L403.45,832.84z"/>
		</g>
	</g>
	<g>
		<g>
			<path class="st1" d="M406.63,834.12c-0.97-1.51-1.55-1.84-1.75-1c-0.09,0.22-0.18,0.43-0.29,0.65c-0.27,0.32-0.51,0.99-0.7,1.36
				c-0.77,1.44-1.59,2.86-2.42,4.26c-1.82,3.1-3.71,6.16-5.7,9.16c-0.89,1.34,1.27,2.6,2.16,1.26c2.34-3.52,4.56-7.14,6.66-10.81
				c0.91-1.58,3.14-4.34,2.78-6.32c-0.08-0.43-0.48-0.75-0.87-0.87c-0.41-0.13-0.76-0.02-1.13,0.16
				C403.92,832.66,405.19,834.82,406.63,834.12L406.63,834.12z"/>
		</g>
	</g>
	<g>
		<g>
			<path class="st1" d="M420.85,870.09c-3.18-2.73-6.64-4.91-10.82-5.68c-2.42-0.45-6.75,0.6-7.25-2.09
				c-0.35-1.87,0.37-3.91-0.16-5.89c-0.36-1.36-0.98-2.61-1.8-3.75c-1.73-2.39-4.29-3.87-6.92-5.09c-1.45-0.67-2.72,1.48-1.26,2.16
				c3.79,1.76,7.06,4.02,7.72,8.45c0.32,2.13-1.09,5.42,0.55,7.24c1.01,1.12,2.71,1.01,4.07,1.07c5.57,0.28,9.75,1.61,14.1,5.34
				C420.3,872.9,422.07,871.14,420.85,870.09L420.85,870.09z"/>
		</g>
	</g>
	<g>
		<g>
			<path class="st1" d="M419.26,870.98c-8.5,10.22-15.65,21.51-24.42,31.51c-1.06,1.21,0.7,2.98,1.77,1.77
				c8.77-10,15.92-21.29,24.42-31.51C422.05,871.52,420.29,869.74,419.26,870.98L419.26,870.98z"/>
		</g>
	</g>
	<g>
		<g>
			<path class="st1" d="M392.05,847.63c-2.04,2.47-4.1,4.92-6.15,7.38c-1.55,1.86-2.07,3.09-4.6,3.25c-2.92,0.19-5.74-2.3-8.19-3.77
				c-8.13-4.85-16.61-8.71-25.57-11.77c-7.75-2.65-16.32-4.79-24.53-3.18c-4.04,0.79-9.39,2.06-9.18,6.99
				c0.2,4.55,3.62,9.25,6.08,12.84c3.89,5.67,8.36,10.98,13.03,16.02c8.57,9.25,18.09,18.62,28.01,26.41
				c10.92,8.58,24.42,13.74,35.56,2.66c1.14-1.14-0.63-2.9-1.77-1.77c-11.1,11.04-24.38,3.82-34.48-4.65
				c-8.14-6.83-16.04-14.49-23.41-22.15c-4.51-4.69-8.8-9.62-12.68-14.85c-2.86-3.85-6.49-8.47-7.58-13.25
				c-1.76-7.74,14.39-6.49,18.98-5.7c7.66,1.31,14.98,4.24,22.12,7.21c5.23,2.17,10.09,4.91,14.94,7.82
				c2.64,1.58,6.32,5.01,9.7,4.41c2.2-0.4,3.63-2.72,4.95-4.3c2.17-2.61,4.36-5.21,6.53-7.83
				C394.84,848.17,393.08,846.39,392.05,847.63L392.05,847.63z"/>
		</g>
	</g>
	<g>
		<g>
			<path class="st1" d="M317.84,844.48c3.02-1.07,8.42,3.04,10.79,4.48c6.43,3.9,12.51,8.38,18.44,12.99
				c12.58,9.77,25.1,20.3,35.54,32.38c1.31,1.52,8.88,9.47,6.68,11.94c-1.07,1.2,0.7,2.97,1.77,1.77c2.55-2.87-0.45-7.26-2.16-9.74
				c-4.26-6.2-9.77-11.6-15.19-16.77c-13.04-12.46-27.28-24.39-42.6-33.96c-3.22-2.01-9.73-6.98-13.94-5.49
				C315.67,842.6,316.32,845.02,317.84,844.48L317.84,844.48z"/>
		</g>
	</g>
	<g>
		<g>
			<path class="st1" d="M557.6,746.39c-27.38,24.63-55.08,48.96-83.05,72.92c-6.19,5.3-12.38,10.61-18.75,15.7
				c-1.26,1,0.52,2.76,1.77,1.77c29.46-23.49,57.36-49.14,85.54-74.13c5.43-4.81,10.86-9.63,16.26-14.48
				C560.56,747.08,558.79,745.31,557.6,746.39L557.6,746.39z"/>
		</g>
	</g>
	<g>
		<g>
			<path class="st1" d="M411.51,802.93c-13.27,10.59-24.06,24.09-36.74,35.35c-1.21,1.07,0.57,2.83,1.77,1.77
				c12.68-11.26,23.47-24.76,36.74-35.35C414.53,803.7,412.76,801.94,411.51,802.93L411.51,802.93z"/>
		</g>
	</g>
	<g>
		<g>
			<path class="st1" d="M383.79,832.29c4.84,4.09,8.37,10.9,9.84,16.99c0.38,1.56,2.79,0.9,2.41-0.66
				c-1.57-6.51-5.32-13.73-10.48-18.1C384.34,829.49,382.56,831.25,383.79,832.29L383.79,832.29z"/>
		</g>
	</g>
	<g>
		<g>
			<path class="st1" d="M286.62,719.87c35.18-20.34,70.89-39.75,106.46-59.39c3.47-1.92,7.5-3.59,10.7-5.96
				c1.28-0.95,0.03-3.12-1.26-2.16c-2.55,1.89-5.76,3.23-8.53,4.76c-7.11,3.93-14.23,7.85-21.34,11.78
				c-19.42,10.71-38.82,21.45-58.17,32.29c-9.73,5.46-19.45,10.93-29.11,16.52C283.96,718.52,285.22,720.68,286.62,719.87
				L286.62,719.87z"/>
		</g>
	</g>
	<g>
		<g>
			<path class="st1" d="M373.8,600.99c5.09,12.88,12.73,25.11,19.27,37.28c9.12,16.96,18.35,33.86,27.58,50.75
				c1.55,2.84,3.1,5.67,4.65,8.51c0.4,0.74,1.74,3.19,1.71,3.11c0.4-0.53,0.8-1.05,1.21-1.58c-5.4-0.31-12.18-3.21-17.71-4.7
				c-1.55-0.42-2.22,1.99-0.66,2.41c5.82,1.57,12.35,4.44,18.37,4.79c0.79,0.05,1.45-0.84,1.21-1.58c-0.97-3.01-3.2-5.97-4.7-8.72
				c-3.93-7.19-7.86-14.38-11.78-21.58c-9.52-17.47-19.05-34.94-28.3-52.55c-2.89-5.5-6.14-11.02-8.43-16.81
				C375.63,598.85,373.21,599.49,373.8,600.99L373.8,600.99z"/>
		</g>
	</g>
	<g>
		<g>
			<path class="st1" d="M294.59,654.79c28.65-13.7,56.42-29.17,85.07-42.88c1.45-0.69,0.18-2.85-1.26-2.16
				c-28.65,13.7-56.42,29.17-85.07,42.88C291.87,653.33,293.14,655.49,294.59,654.79L294.59,654.79z"/>
		</g>
	</g>
	<g>
		<g>
			<path class="st1" d="M300.95,577.06c-6.67,55.77-13.34,111.53-20.01,167.3c-2.26,18.9-4.52,37.8-6.78,56.7
				c-0.19,1.59,2.31,1.58,2.5,0c8.13-68.07,16.28-136.14,24.42-204.21c0.79-6.59,1.58-13.19,2.37-19.78
				C303.64,575.47,301.14,575.48,300.95,577.06L300.95,577.06z"/>
		</g>
	</g>
	<g>
		<g>
			<path class="st1" d="M263.53,565.76c-3.24,26.7-6.48,53.39-9.72,80.09c-5.17,42.57-10.34,85.14-15.5,127.72
				c-1.19,9.8-2.38,19.6-3.57,29.4c-0.19,1.59,2.31,1.58,2.5,0c3.24-26.7,6.48-53.39,9.72-80.09c5.17-42.57,10.34-85.14,15.5-127.72
				c1.19-9.8,2.38-19.6,3.57-29.4C266.23,564.17,263.73,564.18,263.53,565.76L263.53,565.76z"/>
		</g>
	</g>
	<g>
		<g>
			<path class="st1" d="M281.45,571.24c-3.44,27.59-6.88,55.17-10.33,82.76c-5.52,44.24-11.05,88.49-16.59,132.73
				c-1.27,10.11-2.22,21.9-3.94,31.26c-0.24,1.28,1.1,2,2.09,1.22c7.63-6.04,15.83-11.31,23.46-17.34c1.26-1-0.52-2.76-1.77-1.77
				c-7.63,6.04-15.83,11.31-23.46,17.34c0.7,0.41,1.39,0.81,2.09,1.22c1.5-8.13,2.1-16.52,3.13-24.71
				c2.47-19.66,4.92-39.31,7.38-58.97c5.55-44.42,11.1-88.84,16.64-133.25c1.27-10.16,2.54-20.32,3.8-30.48
				C284.15,569.65,281.65,569.67,281.45,571.24L281.45,571.24z"/>
		</g>
	</g>
	<g>
		<g>
			<path class="st1" d="M238.73,492.92c1.82,4.93,6,8.88,9,13.09c2.59,3.63,2.81,4.6,6.86,5.67c8.18,2.16,16.43,4.05,24.67,5.95
				c4.95,1.14,10.71,3.39,15.83,3.45c4.76,0.06,10.29-2.87,14.6-4.63c5.58-2.27,11.09-4.84,16.93-6.38
				c-0.47-0.61-0.94-1.22-1.41-1.84c-3.32,7.14-6.8,14.22-10.33,21.25c-1.46,2.91-1.77,3.72-4.74,5.04
				c-5.4,2.41-10.97,4.53-16.57,6.43c0.53,0.4,1.05,0.8,1.58,1.21c0.16-7.51,0.32-15.03,0.48-22.54c0.03-1.61-2.47-1.61-2.5,0
				c-0.16,7.51-0.32,15.03-0.48,22.54c-0.02,0.78,0.82,1.47,1.58,1.21c5.81-1.97,11.56-4.19,17.17-6.68
				c2.45-1.09,3.45-1.66,4.65-3.98c3.96-7.63,7.7-15.41,11.32-23.21c0.45-0.96-0.29-2.13-1.41-1.84
				c-9.99,2.63-19.22,9.13-29.47,10.64c-4.81,0.71-10.83-1.77-15.53-2.85c-7.55-1.74-15.09-3.5-22.6-5.39
				c-1.44-0.36-3.03-0.6-4.41-1.15c-1.74-0.69-1.98-1.14-3.11-2.83c-3.06-4.56-7.77-8.64-9.7-13.84
				C240.59,490.76,238.17,491.4,238.73,492.92L238.73,492.92z"/>
		</g>
	</g>
	<g>
		<g>
			<path class="st1" d="M238.03,493.06c2.35,7.81,5.11,15.46,7.93,23.1c0.6,1.63,1.21,3.26,1.8,4.9c0.64,1.77,1.22,5.54,2.46,6.91
				c1.16,1.28,2.82,1.51,4.52,2.08c12.82,4.33,25.4,9.81,38.55,13.09c1.56,0.39,2.23-2.02,0.66-2.41
				c-11.87-2.96-23.27-7.78-34.8-11.8c-3.56-1.24-6.21-1.49-7.77-5.15c-1.37-3.21-2.41-6.61-3.62-9.89
				c-2.62-7.11-5.16-14.24-7.34-21.5C239.98,490.86,237.57,491.51,238.03,493.06L238.03,493.06z"/>
		</g>
	</g>
	<g>
		<g>
			<path class="st1" d="M241,492.92c6.21-17.24,11.01-35.03,16.01-52.65c2.04-7.18,4.05-14.36,6.03-21.55
				c0.35-1.27,0.53-3,1.15-4.18c-0.58,1.11-0.06,0.28,0.89-0.29c2.05-1.24,4.01-2.66,6-3.99c10.75-7.15,20.71-14.84,33.22-18.54
				c1.25-0.37,3.02-1.26,4.33-1.21c-1.07-0.04-0.52-0.01,0.13,0.46c1.04,0.76,2.12,1.44,3.12,2.25c5.19,4.2,5.66,12.29,7.41,18.46
				c0.83,2.94,0.9,6.47,1.12,10.05c0.49,8.11,0.97,16.22,1.43,24.33c1.16,20.41,2.49,40.86,2.87,61.3c0.03,1.61,2.53,1.61,2.5,0
				c-0.36-19.31-1.59-38.62-2.68-57.9c-0.5-8.89-1.02-17.79-1.56-26.68c-0.21-3.48-0.14-7.1-0.91-10.5
				c-0.6-2.65-1.48-5.26-2.19-7.88c-0.84-3.11-1.17-6.9-2.95-9.65c-1.37-2.11-5.44-6.07-8.02-6.63c-2.6-0.57-6.77,1.6-9.19,2.42
				c-6.1,2.05-11.09,5.05-16.44,8.61c-5.64,3.76-11.29,7.51-16.94,11.27c-1.51,1-3.66,1.92-4.57,3.51c-0.73,1.27-0.9,3.28-1.29,4.68
				c-0.97,3.51-1.95,7.02-2.93,10.53c-5.91,21.11-11.52,42.48-18.96,63.11C238.05,493.77,240.46,494.42,241,492.92L241,492.92z"/>
		</g>
	</g>
	<g>
		<g>
			<path class="st1" d="M299.32,422.95c0.21,31.91-2.69,64.03-5.36,95.8c-0.13,1.6,2.37,1.59,2.5,0c2.67-31.78,5.57-63.89,5.36-95.8
				C301.81,421.34,299.31,421.33,299.32,422.95L299.32,422.95z"/>
		</g>
	</g>
	<g>
		<g>
			<path class="st1" d="M562,295.62c0.49,3.36,0.98,6.73,1.47,10.09c0.19-0.47,0.38-0.94,0.57-1.41c-3.38,2.3-5.78,6.79-2.84,10.52
				c2.39,3.01,7.04,2.49,8.62-1.01c0.66-1.45-1.5-2.73-2.16-1.26c-0.56,0.56-1.11,1.12-1.67,1.68c-2.94-0.45-4.03-1.72-3.29-3.83
				c0.2-1.92,0.99-2.85,2.6-3.95c0.51-0.35,0.66-0.82,0.57-1.41c-0.49-3.36-0.98-6.73-1.47-10.09
				C564.18,293.37,561.77,294.04,562,295.62L562,295.62z"/>
		</g>
	</g>
	<g>
		
			<ellipse transform="matrix(0.6757 -0.7372 0.7372 0.6757 -29.8848 526.4579)" class="st2" cx="583.37" cy="297.19" rx="4.74" ry="3.11"/>
	</g>
	<g>
		<ellipse transform="matrix(0.5 -0.866 0.866 0.5 10.9729 626.3271)" class="st2" cx="547.9" cy="303.66" rx="3.11" ry="4.74"/>
	</g>
	<g>
		<g>
			<path class="st1" d="M571.74,345.14c2.12,5.12,3.75,10.36,5.03,15.75c0.37,1.56,2.78,0.9,2.41-0.66
				c-1.28-5.39-2.91-10.63-5.03-15.75C573.55,343.01,571.13,343.65,571.74,345.14L571.74,345.14z"/>
		</g>
	</g>
	<g>
		<g>
			<path class="st1" d="M557.22,255.32c-3.71,5.27-8.54,9.41-13.69,13.22c-3.47,2.57-6.32,5.2-7.14,9.64
				c-0.29,1.57,2.12,2.25,2.41,0.66c1.08-5.82,6.69-8.48,10.89-11.95c3.68-3.04,6.94-6.41,9.69-10.32
				C560.31,255.27,558.14,254.02,557.22,255.32L557.22,255.32z"/>
		</g>
	</g>
	<g>
		<g>
			<path class="st1" d="M551.78,224.99c18.12,3.85,35.78-2.1,50.71-12.36c1.32-0.91,0.07-3.07-1.26-2.16
				c-14.36,9.86-31.3,15.82-48.78,12.11C550.88,222.24,550.2,224.65,551.78,224.99L551.78,224.99z"/>
		</g>
	</g>
	<g>
		<g>
			<path class="st1" d="M565.26,258.88c5.28,11.68,16.85,18.41,29.62,17.35c1.59-0.13,1.61-2.63,0-2.5
				c-11.96,1-22.52-5.18-27.46-16.11C566.75,256.16,564.6,257.43,565.26,258.88L565.26,258.88z"/>
		</g>
	</g>
	<g>
		<g>
			<path class="st1" d="M600.94,213.35c14.29-4.18,27.26,3.83,38.13,12.29c1.25,0.98,3.04-0.78,1.77-1.77
				c-11.6-9.04-25.34-17.39-40.56-12.94C598.73,211.39,599.39,213.81,600.94,213.35L600.94,213.35z"/>
		</g>
	</g>
	<g>
		<g>
			<path class="st1" d="M600.23,213.89c9.2-3.09,15.86-13.12,19.42-21.65c0.62-1.48-1.8-2.13-2.41-0.66
				c-3.19,7.63-9.43,17.14-17.67,19.91C598.05,211.98,598.7,214.4,600.23,213.89L600.23,213.89z"/>
		</g>
	</g>
	<g>
		<g>
			<path class="st1" d="M531.42,281.39c-2.89-13.07,8.2-18.39,16.94-24.85c6.8-5.03,9.76-10.97,10.82-19.33c0.2-1.59-2.3-1.58-2.5,0
				c-0.8,6.32-2.8,11.56-7.77,15.75c-3.64,3.06-7.88,5.3-11.62,8.23c-6.69,5.23-10.16,12.33-8.28,20.86
				C529.36,283.62,531.77,282.96,531.42,281.39L531.42,281.39z"/>
		</g>
	</g>
	<g>
		<g>
			<path class="st1" d="M576.7,361.34c9.59,5.08,20.66,4.96,30.11-0.37c1.4-0.79,0.14-2.95-1.26-2.16
				c-8.68,4.89-18.78,5.04-27.59,0.37C576.54,358.43,575.27,360.58,576.7,361.34L576.7,361.34z"/>
		</g>
	</g>
	<g>
		<g>
			<path class="st1" d="M561.47,361.83c5.85,11,16.63,17.5,28.92,18.28c11.69,0.74,28.04-3.87,33.07-15.63
				c0.63-1.46-1.53-2.74-2.16-1.26c-4.68,10.93-20.05,15.12-30.91,14.39c-11.4-0.77-21.35-6.86-26.76-17.04
				C562.87,359.14,560.72,360.4,561.47,361.83L561.47,361.83z"/>
		</g>
	</g>
	<g>
		<g>
			<path class="st1" d="M571.42,370.74c2.5-2.74,5.37-4.96,8.65-6.68c1.43-0.75,0.16-2.91-1.26-2.16c-3.45,1.81-6.53,4.19-9.16,7.07
				C568.57,370.16,570.33,371.93,571.42,370.74L571.42,370.74z"/>
		</g>
	</g>
	<g>
		<g>
			<path class="st1" d="M581.92,376.68c1.98-3.97,4.04-7.89,6.19-11.77c0.78-1.41-1.38-2.67-2.16-1.26
				c-2.15,3.88-4.22,7.8-6.19,11.77C579.04,376.86,581.2,378.12,581.92,376.68L581.92,376.68z"/>
		</g>
	</g>
	<g>
		<g>
			<path class="st1" d="M591.25,364.55c0.97,4.66,2.2,9.24,3.72,13.75c0.51,1.52,2.93,0.87,2.41-0.66
				c-1.52-4.51-2.75-9.09-3.72-13.75C593.33,362.31,590.92,362.98,591.25,364.55L591.25,364.55z"/>
		</g>
	</g>
	<g>
		<g>
			<path class="st1" d="M601.03,363.59c2.87,4.13,6.11,7.96,9.73,11.45c1.16,1.12,2.93-0.65,1.77-1.77
				c-3.47-3.35-6.58-6.99-9.34-10.95C602.28,361.02,600.11,362.26,601.03,363.59L601.03,363.59z"/>
		</g>
	</g>
	<g>
		<g>
			<path class="st1" d="M633.32,496.74c-6.17,1.26-12.43-5.01-15.58-9.62c-0.9-1.32-3.07-0.07-2.16,1.26
				c3.89,5.7,10.92,12.3,18.4,10.77C635.56,498.83,634.89,496.42,633.32,496.74L633.32,496.74z"/>
		</g>
	</g>
	<g>
		<g>
			<path class="st1" d="M559.94,480.08c-12.59-3.93-25.84-5.14-38.37-9.31c-1.53-0.51-2.19,1.9-0.66,2.41
				c12.53,4.17,25.77,5.38,38.37,9.31C560.81,482.97,561.47,480.56,559.94,480.08L559.94,480.08z"/>
		</g>
	</g>
	<g>
		<g>
			<path class="st1" d="M301.1,424.23c3.07-0.73,5.74-2.71,8.47-4.22c3.52-1.95,7.09-3.78,10.7-5.54c1.45-0.7,0.18-2.86-1.26-2.16
				c-3.19,1.55-6.35,3.16-9.46,4.86c-2.9,1.58-5.88,3.88-9.12,4.65C298.87,422.19,299.54,424.6,301.1,424.23L301.1,424.23z"/>
		</g>
	</g>
	<g>
		<g>
			<path class="st1" d="M253.58,508.81c4.84-29.19,10.93-58.15,18.26-86.82c0.4-1.56-2.01-2.22-2.41-0.66
				c-7.33,28.67-13.42,57.63-18.26,86.82C250.91,509.72,253.32,510.39,253.58,508.81L253.58,508.81z"/>
		</g>
	</g>
	<g>
		<g>
			<path class="st1" d="M262.58,415.76c2.04,2.65,4.45,4.87,7.31,6.6c1.38,0.84,2.64-1.32,1.26-2.16c-2.47-1.5-4.65-3.41-6.41-5.71
				C263.78,413.24,261.6,414.48,262.58,415.76L262.58,415.76z"/>
		</g>
	</g>
	<g>
		<g>
			<path class="st1" d="M271.27,423.47c5.81-2.3,11.41-5,16.81-8.14c1.39-0.81,0.13-2.97-1.26-2.16
				c-5.22,3.03-10.61,5.66-16.21,7.88C269.12,421.64,269.77,424.06,271.27,423.47L271.27,423.47z"/>
		</g>
	</g>
	<g>
		<g>
			<path class="st1" d="M286.94,415.37c2.38,1.77,4.75,3.55,7.13,5.32c1.81,1.35,4.01,3.73,6.2,4.32c0.41,0.11,0.92,0.01,1.22-0.32
				c0.07-0.07,0.13-0.15,0.2-0.22c1.07-1.19-0.69-2.97-1.77-1.77c-0.07,0.07-0.13,0.15-0.2,0.22c0.41-0.11,0.81-0.21,1.22-0.32
				c-1.17-0.31-2.54-1.78-3.5-2.5c-0.98-0.73-1.96-1.46-2.93-2.19c-2.1-1.57-4.19-3.13-6.29-4.7
				C286.91,412.25,285.66,414.42,286.94,415.37L286.94,415.37z"/>
		</g>
	</g>
	<g>
		<g>
			<path class="st1" d="M288.71,414.2c2.2-3.85,4.77-7.43,7.74-10.72c1.07-1.19-0.69-2.97-1.77-1.77c-3.11,3.45-5.83,7.2-8.13,11.23
				C285.76,414.34,287.91,415.6,288.71,414.2L288.71,414.2z"/>
		</g>
	</g>
	<g>
		<g>
			<path class="st1" d="M289.7,398.06c1.62,1.44,3.23,2.88,4.85,4.32c1.2,1.07,2.97-0.7,1.77-1.77c-1.62-1.44-3.23-2.88-4.85-4.32
				C290.27,395.23,288.5,396.99,289.7,398.06L289.7,398.06z"/>
		</g>
	</g>
	<g>
		<g>
			<path class="st1" d="M296.32,403.37c6.37-1.76,12.77-3.42,19.17-5.09c1.56-0.41,0.9-2.82-0.66-2.41
				c-6.4,1.67-12.8,3.33-19.17,5.09C294.11,401.39,294.76,403.8,296.32,403.37L296.32,403.37z"/>
		</g>
	</g>
	<g>
		<g>
			<path class="st1" d="M250.19,508.94c1.16,6.27,2.32,12.54,3.48,18.8c0.29,1.58,2.7,0.91,2.41-0.66
				c-1.16-6.27-2.32-12.54-3.48-18.8C252.31,506.69,249.9,507.36,250.19,508.94L250.19,508.94z"/>
		</g>
	</g>
	<g>
		<g>
			<path class="st1" d="M335.06,521.11c-3.93-0.95-7.74-2.23-11.44-3.88c-1.46-0.65-2.73,1.5-1.26,2.16
				c3.9,1.74,7.89,3.13,12.04,4.13C335.96,523.9,336.63,521.49,335.06,521.11L335.06,521.11z"/>
		</g>
	</g>
	<g>
		<g>
			<path class="st1" d="M180.47,514.11c22.28-13.51,43.62-28.48,65.9-41.99c1.37-0.83,0.12-3-1.26-2.16
				c-22.28,13.51-43.62,28.48-65.9,41.99C177.83,512.78,179.09,514.95,180.47,514.11L180.47,514.11z"/>
		</g>
	</g>
	<g>
		<g>
			<path class="st1" d="M180.25,537.26c16.94,5.65,33.88,11.31,50.81,16.96c40.69,13.58,81.37,27.16,122.06,40.75
				c49.4,16.49,98.79,32.98,148.19,49.47c42.56,14.21,85.13,28.42,127.69,42.63c14.03,4.68,28.06,9.37,42.09,14.05
				c6.4,2.14,13.32,5.51,19.98,6.67c0.29,0.05,0.59,0.2,0.88,0.29c1.53,0.51,2.19-1.9,0.66-2.41
				c-16.94-5.65-33.88-11.31-50.81-16.96c-40.69-13.58-81.37-27.16-122.06-40.75c-49.4-16.49-98.79-32.98-148.19-49.47
				c-42.56-14.21-85.13-28.42-127.69-42.63c-14.03-4.68-28.06-9.37-42.09-14.05c-6.4-2.14-13.32-5.51-19.98-6.67
				c-0.29-0.05-0.59-0.2-0.88-0.29C179.38,534.34,178.73,536.75,180.25,537.26L180.25,537.26z"/>
		</g>
	</g>
	<g>
		<g>
			<path class="st1" d="M177.58,513.85c0.31,7.26,1.06,14.5,1.51,21.75c0.1,1.6,2.6,1.61,2.5,0c-0.45-7.26-1.2-14.49-1.51-21.75
				C180.01,512.25,177.51,512.24,177.58,513.85L177.58,513.85z"/>
		</g>
	</g>
	<g>
		<g>
			<path class="st1" d="M235.15,803.65c5.08,5.02,10.16,10.04,15.24,15.06c1.15,1.13,2.91-0.63,1.77-1.77
				c-5.08-5.02-10.16-10.04-15.24-15.06C235.78,800.75,234.01,802.51,235.15,803.65L235.15,803.65z"/>
		</g>
	</g>
	<g>
		<g>
			<path class="st1" d="M604.95,678.07c-6.67,55.77-13.34,111.53-20.01,167.3c-2.26,18.9-4.52,37.8-6.78,56.7
				c-0.19,1.59,2.31,1.58,2.5,0c8.13-68.07,16.28-136.14,24.42-204.21c0.79-6.59,1.58-13.19,2.37-19.78
				C607.65,676.47,605.14,676.49,604.95,678.07L604.95,678.07z"/>
		</g>
	</g>
	<g>
		<g>
			<path class="st1" d="M567.54,666.77c-3.24,26.7-6.48,53.39-9.72,80.09c-5.17,42.57-10.34,85.14-15.5,127.72
				c-1.19,9.8-2.38,19.6-3.57,29.4c-0.19,1.59,2.31,1.58,2.5,0c3.24-26.7,6.48-53.39,9.72-80.09c5.17-42.57,10.34-85.14,15.5-127.72
				c1.19-9.8,2.38-19.6,3.57-29.4C570.23,665.18,567.73,665.19,567.54,666.77L567.54,666.77z"/>
		</g>
	</g>
	<g>
		<g>
			<path class="st1" d="M585.46,672.25c-3.44,27.59-6.88,55.17-10.33,82.76c-5.52,44.24-11.05,88.49-16.59,132.73
				c-1.27,10.11-2.22,21.9-3.94,31.26c-0.24,1.28,1.1,2,2.09,1.22c7.63-6.04,15.83-11.31,23.46-17.34c1.26-1-0.52-2.76-1.77-1.77
				c-7.63,6.04-15.83,11.31-23.46,17.34c0.7,0.41,1.39,0.81,2.09,1.22c1.5-8.13,2.1-16.52,3.13-24.71
				c2.47-19.66,4.92-39.31,7.38-58.97c5.55-44.42,11.1-88.84,16.64-133.25c1.27-10.16,2.54-20.32,3.8-30.48
				C588.16,670.66,585.66,670.67,585.46,672.25L585.46,672.25z"/>
		</g>
	</g>
	<g>
		<g>
			<path class="st1" d="M539.16,904.65c5.08,5.02,10.16,10.04,15.24,15.06c1.15,1.13,2.91-0.63,1.77-1.77
				c-5.08-5.02-10.16-10.04-15.24-15.06C539.78,901.75,538.01,903.52,539.16,904.65L539.16,904.65z"/>
		</g>
	</g>
	<g>
		<g>
			<path class="st1" d="M410.66,694.35c-6.7-11-13.49-21.94-20.05-33.02c-0.82-1.38-2.98-0.13-2.16,1.26
				c6.56,11.08,13.35,22.02,20.05,33.02C409.33,696.98,411.5,695.73,410.66,694.35L410.66,694.35z"/>
		</g>
	</g>
	<g>
		<g>
			<path class="st1" d="M364.18,606.7c-2.51-4.06-4.31-8.42-6.98-12.39c-0.89-1.33-3.06-0.08-2.16,1.26
				c2.67,3.97,4.47,8.33,6.98,12.39C362.86,609.33,365.03,608.07,364.18,606.7L364.18,606.7z"/>
		</g>
	</g>
	<g>
		<g>
			<path class="st1" d="M294.89,641.73c2.51,0.77,8.78-3.53,10.85-4.49c8.25-3.83,16.45-7.75,24.65-11.68
				c15.22-7.3,30.71-14.31,45.53-22.42c1.41-0.77,0.15-2.93-1.26-2.16c-14.03,7.68-28.69,14.34-43.11,21.26
				c-8.2,3.94-16.41,7.85-24.65,11.7c-2.77,1.3-5.55,2.59-8.34,3.85c-0.85,0.38-1.7,0.75-2.55,1.13c-0.75,0.33-1.29,0.15-0.46,0.4
				C294.01,638.85,293.35,641.26,294.89,641.73L294.89,641.73z"/>
		</g>
	</g>
	<g>
		<g>
			<path class="st1" d="M429.09,701.12c2.59-1.08,5.04-3.55,7.28-5.2c4.04-2.97,8.06-5.95,12.15-8.84c1.3-0.92,0.05-3.09-1.26-2.16
				c-3.84,2.72-7.63,5.52-11.42,8.3c-2.12,1.56-5.48,4.68-7.41,5.48C426.96,699.32,427.61,701.74,429.09,701.12L429.09,701.12z"/>
		</g>
	</g>
	<g>
		<g>
			<path class="st1" d="M405.84,612.54c-0.9-0.36,0.89,1.82,1.3,2.49c1.2,1.98,2.36,3.99,3.51,6c3.85,6.68,7.61,13.42,11.36,20.16
				c8.49,15.27,16.9,30.6,25.08,46.04c0.75,1.42,2.91,0.16,2.16-1.26c-8.66-16.35-17.57-32.58-26.58-48.74
				c-3.65-6.54-7.3-13.07-11.06-19.54c-1.1-1.89-2.84-6.65-5.11-7.55C405.01,609.53,404.36,611.95,405.84,612.54L405.84,612.54z"/>
		</g>
	</g>
	<g>
		<g>
			<path class="st1" d="M590.89,816.24c35.18-20.34,70.89-39.75,106.46-59.39c3.47-1.92,7.5-3.59,10.7-5.96
				c1.28-0.95,0.03-3.12-1.26-2.16c-2.55,1.89-5.76,3.23-8.53,4.76c-7.11,3.93-14.23,7.85-21.34,11.78
				c-19.42,10.71-38.82,21.45-58.17,32.29c-9.73,5.46-19.45,10.93-29.11,16.52C588.24,814.88,589.49,817.04,590.89,816.24
				L590.89,816.24z"/>
		</g>
	</g>
	<g>
		<g>
			<path class="st1" d="M681.04,704.33c14.48,27.51,29.64,54.67,44.46,82c1.66,3.06,5.01,8.23,5.79,10.68
				c0.4-0.53,0.8-1.05,1.21-1.58c-5.4-0.31-12.18-3.21-17.71-4.7c-1.55-0.42-2.22,1.99-0.66,2.41c5.82,1.57,12.35,4.44,18.37,4.79
				c0.8,0.05,1.44-0.84,1.21-1.58c-0.88-2.79-2.93-5.54-4.31-8.09c-3.7-6.83-7.4-13.65-11.11-20.47
				c-8.92-16.42-17.85-32.83-26.75-49.26c-2.79-5.15-5.6-10.28-8.33-15.46C682.45,701.64,680.29,702.9,681.04,704.33L681.04,704.33z
				"/>
		</g>
	</g>
	<g>
		<g>
			<path class="st1" d="M598.86,751.16c28.65-13.7,56.42-29.17,85.07-42.88c1.45-0.69,0.18-2.85-1.26-2.16
				c-28.65,13.7-56.42,29.17-85.07,42.88C596.15,749.69,597.41,751.85,598.86,751.16L598.86,751.16z"/>
		</g>
	</g>
	<g>
		<g>
			<path class="st1" d="M714.93,790.71c-6.7-11-13.49-21.94-20.05-33.02c-0.82-1.38-2.98-0.13-2.16,1.26
				c6.56,11.08,13.35,22.02,20.05,33.02C713.61,793.35,715.77,792.09,714.93,790.71L714.93,790.71z"/>
		</g>
	</g>
	<g>
		<g>
			<path class="st1" d="M599.17,738.09c2.31,0.7,7.63-3.01,9.55-3.91c7.64-3.57,15.24-7.22,22.83-10.89
				c14.19-6.86,28.59-13.5,42.42-21.07c1.41-0.77,0.15-2.93-1.26-2.16c-13.04,7.14-26.61,13.41-39.99,19.89
				c-7.49,3.62-14.98,7.23-22.51,10.77c-2.57,1.21-5.15,2.42-7.74,3.59c-0.74,0.33-1.48,0.67-2.23,0.98
				c-0.71,0.3-1.2,0.13-0.41,0.37C598.29,735.21,597.63,737.63,599.17,738.09L599.17,738.09z"/>
		</g>
	</g>
	<g>
		<g>
			<path class="st1" d="M733.36,797.48c2.59-1.08,5.04-3.55,7.28-5.2c4.04-2.97,8.06-5.95,12.15-8.84c1.3-0.92,0.05-3.09-1.26-2.16
				c-3.84,2.72-7.63,5.52-11.42,8.3c-2.12,1.56-5.48,4.68-7.41,5.48C731.24,795.68,731.88,798.1,733.36,797.48L733.36,797.48z"/>
		</g>
	</g>
	<g>
		<g>
			<path class="st1" d="M417.55,867.84c4.01-6.56,8.03-13.12,11.35-20.07c0.69-1.44-1.46-2.71-2.16-1.26
				c-3.32,6.95-7.34,13.5-11.35,20.07C414.55,867.96,416.71,869.21,417.55,867.84L417.55,867.84z"/>
		</g>
	</g>
	<g>
		<g>
			<path class="st1" d="M375.72,838.66c-9.01-1.53-17.64-6.26-26.04-9.69c-7.32-2.99-14.67-5.43-22.52-6.53
				c-3.81-0.53-10.22-0.71-11.3,4.17c-1.07,4.83,2.97,11.57,6.06,14.94c1.09,1.19,2.85-0.58,1.77-1.77
				c-2.9-3.17-8.93-13.27-2.19-14.86c5.3-1.25,12.22,1.07,17.33,2.67c12.15,3.82,23.62,11.34,36.22,13.47
				C376.63,841.34,377.31,838.93,375.72,838.66L375.72,838.66z"/>
		</g>
	</g>
	<g>
		<g>
			<path class="st1" d="M351.98,847.06c1.49,1.7,2.36,3.69,2.71,5.91c0.25,1.58,2.66,0.91,2.41-0.66c-0.42-2.64-1.59-5.01-3.35-7.01
				C352.69,844.08,350.93,845.85,351.98,847.06L351.98,847.06z"/>
		</g>
	</g>
	<g>
		<g>
			<path class="st1" d="M360.07,851.69c0.3,0.2,0.61,1.24,0.76,1.57c0.26,0.59,0.5,1.18,0.73,1.78c0.46,1.23,0.84,2.49,1.18,3.76
				c0.41,1.55,2.82,0.9,2.41-0.66c-0.45-1.73-1.01-3.42-1.7-5.07c-0.52-1.24-0.95-2.78-2.11-3.55
				C359.98,848.64,358.73,850.81,360.07,851.69L360.07,851.69z"/>
		</g>
	</g>
	<g>
		<g>
			<path class="st1" d="M368.83,852.78c-0.01-0.02-0.03-0.03-0.04-0.05c-0.07,0.5-0.13,1.01-0.2,1.51c0.02-0.02,0.03-0.04,0.05-0.06
				c-0.5,0.07-1.01,0.13-1.51,0.2c0.31,0.23,0.76,1.48,0.96,1.88c0.34,0.66,0.66,1.34,0.95,2.03c0.47,1.15,1.41,2.92,1.29,4.15
				c0.21-0.36,0.41-0.72,0.62-1.08c-0.06,0.04-0.13,0.09-0.19,0.13c0.32-0.04,0.64-0.08,0.96-0.13c-0.07-0.02-0.14-0.04-0.2-0.06
				c0.29,0.29,0.58,0.58,0.87,0.87c-0.01-0.07-0.02-0.14-0.03-0.21c-0.11,0.41-0.21,0.81-0.32,1.22c-0.17,0.07-0.35,0.13-0.52,0.2
				c1.61,0.04,1.61-2.46,0-2.5c-1.18-0.03-1.69,0.9-1.54,1.96c0.06,0.41,0.49,0.77,0.87,0.87c2.89,0.78,1.67-3.05,1.26-4.29
				c-0.73-2.22-1.82-5.76-3.72-7.2c-0.41-0.31-1.19-0.19-1.51,0.2c-0.02,0.02-0.03,0.04-0.05,0.06c-0.33,0.38-0.54,1.06-0.2,1.51
				c0.01,0.02,0.03,0.03,0.04,0.05C367.63,855.32,369.8,854.07,368.83,852.78L368.83,852.78z"/>
		</g>
	</g>
	<g>
		<g>
			<path class="st1" d="M369.48,905.18c3.47-2.49,7.54-3.55,11.44-5.17c1.28-0.53,5.41-1.72,4.56-3.87
				c-0.59-1.48-3.01-0.83-2.41,0.66c0.03,0.08,0.06,0.16,0.1,0.24c0.11-0.41,0.21-0.81,0.32-1.22c-1.61,2.05-6.03,2.82-8.38,3.7
				c-2.44,0.92-4.76,1.96-6.89,3.49C366.92,903.95,368.17,906.12,369.48,905.18L369.48,905.18z"/>
		</g>
	</g>
	<g>
		<g>
			<path class="st1" d="M361.33,900.22c5.31-3.34,10.54-6.78,15.71-10.33c1.32-0.91,0.07-3.07-1.26-2.16
				c-5.16,3.55-10.4,7-15.71,10.33C358.71,898.91,359.96,901.08,361.33,900.22L361.33,900.22z"/>
		</g>
	</g>
	<g>
		<g>
			<path class="st1" d="M353.25,892.7c5.8-2.81,11.44-5.89,16.94-9.25c1.37-0.84,0.16-2.93-1.26-2.16
				c-0.13,0.07-0.26,0.14-0.39,0.21c-1.42,0.77-0.15,2.93,1.26,2.16c0.13-0.07,0.26-0.14,0.39-0.21c-0.42-0.72-0.84-1.44-1.26-2.16
				c-5.5,3.36-11.14,6.45-16.94,9.25C350.54,891.24,351.81,893.39,353.25,892.7L353.25,892.7z"/>
		</g>
	</g>
	<g>
		<g>
			<path class="st1" d="M345.13,885.22c3.13-1.96,6.27-3.91,9.4-5.87c2.16-1.35,5.44-2.65,6.96-4.7c0.42-0.57,0.06-1.37-0.45-1.71
				c-0.05-0.04-0.1-0.07-0.16-0.11c-0.45-0.3-1.15-0.19-1.51,0.2c-0.03,0.04-0.07,0.07-0.1,0.11c-1.11,1.17,0.66,2.94,1.77,1.77
				c0.03-0.04,0.07-0.07,0.1-0.11c-0.5,0.07-1.01,0.13-1.51,0.2c0.05,0.04,0.1,0.07,0.16,0.11c-0.15-0.57-0.3-1.14-0.45-1.71
				c-0.75,1-2.91,1.83-3.98,2.49c-1.22,0.76-2.44,1.52-3.65,2.28c-2.61,1.63-5.22,3.26-7.83,4.89
				C342.5,883.91,343.76,886.07,345.13,885.22L345.13,885.22z"/>
		</g>
	</g>
	<g>
		<g>
			<path class="st1" d="M337.06,876.92c5.01-3.71,10.15-7.21,15.44-10.51c1.36-0.85,0.11-3.01-1.26-2.16
				c-5.29,3.3-10.43,6.8-15.44,10.51C334.52,875.71,335.77,877.88,337.06,876.92L337.06,876.92z"/>
		</g>
	</g>
	<g>
		<g>
			<path class="st1" d="M330.61,868.14c3.67-3.15,7.53-6.05,11.59-8.69c1.34-0.88,0.09-3.04-1.26-2.16
				c-4.23,2.76-8.26,5.79-12.09,9.09C327.62,867.43,329.4,869.19,330.61,868.14L330.61,868.14z"/>
		</g>
	</g>
	<g>
		<g>
			<path class="st1" d="M322.57,859.48c2.87-2.93,5.8-6.89,10.05-7.68c1.58-0.29,0.91-2.7-0.66-2.41
				c-4.73,0.88-7.97,5.07-11.16,8.32C319.68,858.86,321.44,860.63,322.57,859.48L322.57,859.48z"/>
		</g>
	</g>
</g>
<g id="details">
	<g>
		<g>
			<path class="st3" d="M760.21,675.53c3.61-16.01-7.31-32.08-23.64-33.71c-10.12-1.01-4.41-13.18-33.97-13.4
				c-18.05-0.14-18.93,8.36-27.91,7.66c-19.91-1.57-29.03-2.12-32.69-1.08c-10.84,3.1-13.83,18.83,0.63,30.71
				c14.46,11.88,41.41,37.19,41.41,37.19s-18.35,54.1-20.02,102.66c-1.7,49.45-19.33,110.3-19.33,110.3h185.39
				c0,0-10.39-62.74-41.13-127.8c-9.94-21.04-17.76-36.88-23.61-48.41c-8.77-17.27-11.24-37.05-6.97-55.94L760.21,675.53z"/>
		</g>
		<g>
			<g>
				<path class="st1" d="M680.46,649.21c2.99,6.81,10.06,7.88,16.63,6.03c1.55-0.44,0.89-2.85-0.66-2.41
					c-5.61,1.58-11.27,0.9-13.81-4.88C681.97,646.48,679.82,647.75,680.46,649.21L680.46,649.21z"/>
			</g>
		</g>
		<g>
			<g>
				<path class="st1" d="M668.17,916.01c9.76-14.56,16.04-29.79,19.9-46.88c3.95-17.5,7.5-35.61,6.79-53.63
					c-0.06-1.6-2.56-1.61-2.5,0c0.7,17.82-2.79,35.66-6.7,52.97c-3.81,16.86-10.02,31.92-19.65,46.28
					C665.12,916.08,667.28,917.34,668.17,916.01L668.17,916.01z"/>
			</g>
		</g>
		<g>
			<g>
				<path class="st1" d="M733.9,916.12c5.52-8.89,14.88-14.26,25.34-14.55c1.12-0.03,1.6-1.33,0.88-2.13
					c-17.19-19.49-16.38-48.69,1.78-67.25c1.13-1.15-0.64-2.92-1.77-1.77c-19.15,19.58-19.87,50.27-1.78,70.79
					c0.29-0.71,0.59-1.42,0.88-2.13c-11.35,0.31-21.51,6.14-27.5,15.78C730.89,916.23,733.05,917.49,733.9,916.12L733.9,916.12z"/>
			</g>
		</g>
		<g>
			<g>
				<path class="st1" d="M738.96,916.68c0.88-0.89,1.75-1.78,2.63-2.67c0.73-0.74,1.43-1.71,2.52-1.87
					c1.59-0.23,0.91-2.64-0.66-2.41c-1.25,0.18-2.15,1.03-3.01,1.89c-1.09,1.09-2.16,2.2-3.25,3.29
					C736.06,916.06,737.83,917.83,738.96,916.68L738.96,916.68z"/>
			</g>
		</g>
		<g>
			<g>
				<path class="st1" d="M746.08,917c1.52-1.62,3.23-2.96,5.17-4.03c1.41-0.78,0.15-2.94-1.26-2.16c-2.12,1.17-4.03,2.66-5.68,4.42
					C743.21,916.41,744.98,918.18,746.08,917L746.08,917z"/>
			</g>
		</g>
		<g>
			<g>
				<path class="st1" d="M650.73,916.42c1.82-2.12,3.29-4.43,4.39-7c0.62-1.46-1.53-2.74-2.16-1.26c-1.01,2.36-2.32,4.54-4,6.5
					C647.92,915.87,649.68,917.65,650.73,916.42L650.73,916.42z"/>
			</g>
		</g>
		<g>
			<g>
				<path class="st1" d="M657.55,916.71c1.33-1.4,2.18-3.29,2.97-5.03c0.51-1.13,2.01-3.4,0.68-4.43c-1.26-0.98-3.04,0.78-1.77,1.77
					c0.06,0.04,0.11,0.09,0.17,0.13c-0.12-0.29-0.24-0.59-0.37-0.88c-0.06,1.11-1.06,2.61-1.57,3.61c-0.54,1.05-1.06,2.2-1.88,3.07
					C654.68,916.11,656.44,917.88,657.55,916.71L657.55,916.71z"/>
			</g>
		</g>
		<g>
			<path class="st3" d="M738.76,649.5l16.16-24.02c0,0,10.2,11.3,9.33,27.02c-0.87,15.72-5.68,28.38-5.68,28.38L738.76,649.5z"/>
		</g>
		<g>
			<path class="st3" d="M723.42,636.07l16.16-24.02c0,0,7.86,9.17,6.99,24.89c-0.87,15.72-5.68,28.38-5.68,28.38L723.42,636.07z"/>
		</g>
		<g>
			<path class="st3" d="M811.8,915.85h27.98c0,0,53.48-3.46,53.48-48.12c0-34.96-34.67-43.03-53.96-33.1
				c-16.72,8.61-14.71,21.74-14.71,21.74s20.12-3.65,22.38,8.95c3.55,19.77-29.42,34.53-29.42,34.53L811.8,915.85z"/>
		</g>
		<g>
			<path class="st0" d="M634,640l40.58,11.74c0,0,2.89,7.03,10.33,8.27c7.44,1.24,13.64,2.89,20.67,8.27
				c7.03,5.37,9.51,11.57,9.51,11.57s-14.05,5.79-15.29,21.91s10.78,28.84,10.78,28.84s-15.96,22.68-28.14,54.61
				c-9.8,25.68-20.66,46.95-20.66,46.95s4.79-55.82,6.03-84.35s5.54-51.84-1.9-60.52c-7.44-8.68-24.17-18.5-28.9-25.28
				C630.35,652.45,634,640,634,640z"/>
		</g>
		<g>
			<circle class="st1" cx="634.96" cy="639.67" r="6.33"/>
		</g>
		<g>
			<g>
				<path class="st1" d="M632.29,644.26c-0.59,10.21,4.38,19.05,11.74,25.57c5.64,5,11.55,9.64,17.42,14.36
					c3.68,2.96,5.69,6.97,6.13,11.65c1.08,11.49,0.23,23.35-0.24,34.85c-1.65,40.95-5.15,81.98-10.94,122.56
					c-2.91,20.41-6.25,41-12.2,60.78c-0.46,1.54,1.95,2.2,2.41,0.66c11.3-37.55,15.06-77.82,18.65-116.71
					c1.84-19.89,3.28-39.82,4.24-59.77c0.63-13.09,1.32-26.31,0.75-39.42c-0.08-1.78-0.12-3.63-0.44-5.38
					c-1.19-6.4-5.18-9.85-10.06-13.69c-11.62-9.16-25.93-18.79-24.96-35.46C634.89,642.65,632.39,642.66,632.29,644.26
					L632.29,644.26z"/>
			</g>
		</g>
		<g>
			<g>
				<path class="st1" d="M753.38,632.49c0.4,8.11-2.54,15.51-8.41,21.13c-1.17,1.11,0.6,2.88,1.77,1.77
					c6.3-6.03,9.57-14.18,9.14-22.89C755.8,630.88,753.3,630.88,753.38,632.49L753.38,632.49z"/>
			</g>
		</g>
		<g>
			<g>
				<path class="st1" d="M735.69,622.43c-0.09,5.61-1.01,16.06-6.6,19.17c-1.41,0.78-0.15,2.94,1.26,2.16
					c6.58-3.66,7.73-14.64,7.83-21.33C738.22,620.82,735.72,620.82,735.69,622.43L735.69,622.43z"/>
			</g>
		</g>
	</g>
	<g>
		<g>
			<g>
				<path class="st1" d="M787.41,466.84c0,0,1.6-35.4-14.66-50.89c-14.94-14.23-3.64-41.22-7.75-50.69
					c-4.11-9.47-15.54-15.6-18.83-28.77c-3.29-13.17,3.89-19.91-2.93-29.36s-14.77-16.15-17.04-30.06
					c-2.27-13.91-19.22-34.71-19.22-34.71s23.38,17.32,32.2,21.45c8.81,4.13,9.48,12.59,16,21.09c6.53,8.5,14.25,6.82,18.08,18.04
					c3.83,11.23-4.83,15.92-0.36,23.19c4.47,7.27,11.01,4.49,13.99,14c2.98,9.51-7.94,10-3.72,17.46
					c4.21,7.45,11.17,6.32,8.65,23.29s7.35,19.53,6.76,33.94C798.11,426.35,787.41,466.84,787.41,466.84z"/>
			</g>
			<g>
				<path class="st1" d="M802.19,479.37c0,0,4.38-6.07,7.83-8.05c18.52-10.63,9.37-23.03,14.36-29.73
					c4.98-6.7,15.11-9.43,20.13-19.2s0.6-16.41,7.72-22.6s14.61-10.01,18.96-20.55c4.35-10.54,21.54-23.81,21.54-23.81
					s-21.62,9.34-29.32,10.98c-7.7,1.63-9.79,8.18-16.49,13.67c-6.71,5.5-12.48,2.75-17.57,10.89c-5.08,8.14,0.87,13.44-3.99,18.34
					c-4.86,4.9-9.5,1.51-13.6,8.45c-4.1,6.94,4.41,9.34-0.28,14.44c-4.69,5.1-9.96,2.92-11.11,16.76
					c-1.14,13.84-9.39,14.03-11.58,25.5c-0.22,1.15-0.54,4.91-0.54,4.91H802.19z"/>
			</g>
			<g>
				<path class="st1" d="M811.49,291.26c0,0,0.85-11.83-2.25-18.98c-3.1-7.14-6.93-11.31-7.02-17.03
					c-0.09-5.72-0.83-6.73-5.23-12.08c-4.41-5.35-5.99-13.43-6.86-21.2c-0.87-7.77-8.94-5.84-11.53-13.35s4.63-8.71,1.51-16.37
					c-3.12-7.66-8.66-11.23-9.91-23.49c-1.25-12.26,0.28-13.02,0.28-13.02s0.09,9.71,6.77,19.12s16.33,11.92,22.03,19.12
					s-0.92,10.28,2.21,14.3s7.01,1.59,9.76,8.75c2.75,7.16-2.11,14.67-0.19,18.74c1.92,4.08,7.1,7.48,6.96,12s-3.53,6.23-2.31,13.98
					c1.22,7.75-3.99,30.54-3.99,30.54"/>
			</g>
			<g>
				<path class="st1" d="M811.7,309.29c0,0,4.93-8.27,5.28-14.59c0.36-6.31-0.91-10.73,1.11-14.91c2.02-4.18,1.85-5.18,0.61-10.67
					c-1.25-5.49,0.55-11.92,2.75-17.88c2.2-5.95-4.36-7.49-3.5-13.89c0.86-6.4,6.54-4.63,7.06-11.33c0.53-6.7-2.19-11.3,1.37-20.65
					c3.56-9.35,4.95-9.34,4.95-9.34s-3.47,7.08-2.06,16.33c1.41,9.26,7.5,14.6,9.01,21.9c1.51,7.3-4.41,7.12-3.61,11.18
					c0.81,4.06,4.51,3.71,3.89,9.9s-6.87,9.87-6.97,13.53s2.43,8.02,0.68,11.24s-4.83,3.23-6.77,9.3
					c-1.94,6.07-14.02,20.7-14.02,20.7"/>
			</g>
			<g>
				<path class="st1" d="M811.06,339.52c0,0-1.28-9.54-4.93-14.71s-7.38-7.84-8.4-12.37c-1.02-4.53-1.77-5.21-6.16-8.73
					c-4.39-3.52-6.98-9.68-8.96-15.71c-1.98-6.03-8.07-3.16-11.38-8.7c-3.31-5.54,2.24-7.69-1.51-13.26
					c-3.75-5.57-8.74-7.49-11.77-17.02c-3.02-9.53-1.94-10.39-1.94-10.39s1.68,7.7,8.54,14.07c6.86,6.37,14.95,6.77,20.67,11.55
					c5.72,4.78,0.97,8.32,4.12,11c3.15,2.68,5.83,0.1,9.21,5.34s0.75,12,2.95,14.93s6.88,4.77,7.52,8.38s-1.78,5.54,0.48,11.49
					c2.25,5.96,1.88,24.93,1.88,24.93"/>
			</g>
			<g>
				<path class="st1" d="M782.79,480.7c-0.15,0-0.29-0.02-0.44-0.07c-0.79-0.24-1.24-1.08-1-1.87c0.2-0.67,20.53-67.62,25.84-107.1
					c4.03-30.02,3.68-69.55,3.52-88.56c-0.07-7.47-0.08-10.53,0.09-11.39c0.16-0.81,0.96-1.34,1.76-1.18
					c0.81,0.16,1.34,0.95,1.18,1.76c-0.12,0.71-0.08,5.37-0.03,10.78c0.17,19.07,0.52,58.75-3.54,88.98
					c-5.34,39.72-25.73,106.9-25.94,107.58C784.03,480.29,783.43,480.7,782.79,480.7z"/>
			</g>
			<g>
				<path class="st2" d="M812.6,574.24h-36.65c-15.55,0-28.16-12.61-28.16-28.16v-66.72h92.97v66.72
					C840.76,561.63,828.15,574.24,812.6,574.24z"/>
			</g>
		</g>
		<g>
			<g>
				<path class="st1" d="M749.24,496.73c2.02-0.31,3.18-1.75,5.23-1.89c2.37-0.16,3.33,1.23,5.28,2.36
					c2.68,1.56,5.12,1.54,8.05,0.63c1.85-0.57,3.59-1.53,5.48-2.01c3.11-0.78,4.85,0.91,7.47,2.02c3.97,1.68,7-1.66,11.38-0.06
					c2.61,0.95,2.68,1.33,5.63,0.6c2.87-0.71,5.04-0.34,7.8-0.01c0.8,0.1,1.55,0.14,2.31-0.08c1.66-0.47,1.84-1.11,3.81-1.14
					c1.73-0.03,1.46,0.19,2.69,0.29c2.03,0.16,4.03,0,6.08-0.12c5.82-0.36,11.72-1.02,17.52-0.19c1.57,0.22,2.25-2.18,0.66-2.41
					c-4.79-0.68-9.52-0.43-14.34-0.13c-3.72,0.23-7.27,0.73-10.94-0.17c-1.15-0.28-1.74-0.66-2.9-0.4c-0.93,0.22-0.8,0.55-1.82,0.93
					c-1.73,0.64-2.7,0.48-4.75,0c-1.33-0.31-2-0.65-3.35-0.43c-1.61,0.26-3.16,1.87-4.71,1.97c-1.88,0.12-3.54-2.38-5.43-2.7
					c-1.19-0.19-2.08,0.35-3.19,0.61c-1.9,0.45-1.07,0.63-3.9,0.61c-2.68-0.01-2.86-0.65-4.99-1.46c-2.81-1.08-5.43-0.29-8.14,0.72
					c-2.87,1.06-5.51,2.49-8.63,1.12c-1.73-0.76-3.01-2.32-4.78-3.04c-3.63-1.47-4.79,1.45-8.2,1.98
					C746.99,494.56,747.66,496.97,749.24,496.73L749.24,496.73z"/>
			</g>
		</g>
		<g>
			<g>
				<path class="st1" d="M749.34,510.05c5.31-6.19,8.11,3.24,13.28,2.96c5.16-0.28,5.77-6,11.64-2.8c2.66,1.45,3.74,2.66,6.97,1.53
					c1.52-0.53,2.2-1.2,3.97-1.15c2.02,0.06,2.08,0.74,3.68,1.45c1.19,0.53,2.1,0.6,3.35,0.2c0.77-0.25,1.39-1.15,2.1-1.36
					c2.19-0.64,3.9,0.38,5.81,0.84c1.15,0.28,2,0.64,3.24,0.4c0.69-0.13,1.23-0.59,1.89-0.74c6.84-1.57,2.56,0.59,5.68,0.73
					c1.59,0.08,1.88-0.27,3.32-0.46c0.35-0.25,0.7-0.51,1.05-0.76c1.27-0.14,2.46,0.03,3.57,0.51c0.52,0.06,1.08,0.52,1.64,0.46
					c1.59-0.19,1.49-0.71,2.93-1.11c1.99-0.56,3.38,0.52,5.24,0.64c3.32,0.2,7.04-0.62,10.35-0.93c1.59-0.15,1.6-2.65,0-2.5
					c-3.79,0.35-8.48,1.71-12.05,0.14c-1.73-0.76-1.05-0.93-2.95-0.89c-0.57,0.01-0.8,0.63-1.29,0.78
					c-1.27,0.38-2.89,0.62-4.22,0.53c-1.51-0.1-2.42-0.31-3.91-0.06c-1.17,0.63-2.45,0.88-3.85,0.77c-0.38-0.23-0.76-0.45-1.13-0.68
					c-0.61-0.07-1.19-0.53-1.84-0.57c-2.67-0.18-3.98,2.15-6.97,1.33c-1.4-0.38-2.38-1.65-3.92-1.81c-2.39-0.25-2.83,1.33-4.81,1.93
					c-2.44,0.73-4.06-1.63-6.31-1.84c-1.89-0.18-2.95,1.01-4.67,1.43c-5.06,1.23-7.35-4.29-12.2-2.25c-1.61,0.68-3.05,2.71-4.7,3.08
					c-3.64,0.81-4.79-2.28-7.36-3.65c-3.24-1.73-7.02-0.6-9.3,2.06C746.53,509.5,748.29,511.28,749.34,510.05L749.34,510.05z"/>
			</g>
		</g>
		<g>
			<g>
				<path class="st1" d="M791.74,477.58c-14.94,0.46-29.88,0.92-44.82,1.38c-0.67,0.02-1.25,0.56-1.25,1.25
					c0.06,18.59,0.12,37.18,0.19,55.77c0.03,7.21-0.18,14.85,3,21.52c2.95,6.19,8.34,10.58,13.84,14.43
					c1.32,0.92,2.57-1.24,1.26-2.16c-6.63-4.64-12.51-10.01-14.51-18.16c-1.86-7.55-1.1-15.89-1.12-23.6
					c-0.06-15.94-0.11-31.87-0.17-47.81c-0.42,0.42-0.83,0.83-1.25,1.25c14.94-0.46,29.88-0.92,44.82-1.38
					C793.35,480.03,793.35,477.53,791.74,477.58L791.74,477.58z"/>
			</g>
		</g>
		<g>
			<g>
				<path class="st1" d="M814.26,566.68c4.66,0.25,9.83-4.17,12.6-7.45c4.46-5.28,5.86-12.73,5.52-19.47c-0.08-1.6-2.58-1.61-2.5,0
					c0.3,5.91-0.75,12.51-4.48,17.28c-2.3,2.95-7.01,7.37-11.14,7.14C812.66,564.09,812.66,566.59,814.26,566.68L814.26,566.68z"/>
			</g>
		</g>
	</g>
</g>
</svg>
